<svg width="38" height="38" viewBox="0 0 38 38" fill="none" xmlns="http://www.w3.org/2000/svg">
<g clip-path="url(#clip0_1637_3716)">
<path d="M28.4466 0H9.55344C4.27722 0 0 4.27722 0 9.55344V28.4466C0 33.7228 4.27722 38 9.55344 38H28.4466C33.7228 38 38 33.7228 38 28.4466V9.55344C38 4.27722 33.7228 0 28.4466 0Z" fill="#294DA5"/>
<path d="M25.3178 23.1141H21.1616V37.9994H14.9688V23.1141H12V17.8535H14.9688V14.4513C14.9688 12.017 16.1206 8.20508 21.2091 8.20508H25.7928V13.3113H22.4678C22.2813 13.3021 22.0951 13.3345 21.9226 13.4062C21.7502 13.4778 21.5958 13.5869 21.4708 13.7256C21.3457 13.8643 21.2531 14.0291 21.1996 14.208C21.1462 14.3869 21.1331 14.5755 21.1616 14.7601V17.8594H25.8759L25.3178 23.1141Z" fill="white"/>
</g>
<defs>
<clipPath id="clip0_1637_3716">
<rect width="38" height="38" fill="white"/>
</clipPath>
</defs>
</svg>
