<svg width="66" height="66" viewBox="0 0 66 66" fill="none" xmlns="http://www.w3.org/2000/svg">
<rect width="66" height="66" rx="15" fill="#FB9100" fill-opacity="0.07"/>
<g clip-path="url(#clip0_1647_3)">
<path fill-rule="evenodd" clip-rule="evenodd" d="M18.5347 38.8225C18.3373 38.8225 18.1375 38.8159 17.9352 38.8026C17.808 38.7942 17.6893 38.7361 17.6053 38.6411C17.5213 38.5461 17.4789 38.4219 17.4874 38.2959C17.4959 38.1699 17.5546 38.0524 17.6505 37.9693C17.7465 37.8862 17.8719 37.8442 17.9992 37.8526C22.8567 38.1692 26.7728 33.971 26.8148 33.9294C26.9006 33.8359 27.0204 33.78 27.1479 33.774C27.2753 33.768 27.3999 33.8123 27.4943 33.8972C27.5887 33.9822 27.6452 34.1008 27.6513 34.227C27.6574 34.3531 27.6126 34.4765 27.5268 34.57C27.3614 34.7509 23.5576 38.8225 18.5347 38.8225ZM27.1704 48.0225C27.1034 48.0227 27.0371 48.0089 26.9759 47.9821C26.9146 47.9553 26.8598 47.916 26.8148 47.8669C26.7618 47.8099 22.8384 43.6279 17.9992 43.9428C17.8719 43.9512 17.7465 43.9092 17.6505 43.826C17.5546 43.7429 17.4959 43.6254 17.4874 43.4994C17.4789 43.3734 17.5213 43.2493 17.6053 43.1542C17.6893 43.0592 17.808 43.0011 17.9352 42.9927C23.2524 42.6462 27.3541 47.039 27.5259 47.2254C27.5889 47.2935 27.6304 47.3784 27.6455 47.4696C27.6606 47.5607 27.6486 47.6543 27.6109 47.7388C27.5732 47.8233 27.5115 47.8951 27.4333 47.9455C27.355 47.9959 27.2637 48.0226 27.1704 48.0225Z" fill="black"/>
<path fill-rule="evenodd" clip-rule="evenodd" d="M15.2245 53.0009C14.7519 53.0002 14.2989 52.8139 13.9648 52.483C13.6308 52.1521 13.4429 51.7035 13.4424 51.2356V44.4017C13.4424 44.3392 13.4548 44.2773 13.479 44.2196C13.5031 44.1618 13.5385 44.1094 13.5832 44.0652C13.6278 44.021 13.6808 43.9859 13.7391 43.962C13.7975 43.9381 13.86 43.9258 13.9231 43.9258C13.9862 43.9258 14.0487 43.9381 14.1071 43.962C14.1654 43.9859 14.2184 44.021 14.263 44.0652C14.3077 44.1094 14.3431 44.1618 14.3672 44.2196C14.3914 44.2773 14.4038 44.3392 14.4038 44.4017V51.2347C14.4038 51.4507 14.4905 51.6578 14.6447 51.8105C14.799 51.9633 15.0082 52.0491 15.2264 52.0491C15.4445 52.0491 15.6537 51.9633 15.808 51.8105C15.9622 51.6578 16.0489 51.4507 16.0489 51.2347V44.4026C16.0489 44.3401 16.0613 44.2782 16.0855 44.2205C16.1096 44.1627 16.145 44.1103 16.1897 44.0661C16.2343 44.0219 16.2873 43.9868 16.3456 43.9629C16.404 43.939 16.4665 43.9267 16.5296 43.9267C16.5927 43.9267 16.6552 43.939 16.7136 43.9629C16.7719 43.9868 16.8249 44.0219 16.8695 44.0661C16.9142 44.1103 16.9496 44.1627 16.9737 44.2205C16.9979 44.2782 17.0103 44.3401 17.0103 44.4026V51.2356C17.0098 51.7035 16.8219 52.1521 16.4879 52.483C16.1538 52.8139 15.7008 53.0002 15.2282 53.0009H15.2245Z" fill="black"/>
<path fill-rule="evenodd" clip-rule="evenodd" d="M27.6518 47.8974H29.4723V33.902H27.6518V47.8974ZM29.9531 48.8492H27.1702C27.0427 48.8492 26.9204 48.7991 26.8303 48.7098C26.7401 48.6206 26.6895 48.4995 26.6895 48.3733V33.426C26.6895 33.2997 26.7401 33.1786 26.8302 33.0892C26.9203 32.9998 27.0426 32.9495 27.1702 32.9492H29.9531C30.0163 32.9492 30.0788 32.9616 30.1372 32.9855C30.1956 33.0095 30.2486 33.0446 30.2933 33.0889C30.3379 33.1332 30.3733 33.1858 30.3974 33.2436C30.4215 33.3015 30.4339 33.3635 30.4338 33.426V48.3733C30.4339 48.4358 30.4215 48.4978 30.3974 48.5556C30.3733 48.6134 30.3379 48.6659 30.2932 48.7101C30.2486 48.7543 30.1955 48.7894 30.1372 48.8132C30.0788 48.8371 30.0162 48.8493 29.9531 48.8492Z" fill="#FB9100"/>
<path fill-rule="evenodd" clip-rule="evenodd" d="M13.2018 37.8755C13.1387 37.8762 13.0784 37.9011 13.0336 37.945C12.9887 37.9889 12.9629 38.0484 12.9614 38.1108V43.688C12.9626 43.7505 12.9884 43.8102 13.0333 43.8543C13.0781 43.8984 13.1386 43.9234 13.2018 43.9241H17.2468C17.3099 43.9234 17.3703 43.8983 17.415 43.8542C17.4597 43.8101 17.4853 43.7504 17.4862 43.688V38.1108C17.4853 38.0482 17.4598 37.9884 17.4151 37.9442C17.3704 37.8999 17.31 37.8747 17.2468 37.8737L13.2018 37.8755ZM17.2468 44.8787H13.2018C12.8833 44.8784 12.5779 44.7531 12.3526 44.5302C12.1273 44.3074 12.0005 44.0051 12 43.6898V38.1108C12.0002 37.7954 12.127 37.493 12.3523 37.27C12.5777 37.0471 12.8832 36.9219 13.2018 36.9219H17.2468C17.5652 36.9221 17.8705 37.0475 18.0957 37.2704C18.3208 37.4933 18.4474 37.7955 18.4477 38.1108V43.688C18.4477 44.0034 18.3212 44.306 18.0961 44.5293C17.8709 44.7525 17.5655 44.8782 17.2468 44.8787Z" fill="#FB9100"/>
<path fill-rule="evenodd" clip-rule="evenodd" d="M20.8654 16.6841C19.4387 16.6841 18.044 17.103 16.8577 17.8877C15.6715 18.6724 14.7469 19.7878 14.2009 21.0927C13.6549 22.3977 13.5121 23.8336 13.7904 25.2189C14.0688 26.6043 14.7558 27.8768 15.7646 28.8755C16.7734 29.8743 18.0588 30.5545 19.4581 30.83C20.8574 31.1056 22.3078 30.9642 23.6259 30.4236C24.944 29.8831 26.0706 28.9678 26.8632 27.7933C27.6558 26.6189 28.0789 25.2382 28.0789 23.8257C28.0772 21.9321 27.3167 20.1166 25.9642 18.7777C24.6118 17.4388 22.778 16.6858 20.8654 16.6841ZM20.8654 31.9191C19.2483 31.9191 17.6675 31.4444 16.323 30.5549C14.9784 29.6655 13.9305 28.4012 13.3117 26.9221C12.6929 25.443 12.5311 23.8155 12.8466 22.2453C13.1622 20.6752 13.9409 19.2329 15.0844 18.1009C16.228 16.9689 17.6849 16.1981 19.2709 15.8859C20.8569 15.5737 22.5008 15.7341 23.9948 16.3469C25.4887 16.9597 26.7656 17.9973 27.6638 19.3285C28.5621 20.6597 29.0415 22.2248 29.0413 23.8257C29.0389 25.9716 28.1767 28.029 26.6439 29.5463C25.1111 31.0636 23.0329 31.917 20.8654 31.9191Z" fill="black"/>
<path fill-rule="evenodd" clip-rule="evenodd" d="M18.8413 20.8884V26.7569L23.9748 23.8226L18.8413 20.8884ZM18.3606 28.058C18.2332 28.0577 18.1111 28.0075 18.021 27.9183C17.9309 27.8291 17.8801 27.7082 17.8799 27.5821V20.0632C17.8796 19.9795 17.9017 19.8973 17.9438 19.8248C17.9859 19.7522 18.0465 19.692 18.1197 19.65C18.1928 19.6081 18.2758 19.586 18.3603 19.5859C18.4448 19.5859 18.5278 19.6079 18.601 19.6497L25.1812 23.4082C25.2542 23.4501 25.3149 23.5103 25.357 23.5827C25.3992 23.6551 25.4214 23.7372 25.4214 23.8208C25.4214 23.9044 25.3992 23.9865 25.357 24.0589C25.3149 24.1313 25.2542 24.1915 25.1812 24.2334L18.601 27.9919C18.5279 28.0338 18.445 28.056 18.3606 28.0562V28.058Z" fill="#FB9100"/>
<path fill-rule="evenodd" clip-rule="evenodd" d="M37.0084 12.9558C35.8055 12.9558 34.6296 13.3089 33.6294 13.9706C32.6292 14.6322 31.8496 15.5726 31.3893 16.6729C30.9289 17.7732 30.8085 18.9839 31.0432 20.1519C31.2778 21.3199 31.8571 22.3929 32.7077 23.235C33.5583 24.0771 34.642 24.6506 35.8218 24.8829C37.0017 25.1152 38.2246 24.996 39.3359 24.5403C40.4473 24.0845 41.3972 23.3127 42.0655 22.3225C42.7338 21.3323 43.0905 20.1681 43.0905 18.9772C43.0886 17.3808 42.4472 15.8503 41.307 14.7215C40.1668 13.5927 38.6209 12.9577 37.0084 12.9558ZM37.0084 25.9505C35.6153 25.9505 34.2535 25.5415 33.0952 24.7753C31.9369 24.009 31.0341 22.9199 30.501 21.6457C29.9679 20.3715 29.8284 18.9694 30.1002 17.6168C30.372 16.2641 31.0428 15.0216 32.0279 14.0463C33.0129 13.0711 34.268 12.407 35.6343 12.1379C37.0006 11.8688 38.4168 12.0069 39.7039 12.5347C40.9909 13.0625 42.091 13.9563 42.8649 15.103C43.6389 16.2498 44.052 17.598 44.052 18.9772C44.0498 20.826 43.307 22.5984 41.9866 23.9057C40.6661 25.2129 38.8758 25.9483 37.0084 25.9505Z" fill="black"/>
<path fill-rule="evenodd" clip-rule="evenodd" d="M37.0081 17.0192C36.6181 17.0192 36.2368 17.1337 35.9124 17.3482C35.5881 17.5628 35.3353 17.8677 35.186 18.2245C35.0368 18.5813 34.9977 18.9739 35.0738 19.3526C35.1499 19.7314 35.3377 20.0793 35.6136 20.3524C35.8894 20.6254 36.2408 20.8114 36.6234 20.8867C37.006 20.9621 37.4025 20.9234 37.7629 20.7756C38.1233 20.6279 38.4313 20.3776 38.648 20.0565C38.8647 19.7354 38.9804 19.3579 38.9804 18.9717C38.9799 18.454 38.772 17.9576 38.4022 17.5916C38.0324 17.2255 37.5311 17.0196 37.0081 17.0192ZM37.0081 21.8752C36.428 21.8745 35.8612 21.7035 35.3792 21.3839C34.8972 21.0643 34.5218 20.6104 34.3003 20.0796C34.0788 19.5487 34.0213 18.9648 34.135 18.4016C34.2487 17.8385 34.5285 17.3213 34.939 16.9155C35.3495 16.5097 35.8723 16.2335 36.4414 16.1218C37.0104 16.0102 37.6001 16.068 38.1359 16.2881C38.6718 16.5082 39.1297 16.8806 39.4518 17.3582C39.7738 17.8359 39.9457 18.3974 39.9455 18.9717C39.9445 19.7416 39.6351 20.4797 39.0851 21.0241C38.5351 21.5684 37.7895 21.8745 37.0118 21.8752H37.0081Z" fill="black"/>
<path fill-rule="evenodd" clip-rule="evenodd" d="M46.723 36.9616H47.9358V35.7148C47.9354 35.6083 47.9713 35.5047 48.0376 35.4209C48.1039 35.337 48.1968 35.2777 48.3014 35.2524C48.7084 35.1538 49.0977 34.9939 49.4556 34.7783C49.5476 34.7229 49.6558 34.6997 49.7627 34.7125C49.8697 34.7253 49.9691 34.7734 50.0451 34.8489L50.9353 35.7311L51.7934 34.8815L50.9033 34.0002C50.827 33.9247 50.7786 33.8261 50.7656 33.7202C50.7527 33.6142 50.7761 33.507 50.832 33.4157C51.05 33.0619 51.2113 32.6767 51.31 32.2739C51.3359 32.1704 51.3961 32.0786 51.4809 32.013C51.5657 31.9474 51.6703 31.9118 51.7779 31.9119H53.0373V30.7095H51.7788C51.6711 30.7097 51.5665 30.6742 51.4817 30.6086C51.3968 30.543 51.3367 30.451 51.3109 30.3475C51.2122 29.9447 51.0509 29.5595 50.8329 29.2057C50.7768 29.1145 50.7534 29.0072 50.7663 28.9012C50.7792 28.7952 50.8278 28.6966 50.9042 28.6212L51.7944 27.7399L50.9371 26.8876L50.046 27.7698C49.9699 27.8452 49.8704 27.8931 49.7635 27.9057C49.6566 27.9183 49.5485 27.895 49.4566 27.8394C49.0985 27.6241 48.7092 27.4645 48.3023 27.3662C48.1977 27.341 48.1048 27.2817 48.0385 27.1978C47.9722 27.1139 47.9363 27.0104 47.9367 26.9039V25.6589H46.723V26.9057C46.7232 27.0122 46.6873 27.1156 46.621 27.1995C46.5547 27.2833 46.4619 27.3427 46.3575 27.368C45.9507 27.4661 45.5617 27.6257 45.2041 27.8413C45.1121 27.897 45.0038 27.9205 44.8967 27.9079C44.7896 27.8952 44.6899 27.8472 44.6137 27.7716L43.7217 26.8876L42.8645 27.7372L43.7546 28.6185C43.831 28.6939 43.8796 28.7925 43.8925 28.8985C43.9054 29.0045 43.882 29.1118 43.8259 29.203C43.608 29.557 43.4465 29.9421 43.347 30.3448C43.3214 30.4482 43.2614 30.5401 43.1768 30.6058C43.0921 30.6714 42.9876 30.707 42.88 30.7067H41.6206V31.9074H42.8809C42.9883 31.9074 43.0926 31.943 43.1771 32.0087C43.2616 32.0743 43.3214 32.1661 43.347 32.2693C43.4468 32.6719 43.6083 33.057 43.8259 33.4112C43.8819 33.5023 43.9053 33.6094 43.8924 33.7152C43.8795 33.8211 43.8309 33.9195 43.7546 33.9948L42.8645 34.877L43.7217 35.7266L44.6119 34.8444C44.688 34.7688 44.7877 34.7207 44.8949 34.7081C45.002 34.6955 45.1103 34.7189 45.2023 34.7747C45.56 34.99 45.949 35.1496 46.3556 35.2479C46.4601 35.2733 46.5529 35.3326 46.6192 35.4165C46.6855 35.5003 46.7214 35.6038 46.7212 35.7103V36.9571L46.723 36.9616ZM48.4165 37.9135H46.2423C46.1791 37.9136 46.1165 37.9014 46.0581 37.8775C45.9996 37.8536 45.9465 37.8186 45.9018 37.7744C45.8571 37.7302 45.8216 37.6777 45.7973 37.6199C45.7731 37.5621 45.7607 37.5001 45.7607 37.4375V36.074C45.5117 35.9935 45.2694 35.8939 45.0359 35.7763L44.058 36.7408C43.9678 36.8299 43.8455 36.8799 43.7181 36.8799C43.5906 36.8799 43.4684 36.8299 43.3781 36.7408L41.84 35.2181C41.7504 35.1285 41.7002 35.0075 41.7002 34.8815C41.7002 34.7555 41.7504 34.6345 41.84 34.5449L42.8179 33.5831C42.6992 33.3519 42.5987 33.112 42.5172 32.8656H41.1399C41.0123 32.8654 40.8901 32.815 40.7999 32.7256C40.7098 32.6362 40.6592 32.5151 40.6592 32.3888V30.2353C40.6594 30.1092 40.7101 29.9883 40.8002 29.8991C40.8903 29.8099 41.0125 29.7597 41.1399 29.7594H42.5172C42.5985 29.5126 42.699 29.2724 42.8179 29.041L41.8436 28.0774C41.7536 27.9879 41.7031 27.8667 41.7031 27.7404C41.7031 27.614 41.7536 27.4929 41.8436 27.4033L43.3817 25.8815C43.4264 25.8373 43.4794 25.8022 43.5377 25.7783C43.5961 25.7543 43.6586 25.742 43.7217 25.742C43.7849 25.742 43.8474 25.7543 43.9057 25.7783C43.9641 25.8022 44.0171 25.8373 44.0617 25.8815L45.0359 26.846C45.2694 26.7285 45.5117 26.629 45.7607 26.5483V25.183C45.7607 25.1204 45.7731 25.0584 45.7973 25.0006C45.8216 24.9428 45.8571 24.8903 45.9018 24.8461C45.9465 24.8019 45.9996 24.7669 46.0581 24.743C46.1165 24.7191 46.1791 24.7069 46.2423 24.707H48.4165C48.4797 24.7069 48.5422 24.7191 48.6006 24.743C48.659 24.7669 48.712 24.8019 48.7567 24.8462C48.8014 24.8904 48.8368 24.9429 48.8609 25.0007C48.885 25.0585 48.8974 25.1204 48.8972 25.183V26.5465C49.1466 26.6261 49.389 26.7256 49.622 26.8442L50.5962 25.8797C50.6409 25.8353 50.6939 25.8001 50.7523 25.7761C50.8108 25.7521 50.8734 25.7397 50.9366 25.7397C50.9999 25.7397 51.0625 25.7521 51.1209 25.7761C51.1794 25.8001 51.2324 25.8353 51.2771 25.8797L52.8152 27.4015C52.9048 27.4913 52.955 27.6124 52.955 27.7386C52.955 27.8647 52.9048 27.9858 52.8152 28.0756L51.841 29.0392C51.9599 29.2705 52.0601 29.5107 52.1407 29.7576H53.5189C53.6463 29.7579 53.7685 29.8081 53.8586 29.8973C53.9487 29.9865 53.9994 30.1074 53.9996 30.2335V32.3861C53.9996 32.5124 53.949 32.6335 53.8589 32.7229C53.7688 32.8123 53.6465 32.8626 53.5189 32.8629H52.1407C52.0601 33.1095 51.9599 33.3494 51.841 33.5804L52.8143 34.5449C52.9042 34.6343 52.9548 34.7553 52.9548 34.8815C52.9548 35.0077 52.9042 35.1287 52.8143 35.2181L51.278 36.7408C51.1876 36.83 51.0652 36.88 50.9376 36.88C50.81 36.88 50.6876 36.83 50.5971 36.7408L49.6229 35.7763C49.3895 35.8941 49.1472 35.9936 48.8981 36.074V37.4375C48.8981 37.5638 48.8475 37.6848 48.7573 37.7741C48.6672 37.8633 48.5449 37.9135 48.4174 37.9135H48.4165Z" fill="black"/>
<path fill-rule="evenodd" clip-rule="evenodd" d="M47.3296 29.7175C47.0111 29.7175 46.6998 29.811 46.435 29.9862C46.1702 30.1613 45.9638 30.4103 45.8419 30.7016C45.72 30.9929 45.6881 31.3135 45.7503 31.6227C45.8124 31.932 45.9658 32.2161 46.191 32.439C46.4162 32.662 46.7031 32.8138 47.0155 32.8753C47.3279 32.9369 47.6516 32.9053 47.9459 32.7846C48.2401 32.664 48.4916 32.4596 48.6686 32.1974C48.8455 31.9353 48.94 31.627 48.94 31.3117C48.9397 30.889 48.77 30.4836 48.468 30.1847C48.1661 29.8858 47.7567 29.7177 47.3296 29.7175ZM47.3296 33.8578C46.821 33.8576 46.3239 33.7082 45.9011 33.4283C45.4783 33.1484 45.1488 32.7507 44.9543 32.2855C44.7598 31.8202 44.709 31.3083 44.8083 30.8145C44.9077 30.3206 45.1527 29.867 45.5124 29.511C45.8721 29.1551 46.3303 28.9127 46.8292 28.8145C47.328 28.7163 47.8451 28.7668 48.3149 28.9595C48.7848 29.1523 49.1864 29.4786 49.469 29.8973C49.7515 30.316 49.9023 30.8082 49.9023 31.3117C49.9011 31.9866 49.6296 32.6335 49.1473 33.1104C48.665 33.5874 48.0113 33.8555 47.3296 33.856V33.8578Z" fill="#FB9100"/>
<path fill-rule="evenodd" clip-rule="evenodd" d="M43.4698 40.7223C42.3386 40.7221 41.2327 41.0541 40.292 41.6762C39.3513 42.2983 38.6181 43.1826 38.1851 44.2173C37.7521 45.2519 37.6388 46.3905 37.8594 47.4889C38.0801 48.5874 38.6248 49.5964 39.4247 50.3883C40.2246 51.1802 41.2438 51.7195 42.3533 51.938C43.4629 52.1564 44.6129 52.0442 45.658 51.6155C46.7031 51.1869 47.5963 50.461 48.2247 49.5297C48.8531 48.5984 49.1884 47.5036 49.1882 46.3836C49.1865 44.8826 48.5835 43.4436 47.5114 42.3823C46.4394 41.321 44.9859 40.724 43.4698 40.7223ZM43.4698 52.9977C42.1485 52.9977 40.8568 52.6098 39.7582 51.883C38.6595 51.1562 37.8033 50.1233 37.2976 48.9147C36.792 47.7061 36.6597 46.3763 36.9174 45.0933C37.1752 43.8103 37.8115 42.6317 38.7458 41.7067C39.6801 40.7818 40.8705 40.1518 42.1665 39.8966C43.4624 39.6414 44.8057 39.7724 46.0264 40.273C47.2472 40.7736 48.2905 41.6213 49.0246 42.709C49.7587 43.7967 50.1505 45.0755 50.1505 46.3836C50.1488 48.1372 49.4444 49.8186 48.1919 51.0586C46.9394 52.2986 45.2411 52.996 43.4698 52.9977Z" fill="#FB9100"/>
<path fill-rule="evenodd" clip-rule="evenodd" d="M42.0619 44.0738C41.8161 44.0738 41.5802 44.1705 41.4063 44.3425C41.2324 44.5145 41.1345 44.7479 41.1343 44.9913C41.1343 46.0861 42.2694 47.304 43.4694 48.5001C44.6693 47.304 45.8053 46.0861 45.8053 44.9913C45.8048 44.7486 45.7074 44.5159 45.5343 44.344C45.3612 44.1722 45.1265 44.075 44.8814 44.0738C44.4783 44.0738 44.2416 44.1869 43.9025 44.8556C43.8629 44.9349 43.8016 45.0017 43.7256 45.0484C43.6496 45.0951 43.562 45.1199 43.4725 45.1199C43.3831 45.1199 43.2955 45.0951 43.2195 45.0484C43.1435 45.0017 43.0822 44.9349 43.0426 44.8556C42.7044 44.1869 42.4677 44.0738 42.0647 44.0738H42.0619ZM43.4703 49.651C43.3427 49.6506 43.2204 49.6002 43.1303 49.5108C41.6762 48.0721 40.1729 46.5838 40.1729 44.9913C40.1736 44.4955 40.3728 44.0202 40.7269 43.6697C41.0811 43.3191 41.5611 43.1218 42.0619 43.1211C42.73 43.1211 43.1586 43.3835 43.4703 43.7545C43.7828 43.3862 44.2105 43.1211 44.8786 43.1211C45.3794 43.1218 45.8595 43.3191 46.2136 43.6697C46.5677 44.0202 46.767 44.4955 46.7677 44.9913C46.7677 46.5838 45.2643 48.0721 43.8102 49.5108C43.7201 49.6002 43.5979 49.6506 43.4703 49.651Z" fill="black"/>
<path fill-rule="evenodd" clip-rule="evenodd" d="M38.3166 29.444H32.9739C32.8464 29.444 32.7241 29.3939 32.634 29.3046C32.5438 29.2154 32.4932 29.0943 32.4932 28.9681C32.4932 28.8419 32.5438 28.7208 32.634 28.6316C32.7241 28.5423 32.8464 28.4922 32.9739 28.4922H38.3166C38.4441 28.4922 38.5664 28.5423 38.6566 28.6316C38.7467 28.7208 38.7974 28.8419 38.7974 28.9681C38.7974 29.0943 38.7467 29.2154 38.6566 29.3046C38.5664 29.3939 38.4441 29.444 38.3166 29.444Z" fill="black"/>
<path fill-rule="evenodd" clip-rule="evenodd" d="M38.3166 32.4362H32.9739C32.8464 32.4362 32.7241 32.3861 32.634 32.2968C32.5438 32.2076 32.4932 32.0865 32.4932 31.9603C32.4932 31.8341 32.5438 31.713 32.634 31.6238C32.7241 31.5345 32.8464 31.4844 32.9739 31.4844H38.3166C38.4441 31.4844 38.5664 31.5345 38.6566 31.6238C38.7467 31.713 38.7974 31.8341 38.7974 31.9603C38.7974 32.0865 38.7467 32.2076 38.6566 32.2968C38.5664 32.3861 38.4441 32.4362 38.3166 32.4362Z" fill="#FB9100"/>
<path fill-rule="evenodd" clip-rule="evenodd" d="M38.3166 35.4245H32.9739C32.8464 35.4245 32.7241 35.3744 32.634 35.2851C32.5438 35.1959 32.4932 35.0748 32.4932 34.9486C32.4932 34.8224 32.5438 34.7013 32.634 34.6121C32.7241 34.5228 32.8464 34.4727 32.9739 34.4727H38.3166C38.4441 34.4727 38.5664 34.5228 38.6566 34.6121C38.7467 34.7013 38.7974 34.8224 38.7974 34.9486C38.7974 35.0748 38.7467 35.1959 38.6566 35.2851C38.5664 35.3744 38.4441 35.4245 38.3166 35.4245Z" fill="#FB9100"/>
<path fill-rule="evenodd" clip-rule="evenodd" d="M38.3161 38.4137H32.9734C32.8494 38.4083 32.7323 38.3558 32.6464 38.2671C32.5606 38.1783 32.5127 38.0602 32.5127 37.9373C32.5127 37.8144 32.5606 37.6963 32.6464 37.6076C32.7323 37.5188 32.8494 37.4663 32.9734 37.4609H38.3161C38.4401 37.4663 38.5572 37.5188 38.643 37.6076C38.7289 37.6963 38.7768 37.8144 38.7768 37.9373C38.7768 38.0602 38.7289 38.1783 38.643 38.2671C38.5572 38.3558 38.4401 38.4083 38.3161 38.4137Z" fill="black"/>
</g>
<defs>
<clipPath id="clip0_1647_3">
<rect width="42" height="41" fill="white" transform="translate(12 12)"/>
</clipPath>
</defs>
</svg>
