<svg width="57" height="48" viewBox="0 0 57 48" fill="none" xmlns="http://www.w3.org/2000/svg">
<g clip-path="url(#clip0_1637_1692)">
<path d="M19.0042 35.0186H14.3354C13.7673 35.0186 13.2225 34.7945 12.8207 34.3955C12.419 33.9966 12.1934 33.4555 12.1934 32.8913V18.8187C12.1934 18.2545 12.419 17.7134 12.8207 17.3145C13.2225 16.9155 13.7673 16.6914 14.3354 16.6914H19.0042C19.2227 16.6914 19.4323 16.7776 19.5868 16.931C19.7413 17.0845 19.8281 17.2926 19.8281 17.5096C19.8281 17.7266 19.7413 17.9347 19.5868 18.0881C19.4323 18.2416 19.2227 18.3278 19.0042 18.3278H14.3354C14.2043 18.3278 14.0786 18.3795 13.9859 18.4715C13.8932 18.5636 13.8411 18.6885 13.8411 18.8187V32.8913C13.8411 33.0215 13.8932 33.1464 13.9859 33.2384C14.0786 33.3305 14.2043 33.3822 14.3354 33.3822H19.0042C19.2227 33.3822 19.4323 33.4684 19.5868 33.6219C19.7413 33.7753 19.8281 33.9834 19.8281 34.2004C19.8281 34.4174 19.7413 34.6255 19.5868 34.7789C19.4323 34.9324 19.2227 35.0186 19.0042 35.0186Z" fill="black"/>
<path d="M47.9537 36.9823H31.2912C30.1991 36.9811 29.126 36.6992 28.1761 36.1642L26.5622 35.2552C26.3721 35.1482 26.2326 34.9706 26.1743 34.7615C26.1161 34.5523 26.1439 34.3288 26.2516 34.14C26.3593 33.9512 26.5382 33.8127 26.7487 33.7548C26.9593 33.697 27.1844 33.7246 27.3745 33.8315L28.9885 34.7405C29.6921 35.136 30.4868 35.3438 31.2953 35.3435H47.9578C48.2707 35.3414 48.57 35.216 48.7899 34.995C48.8908 34.8954 48.9706 34.7768 49.0245 34.6461C49.0784 34.5154 49.1054 34.3753 49.1038 34.2341C49.0972 33.9488 48.9787 33.6773 48.7736 33.4775C48.5685 33.2776 48.293 33.1651 48.0056 33.1639C47.7871 33.1639 47.5776 33.0777 47.4231 32.9243C47.2686 32.7708 47.1818 32.5627 47.1818 32.3457C47.1818 32.1287 47.2686 31.9206 47.4231 31.7672C47.5776 31.6137 47.7871 31.5275 48.0056 31.5275H50.9122C51.8184 31.5275 52.5871 30.8206 52.6184 29.9517C52.6272 29.7316 52.5908 29.512 52.5115 29.3062C52.4322 29.1004 52.3116 28.9128 52.157 28.7547C52.0039 28.596 51.8198 28.4697 51.616 28.3838C51.4122 28.2979 51.1929 28.254 50.9715 28.2548C50.753 28.2548 50.5435 28.1686 50.389 28.0152C50.2345 27.8618 50.1477 27.6537 50.1477 27.4367C50.1477 27.2197 50.2345 27.0116 50.389 26.8581C50.5435 26.7047 50.753 26.6185 50.9715 26.6185H52.8895C53.7957 26.6185 54.5644 25.9116 54.5957 25.0427C54.6045 24.8225 54.5681 24.6029 54.4888 24.3971C54.4095 24.1914 54.2889 24.0037 54.1343 23.8457C53.9812 23.6869 53.7971 23.5607 53.5933 23.4747C53.3895 23.3888 53.1702 23.3449 52.9488 23.3458H50.9715C50.753 23.3458 50.5435 23.2596 50.389 23.1061C50.2345 22.9527 50.1477 22.7446 50.1477 22.5276C50.1477 22.3106 50.2345 22.1025 50.389 21.9491C50.5435 21.7956 50.753 21.7094 50.9715 21.7094C51.1929 21.7103 51.4122 21.6664 51.616 21.5805C51.8198 21.4945 52.0039 21.3683 52.157 21.2095C52.3116 21.0515 52.4322 20.8638 52.5115 20.6581C52.5908 20.4523 52.6272 20.2327 52.6184 20.0125C52.5871 19.1436 51.8217 18.4367 50.9122 18.4367H44.1129C43.7489 18.4365 43.3998 18.2928 43.1423 18.0373C42.8848 17.7817 42.7399 17.4352 42.7395 17.0736L42.7329 7.09187C42.7325 6.51328 42.5008 5.95851 42.0889 5.54938C41.6769 5.14026 41.1183 4.91023 40.5357 4.90979C39.9534 4.91044 39.3951 5.14046 38.9833 5.54938C38.5715 5.95831 38.3399 6.51274 38.3393 7.09105V9.66095C38.3423 10.7174 38.0753 11.7574 37.5634 12.6835C37.0514 13.6096 36.3112 14.3915 35.4121 14.9562L30.9122 17.7969C30.2516 18.2151 29.4844 18.4371 28.7009 18.4367H26.9708C26.7523 18.4367 26.5428 18.3505 26.3883 18.1971C26.2338 18.0436 26.147 17.8355 26.147 17.6185C26.147 17.4015 26.2338 17.1934 26.3883 17.04C26.5428 16.8866 26.7523 16.8004 26.9708 16.8004H28.7009C29.1709 16.8006 29.6311 16.6675 30.0274 16.4166L34.5281 13.5727C35.1922 13.1555 35.739 12.5778 36.1172 11.8937C36.4954 11.2096 36.6928 10.4414 36.6907 9.66095V7.09105C36.6918 6.07889 37.0972 5.10849 37.8179 4.39278C38.5385 3.67708 39.5157 3.27452 40.5349 3.27344C41.5542 3.2743 42.5315 3.67677 43.2524 4.3925C43.9733 5.10823 44.3787 6.07875 44.3798 7.09105L44.3864 16.8004H50.9114C52.6975 16.8004 54.2019 18.215 54.2637 19.9544C54.2897 20.6087 54.116 21.2556 53.7652 21.8101C54.358 21.9597 54.8966 22.2715 55.3198 22.7101C55.6283 23.026 55.869 23.4009 56.0272 23.812C56.1854 24.2231 56.2578 24.6618 56.2401 25.1016C56.189 26.5498 55.1378 27.7729 53.7562 28.1419C54.1125 28.6992 54.2893 29.3511 54.2628 30.0106C54.201 31.7501 52.6975 33.1647 50.9105 33.1647H50.52C50.666 33.4924 50.7447 33.8456 50.7515 34.2038C50.7579 34.5626 50.6916 34.9189 50.5566 35.2518C50.4216 35.5846 50.2206 35.8871 49.9656 36.1412C49.7029 36.4066 49.3899 36.6176 49.0445 36.762C48.6992 36.9064 48.3284 36.9813 47.9537 36.9823Z" fill="black"/>
<path d="M50.9695 23.3434H46.4655C46.247 23.3434 46.0374 23.2572 45.8829 23.1038C45.7284 22.9503 45.6416 22.7422 45.6416 22.5252C45.6416 22.3082 45.7284 22.1001 45.8829 21.9467C46.0374 21.7932 46.247 21.707 46.4655 21.707H50.9695C51.188 21.707 51.3976 21.7932 51.5521 21.9467C51.7066 22.1001 51.7934 22.3082 51.7934 22.5252C51.7934 22.7422 51.7066 22.9503 51.5521 23.1038C51.3976 23.2572 51.188 23.3434 50.9695 23.3434Z" fill="black"/>
<path d="M50.9695 28.2535H46.4655C46.247 28.2535 46.0374 28.1673 45.8829 28.0139C45.7284 27.8605 45.6416 27.6524 45.6416 27.4354C45.6416 27.2184 45.7284 27.0103 45.8829 26.8568C46.0374 26.7034 46.247 26.6172 46.4655 26.6172H50.9695C51.188 26.6172 51.3976 26.7034 51.5521 26.8568C51.7066 27.0103 51.7934 27.2184 51.7934 27.4354C51.7934 27.6524 51.7066 27.8605 51.5521 28.0139C51.3976 28.1673 51.188 28.2535 50.9695 28.2535Z" fill="black"/>
<path d="M47.894 33.1637H46.4655C46.247 33.1637 46.0374 33.0775 45.8829 32.9241C45.7284 32.7706 45.6416 32.5625 45.6416 32.3455C45.6416 32.1285 45.7284 31.9204 45.8829 31.767C46.0374 31.6135 46.247 31.5273 46.4655 31.5273H47.894C48.1125 31.5273 48.3221 31.6135 48.4766 31.767C48.6311 31.9204 48.7179 32.1285 48.7179 32.3455C48.7179 32.5625 48.6311 32.7706 48.4766 32.9241C48.3221 33.0775 48.1125 33.1637 47.894 33.1637Z" fill="black"/>
<path d="M19.1136 47.9992C16.6032 48.0055 14.1165 47.5174 11.7974 46.5631C9.47817 45.6088 7.37255 44.2073 5.60229 42.4397C3.82177 40.6819 2.40987 38.5909 1.44826 36.2877C0.486656 33.9845 -0.00557586 31.5149 4.76452e-05 29.0216V12.658C0.000484069 12.2965 0.145349 11.9499 0.402836 11.6944C0.660322 11.4388 1.00939 11.2952 1.37343 11.2949H1.59339C3.99604 11.2921 6.29946 10.343 7.99838 8.6558C9.69731 6.96859 10.653 4.68106 10.6558 2.29499V1.36308C10.6561 1.00164 10.8007 0.655059 11.0581 0.399478C11.3155 0.143897 11.6644 0.000216759 12.0284 0H26.1988C26.5628 0.000216479 26.9119 0.143871 27.1694 0.399428C27.4269 0.654985 27.5717 1.00156 27.5722 1.36308V2.54535C27.575 4.93142 28.5307 7.21896 30.2296 8.90616C31.9285 10.5934 34.232 11.5425 36.6346 11.5453C36.8531 11.5453 37.0627 11.6315 37.2172 11.7849C37.3717 11.9384 37.4585 12.1465 37.4585 12.3635C37.4585 12.5805 37.3717 12.7886 37.2172 12.942C37.0627 13.0955 36.8531 13.1817 36.6346 13.1817C30.7292 13.1817 25.9244 8.41004 25.9244 2.54535V1.63635H12.3036V2.2909C12.3036 8.13759 7.52518 12.8969 1.64777 12.9272V29.0175C1.64777 38.582 9.4835 46.3628 19.1136 46.3628C22.5314 46.3651 25.8747 45.3709 28.7288 43.5036C31.5829 41.6362 33.8222 38.9779 35.169 35.8582C35.2117 35.7595 35.2736 35.6701 35.3511 35.595C35.4286 35.52 35.5203 35.461 35.6208 35.4211C35.7213 35.3813 35.8288 35.3616 35.937 35.363C36.0452 35.3645 36.1521 35.3871 36.2515 35.4295C36.4522 35.5152 36.6103 35.6765 36.6913 35.8779C36.7722 36.0794 36.7693 36.3045 36.6832 36.5038C35.2093 39.9175 32.7588 42.8265 29.6355 44.87C26.5123 46.9135 22.8537 48.0015 19.1136 47.9992Z" fill="black"/>
<path d="M19.0596 44.7273C10.3679 44.7273 3.2959 37.7049 3.2959 29.0732V14.7281C3.2959 14.5111 3.3827 14.3029 3.5372 14.1495C3.69171 13.9961 3.90126 13.9099 4.11976 13.9099C6.66333 13.9071 9.10192 12.9023 10.9005 11.1162C12.6991 9.33 13.7108 6.90823 13.7136 4.3822V4.03693C13.7136 3.81993 13.8004 3.61183 13.9549 3.45839C14.1094 3.30495 14.319 3.21875 14.5375 3.21875H19.0596C19.2781 3.21875 19.4877 3.30495 19.6422 3.45839C19.7967 3.61183 19.8835 3.81993 19.8835 4.03693V12.0551C19.8835 12.2721 19.7967 12.4802 19.6422 12.6336C19.4877 12.787 19.2781 12.8732 19.0596 12.8732C18.8411 12.8732 18.6316 12.787 18.4771 12.6336C18.3226 12.4802 18.2358 12.2721 18.2358 12.0551V4.8551H15.3523C15.2322 7.58926 14.1064 10.1847 12.1882 12.1496C10.2699 14.1145 7.69256 15.3122 4.94444 15.516V29.0732C4.94444 36.5284 10.835 42.6426 18.2366 43.0681V33.6549C18.2366 33.4379 18.3234 33.2298 18.4779 33.0764C18.6324 32.923 18.842 32.8368 19.0605 32.8368C19.279 32.8368 19.4885 32.923 19.643 33.0764C19.7975 33.2298 19.8843 33.4379 19.8843 33.6549V43.9092C19.8843 44.0167 19.863 44.1231 19.8215 44.2224C19.7801 44.3218 19.7193 44.412 19.6427 44.488C19.5661 44.564 19.4752 44.6242 19.3752 44.6653C19.2751 44.7064 19.1679 44.7274 19.0596 44.7273Z" fill="#FB9100"/>
</g>
<path d="M25.3205 36.6507H20.487C19.8899 36.65 19.3174 36.4141 18.8953 35.9947C18.4731 35.5753 18.2358 35.0067 18.2354 34.4138V17.5053C18.2354 16.8543 18.4957 16.23 18.9593 15.7697C19.4228 15.3094 20.0514 15.0508 20.7069 15.0508H25.3205C25.976 15.0508 26.6047 15.3094 27.0682 15.7697C27.5317 16.23 27.7921 16.8543 27.7921 17.5053V28.3961C27.7921 28.6131 27.7053 28.8212 27.5508 28.9746C27.3963 29.128 27.1868 29.2142 26.9683 29.2142C26.7498 29.2142 26.5402 29.128 26.3857 28.9746C26.2312 28.8212 26.1444 28.6131 26.1444 28.3961V17.5053C26.1444 17.2883 26.0576 17.0802 25.9031 16.9268C25.7486 16.7733 25.539 16.6871 25.3205 16.6871H20.7069C20.4884 16.6871 20.2789 16.7733 20.1244 16.9268C19.9699 17.0802 19.8831 17.2883 19.8831 17.5053V34.4138C19.8831 34.5729 19.9467 34.7255 20.0599 34.8381C20.1731 34.9507 20.3267 35.0141 20.487 35.0143H25.3205C25.539 35.0143 25.7486 34.9281 25.9031 34.7747C26.0576 34.6212 26.1444 34.4131 26.1444 34.1961V32.2153C26.1444 31.9983 26.2312 31.7902 26.3857 31.6368C26.5402 31.4833 26.7498 31.3971 26.9683 31.3971C27.1868 31.3971 27.3963 31.4833 27.5508 31.6368C27.7053 31.7902 27.7921 31.9983 27.7921 32.2153V34.1978C27.7917 34.8485 27.5311 35.4724 27.0676 35.9323C26.6042 36.3923 25.9758 36.6507 25.3205 36.6507Z" fill="#FB9100"/>
<defs>
<clipPath id="clip0_1637_1692">
<rect width="56.2424" height="48" fill="white"/>
</clipPath>
</defs>
</svg>
