<svg width="48" height="48" viewBox="0 0 48 48" fill="none" xmlns="http://www.w3.org/2000/svg">
<g clip-path="url(#clip0_1637_4241)">
<path d="M29.5972 27.9987C29.5972 26.5134 29.0075 25.089 27.9577 24.0387C26.9079 22.9885 25.4841 22.3984 23.9994 22.3984C22.5148 22.3984 21.091 22.9885 20.0412 24.0387C18.9914 25.089 18.4017 26.5134 18.4017 27.9987C18.3966 29.1431 18.7457 30.261 19.4013 31.1988L12.6199 32.7989C12.441 32.8411 12.2821 32.9437 12.17 33.0894C12.0578 33.2351 11.9993 33.4151 12.0042 33.5989V43.9993C12.0042 44.2115 12.0884 44.415 12.2384 44.565C12.3884 44.7151 12.5918 44.7994 12.8039 44.7994H35.195C35.4071 44.7994 35.6105 44.7151 35.7605 44.565C35.9104 44.415 35.9947 44.2115 35.9947 43.9993V33.5989C35.9996 33.4151 35.9411 33.2351 35.8289 33.0894C35.7168 32.9437 35.5579 32.8411 35.3789 32.7989L28.5976 31.1988C29.2531 30.261 29.6023 29.1431 29.5972 27.9987ZM23.9994 23.9985C24.7903 23.9985 25.5633 24.2331 26.2208 24.6727C26.8784 25.1122 27.3909 25.7369 27.6935 26.4679C27.9961 27.1988 28.0753 28.0031 27.921 28.7791C27.7668 29.555 27.3859 30.2678 26.8268 30.8272C26.2676 31.3866 25.5551 31.7676 24.7795 31.922C24.0039 32.0763 23.1999 31.9971 22.4693 31.6943C21.7387 31.3916 21.1142 30.8789 20.6749 30.221C20.2355 29.5632 20.001 28.7898 20.001 27.9987C20.001 26.9378 20.4223 25.9203 21.1721 25.1701C21.922 24.4199 22.939 23.9985 23.9994 23.9985ZM34.3953 43.1993H29.5972V37.5991H27.9979V43.1993H20.001V37.5991H18.4017V43.1993H13.6036V34.2309L20.7007 32.5109C21.6539 33.2177 22.809 33.5993 23.9954 33.5993C25.1819 33.5993 26.337 33.2177 27.2901 32.5109L34.3873 34.2309L34.3953 43.1993Z" fill="#FB9100"/>
<path d="M47.1901 21.5983H46.0146C45.8766 21.1493 45.6972 20.7141 45.4788 20.2983L46.2785 19.4982C46.429 19.3489 46.5141 19.1458 46.515 18.9338C46.5159 18.7217 46.4327 18.5179 46.2835 18.3672H46.2785L44.0473 16.0781C43.8981 15.9275 43.6951 15.8424 43.4831 15.8415C43.2711 15.8405 43.0674 15.9238 42.9168 16.0731L42.9118 16.0781L42.1121 16.8781C41.6886 16.6712 41.2469 16.5038 40.7926 16.3781V15.1981C40.7926 14.9859 40.7084 14.7824 40.5584 14.6324C40.4084 14.4823 40.205 14.398 39.9929 14.398H36.7942C36.5821 14.398 36.3787 14.4823 36.2288 14.6324C36.0788 14.7824 35.9945 14.9859 35.9945 15.1981V16.3741C35.4171 16.5573 34.8639 16.8098 34.3472 17.1261L31.6482 11.1979H34.3952C34.5553 11.1973 34.7116 11.1487 34.8439 11.0582C34.9761 10.9678 35.0781 10.8397 35.1367 10.6905C35.1953 10.5414 35.2077 10.3781 35.1725 10.2218C35.1372 10.0655 35.0559 9.92335 34.9389 9.81384L24.5431 0.213439C24.3952 0.0762372 24.201 0 23.9993 0C23.7976 0 23.6034 0.0762372 23.4555 0.213439L13.0596 9.81384C12.9427 9.92335 12.8613 10.0655 12.8261 10.2218C12.7908 10.3781 12.8033 10.5414 12.8619 10.6905C12.9205 10.8397 13.0225 10.9678 13.1547 11.0582C13.2869 11.1487 13.4432 11.1973 13.6034 11.1979H16.3543L13.6554 17.1261C13.1374 16.8095 12.5829 16.557 12.004 16.3741V15.1981C12.004 14.9859 11.9198 14.7824 11.7698 14.6324C11.6198 14.4823 11.4164 14.398 11.2043 14.398H8.00561C7.79352 14.398 7.59012 14.4823 7.44015 14.6324C7.29018 14.7824 7.20593 14.9859 7.20593 15.1981V16.3741C6.75712 16.5122 6.32209 16.6916 5.90644 16.9101L5.10676 16.1101C4.95747 15.9595 4.75451 15.8744 4.54252 15.8735C4.33052 15.8725 4.12682 15.9558 3.9762 16.1051V16.1101L1.68811 18.3422C1.53825 18.4922 1.45407 18.6956 1.45407 18.9077C1.45407 19.1198 1.53825 19.3232 1.68811 19.4732V19.4782L2.48779 20.2783C2.28093 20.702 2.11362 21.1439 1.98799 21.5983H0.808459C0.596369 21.5983 0.392967 21.6826 0.242997 21.8327C0.0930273 21.9827 0.00877521 22.1862 0.00877521 22.3984V25.5985C0.00877521 25.8107 0.0930273 26.0142 0.242997 26.1642C0.392967 26.3142 0.596369 26.3985 0.808459 26.3985H1.98399C2.122 26.8475 2.30137 27.2827 2.51978 27.6986L1.7201 28.4986C1.57024 28.6486 1.48606 28.852 1.48606 29.0641C1.48606 29.2762 1.57024 29.4796 1.7201 29.6297V29.6347L3.95121 31.9188C4.10051 32.0693 4.30346 32.1545 4.51546 32.1554C4.72746 32.1563 4.93115 32.073 5.08177 31.9238V31.9188L5.88145 31.1187C6.25403 31.3083 6.64069 31.4688 7.03799 31.5987L0.0807467 46.8634C0.0195511 46.985 -0.00892522 47.1205 -0.00187855 47.2565C0.00516811 47.3925 0.0474948 47.5243 0.120934 47.6389C0.194373 47.7536 0.296393 47.8471 0.416947 47.9103C0.537501 47.9735 0.672434 48.0042 0.808459 47.9994H47.1901C47.327 47.9975 47.4613 47.9613 47.5806 47.894C47.6998 47.8266 47.8003 47.7304 47.8727 47.6142C47.9452 47.4979 47.9872 47.3653 47.9951 47.2285C48.003 47.0918 47.9764 46.9552 47.9178 46.8314L40.9366 31.5667C41.3322 31.4365 41.7172 31.2761 42.0881 31.0867L42.8878 31.8868C43.0371 32.0373 43.24 32.1225 43.452 32.1234C43.664 32.1243 43.8677 32.041 44.0184 31.8918L44.0234 31.8868L46.2905 29.6227C46.441 29.4733 46.5261 29.2703 46.527 29.0582C46.5279 28.8461 46.4446 28.6423 46.2955 28.4916L46.2905 28.4866L45.4908 27.6866C45.7045 27.2742 45.8799 26.8431 46.0146 26.3985H47.1901C47.4022 26.3985 47.6056 26.3142 47.7556 26.1642C47.9055 26.0142 47.9898 25.8107 47.9898 25.5985V22.3984C47.9898 22.1862 47.9055 21.9827 47.7556 21.8327C47.6056 21.6826 47.4022 21.5983 47.1901 21.5983ZM36.3624 21.5423C36.739 21.2217 37.1849 20.9928 37.6648 20.8737C38.1448 20.7545 38.6459 20.7483 39.1287 20.8556C39.6115 20.9628 40.0628 21.1806 40.4473 21.4918C40.8317 21.803 41.1388 22.1991 41.3444 22.6491C41.55 23.0991 41.6486 23.5906 41.6323 24.0851C41.616 24.5796 41.4853 25.0636 41.2505 25.499C41.0157 25.9344 40.6831 26.3095 40.279 26.5946C39.8749 26.8798 39.4102 27.0674 38.9214 27.1426L36.3624 21.5423ZM9.07319 27.1426C8.58439 27.0674 8.11968 26.8798 7.71555 26.5946C7.31143 26.3095 6.97891 25.9344 6.7441 25.499C6.5093 25.0636 6.37861 24.5796 6.3623 24.0851C6.346 23.5906 6.44452 23.0991 6.65013 22.6491C6.85574 22.1991 7.16284 21.803 7.5473 21.4918C7.93176 21.1806 8.38311 20.9628 8.86589 20.8556C9.34867 20.7483 9.84973 20.7545 10.3297 20.8737C10.8097 20.9928 11.2555 21.2217 11.6322 21.5423L9.07319 27.1426ZM6.21432 29.4147C6.06137 29.3145 5.87874 29.2698 5.69686 29.288C5.51498 29.3062 5.34482 29.3862 5.21471 29.5147L4.51499 30.2147L3.38344 29.0866L4.08316 28.3866C4.21156 28.2565 4.29151 28.0862 4.3097 27.9043C4.32789 27.7223 4.28321 27.5396 4.18312 27.3866C3.80897 26.7796 3.53869 26.1145 3.38344 25.4185C3.34281 25.238 3.24093 25.0772 3.09513 24.9634C2.94932 24.8497 2.76861 24.7899 2.58376 24.7945H1.60814V23.1984H2.59175C2.77661 23.2029 2.95732 23.1432 3.10312 23.0294C3.24893 22.9157 3.35081 22.7548 3.39144 22.5744C3.54669 21.8784 3.81696 21.2132 4.19112 20.6063C4.29121 20.4533 4.33588 20.2706 4.31769 20.0886C4.29951 19.9066 4.21956 19.7364 4.09116 19.6062L3.39144 18.9062L4.52699 17.7702L5.22671 18.4702C5.35681 18.5987 5.52697 18.6786 5.70886 18.6968C5.89074 18.715 6.07336 18.6703 6.22631 18.5702C6.83299 18.1959 7.49787 17.9255 8.19354 17.7702C8.37393 17.7295 8.53467 17.6276 8.6484 17.4817C8.76212 17.3359 8.82181 17.1551 8.81729 16.9701V15.9981H10.4167V16.9821C10.4121 17.1671 10.4718 17.3479 10.5855 17.4937C10.6993 17.6396 10.86 17.7415 11.0404 17.7822C11.7346 17.9343 12.3973 18.205 12.9996 18.5822L12.3279 20.0463C11.7511 19.6442 11.0929 19.3738 10.4001 19.2543C9.70724 19.1348 8.99662 19.1691 8.31848 19.3547C7.64035 19.5404 7.01128 19.8728 6.47579 20.3286C5.9403 20.7844 5.51147 21.3523 5.21965 21.9922C4.92782 22.6321 4.78013 23.3284 4.78702 24.0317C4.79391 24.7351 4.95522 25.4283 5.25953 26.0624C5.56383 26.6965 6.00371 27.2559 6.54803 27.7011C7.09235 28.1462 7.72781 28.4663 8.40945 28.6386L7.73372 30.0987C7.19953 29.9381 6.68871 29.7082 6.21432 29.4147ZM2.05596 46.3994L18.3295 10.7339C18.3907 10.6122 18.4192 10.4768 18.4121 10.3408C18.4051 10.2048 18.3628 10.073 18.2893 9.95834C18.2159 9.84369 18.1139 9.75016 17.9933 9.68694C17.8728 9.62373 17.7378 9.59302 17.6018 9.59783H15.6506L23.9993 1.88551L32.348 9.59783H30.3967C30.2598 9.59972 30.1256 9.63599 30.0063 9.7033C29.887 9.77062 29.7866 9.86682 29.7141 9.98308C29.6417 10.0993 29.5996 10.232 29.5917 10.3687C29.5838 10.5055 29.6104 10.6421 29.669 10.7659L45.9426 46.3994H2.05596ZM46.3904 24.7985H45.4068C45.2219 24.7939 45.0412 24.8537 44.8954 24.9674C44.7496 25.0812 44.6477 25.242 44.6071 25.4225C44.4519 26.1185 44.1816 26.7836 43.8074 27.3906C43.7073 27.5436 43.6627 27.7263 43.6809 27.9083C43.6991 28.0902 43.779 28.2605 43.9074 28.3906L44.6071 29.0906L43.4716 30.2267L42.7718 29.5267C42.6417 29.3982 42.4716 29.3182 42.2897 29.3C42.1078 29.2818 41.9252 29.3265 41.7722 29.4267C41.2976 29.7188 40.7868 29.9474 40.2528 30.1067L39.5891 28.6506C40.2707 28.4783 40.9062 28.1582 41.4505 27.7131C41.9948 27.2679 42.4347 26.7085 42.739 26.0744C43.0433 25.4403 43.2046 24.7471 43.2115 24.0437C43.2184 23.3404 43.0707 22.6441 42.7789 22.0042C42.4871 21.3643 42.0583 20.7964 41.5228 20.3406C40.9873 19.8848 40.3582 19.5524 39.6801 19.3667C39.0019 19.1811 38.2913 19.1468 37.5985 19.2663C36.9056 19.3858 36.2475 19.6562 35.6707 20.0583L34.9989 18.5942C35.6012 18.217 36.264 17.9463 36.9582 17.7942C37.1385 17.7535 37.2993 17.6516 37.413 17.5057C37.5267 17.3599 37.5864 17.1791 37.5819 16.9941V15.9981H39.1813V16.9821C39.1768 17.1671 39.2364 17.3479 39.3502 17.4937C39.4639 17.6396 39.6246 17.7415 39.805 17.7822C40.5007 17.9375 41.1656 18.2079 41.7722 18.5822C41.9252 18.6823 42.1078 18.727 42.2897 18.7088C42.4716 18.6906 42.6417 18.6107 42.7718 18.4822L43.4716 17.7822L44.6071 18.9182L43.9074 19.6182C43.779 19.7484 43.6991 19.9186 43.6809 20.1006C43.6627 20.2826 43.7073 20.4653 43.8074 20.6183C44.1816 21.2252 44.4519 21.8904 44.6071 22.5864C44.6477 22.7668 44.7496 22.9277 44.8954 23.0414C45.0412 23.1552 45.2219 23.2149 45.4068 23.2104H46.3904V24.7985Z" fill="black"/>
</g>
<defs>
<clipPath id="clip0_1637_4241">
<rect width="48" height="48" fill="white"/>
</clipPath>
</defs>
</svg>
