<svg width="66" height="66" viewBox="0 0 66 66" fill="none" xmlns="http://www.w3.org/2000/svg">
<rect width="66" height="66" rx="15" fill="#FB9100" fill-opacity="0.07"/>
<g clip-path="url(#clip0_1647_2)">
<path d="M23.9166 37.16C25.3328 37.16 26.4807 36.0163 26.4807 34.6054C26.4807 33.1945 25.3328 32.0508 23.9166 32.0508C22.5005 32.0508 21.3525 33.1945 21.3525 34.6054C21.3525 36.0163 22.5005 37.16 23.9166 37.16Z" fill="#FB9100"/>
<path d="M27.5132 46.1014H20.3337C20.1478 46.1035 19.9638 46.0653 19.7942 45.9895C19.6247 45.9136 19.4737 45.802 19.3517 45.6623C19.2298 45.5226 19.1398 45.3581 19.0879 45.1803C19.0361 45.0024 19.0237 44.8155 19.0516 44.6325L19.6286 41.1199C19.7497 40.3751 20.1316 39.6972 20.7065 39.2062C21.2815 38.7152 22.0123 38.4429 22.7696 38.4375H25.0132C25.7704 38.4429 26.5013 38.7152 27.0762 39.2062C27.6512 39.6972 28.033 40.3751 28.1542 41.1199L28.7311 44.6325C28.7753 44.8122 28.7767 44.9998 28.7352 45.1802C28.6938 45.3606 28.6105 45.5288 28.4922 45.6715C28.3739 45.8142 28.2238 45.9274 28.0538 46.002C27.8838 46.0766 27.6987 46.1107 27.5132 46.1014Z" fill="black"/>
<path d="M32.4805 34.6055H47.1279V35.8828H32.4805V34.6055Z" fill="black"/>
<path d="M32.4805 37.1602H51.5189V38.4375H32.4805V37.1602Z" fill="black"/>
<path d="M32.4805 39.7148H51.5189V40.9922H32.4805V39.7148Z" fill="black"/>
<path d="M32.4805 42.2695H44.1984V43.5468H32.4805V42.2695Z" fill="#FB9100"/>
<path d="M49.6283 47.7613L50.9744 49.1025C51.0919 49.2219 51.1577 49.3824 51.1577 49.5495C51.1577 49.7167 51.0919 49.8772 50.9744 49.9966L46.4232 54.5311C46.3033 54.6481 46.1422 54.7136 45.9744 54.7136C45.8066 54.7136 45.6455 54.6481 45.5257 54.5311L43.7308 52.7428C43.6134 52.6234 43.5476 52.4629 43.5476 52.2958C43.5476 52.1286 43.6134 51.9681 43.7308 51.8487L46.0385 49.5495C45.7646 49.1486 45.5889 48.6893 45.5257 48.2084L42.7693 50.9546C42.587 51.1276 42.4419 51.3356 42.3427 51.5662C42.2435 51.7967 42.1924 52.0449 42.1924 52.2958C42.1924 52.5466 42.2435 52.7948 42.3427 53.0253C42.4419 53.2559 42.587 53.464 42.7693 53.6369L44.5642 55.4252C44.7378 55.6068 44.9466 55.7514 45.178 55.8502C45.4094 55.949 45.6586 56 45.9103 56C46.1621 56 46.4112 55.949 46.6426 55.8502C46.874 55.7514 47.0829 55.6068 47.2565 55.4252L51.8078 50.8907C51.9901 50.7177 52.1352 50.5097 52.2344 50.2791C52.3336 50.0486 52.3847 49.8004 52.3847 49.5495C52.3847 49.2987 52.3336 49.0505 52.2344 48.82C52.1352 48.5894 51.9901 48.3813 51.8078 48.2084L50.4616 46.8672L49.6283 47.7613Z" fill="#FB9100"/>
<path d="M51.8714 41.8854L47.3201 46.4199C47.1378 46.5928 46.9926 46.8009 46.8935 47.0315C46.7943 47.262 46.7432 47.5102 46.7432 47.761C46.7432 48.0119 46.7943 48.2601 46.8935 48.4906C46.9926 48.7212 47.1378 48.9292 47.3201 49.1022L48.6662 50.4434L49.5957 49.5493L48.2496 48.2081C48.1321 48.0887 48.0663 47.9282 48.0663 47.761C48.0663 47.5939 48.1321 47.4334 48.2496 47.314L52.8009 42.7795C52.9207 42.6625 53.0818 42.597 53.2496 42.597C53.4174 42.597 53.5785 42.6625 53.6983 42.7795L55.4932 44.5678C55.6106 44.6871 55.6764 44.8476 55.6764 45.0148C55.6764 45.182 55.6106 45.3425 55.4932 45.4619L53.1855 47.761C53.4594 48.1619 53.6351 48.6213 53.6983 49.1022L56.4547 46.356C56.637 46.183 56.7821 45.9749 56.8813 45.7444C56.9805 45.5139 57.0316 45.2656 57.0316 45.0148C57.0316 44.764 56.9805 44.5158 56.8813 44.2852C56.7821 44.0547 56.637 43.8466 56.4547 43.6736L54.6598 41.8854C54.4802 41.697 54.2639 41.547 54.0242 41.4445C53.7846 41.3419 53.5264 41.2891 53.2656 41.2891C53.0048 41.2891 52.7466 41.3419 52.507 41.4445C52.2673 41.547 52.051 41.697 51.8714 41.8854Z" fill="#FB9100"/>
<path d="M50.5572 22.4707C51.0883 22.4707 51.5188 22.0418 51.5188 21.5127C51.5188 20.9836 51.0883 20.5547 50.5572 20.5547C50.0262 20.5547 49.5957 20.9836 49.5957 21.5127C49.5957 22.0418 50.0262 22.4707 50.5572 22.4707Z" fill="#FB9100"/>
<path d="M47.3522 22.4707C47.8832 22.4707 48.3137 22.0418 48.3137 21.5127C48.3137 20.9836 47.8832 20.5547 47.3522 20.5547C46.8211 20.5547 46.3906 20.9836 46.3906 21.5127C46.3906 22.0418 46.8211 22.4707 47.3522 22.4707Z" fill="#FB9100"/>
<path d="M44.1471 22.4707C44.6781 22.4707 45.1086 22.0418 45.1086 21.5127C45.1086 20.9836 44.6781 20.5547 44.1471 20.5547C43.616 20.5547 43.1855 20.9836 43.1855 21.5127C43.1855 22.0418 43.616 22.4707 44.1471 22.4707Z" fill="black"/>
<path d="M15.5449 28.8571H52.5449V38.8776H54.0833V19.916C54.0833 18.8303 53.0833 18 51.7692 18H16.3141C14.9808 18 14 18.8303 14 19.916V51.2101H38.2115V49.9328H15.5449V28.8571ZM52.5449 27.5798H45.6026V25.0252H52.5449V27.5798ZM15.5449 19.916C15.5449 19.5328 15.8526 19.2773 16.3141 19.2773H51.7692C52.2308 19.2773 52.5449 19.5328 52.5449 19.916V23.7479H15.5449V19.916ZM15.5449 25.0252H44.0641V27.5798H15.5449V25.0252Z" fill="black"/>
</g>
<defs>
<clipPath id="clip0_1647_2">
<rect width="43" height="38" fill="white" transform="translate(14 18)"/>
</clipPath>
</defs>
</svg>
