<svg width="49" height="48" viewBox="0 0 49 48" fill="none" xmlns="http://www.w3.org/2000/svg">
<g clip-path="url(#clip0_1637_4245)">
<path fill-rule="evenodd" clip-rule="evenodd" d="M21.5485 38.2975H19.2661V18.9285C19.266 18.895 19.2726 18.8618 19.2855 18.8308C19.2984 18.7997 19.3174 18.7716 19.3415 18.7479C19.3655 18.7241 19.394 18.7053 19.4254 18.6926C19.4567 18.6798 19.4904 18.6733 19.5243 18.6734H22.5804C22.6143 18.6733 22.6479 18.6798 22.6793 18.6926C22.7107 18.7053 22.7392 18.7241 22.7632 18.7479C22.7872 18.7716 22.8062 18.7997 22.8192 18.8308C22.8321 18.8618 22.8387 18.895 22.8386 18.9285V21.7789C22.8386 21.9817 22.9201 22.1761 23.0652 22.3195C23.2103 22.4628 23.4071 22.5434 23.6123 22.5434C23.8174 22.5434 24.0142 22.4628 24.1593 22.3195C24.3044 22.1761 24.3859 21.9817 24.3859 21.7789V18.9285C24.3857 18.4555 24.1954 18.0018 23.8568 17.6673C23.5183 17.3328 23.0591 17.1448 22.5804 17.1445H19.5243C19.0455 17.1448 18.5864 17.3328 18.2479 17.6673C17.9093 18.0018 17.719 18.4555 17.7188 18.9285V39.0619C17.7188 39.2647 17.8003 39.4591 17.9454 39.6025C18.0904 39.7458 18.2872 39.8264 18.4924 39.8264H21.5485C21.7537 39.8264 21.9504 39.7458 22.0955 39.6025C22.2406 39.4591 22.3221 39.2647 22.3221 39.0619C22.3221 38.8592 22.2406 38.6647 22.0955 38.5214C21.9504 38.378 21.7537 38.2975 21.5485 38.2975Z" fill="black"/>
<path fill-rule="evenodd" clip-rule="evenodd" d="M32.1394 23.7852C30.1452 23.7828 28.2278 24.5453 26.7914 25.9122C26.7163 25.9813 26.6558 26.0644 26.6135 26.1568C26.5712 26.2492 26.548 26.349 26.5451 26.4503C26.5422 26.5517 26.5598 26.6526 26.5967 26.7471C26.6337 26.8417 26.6893 26.9281 26.7604 27.0012C26.8315 27.0744 26.9165 27.1328 27.0107 27.1731C27.1048 27.2135 27.2062 27.2349 27.3088 27.2362C27.4114 27.2374 27.5132 27.2185 27.6083 27.1806C27.7035 27.1426 27.79 27.0863 27.8629 27.0149C28.9612 25.9707 30.4121 25.3655 31.9355 25.3163C33.4589 25.2671 34.9467 25.7772 36.1118 26.7482C37.2768 27.7193 38.0364 29.0824 38.244 30.5743C38.4515 32.0663 38.0923 33.5813 37.2356 34.827C36.3789 36.0726 35.0856 36.9604 33.6052 37.3191C32.1249 37.6778 30.5626 37.4818 29.2198 36.7691C27.8771 36.0564 26.8493 34.8775 26.3347 33.4599C25.8201 32.0423 25.8554 30.4867 26.4336 29.0932C26.512 28.9058 26.512 28.6953 26.4333 28.5079C26.3547 28.3206 26.204 28.1717 26.0143 28.0942C25.8247 28.0167 25.6116 28.0167 25.4219 28.0944C25.2323 28.1721 25.0817 28.321 25.0032 28.5084C24.3716 30.0221 24.2492 31.6962 24.6543 33.2838C25.0593 34.8714 25.9702 36.2882 27.2526 37.3251C28.535 38.362 30.1208 38.964 31.7759 39.0423C33.4311 39.1205 35.0678 38.6708 36.4445 37.7596C37.8212 36.8484 38.8649 35.524 39.4215 33.9819C39.9781 32.4398 40.018 30.7617 39.5355 29.1954C39.053 27.6291 38.0735 26.2576 36.7418 25.2834C35.41 24.3092 33.7965 23.784 32.1394 23.7852Z" fill="#FB9100"/>
<path fill-rule="evenodd" clip-rule="evenodd" d="M48.1853 43.2385L42.023 37.1507C43.5368 34.6158 43.9949 31.5991 43.3007 28.7369C42.6065 25.8747 40.8142 23.3908 38.302 21.8093C35.7898 20.2277 32.754 19.6722 29.8352 20.2598C26.9163 20.8475 24.3426 22.5323 22.6569 24.959C20.9713 27.3857 20.3055 30.3644 20.8001 33.2668C21.2947 36.1692 22.9109 38.7683 25.3078 40.5158C27.7048 42.2634 30.695 43.0227 33.6477 42.6335C36.6003 42.2444 39.2846 40.7373 41.1342 38.4302L47.0915 44.3163C47.2063 44.4295 47.2973 44.5639 47.3595 44.7119C47.4216 44.8599 47.4536 45.0185 47.4536 45.1787C47.4536 45.3389 47.4216 45.4976 47.3595 45.6455C47.2973 45.7935 47.2063 45.9279 47.0915 46.0411L47.0199 46.1128C46.7884 46.3413 46.4745 46.4697 46.1471 46.4697C45.8198 46.4697 45.5059 46.3413 45.2743 46.1128L40.3479 41.249C40.2029 41.1056 40.0061 41.025 39.8009 41.0249C39.5957 41.0248 39.3988 41.1052 39.2537 41.2486C39.1085 41.3919 39.0269 41.5863 39.0268 41.7891C39.0267 41.9918 39.1081 42.1863 39.2532 42.3298L44.1796 47.1964C44.7013 47.7117 45.4089 48.0012 46.1467 48.0012C46.8844 48.0012 47.592 47.7117 48.1137 47.1964L48.1853 47.1247C48.7068 46.6093 48.9998 45.9104 48.9998 45.1816C48.9998 44.4528 48.7068 43.7539 48.1853 43.2385ZM32.1402 41.2108C30.1801 41.2104 28.2641 40.6358 26.6345 39.5596C25.005 38.4833 23.735 36.9538 22.9851 35.1644C22.2353 33.3751 22.0393 31.4062 22.4219 29.5068C22.8046 27.6074 23.7486 25.8627 25.1348 24.4934C26.5209 23.1241 28.2868 22.1916 30.2093 21.8139C32.1318 21.4362 34.1244 21.6303 35.9353 22.3715C37.7461 23.1127 39.2939 24.3679 40.3828 25.9782C41.4717 27.5885 42.0529 29.4817 42.0529 31.4184C42.0519 34.0155 41.0071 36.5059 39.1483 38.3422C37.2895 40.1785 34.7687 41.2103 32.1402 41.2108Z" fill="black"/>
<path fill-rule="evenodd" clip-rule="evenodd" d="M13.72 20.6953H10.664C10.1851 20.6953 9.72585 20.8833 9.38724 21.2178C9.04863 21.5524 8.8584 22.0062 8.8584 22.4793V39.0628C8.8584 39.2656 8.93991 39.46 9.085 39.6034C9.2301 39.7467 9.42689 39.8273 9.63208 39.8273H14.7519C14.9571 39.8273 15.1539 39.7467 15.299 39.6034C15.4441 39.46 15.5256 39.2656 15.5256 39.0628V22.4793C15.5256 22.0062 15.3353 21.5524 14.9967 21.2178C14.6581 20.8833 14.1989 20.6953 13.72 20.6953ZM13.9782 38.2984H10.4058V22.4793C10.406 22.4117 10.4333 22.347 10.4817 22.2992C10.53 22.2514 10.5956 22.2244 10.664 22.2242H13.72C13.7885 22.2242 13.8542 22.2511 13.9026 22.2989C13.951 22.3468 13.9782 22.4117 13.9782 22.4793V38.2984Z" fill="black"/>
<path fill-rule="evenodd" clip-rule="evenodd" d="M6.13721 23.758C5.96984 23.5922 5.77103 23.4606 5.55215 23.3708C5.33328 23.2809 5.09862 23.2346 4.86161 23.2344H1.80461C1.56746 23.2344 1.33264 23.2806 1.11357 23.3703C0.894496 23.46 0.695472 23.5915 0.527874 23.7573C0.360275 23.9231 0.227389 24.1199 0.136813 24.3364C0.0462368 24.553 -0.00025314 24.785 1.03664e-06 25.0193V39.0659C1.03664e-06 39.2686 0.0815134 39.4631 0.226606 39.6064C0.371699 39.7498 0.568488 39.8303 0.77368 39.8303H5.8935C6.09869 39.8303 6.29548 39.7498 6.44057 39.6064C6.58567 39.4631 6.66718 39.2686 6.66718 39.0659V25.0193C6.66717 24.785 6.62035 24.5529 6.52941 24.3365C6.43847 24.1201 6.30519 23.9235 6.13721 23.758ZM5.11982 38.2967H1.54736V25.0193C1.54747 24.9517 1.57457 24.8868 1.62279 24.8387C1.64663 24.8151 1.67497 24.7963 1.70617 24.7835C1.73737 24.7707 1.77083 24.7642 1.80461 24.7642H4.86161C4.92979 24.7644 4.99515 24.7912 5.04342 24.8387C5.09191 24.8867 5.11935 24.9516 5.11982 25.0193V38.2967Z" fill="#FB9100"/>
<path fill-rule="evenodd" clip-rule="evenodd" d="M28.1255 19.3178V11.9314C28.1255 11.898 28.1321 11.865 28.1451 11.8341C28.158 11.8033 28.1769 11.7753 28.2008 11.7517C28.2247 11.7281 28.2531 11.7094 28.2843 11.6966C28.3155 11.6838 28.3489 11.6772 28.3827 11.6772H31.4397C31.4735 11.6772 31.507 11.6838 31.5382 11.6966C31.5694 11.7094 31.5977 11.7281 31.6215 11.7518C31.67 11.7994 31.6974 11.8639 31.6979 11.9314V18.2953C31.6979 18.4981 31.7795 18.6925 31.9246 18.8359C32.0696 18.9792 32.2664 19.0598 32.4716 19.0598C32.6768 19.0598 32.8736 18.9792 33.0187 18.8359C33.1638 18.6925 33.2453 18.4981 33.2453 18.2953V11.9285C33.245 11.4555 33.0547 11.0018 32.7162 10.6673C32.3776 10.3328 31.9185 10.1448 31.4397 10.1445H28.3827C27.9041 10.1445 27.4451 10.3324 27.1067 10.6668C26.7683 11.0012 26.5781 11.4547 26.5781 11.9276V19.3178C26.5781 19.5205 26.6596 19.715 26.8047 19.8583C26.9498 20.0017 27.1466 20.0822 27.3518 20.0822C27.557 20.0822 27.7538 20.0017 27.8989 19.8583C28.044 19.715 28.1255 19.5205 28.1255 19.3178Z" fill="#FB9100"/>
<path fill-rule="evenodd" clip-rule="evenodd" d="M28.4558 9.13424e-07C27.8785 -7.04075e-05 27.3101 0.14038 26.8007 0.408937C26.2914 0.677494 25.8569 1.06589 25.5356 1.53979C25.2143 2.01369 25.016 2.5585 24.9585 3.12607C24.9009 3.69364 24.9857 4.26649 25.2054 4.79398L18.9192 9.15414C18.4172 8.70354 17.7938 8.40619 17.1244 8.29802C16.4551 8.18985 15.7683 8.27548 15.1471 8.54457C14.5259 8.81367 13.9969 9.25471 13.6239 9.81443C13.2508 10.3742 13.0498 11.0286 13.0451 11.6988L6.69801 13.0652C6.33276 12.2908 5.69137 11.6766 4.89654 11.3401C4.10171 11.0037 3.20923 10.9685 2.38983 11.2414C1.57042 11.5144 0.881616 12.0762 0.455167 12.8195C0.0287183 13.5627 -0.105436 14.4352 0.0783659 15.2701C0.262168 16.1049 0.751024 16.8435 1.45142 17.3446C2.15182 17.8456 3.01459 18.074 3.87469 17.9859C4.7348 17.8979 5.53186 17.4996 6.11341 16.8673C6.69495 16.235 7.02016 15.4131 7.02682 14.5587L13.3778 13.1923C13.7657 14.0145 14.464 14.6541 15.3231 14.9742C16.1823 15.2943 17.1341 15.2694 17.9749 14.905C18.8157 14.5405 19.4788 13.8654 19.8223 13.0241C20.1658 12.1827 20.1624 11.2419 19.8128 10.403L26.099 6.04384C26.5218 6.42243 27.0316 6.69358 27.5842 6.83385C28.1369 6.97412 28.7158 6.97928 29.2709 6.84889C29.826 6.7185 30.3407 6.45649 30.7703 6.0855C31.2 5.71451 31.5317 5.24571 31.7369 4.71962C31.942 4.19354 32.0144 3.626 31.9478 3.06607C31.8811 2.50615 31.6775 1.97068 31.3544 1.50597C31.0313 1.04126 30.5986 0.661281 30.0936 0.398891C29.5885 0.136501 29.0264 -0.000408026 28.4558 9.13424e-07ZM3.51335 16.4755C3.12449 16.4755 2.74437 16.3616 2.42104 16.1482C2.09772 15.9347 1.84571 15.6313 1.6969 15.2763C1.54809 14.9214 1.50916 14.5308 1.58502 14.1539C1.66088 13.7771 1.84814 13.431 2.1231 13.1593C2.39807 12.8876 2.7484 12.7026 3.12978 12.6276C3.51117 12.5527 3.90649 12.5911 4.26575 12.7382C4.62501 12.8852 4.93208 13.1342 5.14812 13.4537C5.36416 13.7731 5.47947 14.1487 5.47947 14.5329C5.47921 15.0481 5.27198 15.542 4.90332 15.9063C4.53466 16.2705 4.03472 16.4753 3.51335 16.4755ZM16.5605 13.6672C16.2227 13.6674 15.8905 13.5817 15.596 13.4183C15.3014 13.2548 15.0544 13.0192 14.8788 12.7341C14.7032 12.449 14.6048 12.124 14.5932 11.7904C14.5816 11.4568 14.6571 11.1259 14.8125 10.8295C14.9679 10.5332 15.198 10.2813 15.4805 10.0983C15.7629 9.91528 16.0884 9.80721 16.4254 9.78452C16.7624 9.76183 17.0997 9.82529 17.4047 9.96876C17.7097 10.1122 17.9722 10.3309 18.1668 10.6037L18.1736 10.6123C18.3803 10.9036 18.502 11.2454 18.5256 11.6004C18.5491 11.9553 18.4736 12.3099 18.3072 12.6254C18.1407 12.9408 17.8898 13.2051 17.5818 13.3893C17.2738 13.5735 16.9205 13.6706 16.5605 13.6701V13.6672ZM28.4558 5.41509C28.141 5.41525 27.8308 5.34069 27.5512 5.19768C27.2717 5.05467 27.031 4.8474 26.8494 4.59332L26.8427 4.58376C26.591 4.2272 26.4676 3.79752 26.4923 3.36348C26.517 2.92944 26.6883 2.51613 26.9788 2.18966C27.2694 1.8632 27.6623 1.64246 28.0948 1.56276C28.5274 1.48306 28.9744 1.549 29.3645 1.75005C29.7547 1.95109 30.0652 2.2756 30.2466 2.67167C30.428 3.06774 30.4696 3.51247 30.3649 3.93471C30.2603 4.35695 30.0152 4.73229 29.6691 5.00067C29.323 5.26906 28.8958 5.41498 28.4558 5.41509Z" fill="black"/>
</g>
<defs>
<clipPath id="clip0_1637_4245">
<rect width="49" height="48" fill="white"/>
</clipPath>
</defs>
</svg>
