<svg width="66" height="66" viewBox="0 0 66 66" fill="none" xmlns="http://www.w3.org/2000/svg">
<rect width="66" height="66" rx="15" fill="#FB9100" fill-opacity="0.07"/>
<g clip-path="url(#clip0_1647_6)">
<path d="M51.9598 12H35.6386C35.0975 12 34.5786 12.2149 34.196 12.5975C33.8134 12.9802 33.5984 13.4991 33.5984 14.0402V22.6496C32.489 22.3544 31.3462 22.2036 30.1982 22.2008C26.591 22.2008 23.1315 23.6337 20.5808 26.1844C18.0301 28.7351 16.5972 32.1946 16.5972 35.8018C16.592 37.5009 16.9093 39.1854 17.5322 40.7662L16.2503 42.0515C16.124 42.1778 16.0238 42.3277 15.9554 42.4928C15.887 42.6578 15.8518 42.8347 15.8518 43.0133C15.8518 43.192 15.887 43.3689 15.9554 43.5339C16.0238 43.6989 16.124 43.8489 16.2503 43.9752L16.9712 44.696L12 49.6681L12.9657 50.6337L17.9573 45.6626L20.3374 48.0427L15.3663 53.0343L16.3319 54L21.3031 49.0288L22.0376 49.7497C22.1639 49.876 22.3138 49.9762 22.4789 50.0446C22.6439 50.113 22.8208 50.1482 22.9994 50.1482C23.1781 50.1482 23.3549 50.113 23.52 50.0446C23.685 49.9762 23.835 49.876 23.9613 49.7497L25.2474 48.4678C27.5688 49.3777 30.0963 49.6291 32.5514 49.1941C35.0065 48.7591 37.2938 47.6547 39.1613 46.0026H51.9598C52.5009 46.0026 53.0198 45.7876 53.4025 45.405C53.7851 45.0224 54 44.5035 54 43.9624V14.0402C54 13.4991 53.7851 12.9802 53.4025 12.5975C53.0198 12.2149 52.5009 12 51.9598 12ZM30.1982 48.0427C28.5278 48.0436 26.8751 47.701 25.3426 47.0363C25.2171 46.9812 25.0778 46.9654 24.9431 46.9909C24.8084 47.0164 24.6845 47.082 24.5878 47.1791L22.9828 48.784L17.216 43.0172L18.8209 41.4122C18.918 41.3155 18.9836 41.1916 19.0091 41.0569C19.0346 40.9222 19.0188 40.7829 18.9637 40.6574C17.9188 38.2393 17.6819 35.5487 18.288 32.9852C18.8941 30.4218 20.3109 28.1222 22.3281 26.4281C24.3452 24.734 26.855 23.7359 29.4847 23.5818C32.1143 23.4278 34.7235 24.1261 36.9246 25.5731C39.1258 27.0201 40.8014 29.1386 41.7026 31.6137C42.6039 34.0889 42.6826 36.7888 41.9272 39.3123C41.1718 41.8358 39.6225 44.0483 37.5094 45.6211C35.3964 47.194 32.8323 48.0432 30.1982 48.0427ZM52.6399 43.9624C52.6399 44.1428 52.5682 44.3158 52.4407 44.4433C52.3132 44.5708 52.1402 44.6425 51.9598 44.6425H40.5146C40.8835 44.2082 41.2286 43.7541 41.5482 43.2824H52.6399V43.9624ZM52.6399 41.9223H42.3303C43.1955 40.2186 43.6906 38.3512 43.7832 36.4426C43.8758 34.5341 43.5638 32.6275 42.8677 30.848C42.1716 29.0686 41.1071 27.4564 39.744 26.1173C38.3809 24.7782 36.7501 23.7425 34.9585 23.078V16.0803H52.6399V41.9223ZM52.6399 14.7202H34.9585V14.0402C34.9585 13.8598 35.0302 13.6868 35.1577 13.5593C35.2853 13.4318 35.4582 13.3601 35.6386 13.3601H51.9598C52.1402 13.3601 52.3132 13.4318 52.4407 13.5593C52.5682 13.6868 52.6399 13.8598 52.6399 14.0402V14.7202Z" fill="black"/>
<path d="M24.7576 35.8026C24.7576 35.2615 24.9725 34.7426 25.3551 34.36C25.7377 33.9774 26.2566 33.7624 26.7977 33.7624H28.8379C29.379 33.7624 29.8979 33.9774 30.2805 34.36C30.6631 34.7426 30.878 35.2615 30.878 35.8026C30.8781 35.9745 30.8576 36.1457 30.8168 36.3126L32.1293 36.6527C32.2025 36.3753 32.239 36.0895 32.2381 35.8026C32.2381 34.9008 31.8799 34.0359 31.2422 33.3983C30.6046 32.7606 29.7397 32.4023 28.8379 32.4023H26.7977C25.8959 32.4023 25.031 32.7606 24.3934 33.3983C23.7557 34.0359 23.3975 34.9008 23.3975 35.8026C23.3975 36.7044 23.7557 37.5693 24.3934 38.2069C25.031 38.8446 25.8959 39.2029 26.7977 39.2029H28.1578V37.8428H26.7977C26.2566 37.8428 25.7377 37.6278 25.3551 37.2452C24.9725 36.8626 24.7576 36.3437 24.7576 35.8026Z" fill="#FB9100"/>
<path d="M33.5986 32.4023H32.2385V33.7624H33.5986C34.1397 33.7624 34.6586 33.9774 35.0412 34.36C35.4238 34.7426 35.6388 35.2615 35.6388 35.8026C35.6388 36.3437 35.4238 36.8626 35.0412 37.2452C34.6586 37.6278 34.1397 37.8428 33.5986 37.8428H31.5585C31.0174 37.8428 30.4985 37.6278 30.1159 37.2452C29.7333 36.8626 29.5183 36.3437 29.5183 35.8026C29.5182 35.6308 29.5388 35.4595 29.5795 35.2926L28.267 34.9525C28.1939 35.23 28.1574 35.5157 28.1582 35.8026C28.1582 36.2491 28.2462 36.6913 28.417 37.1038C28.5879 37.5164 28.8384 37.8912 29.1541 38.2069C29.4699 38.5227 29.8447 38.7732 30.2573 38.944C30.6698 39.1149 31.1119 39.2029 31.5585 39.2029H33.5986C34.5004 39.2029 35.3653 38.8446 36.003 38.2069C36.6406 37.5693 36.9989 36.7044 36.9989 35.8026C36.9989 34.9008 36.6406 34.0359 36.003 33.3983C35.3653 32.7606 34.5004 32.4023 33.5986 32.4023Z" fill="#FB9100"/>
<path d="M30.1982 24.9219C28.0462 24.9219 25.9425 25.56 24.1532 26.7556C22.3638 27.9512 20.9692 29.6506 20.1456 31.6388C19.3221 33.627 19.1066 35.8148 19.5265 37.9254C19.9463 40.0361 20.9826 41.9749 22.5043 43.4966C24.026 45.0183 25.9648 46.0546 28.0755 46.4745C30.1861 46.8943 32.3739 46.6788 34.3621 45.8553C36.3503 45.0317 38.0497 43.6371 39.2453 41.8478C40.4409 40.0584 41.079 37.9547 41.079 35.8027C41.079 32.9169 39.9327 30.1493 37.8921 28.1088C35.8516 26.0682 33.084 24.9219 30.1982 24.9219ZM30.1982 45.3234C28.3152 45.3234 26.4745 44.765 24.9088 43.7189C23.3431 42.6727 22.1228 41.1858 21.4022 39.4461C20.6816 37.7064 20.4931 35.7921 20.8604 33.9453C21.2278 32.0985 22.1346 30.402 23.466 29.0705C24.7975 27.739 26.494 26.8323 28.3408 26.4649C30.1877 26.0976 32.102 26.2861 33.8416 27.0067C35.5813 27.7273 37.0683 28.9476 38.1144 30.5133C39.1606 32.0789 39.7189 33.9197 39.7189 35.8027C39.7189 38.3278 38.7159 40.7494 36.9304 42.5349C35.1449 44.3204 32.7233 45.3234 30.1982 45.3234Z" fill="black"/>
<path d="M39.0388 20.8406H48.5595V26.961H43.7992V28.3211H49.2396C49.42 28.3211 49.5929 28.2495 49.7205 28.122C49.848 27.9944 49.9196 27.8215 49.9196 27.6411V20.1605C49.9196 19.9802 49.848 19.8072 49.7205 19.6797C49.5929 19.5521 49.42 19.4805 49.2396 19.4805H38.3588C38.1784 19.4805 38.0054 19.5521 37.8779 19.6797C37.7504 19.8072 37.6787 19.9802 37.6787 20.1605V22.2007H39.0388V20.8406Z" fill="#FB9100"/>
<path d="M45.8394 32.4023H49.9197V33.7624H45.8394V32.4023Z" fill="black"/>
<path d="M45.8394 36.4805H49.9197V37.8406H45.8394V36.4805Z" fill="#FB9100"/>
</g>
<defs>
<clipPath id="clip0_1647_6">
<rect width="42" height="42" fill="white" transform="translate(12 12)"/>
</clipPath>
</defs>
</svg>
