<svg width="54" height="55" viewBox="0 0 54 55" fill="none" xmlns="http://www.w3.org/2000/svg">
<g clip-path="url(#clip0_1637_4271)">
<path d="M52.583 55H15.3076C15.0939 55 14.889 54.9151 14.7379 54.764C14.5868 54.6129 14.502 54.408 14.502 54.1943V50.9717C14.502 50.758 14.5868 50.5531 14.7379 50.402C14.889 50.2509 15.0939 50.166 15.3076 50.166C15.5213 50.166 15.7262 50.2509 15.8773 50.402C16.0284 50.5531 16.1133 50.758 16.1133 50.9717V53.3887H51.7773V8.05664H49.3604C49.1467 8.05664 48.9418 7.97176 48.7907 7.82067C48.6396 7.66958 48.5547 7.46465 48.5547 7.25098C48.5547 7.0373 48.6396 6.83238 48.7907 6.68129C48.9418 6.53019 49.1467 6.44531 49.3604 6.44531H52.583C52.7967 6.44531 53.0016 6.53019 53.1527 6.68129C53.3038 6.83238 53.3887 7.0373 53.3887 7.25098V54.1943C53.3887 54.408 53.3038 54.6129 53.1527 54.764C53.0016 54.9151 52.7967 55 52.583 55Z" fill="black"/>
<path d="M49.3604 51.7773H12.085C11.8713 51.7773 11.6664 51.6925 11.5153 51.5414C11.3642 51.3903 11.2793 51.1854 11.2793 50.9717V45.1172C11.2793 44.9035 11.3642 44.6986 11.5153 44.5475C11.6664 44.3964 11.8713 44.3115 12.085 44.3115C12.2986 44.3115 12.5036 44.3964 12.6547 44.5475C12.8057 44.6986 12.8906 44.9035 12.8906 45.1172V50.166H48.5547V13.6963C48.5547 13.4826 48.6396 13.2777 48.7907 13.1266C48.9418 12.9755 49.1467 12.8906 49.3604 12.8906C49.574 12.8906 49.779 12.9755 49.93 13.1266C50.0811 13.2777 50.166 13.4826 50.166 13.6963V50.9717C50.166 51.1854 50.0811 51.3903 49.93 51.5414C49.779 51.6925 49.574 51.7773 49.3604 51.7773Z" fill="#FB9100"/>
<path d="M41.3037 45.9229H5.63965C4.14444 45.9211 2.71097 45.3264 1.6537 44.2692C0.596429 43.2119 0.00170588 41.7784 0 40.2832C0 40.0695 0.0848822 39.8646 0.235974 39.7135C0.387065 39.5624 0.591989 39.4775 0.805664 39.4775H36.4697C36.6834 39.4775 36.8883 39.5624 37.0394 39.7135C37.1905 39.8646 37.2754 40.0695 37.2754 40.2832C37.2754 41.3516 37.6998 42.3762 38.4553 43.1317C39.2107 43.8871 40.2353 44.3115 41.3037 44.3115C42.3721 44.3115 43.3967 43.8871 44.1522 43.1317C44.9076 42.3762 45.332 41.3516 45.332 40.2832V1.61133H9.66797V33.8379C9.66797 34.0516 9.58309 34.2565 9.432 34.4076C9.2809 34.5587 9.07598 34.6436 8.8623 34.6436C8.64863 34.6436 8.44371 34.5587 8.29261 34.4076C8.14152 34.2565 8.05664 34.0516 8.05664 33.8379V0.805664C8.05664 0.591989 8.14152 0.387065 8.29261 0.235974C8.44371 0.0848822 8.64863 0 8.8623 0L46.1377 0C46.3514 0 46.5563 0.0848822 46.7074 0.235974C46.8585 0.387065 46.9434 0.591989 46.9434 0.805664V40.2832C46.9417 41.7784 46.3469 43.2119 45.2897 44.2692C44.2324 45.3264 42.7989 45.9211 41.3037 45.9229ZM1.69189 41.0889C1.87893 41.9981 2.37369 42.8151 3.09279 43.4021C3.81189 43.9891 4.71137 44.3103 5.63965 44.3115H37.3603C36.4746 43.4466 35.8985 42.314 35.721 41.0889H1.69189Z" fill="black"/>
<path d="M8.8623 41.0879C8.64863 41.0879 8.44371 41.003 8.29261 40.8519C8.14152 40.7008 8.05664 40.4959 8.05664 40.2822V37.0596C8.05664 36.8459 8.14152 36.641 8.29261 36.4899C8.44371 36.3388 8.64863 36.2539 8.8623 36.2539C9.07598 36.2539 9.2809 36.3388 9.432 36.4899C9.58309 36.641 9.66797 36.8459 9.66797 37.0596V40.2822C9.66797 40.4959 9.58309 40.7008 9.432 40.8519C9.2809 41.003 9.07598 41.0879 8.8623 41.0879Z" fill="black"/>
<path d="M49.3604 11.2793C49.1467 11.2793 48.9418 11.1944 48.7907 11.0433C48.6396 10.8922 48.5547 10.6873 48.5547 10.4736V4.83398H46.1377C45.924 4.83398 45.7191 4.7491 45.568 4.59801C45.4169 4.44692 45.332 4.242 45.332 4.02832C45.332 3.81464 45.4169 3.60972 45.568 3.45863C45.7191 3.30754 45.924 3.22266 46.1377 3.22266H49.3604C49.574 3.22266 49.779 3.30754 49.93 3.45863C50.0811 3.60972 50.166 3.81464 50.166 4.02832V10.4736C50.166 10.6873 50.0811 10.8922 49.93 11.0433C49.779 11.1944 49.574 11.2793 49.3604 11.2793Z" fill="black"/>
<path d="M39.6924 34.2402H29.1113C28.8977 34.2402 28.6927 34.1554 28.5416 34.0043C28.3905 33.8532 28.3057 33.6482 28.3057 33.4346V30.2119C28.3057 29.9982 28.3905 29.7933 28.5416 29.6422C28.6927 29.4911 28.8977 29.4062 29.1113 29.4062H39.6924C39.9061 29.4062 40.111 29.4911 40.2621 29.6422C40.4132 29.7933 40.498 29.9982 40.498 30.2119V33.4346C40.498 33.6482 40.4132 33.8532 40.2621 34.0043C40.111 34.1554 39.9061 34.2402 39.6924 34.2402ZM29.917 32.6289H38.8867V31.0176H29.917V32.6289Z" fill="#FB9100"/>
<path d="M27.4998 26.8688C25.6115 26.8688 23.7655 26.3088 22.1954 25.2597C20.6253 24.2106 19.4016 22.7194 18.6789 20.9748C17.9563 19.2302 17.7672 17.3105 18.1356 15.4584C18.504 13.6064 19.4133 11.9051 20.7486 10.5699C22.0839 9.23462 23.7851 8.3253 25.6372 7.9569C27.4892 7.5885 29.4089 7.77757 31.1535 8.50021C32.8981 9.22285 34.3893 10.4466 35.4384 12.0167C36.4875 13.5868 37.0475 15.4327 37.0475 17.3211C37.0441 19.8522 36.0371 22.2788 34.2473 24.0685C32.4575 25.8583 30.031 26.8653 27.4998 26.8688ZM27.4998 9.38584C25.9301 9.38584 24.3957 9.85133 23.0905 10.7234C21.7854 11.5955 20.7681 12.8351 20.1675 14.2853C19.5668 15.7356 19.4097 17.3313 19.7161 18.8709C20.0224 20.4104 20.7783 21.8245 21.8884 22.9344C22.9984 24.0443 24.4126 24.8 25.9522 25.1061C27.4917 25.4122 29.0875 25.2549 30.5377 24.6541C31.9878 24.0532 33.2272 23.0358 34.0991 21.7306C34.9711 20.4253 35.4364 18.8908 35.4361 17.3211C35.4324 15.2175 34.5951 13.2011 33.1075 11.7137C31.6199 10.2263 29.6034 9.38925 27.4998 9.38584Z" fill="black"/>
<path d="M25.653 22.7241C25.3357 22.7255 25.0213 22.6641 24.728 22.5433C24.4346 22.4226 24.1681 22.2448 23.9439 22.0205L21.9985 20.0751C21.7677 19.8435 21.5861 19.5678 21.4646 19.2643C21.3431 18.9608 21.2843 18.6359 21.2916 18.309C21.2979 17.9817 21.3714 17.6591 21.5074 17.3612C21.6434 17.0634 21.839 16.7966 22.0822 16.5774C22.5493 16.1583 23.16 15.9356 23.7871 15.9556C24.4143 15.9756 25.0095 16.2368 25.4489 16.6848L25.653 16.8889L29.0668 13.4761C29.5205 13.0236 30.1351 12.7695 30.7759 12.7695C31.4167 12.7695 32.0313 13.0236 32.485 13.4761C32.7094 13.7006 32.8875 13.967 33.0089 14.2603C33.1304 14.5535 33.1929 14.8678 33.1929 15.1852C33.1929 15.5026 33.1304 15.8169 33.0089 16.1102C32.8875 16.4034 32.7094 16.6699 32.485 16.8943L27.362 22.0205C27.1378 22.2448 26.8713 22.4226 26.5779 22.5433C26.2846 22.6641 25.9702 22.7255 25.653 22.7241ZM23.6914 17.5678C23.4983 17.5655 23.3112 17.6356 23.1672 17.7644C23.0861 17.8375 23.0207 17.9264 22.975 18.0256C22.9294 18.1248 22.9044 18.2323 22.9017 18.3415C22.899 18.4507 22.9186 18.5592 22.9592 18.6606C22.9999 18.762 23.0608 18.854 23.1382 18.931L25.0836 20.8775C25.235 21.0282 25.4399 21.1128 25.6535 21.1128C25.8671 21.1128 26.072 21.0282 26.2234 20.8775L31.3452 15.7545C31.4202 15.6799 31.4797 15.5912 31.5203 15.4935C31.5609 15.3958 31.5817 15.291 31.5817 15.1852C31.5817 15.0794 31.5609 14.9747 31.5203 14.877C31.4797 14.7793 31.4202 14.6905 31.3452 14.6159C31.1942 14.465 30.9894 14.3803 30.7759 14.3803C30.5624 14.3803 30.3576 14.465 30.2066 14.6159L26.2234 18.598C26.1485 18.6729 26.0597 18.7323 25.9619 18.7728C25.8641 18.8133 25.7593 18.8342 25.6535 18.8342C25.5476 18.8342 25.4428 18.8133 25.3451 18.7728C25.2473 18.7323 25.1584 18.6729 25.0836 18.598L24.3091 17.8246C24.2274 17.743 24.1304 17.6783 24.0237 17.6342C23.917 17.5902 23.8026 17.5676 23.6871 17.5678H23.6914Z" fill="#FB9100"/>
<path d="M25.8887 31.0176H15.3076C15.0939 31.0176 14.889 30.9327 14.7379 30.7816C14.5868 30.6305 14.502 30.4256 14.502 30.2119C14.502 29.9982 14.5868 29.7933 14.7379 29.6422C14.889 29.4911 15.0939 29.4062 15.3076 29.4062H25.8887C26.1023 29.4062 26.3073 29.4911 26.4584 29.6422C26.6095 29.7933 26.6943 29.9982 26.6943 30.2119C26.6943 30.4256 26.6095 30.6305 26.4584 30.7816C26.3073 30.9327 26.1023 31.0176 25.8887 31.0176Z" fill="#FB9100"/>
<path d="M25.8887 34.2402H15.3076C15.0939 34.2402 14.889 34.1554 14.7379 34.0043C14.5868 33.8532 14.502 33.6482 14.502 33.4346C14.502 33.2209 14.5868 33.016 14.7379 32.8649C14.889 32.7138 15.0939 32.6289 15.3076 32.6289H25.8887C26.1023 32.6289 26.3073 32.7138 26.4584 32.8649C26.6095 33.016 26.6943 33.2209 26.6943 33.4346C26.6943 33.6482 26.6095 33.8532 26.4584 34.0043C26.3073 34.1554 26.1023 34.2402 25.8887 34.2402Z" fill="#FB9100"/>
</g>
<defs>
<clipPath id="clip0_1637_4271">
<rect width="53.3887" height="55" fill="white"/>
</clipPath>
</defs>
</svg>
