<svg width="48" height="48" viewBox="0 0 48 48" fill="none" xmlns="http://www.w3.org/2000/svg">
<g clip-path="url(#clip0_1637_1679)">
<path d="M36.6563 41.2502C36.18 41.5099 35.6963 41.778 35.2069 42.049C31.0641 44.3458 26.3681 46.9493 21.8559 46.549L5.87063 45.123H5.80875H1.40625V37.2105H5.8125C5.97915 37.2104 6.14044 37.1517 6.26813 37.0446C7.25906 36.2524 8.3269 35.5614 9.45563 34.9821C9.62147 34.8961 9.74634 34.7477 9.80278 34.5696C9.85922 34.3915 9.84259 34.1983 9.75656 34.0324C9.67053 33.8666 9.52215 33.7417 9.34405 33.6853C9.16594 33.6288 8.97272 33.6454 8.80688 33.7315C7.66533 34.3223 6.57992 35.0158 5.56406 35.8033H0.705C0.518347 35.8033 0.339311 35.8774 0.207151 36.0092C0.0749921 36.141 0.000496418 36.3198 0 36.5065L0 45.8243C0 46.0113 0.0742766 46.1906 0.20649 46.3228C0.338703 46.455 0.518022 46.5293 0.705 46.5293H5.77688L21.7275 47.9524C22.0875 47.9852 22.4475 48.0002 22.8066 48.0002C27.3806 48.0002 31.8816 45.5046 35.8866 43.2846C36.3731 43.0146 36.8541 42.7483 37.3275 42.4896C37.4089 42.4455 37.4808 42.3858 37.5391 42.314C37.5974 42.2421 37.641 42.1595 37.6674 42.0708C37.6938 41.9821 37.7024 41.889 37.6928 41.797C37.6833 41.7049 37.6556 41.6157 37.6116 41.5343C37.5675 41.4529 37.5078 41.381 37.436 41.3227C37.3641 41.2644 37.2814 41.2208 37.1927 41.1944C37.104 41.168 37.011 41.1594 36.9189 41.169C36.8269 41.1785 36.7376 41.2061 36.6563 41.2502Z" fill="black"/>
<path d="M47.4559 33.4484C47.098 32.9703 46.5905 32.6255 46.0142 32.4689C45.4378 32.3123 44.8257 32.3528 44.275 32.584C44.2488 32.1789 44.1218 31.7867 43.9056 31.4431C43.6894 31.0995 43.3908 30.8153 43.0369 30.6164C42.683 30.4174 42.2851 30.3101 41.8791 30.304C41.4732 30.2979 41.0722 30.3933 40.7125 30.5815L39.0372 31.4646C39.0161 31.0573 38.8922 30.6621 38.677 30.3156C38.4619 29.9692 38.1624 29.683 37.8067 29.4836C37.451 29.2842 37.0505 29.1781 36.6427 29.1754C36.2349 29.1726 35.8331 29.2732 35.4747 29.4677L34.2222 30.1465C34.2032 29.728 34.0789 29.3212 33.8609 28.9635C33.6428 28.6058 33.3381 28.309 32.9749 28.1003C32.6117 27.8917 32.2017 27.7781 31.7829 27.77C31.3641 27.7619 30.9501 27.8596 30.579 28.054L21.5387 32.7959C20.5215 32.4059 17.2806 31.3493 13.494 32.0543C12.816 32.1827 12.1475 32.3575 11.4934 32.5774C11.3213 32.6406 11.1805 32.7683 11.101 32.9336C11.0215 33.0988 11.0095 33.2886 11.0675 33.4625C11.1256 33.6364 11.2491 33.7809 11.412 33.8653C11.5748 33.9496 11.7641 33.9672 11.9397 33.9143C12.532 33.7145 13.1376 33.556 13.7519 33.4399C17.7944 32.6899 21.2519 34.1993 21.2865 34.2143C21.3773 34.2553 21.4757 34.2764 21.5753 34.2762H30.9869C31.2906 34.285 31.5802 34.407 31.7986 34.6183C32.0171 34.8296 32.1487 35.1148 32.1678 35.4181C32.1868 35.7215 32.0918 36.0209 31.9014 36.2578C31.711 36.4947 31.439 36.6519 31.1387 36.6987L19.2119 38.209C19.0416 38.2306 18.8852 38.3136 18.7717 38.4423C18.6583 38.5711 18.5957 38.7368 18.5957 38.9084C18.5957 39.0799 18.6583 39.2456 18.7717 39.3744C18.8852 39.5031 19.0416 39.5861 19.2119 39.6077L24.2809 40.218C29.1573 40.8152 34.0973 39.846 38.3865 37.4505L44.7184 33.9312C44.987 33.7905 45.2968 33.7501 45.5924 33.8171C45.8881 33.8841 46.1502 34.0541 46.3319 34.2968C46.8053 34.894 46.599 35.8521 45.9212 36.2018L39.13 39.903C38.3172 40.3296 39.0137 41.5905 39.804 41.1396L46.5934 37.4384C46.9336 37.2529 47.2298 36.9964 47.4618 36.6862C47.6938 36.3759 47.8563 36.0193 47.938 35.6407C48.0198 35.262 48.019 34.8702 47.9356 34.4918C47.8523 34.1135 47.6883 33.7576 47.455 33.4484H47.4559ZM31.2372 29.3018C31.4661 29.1818 31.7306 29.1484 31.9822 29.2076C32.2337 29.2668 32.4555 29.4148 32.6069 29.6243C32.6974 29.7494 32.7603 29.8922 32.7915 30.0434C32.8226 30.1946 32.8213 30.3507 32.7877 30.5014C32.754 30.6521 32.6887 30.7939 32.5961 30.9174C32.5035 31.0409 32.3858 31.1434 32.2506 31.218L29.2056 32.869H24.4365L31.2372 29.3018ZM31.8747 33.0227L36.1469 30.7062C36.3741 30.583 36.64 30.5521 36.8894 30.6201C37.1387 30.688 37.3523 30.8494 37.4856 31.0709C37.5562 31.1888 37.602 31.3199 37.6204 31.4561C37.6388 31.5923 37.6293 31.7308 37.5926 31.8633C37.5559 31.9957 37.4927 32.1193 37.4067 32.2266C37.3208 32.3339 37.214 32.4226 37.0928 32.4874L33.3878 34.4402C33.2445 34.1139 33.0365 33.8201 32.7764 33.5765C32.5164 33.3328 32.2096 33.1445 31.8747 33.0227ZM37.7022 36.2187C33.8615 38.3645 29.4601 39.2945 25.0797 38.8859L31.3122 38.0965C31.8681 38.0238 32.3862 37.7755 32.791 37.3876C33.1958 36.9996 33.466 36.4925 33.5622 35.9402L41.3603 31.8302C41.5979 31.7248 41.8666 31.7131 42.1125 31.7973C42.3585 31.8815 42.5635 32.0555 42.6867 32.2845C42.8098 32.5134 42.8419 32.7804 42.7766 33.0321C42.7113 33.2837 42.5533 33.5013 42.3344 33.6415L37.7022 36.2187Z" fill="black"/>
<path d="M16.4061 19.142C17.1932 19.1441 17.9708 18.9695 18.6814 18.6311C18.7665 18.5922 18.8429 18.5369 18.9064 18.4682C18.9698 18.3995 19.0189 18.3189 19.0509 18.231C19.0829 18.1432 19.0971 18.0498 19.0926 17.9564C19.0882 17.863 19.0652 17.7715 19.0251 17.687C18.9849 17.6026 18.9283 17.527 18.8587 17.4646C18.789 17.4023 18.7077 17.3544 18.6193 17.3238C18.531 17.2931 18.4374 17.2804 18.3441 17.2863C18.2508 17.2921 18.1596 17.3165 18.0758 17.358C17.5545 17.6069 16.9838 17.735 16.4061 17.733C15.553 17.7325 14.7236 17.4518 14.0457 16.9338C13.3677 16.4159 12.8787 15.6895 12.654 14.8665C12.4293 14.0435 12.4812 13.1694 12.8019 12.3788C13.1225 11.5882 13.6941 10.9249 14.4286 10.4909C15.1631 10.057 16.0199 9.87639 16.8671 9.97701C17.7143 10.0776 18.5049 10.4539 19.1174 11.0478C19.7298 11.6418 20.1301 12.4205 20.2566 13.2642C20.3832 14.108 20.229 14.9699 19.8177 15.7174C19.7332 15.8805 19.7157 16.0701 19.769 16.2459C19.8222 16.4217 19.942 16.5698 20.1028 16.6587C20.2636 16.7475 20.4527 16.77 20.6299 16.7215C20.8071 16.673 20.9583 16.5573 21.0514 16.3989C21.6129 15.3805 21.824 14.2057 21.6523 13.0555C21.4805 11.9053 20.9355 10.8435 20.1011 10.0334C19.2667 9.22334 18.1892 8.71 17.0344 8.57241C15.8796 8.43482 14.7117 8.68061 13.7103 9.27194C12.7089 9.86327 11.9296 10.7674 11.4925 11.845C11.0553 12.9227 10.9845 14.1141 11.2909 15.236C11.5973 16.3578 12.264 17.3478 13.1883 18.0536C14.1125 18.7594 15.2432 19.1419 16.4061 19.142Z" fill="#FB9100"/>
<path d="M40.5684 10.6239C39.8381 10.6251 39.1298 10.8744 38.5597 11.3309C37.9896 11.7874 37.5915 12.424 37.4306 13.1364H33.7031V14.5427H37.4306C37.5634 15.1339 37.8606 15.6756 38.2878 16.1053C38.715 16.5351 39.2549 16.8354 39.8453 16.9718C40.4357 17.1081 41.0527 17.0749 41.625 16.8759C42.1974 16.677 42.7019 16.3204 43.0805 15.8472C43.4591 15.3741 43.6963 14.8036 43.7649 14.2016C43.8334 13.5995 43.7305 12.9903 43.468 12.4442C43.2055 11.898 42.7941 11.4371 42.2811 11.1146C41.7681 10.7921 41.1744 10.621 40.5684 10.6211V10.6239ZM40.5684 15.6489C40.2106 15.6495 39.8607 15.5439 39.563 15.3455C39.2652 15.1471 39.033 14.8649 38.8957 14.5345C38.7583 14.2041 38.7221 13.8404 38.7916 13.4894C38.8611 13.1384 39.0331 12.8159 39.2859 12.5627C39.5387 12.3095 39.8609 12.137 40.2118 12.067C40.5627 11.997 40.9264 12.0326 41.257 12.1694C41.5876 12.3062 41.8702 12.538 42.0691 12.8355C42.2679 13.1329 42.3741 13.4827 42.3741 13.8405C42.3736 14.3193 42.1834 14.7784 41.8452 15.1174C41.5069 15.4563 41.0482 15.6474 40.5694 15.6489H40.5684Z" fill="#FB9100"/>
<path d="M40.5692 21.2438C39.8388 21.2446 39.1303 21.4938 38.5601 21.9503C37.99 22.4069 37.5919 23.0437 37.4314 23.7563H34.4211C34.3592 23.756 34.3 23.7313 34.2563 23.6876C34.2126 23.6439 34.1879 23.5847 34.1876 23.5228V4.15501C34.1876 4.09301 34.2122 4.03354 34.2559 3.98961C34.2997 3.94568 34.3591 3.92088 34.4211 3.92063H37.4314C37.6045 4.69358 38.0566 5.37551 38.7012 5.83585C39.3458 6.29619 40.1375 6.50258 40.9248 6.41551C41.7121 6.32843 42.4396 5.95401 42.968 5.36393C43.4964 4.77385 43.7886 4.0096 43.7886 3.21751C43.7886 2.42542 43.4964 1.66116 42.968 1.07109C42.4396 0.481009 41.7121 0.106585 40.9248 0.0195085C40.1375 -0.0675676 39.3458 0.138825 38.7012 0.599164C38.0566 1.0595 37.6045 1.74144 37.4314 2.51438H34.4211C33.9854 2.51488 33.5678 2.68822 33.2599 2.99634C32.9519 3.30446 32.7788 3.72219 32.7786 4.15782V13.1372H28.5936V13.1241C28.5955 12.7886 28.476 12.4637 28.2572 12.2094C28.0383 11.9551 27.735 11.7885 27.4029 11.7403L25.9423 11.5209C25.7061 10.5355 25.3163 9.59338 24.7873 8.72907L25.6648 7.54126C25.8664 7.27225 25.9638 6.9393 25.9388 6.60405C25.9138 6.2688 25.7682 5.95396 25.5289 5.71782L24.5239 4.7147C24.288 4.47598 23.9737 4.3307 23.639 4.30571C23.3044 4.28073 22.972 4.37771 22.7033 4.57876L21.5145 5.45626C20.6492 4.9258 19.7058 4.53477 18.7189 4.29751L18.4995 2.83782C18.4517 2.50555 18.2853 2.20182 18.0309 1.98278C17.7765 1.76374 17.4514 1.6442 17.1158 1.64626H15.6945C15.3589 1.6444 15.0339 1.76401 14.7796 1.98301C14.5253 2.20202 14.3587 2.50564 14.3108 2.83782L14.0914 4.29751C13.1046 4.53495 12.1612 4.92596 11.2958 5.45626L10.107 4.57876C9.8383 4.37771 9.5059 4.28073 9.17123 4.30571C8.83657 4.3307 8.52226 4.47598 8.28638 4.7147L7.28138 5.71782C7.04266 5.9537 6.89739 6.26801 6.8724 6.60267C6.84741 6.93733 6.9444 7.26973 7.14544 7.53844L8.02294 8.7272C7.49226 9.59243 7.10122 10.5359 6.86419 11.5228L5.40451 11.7422C5.07256 11.7899 4.76909 11.9561 4.55009 12.2101C4.33109 12.4641 4.21134 12.7887 4.21294 13.1241V14.5491C4.20997 14.8854 4.3291 15.2114 4.54823 15.4665C4.76735 15.7217 5.0716 15.8887 5.40451 15.9366L6.86419 16.1559C7.10187 17.1427 7.49287 18.086 8.02294 18.9516L7.14544 20.1366C6.9444 20.4053 6.84741 20.7377 6.8724 21.0723C6.89739 21.407 7.04266 21.7213 7.28138 21.9572L8.28638 22.9622C8.5225 23.2008 8.83686 23.346 9.17158 23.3712C9.50629 23.3963 9.83883 23.2997 10.1079 23.0991L11.2958 22.2178C12.161 22.7485 13.1044 23.1395 14.0914 23.3766L14.3108 24.8428C14.3591 25.1748 14.5258 25.478 14.7801 25.6968C15.0343 25.9156 15.3591 26.0351 15.6945 26.0334H17.1158C17.4513 26.0355 17.7763 25.9161 18.0306 25.6973C18.285 25.4784 18.4515 25.1749 18.4995 24.8428L18.7189 23.3822C19.7062 23.1435 20.6497 22.7506 21.5145 22.2178L22.7033 23.0963C22.9712 23.2979 23.303 23.3959 23.6376 23.3723C23.9721 23.3487 24.2869 23.2051 24.5239 22.9678L25.5289 21.9619C25.7676 21.726 25.9129 21.4118 25.938 21.0772C25.9632 20.7426 25.8665 20.4102 25.6658 20.1413L24.7873 18.9534C25.3178 18.0881 25.7089 17.1447 25.9461 16.1578L27.4067 15.9366C27.7384 15.8873 28.0412 15.7199 28.2593 15.4651C28.4774 15.2103 28.5961 14.8854 28.5936 14.55V14.5434H32.7748V23.5228C32.7753 23.9583 32.9485 24.3758 33.2564 24.6837C33.5644 24.9916 33.9819 25.1648 34.4173 25.1653H37.4276C37.5604 25.7565 37.8576 26.2982 38.2848 26.728C38.712 27.1577 39.2519 27.4581 39.8423 27.5944C40.4327 27.7308 41.0497 27.6975 41.622 27.4986C42.1944 27.2996 42.6989 26.9431 43.0775 26.4699C43.4561 25.9968 43.6933 25.4263 43.7619 24.8242C43.8304 24.2222 43.7275 23.613 43.465 23.0668C43.2025 22.5207 42.7911 22.0598 42.2781 21.7373C41.7651 21.4147 41.1714 21.2437 40.5654 21.2438H40.5692ZM40.5692 1.40813C40.9269 1.40813 41.2765 1.5142 41.5739 1.71291C41.8713 1.91162 42.1031 2.19406 42.24 2.52451C42.3768 2.85496 42.4127 3.21858 42.3429 3.56938C42.2731 3.92018 42.1009 4.24241 41.848 4.49533C41.595 4.74824 41.2728 4.92048 40.922 4.99026C40.5712 5.06004 40.2076 5.02422 39.8771 4.88735C39.5467 4.75047 39.2642 4.51868 39.0655 4.22128C38.8668 3.92389 38.7608 3.57425 38.7608 3.21657C38.7606 2.97884 38.8073 2.74341 38.8982 2.52372C38.9891 2.30404 39.1223 2.1044 39.2903 1.93621C39.4583 1.76802 39.6578 1.63457 39.8774 1.54348C40.097 1.45239 40.3324 1.40544 40.5701 1.40532L40.5692 1.40813ZM27.1873 14.5416L25.2542 14.8322C25.11 14.8535 24.976 14.919 24.8707 15.0198C24.7654 15.1206 24.694 15.2516 24.6664 15.3947C24.4537 16.5346 24.0051 17.6175 23.3492 18.5738C23.2665 18.6945 23.2235 18.8381 23.2262 18.9844C23.2289 19.1308 23.2771 19.2727 23.3642 19.3903L24.5258 20.9634L23.5311 21.9609L21.957 20.7984C21.8395 20.7115 21.6978 20.6633 21.5516 20.6606C21.4054 20.6579 21.262 20.7008 21.1414 20.7834C20.185 21.4392 19.1022 21.8878 17.9623 22.1006C17.8194 22.1287 17.6887 22.2003 17.588 22.3055C17.4873 22.4107 17.4216 22.5445 17.3998 22.6884L17.1092 24.6225H15.7029L15.4123 22.6866C15.3902 22.5419 15.3238 22.4077 15.2222 22.3024C15.1206 22.1972 14.9889 22.126 14.8451 22.0988C13.7053 21.8859 12.6224 21.4373 11.6661 20.7816C11.5454 20.6991 11.402 20.6562 11.2559 20.6589C11.1097 20.6616 10.968 20.7097 10.8504 20.7966L9.28107 21.9609L8.28732 20.9672L9.44982 19.3941C9.53675 19.2763 9.58482 19.1344 9.58734 18.988C9.58986 18.8417 9.54671 18.6982 9.46388 18.5775C8.80965 17.6208 8.36259 16.538 8.15138 15.3984C8.12385 15.2555 8.0526 15.1245 7.94747 15.0238C7.84235 14.923 7.70853 14.8574 7.56451 14.8359L5.62482 14.5416V13.1353L7.55513 12.8428C7.69928 12.8214 7.83323 12.7558 7.93851 12.6551C8.0438 12.5543 8.11522 12.4234 8.14294 12.2803C8.35417 11.1411 8.80123 10.0585 9.45544 9.1022C9.53827 8.98151 9.58143 8.83802 9.57891 8.69167C9.57638 8.54532 9.52831 8.40339 9.44138 8.28563L8.28357 6.71063L9.28107 5.71782L10.8542 6.88032C10.972 6.96713 11.1138 7.0152 11.2601 7.01789C11.4064 7.02058 11.5499 6.97775 11.6708 6.89532C12.6266 6.23917 13.7092 5.79018 14.8489 5.5772C14.9927 5.55041 15.1245 5.4795 15.2262 5.37433C15.3278 5.26916 15.3942 5.13494 15.4161 4.99032L15.7067 3.05626H17.1129L17.4036 4.99032C17.4251 5.13429 17.4908 5.26804 17.5916 5.37314C17.6923 5.47824 17.8231 5.54953 17.9661 5.5772C19.106 5.79035 20.1888 6.23932 21.1451 6.89532C21.2658 6.9778 21.4092 7.02067 21.5553 7.01798C21.7015 7.01529 21.8432 6.96718 21.9608 6.88032L23.5311 5.71782L24.5239 6.71157L23.3651 8.28376C23.2781 8.40142 23.2298 8.54329 23.2271 8.68964C23.2244 8.83599 23.2674 8.97954 23.3501 9.10032C24.0062 10.0568 24.4549 11.14 24.6673 12.2803C24.6942 12.4242 24.7652 12.5562 24.8706 12.6579C24.9759 12.7595 25.1103 12.8258 25.2551 12.8475L27.1883 13.1381L27.1873 14.5416ZM40.5701 26.2688C40.3292 26.2742 40.0897 26.2315 39.8655 26.1431C39.6414 26.0547 39.4371 25.9225 39.2648 25.754C39.0925 25.5856 38.9556 25.3844 38.8621 25.1623C38.7687 24.9403 38.7205 24.7017 38.7205 24.4608C38.7205 24.2198 38.7687 23.9813 38.8621 23.7592C38.9556 23.5371 39.0925 23.336 39.2648 23.1676C39.4371 22.9991 39.6414 22.8668 39.8655 22.7784C40.0897 22.69 40.3292 22.6473 40.5701 22.6528C41.0425 22.6636 41.4919 22.8588 41.8222 23.1967C42.1525 23.5346 42.3374 23.9883 42.3374 24.4608C42.3374 24.9333 42.1525 25.387 41.8222 25.7249C41.4919 26.0628 41.0425 26.258 40.5701 26.2688Z" fill="black"/>
</g>
<defs>
<clipPath id="clip0_1637_1679">
<rect width="48" height="48" fill="white"/>
</clipPath>
</defs>
</svg>
