<svg width="66" height="66" viewBox="0 0 66 66" fill="none" xmlns="http://www.w3.org/2000/svg">
<g clip-path="url(#clip0_1637_2696)">
<path d="M49.6094 11H16.3906C15.2255 11.0019 14.1088 11.4698 13.2856 12.301C12.4624 13.1322 12 14.2587 12 15.4332V49.5668C12 50.7413 12.4624 51.8678 13.2856 52.699C14.1088 53.5302 15.2255 53.9981 16.3906 54H49.6094C50.7757 54 51.8944 53.5329 52.7191 52.7015C53.5439 51.8702 54.0072 50.7425 54.0072 49.5668V15.4332C54.0072 14.2575 53.5439 13.1298 52.7191 12.2985C51.8944 11.4671 50.7757 11 49.6094 11ZM12.9749 15.4332C12.9749 14.52 13.3348 13.6442 13.9753 12.9985C14.6159 12.3528 15.4847 11.99 16.3906 11.99H49.6094C50.5153 11.99 51.3841 12.3528 52.0247 12.9985C52.6652 13.6442 53.0251 14.52 53.0251 15.4332V17.9374H12.9749V15.4332ZM53.0251 49.5595C53.0251 50.4727 52.6652 51.3485 52.0247 51.9942C51.3841 52.6399 50.5153 53.0027 49.6094 53.0027H16.3906C15.4847 53.0027 14.6159 52.6399 13.9753 51.9942C13.3348 51.3485 12.9749 50.4727 12.9749 49.5595V18.9419H53.0251V49.5595Z" fill="black"/>
<path d="M18.1167 15.6306C18.4757 15.6306 18.7667 15.3373 18.7667 14.9755C18.7667 14.6136 18.4757 14.3203 18.1167 14.3203C17.7578 14.3203 17.4668 14.6136 17.4668 14.9755C17.4668 15.3373 17.7578 15.6306 18.1167 15.6306Z" fill="#FB9100"/>
<path d="M21.5103 15.6306C21.8692 15.6306 22.1602 15.3373 22.1602 14.9755C22.1602 14.6136 21.8692 14.3203 21.5103 14.3203C21.1513 14.3203 20.8604 14.6136 20.8604 14.9755C20.8604 15.3373 21.1513 15.6306 21.5103 15.6306Z" fill="black"/>
<path d="M24.898 15.6306C25.2569 15.6306 25.5479 15.3373 25.5479 14.9755C25.5479 14.6136 25.2569 14.3203 24.898 14.3203C24.539 14.3203 24.248 14.6136 24.248 14.9755C24.248 15.3373 24.539 15.6306 24.898 15.6306Z" fill="black"/>
<path d="M48.3453 14.4805H35.0145C34.8843 14.4805 34.7594 14.5326 34.6673 14.6255C34.5752 14.7183 34.5234 14.8442 34.5234 14.9755C34.5234 15.1068 34.5752 15.2327 34.6673 15.3255C34.7594 15.4183 34.8843 15.4705 35.0145 15.4705H48.3453C48.4755 15.4705 48.6004 15.4183 48.6925 15.3255C48.7846 15.2327 48.8364 15.1068 48.8364 14.9755C48.8364 14.8442 48.7846 14.7183 48.6925 14.6255C48.6004 14.5326 48.4755 14.4805 48.3453 14.4805Z" fill="#FB9100"/>
<path d="M19.4023 40.5619H35.6361C35.7492 40.5691 35.8625 40.5691 35.9756 40.5619C36.6464 40.4897 37.2753 40.1982 37.7665 39.732C37.8459 39.6519 37.9253 39.5719 37.9976 39.4845C38.4641 38.9178 38.7195 38.2045 38.7197 37.4681V26.0102C38.7197 25.1838 38.3941 24.3914 37.8144 23.8071C37.2348 23.2228 36.4487 22.8945 35.6289 22.8945H19.4023C18.5826 22.8945 17.7964 23.2228 17.2168 23.8071C16.6372 24.3914 16.3115 25.1838 16.3115 26.0102V37.4462C16.3115 38.2726 16.6372 39.065 17.2168 39.6493C17.7964 40.2336 18.5826 40.5619 19.4023 40.5619ZM18.9329 39.5209L18.7885 39.4772C18.6859 39.4492 18.5867 39.4102 18.4924 39.3608L18.3408 39.2734C18.2561 39.2219 18.1742 39.166 18.0952 39.106L17.958 38.9895L17.8858 38.9094L22.7531 32.2196C22.8285 32.1153 22.9274 32.0306 23.0416 31.9724C23.1559 31.9142 23.2822 31.8841 23.4102 31.8847C23.538 31.8853 23.6639 31.9158 23.778 31.974C23.8921 32.0321 23.9911 32.1162 24.0674 32.2196L29.3896 39.5719H19.4023C19.2446 39.5696 19.0875 39.5526 18.9329 39.5209ZM30.6245 39.5791L28.8046 37.0677L31.2672 34.5854C31.4209 34.4347 31.6268 34.3503 31.8413 34.3503C32.0557 34.3503 32.2617 34.4347 32.4154 34.5854L36.9288 39.1351C36.8272 39.2074 36.721 39.2731 36.611 39.3316L36.4955 39.3826C36.4039 39.4206 36.3098 39.4522 36.2139 39.4772H36.0911C35.9558 39.5061 35.8178 39.5208 35.6795 39.5209L30.6245 39.5791ZM17.2864 26.0102C17.2864 25.4445 17.5093 24.902 17.9061 24.502C18.303 24.102 18.8411 23.8773 19.4023 23.8773H35.6434C36.2045 23.8773 36.7427 24.102 37.1395 24.502C37.5363 24.902 37.7593 25.4445 37.7593 26.0102V37.4462C37.7578 37.7647 37.6837 38.0785 37.5426 38.3635L33.1014 33.8866C32.7601 33.5577 32.3062 33.3742 31.834 33.3742C31.3619 33.3742 30.908 33.5577 30.5667 33.8866L28.2125 36.2597L24.8401 31.6227C24.6728 31.3953 24.455 31.2106 24.2042 31.0833C23.9534 30.9561 23.6766 30.8898 23.3958 30.8898C23.115 30.8898 22.8381 30.9561 22.5873 31.0833C22.3365 31.2106 22.1187 31.3953 21.9515 31.6227L17.3514 37.9485C17.308 37.7822 17.2862 37.6109 17.2864 37.439V26.0102Z" fill="#FB9100"/>
<path d="M30.1114 30.3936C30.5785 30.3936 31.035 30.254 31.4234 29.9924C31.8117 29.7309 32.1144 29.3591 32.2931 28.9241C32.4718 28.4892 32.5186 28.0106 32.4275 27.5488C32.3363 27.0871 32.1114 26.6629 31.7812 26.33C31.4509 25.9971 31.0302 25.7704 30.5721 25.6786C30.114 25.5867 29.6392 25.6338 29.2077 25.814C28.7762 25.9942 28.4074 26.2993 28.148 26.6907C27.8885 27.0822 27.75 27.5424 27.75 28.0132C27.7519 28.6439 28.0013 29.2483 28.4437 29.6943C28.8862 30.1403 29.4857 30.3917 30.1114 30.3936ZM30.1114 26.6155C30.3856 26.6155 30.6537 26.6975 30.8817 26.8511C31.1097 27.0047 31.2875 27.223 31.3924 27.4783C31.4973 27.7337 31.5248 28.0148 31.4713 28.2859C31.4178 28.557 31.2857 28.806 31.0918 29.0015C30.8979 29.197 30.6509 29.3301 30.3819 29.384C30.113 29.4379 29.8342 29.4103 29.5808 29.3045C29.3275 29.1987 29.1109 29.0196 28.9586 28.7897C28.8062 28.5599 28.7249 28.2896 28.7249 28.0132C28.7249 27.6425 28.871 27.287 29.131 27.0249C29.391 26.7628 29.7437 26.6155 30.1114 26.6155Z" fill="black"/>
<path d="M41.6659 26.615H50.8082C50.9385 26.615 51.0634 26.5629 51.1555 26.47C51.2476 26.3772 51.2993 26.2513 51.2993 26.12C51.2993 25.9887 51.2476 25.8628 51.1555 25.77C51.0634 25.6772 50.9385 25.625 50.8082 25.625H41.6659C41.5356 25.625 41.4107 25.6772 41.3186 25.77C41.2265 25.8628 41.1748 25.9887 41.1748 26.12C41.1748 26.2513 41.2265 26.3772 41.3186 26.47C41.4107 26.5629 41.5356 26.615 41.6659 26.615Z" fill="black"/>
<path d="M41.6659 31.1267H50.8082C50.9385 31.1267 51.0634 31.0746 51.1555 30.9817C51.2476 30.8889 51.2993 30.763 51.2993 30.6317C51.2993 30.5004 51.2476 30.3745 51.1555 30.2817C51.0634 30.1889 50.9385 30.1367 50.8082 30.1367H41.6659C41.5356 30.1367 41.4107 30.1889 41.3186 30.2817C41.2265 30.3745 41.1748 30.5004 41.1748 30.6317C41.1748 30.763 41.2265 30.8889 41.3186 30.9817C41.4107 31.0746 41.5356 31.1267 41.6659 31.1267Z" fill="black"/>
<path d="M41.6659 35.6345H50.8082C50.9385 35.6345 51.0634 35.5824 51.1555 35.4896C51.2476 35.3967 51.2993 35.2708 51.2993 35.1395C51.2993 35.0083 51.2476 34.8823 51.1555 34.7895C51.0634 34.6967 50.9385 34.6445 50.8082 34.6445H41.6659C41.5356 34.6445 41.4107 34.6967 41.3186 34.7895C41.2265 34.8823 41.1748 35.0083 41.1748 35.1395C41.1748 35.2708 41.2265 35.3967 41.3186 35.4896C41.4107 35.5824 41.5356 35.6345 41.6659 35.6345Z" fill="black"/>
<path d="M41.6659 40.1384H50.8082C50.9385 40.1384 51.0634 40.0863 51.1555 39.9935C51.2476 39.9006 51.2993 39.7747 51.2993 39.6434C51.2993 39.5122 51.2476 39.3863 51.1555 39.2934C51.0634 39.2006 50.9385 39.1484 50.8082 39.1484H41.6659C41.5356 39.1484 41.4107 39.2006 41.3186 39.2934C41.2265 39.3863 41.1748 39.5122 41.1748 39.6434C41.1748 39.7747 41.2265 39.9006 41.3186 39.9935C41.4107 40.0863 41.5356 40.1384 41.6659 40.1384Z" fill="black"/>
<path d="M15.993 44.6541H49.9989C50.1291 44.6541 50.254 44.6019 50.3461 44.5091C50.4382 44.4163 50.4899 44.2904 50.4899 44.1591C50.4899 44.0278 50.4382 43.9019 50.3461 43.809C50.254 43.7162 50.1291 43.6641 49.9989 43.6641H15.993C15.8628 43.6641 15.7379 43.7162 15.6458 43.809C15.5537 43.9019 15.502 44.0278 15.502 44.1591C15.502 44.2904 15.5537 44.4163 15.6458 44.5091C15.7379 44.6019 15.8628 44.6541 15.993 44.6541Z" fill="black"/>
<path d="M50.0069 48.1758H36.7411C36.6108 48.1758 36.4859 48.2279 36.3938 48.3208C36.3017 48.4136 36.25 48.5395 36.25 48.6708C36.25 48.8021 36.3017 48.928 36.3938 49.0208C36.4859 49.1136 36.6108 49.1658 36.7411 49.1658H49.9997C50.1299 49.1658 50.2548 49.1136 50.3469 49.0208C50.439 48.928 50.4907 48.8021 50.4907 48.6708C50.4917 48.6061 50.4799 48.5419 50.456 48.4819C50.4321 48.4219 50.3966 48.3673 50.3516 48.3212C50.3066 48.2751 50.2529 48.2386 50.1937 48.2136C50.1345 48.1886 50.071 48.1758 50.0069 48.1758Z" fill="#FB9100"/>
<path d="M32.8991 48.1758H24.3778C24.2475 48.1758 24.1226 48.2279 24.0305 48.3208C23.9385 48.4136 23.8867 48.5395 23.8867 48.6708C23.8867 48.8021 23.9385 48.928 24.0305 49.0208C24.1226 49.1136 24.2475 49.1658 24.3778 49.1658H32.8919C33.0221 49.1658 33.147 49.1136 33.2391 49.0208C33.3312 48.928 33.3829 48.8021 33.3829 48.6708C33.3839 48.6061 33.3721 48.5419 33.3482 48.4819C33.3243 48.4219 33.2888 48.3673 33.2438 48.3212C33.1988 48.2751 33.1451 48.2386 33.0859 48.2136C33.0268 48.1886 32.9632 48.1758 32.8991 48.1758Z" fill="black"/>
<path d="M15.993 49.158H21.6257C21.756 49.158 21.8809 49.1058 21.973 49.013C22.0651 48.9202 22.1168 48.7943 22.1168 48.663C22.1168 48.5317 22.0651 48.4058 21.973 48.313C21.8809 48.2201 21.756 48.168 21.6257 48.168H15.993C15.8628 48.168 15.7379 48.2201 15.6458 48.313C15.5537 48.4058 15.502 48.5317 15.502 48.663C15.502 48.7943 15.5537 48.9202 15.6458 49.013C15.7379 49.1058 15.8628 49.158 15.993 49.158Z" fill="#FB9100"/>
</g>
<rect width="66" height="66" rx="15" fill="#FB9100" fill-opacity="0.07"/>
<defs>
<clipPath id="clip0_1637_2696">
<rect width="42" height="43" fill="white" transform="translate(12 11)"/>
</clipPath>
</defs>
</svg>
