<svg width="43" height="48" viewBox="0 0 43 48" fill="none" xmlns="http://www.w3.org/2000/svg">
<g clip-path="url(#clip0_1637_3300)">
<path d="M34.4366 15.9484H40.0702C40.8467 15.9476 41.5913 15.637 42.1404 15.0847C42.6895 14.5325 42.9983 13.7836 42.9991 13.0026V5.48032C42.9983 4.69928 42.6895 3.95045 42.1404 3.39817C41.5913 2.84589 40.8467 2.53528 40.0702 2.53452H33.078C32.7786 1.78628 32.2637 1.14516 31.5993 0.693523C30.9349 0.241887 30.1514 0.000368905 29.3495 0H10.9535C9.88757 0.00102444 8.86556 0.427304 8.11173 1.18531C7.3579 1.94331 6.93382 2.97112 6.93255 4.04323V18.8623H2.92986C2.15331 18.863 1.40878 19.1736 0.859672 19.7259C0.310564 20.2782 0.00174076 21.027 0.000976562 21.8081V29.3303C0.00174076 30.1114 0.310564 30.8602 0.859672 31.4125C1.40878 31.9648 2.15331 32.2754 2.92986 32.2761H6.93255V43.9568C6.93382 45.0289 7.3579 46.0567 8.11173 46.8147C8.86556 47.5727 9.88757 47.999 10.9535 48H29.3495C30.4154 47.999 31.4373 47.5727 32.191 46.8146C32.9446 46.0566 33.3685 45.0288 33.3695 43.9568V42.6397H35.4613C35.6156 42.6398 35.7653 42.5866 35.8852 42.489C36.0052 42.3914 36.0882 42.2553 36.1204 42.1035L36.4091 40.7294L37.3905 40.321L38.5643 41.0874C38.6937 41.1719 38.848 41.2092 39.0015 41.193C39.1549 41.1767 39.2981 41.1081 39.4072 40.9984L41.3633 39.0281C41.4722 38.9182 41.5404 38.7741 41.5563 38.6198C41.5722 38.4655 41.535 38.3103 41.4509 38.1803L40.6898 37.0006L41.0949 36.0165L42.4641 35.7261C42.615 35.6938 42.7503 35.6103 42.8473 35.4896C42.9443 35.3689 42.9972 35.2184 42.9971 35.0632V32.279C42.9972 32.1238 42.9443 31.9733 42.8473 31.8527C42.7503 31.732 42.615 31.6485 42.4641 31.6161L41.0949 31.3258L40.6898 30.3387L41.4509 29.159C41.5352 29.0288 41.5723 28.8734 41.5562 28.7189C41.5401 28.5644 41.4717 28.4201 41.3624 28.3103L39.4072 26.3439C39.2981 26.2342 39.1549 26.1655 39.0015 26.1493C38.848 26.1331 38.6937 26.1704 38.5643 26.2548L37.3905 27.0213L36.4139 26.6129L36.1252 25.2358C36.093 25.084 36.01 24.948 35.89 24.8504C35.7701 24.7528 35.6204 24.6996 35.4661 24.6997H33.3695V17.0806L34.4366 15.9484ZM33.3695 26.0516H34.9167L35.1688 27.241C35.1917 27.3483 35.2402 27.4484 35.3101 27.5327C35.38 27.617 35.4692 27.6829 35.57 27.7248L37.2057 28.4023C37.3066 28.4441 37.416 28.4606 37.5246 28.4505C37.6332 28.4404 37.7378 28.4039 37.8292 28.3442L38.8424 27.6832L40.0259 28.8745L39.3687 29.8926C39.3092 29.9847 39.2728 30.09 39.2628 30.1994C39.2527 30.3089 39.2693 30.4191 39.311 30.5206L39.9845 32.1658C40.0261 32.2674 40.0916 32.3573 40.1754 32.4278C40.2592 32.4983 40.3588 32.5472 40.4656 32.5703L41.6481 32.8229V34.5087L40.4656 34.7613C40.3589 34.7843 40.2594 34.8331 40.1756 34.9034C40.0918 34.9737 40.0262 35.0634 39.9845 35.1648L39.311 36.81C39.2693 36.9115 39.2527 37.0218 39.2628 37.1312C39.2728 37.2406 39.3092 37.3459 39.3687 37.4381L40.0269 38.4571L38.8415 39.6503L37.8292 38.9894C37.7378 38.9296 37.6332 38.8931 37.5246 38.883C37.416 38.8729 37.3066 38.8895 37.2057 38.9313L35.57 39.6087C35.4692 39.6506 35.38 39.7166 35.3101 39.8009C35.2402 39.8852 35.1917 39.9853 35.1688 40.0926L34.9167 41.279H33.3695V37.8445C33.6037 37.8849 33.841 37.905 34.0786 37.9045C34.6619 37.9049 35.239 37.7834 35.7731 37.5478C36.3073 37.3121 36.787 36.9675 37.1818 36.5356C37.5765 36.1037 37.8778 35.5941 38.0665 35.039C38.2552 34.4838 38.3272 33.8954 38.2779 33.3108C38.2286 32.7262 38.0591 32.1583 37.7802 31.6431C37.5013 31.1279 37.119 30.6765 36.6575 30.3177C36.1961 29.9589 35.6655 29.7003 35.0995 29.5585C34.5335 29.4167 33.9444 29.3947 33.3695 29.4939V26.0516ZM33.3695 36.4606V30.8787C33.6012 30.8187 33.8394 30.7885 34.0786 30.7887C34.8383 30.7887 35.5669 31.0922 36.1041 31.6325C36.6413 32.1728 36.9431 32.9056 36.9431 33.6697C36.9431 34.4338 36.6413 35.1665 36.1041 35.7068C35.5669 36.2471 34.8383 36.5506 34.0786 36.5506C33.8394 36.5509 33.6012 36.5207 33.3695 36.4606ZM2.92986 30.9213C2.51049 30.9208 2.10844 30.753 1.8119 30.4547C1.51536 30.1565 1.34854 29.7521 1.34803 29.3303V21.8081C1.34854 21.3863 1.51536 20.9819 1.8119 20.6836C2.10844 20.3854 2.51049 20.2176 2.92986 20.2171H8.88963C9.03189 20.8747 9.39344 21.4636 9.91429 21.8861C10.4351 22.3085 11.084 22.5392 11.7531 22.5397H13.8699V29.3265C13.8691 29.7482 13.7022 30.1524 13.4057 30.4506C13.1093 30.7488 12.7074 30.9167 12.2881 30.9174H11.3307C11.1521 30.9174 10.9807 30.9888 10.8544 31.1158C10.7281 31.2429 10.6572 31.4152 10.6572 31.5948V32.52L9.34186 31.1323C9.27889 31.0656 9.20308 31.0125 9.11905 30.9762C9.03501 30.9399 8.94451 30.9212 8.85307 30.9213H2.92986ZM10.1713 19.5987V12.0755C10.1715 11.6536 10.3383 11.2491 10.6349 10.9508C10.9314 10.6525 11.3336 10.4848 11.7531 10.4845H21.1084C21.5278 10.485 21.9298 10.6528 22.2264 10.9511C22.5229 11.2493 22.6897 11.6537 22.6902 12.0755V19.5997C22.6905 19.8089 22.6497 20.0161 22.5703 20.2095C22.4909 20.4028 22.3743 20.5786 22.2273 20.7266C22.0803 20.8746 21.9058 20.9921 21.7136 21.0722C21.5214 21.1523 21.3155 21.1935 21.1074 21.1935H20.153C19.9743 21.1935 19.803 21.2649 19.6767 21.392C19.5504 21.519 19.4794 21.6913 19.4794 21.871V22.7961L18.168 21.4045C18.105 21.3378 18.0292 21.2847 17.9452 21.2484C17.8611 21.2122 17.7706 21.1935 17.6792 21.1935H11.7521C11.5442 21.1934 11.3383 21.1521 11.1463 21.0719C10.9542 20.9917 10.7798 20.8743 10.6329 20.7263C10.486 20.5782 10.3695 20.4026 10.2901 20.2093C10.2108 20.016 10.17 19.8088 10.1703 19.5997L10.1713 19.5987ZM32.0225 43.9568C32.0217 44.6695 31.7398 45.3529 31.2387 45.8569C30.7376 46.3609 30.0582 46.6444 29.3495 46.6452H10.9526C10.244 46.6441 9.56467 46.3606 9.06362 45.8566C8.56257 45.3527 8.28063 44.6695 8.27961 43.9568V42.6184H32.0225V43.9568ZM32.0225 41.2626H8.27961V32.2761H8.56826L10.8429 34.6897C10.9058 34.7565 10.9815 34.8098 11.0656 34.8463C11.1496 34.8827 11.2401 34.9015 11.3317 34.9016C11.417 34.9013 11.5015 34.8849 11.5809 34.8532C11.706 34.8031 11.8134 34.7163 11.889 34.6042C11.9647 34.4921 12.0051 34.3597 12.0052 34.2242V32.2761H12.289C13.0655 32.2751 13.8099 31.9644 14.3589 31.4122C14.908 30.86 15.2169 30.1113 15.2179 29.3303V22.5484H17.3915L19.6661 24.9619C19.729 25.0288 19.8048 25.0821 19.8888 25.1185C19.9728 25.155 20.0634 25.1738 20.1549 25.1739C20.2402 25.1735 20.3248 25.1571 20.4041 25.1255C20.5293 25.0753 20.6366 24.9886 20.7122 24.8765C20.7879 24.7643 20.8283 24.632 20.8284 24.4965V22.5484H21.1123C21.8885 22.5476 22.6327 22.2373 23.1818 21.6854C23.7308 21.1336 24.0399 20.3852 24.0411 19.6045V12.0755C24.0404 11.2944 23.7316 10.5456 23.1824 9.99333C22.6333 9.44105 21.8888 9.13045 21.1123 9.12968H11.7521C10.9756 9.13045 10.231 9.44105 9.68194 9.99333C9.13283 10.5456 8.82401 11.2944 8.82324 12.0755V18.8623H8.27961V4.04323C8.28063 3.33037 8.5627 2.64701 9.06396 2.14304C9.56522 1.63906 10.2448 1.35561 10.9535 1.35484H29.3495C29.7861 1.35464 30.2162 1.46207 30.602 1.66773C30.9878 1.87338 31.3176 2.17099 31.5625 2.53452H30.7187C29.9422 2.53554 29.1978 2.84623 28.6488 3.39845C28.0997 3.95068 27.7908 4.69936 27.7898 5.48032V13.0026C27.7906 13.7836 28.0994 14.5325 28.6485 15.0847C29.1976 15.637 29.9421 15.9476 30.7187 15.9484H31.0074V17.8965C31.0074 18.032 31.0479 18.1643 31.1235 18.2765C31.1992 18.3886 31.3065 18.4753 31.4317 18.5255C31.5109 18.5576 31.5955 18.574 31.6809 18.5739C31.8039 18.5743 31.9247 18.5408 32.0302 18.4771L32.0225 41.2626ZM32.3467 16.1981V15.271C32.3467 15.0913 32.2758 14.919 32.1494 14.792C32.0231 14.6649 31.8518 14.5935 31.6732 14.5935H30.711C30.2916 14.593 29.8896 14.4253 29.593 14.127C29.2965 13.8287 29.1297 13.4244 29.1292 13.0026V5.48032C29.1299 5.05861 29.2968 4.65438 29.5933 4.35619C29.8898 4.05799 30.2917 3.89012 30.711 3.88935H40.0702C40.4895 3.88987 40.8916 4.05765 41.1881 4.3559C41.4847 4.65416 41.6515 5.05853 41.652 5.48032V13.0026C41.6517 13.4245 41.485 13.829 41.1884 14.1273C40.8918 14.4256 40.4896 14.5933 40.0702 14.5935H34.147C34.0554 14.5936 33.9649 14.6125 33.8809 14.6489C33.7968 14.6853 33.7211 14.7386 33.6582 14.8055L32.3467 16.1981Z" fill="black"/>
<path d="M11.7596 24.5681C11.7218 24.4508 11.6529 24.3461 11.5603 24.2652C11.4678 24.1844 11.355 24.1305 11.2342 24.1094L9.17708 23.7523L8.20239 21.8933C8.14525 21.784 8.05953 21.6926 7.95447 21.6288C7.84942 21.565 7.72903 21.5312 7.60631 21.5312C7.4836 21.5312 7.36321 21.565 7.25816 21.6288C7.1531 21.6926 7.06738 21.784 7.01024 21.8933L6.03555 23.7523L3.9784 24.1094C3.85759 24.1305 3.74479 24.1843 3.65216 24.2651C3.55953 24.3459 3.49059 24.4506 3.45277 24.5679C3.41494 24.6852 3.40968 24.8107 3.43754 24.9308C3.46539 25.0509 3.52532 25.161 3.61085 25.2494L5.06759 26.7552L4.76835 28.8339C4.75106 28.9557 4.76709 29.08 4.81473 29.1934C4.86236 29.3067 4.93979 29.4049 5.03871 29.4773C5.13763 29.5497 5.2543 29.5937 5.37619 29.6045C5.49808 29.6152 5.62058 29.5924 5.73054 29.5384L7.60391 28.6104L9.47824 29.5384C9.5882 29.5924 9.7107 29.6152 9.83259 29.6045C9.95448 29.5937 10.0711 29.5497 10.1701 29.4773C10.269 29.4049 10.3464 29.3067 10.3941 29.1934C10.4417 29.08 10.4577 28.9557 10.4404 28.8339L10.146 26.7552L11.6027 25.2494C11.688 25.1609 11.7477 25.0507 11.7753 24.9307C11.803 24.8106 11.7975 24.6853 11.7596 24.5681ZM8.94808 26.0497C8.87617 26.1241 8.82221 26.2141 8.79035 26.3127C8.75848 26.4114 8.74957 26.5161 8.7643 26.6188L8.92787 27.7549L7.90411 27.2478C7.81132 27.2018 7.70926 27.178 7.60583 27.1781C7.50273 27.1781 7.40102 27.202 7.30852 27.2478L6.28476 27.7549L6.44833 26.6188C6.46293 26.516 6.45387 26.4113 6.42184 26.3126C6.38981 26.2139 6.33566 26.124 6.26359 26.0497L5.4669 25.2262L6.59169 25.0326C6.69326 25.015 6.78945 24.9742 6.87286 24.9133C6.95627 24.8524 7.02466 24.773 7.07278 24.6813L7.60583 23.6642L8.13888 24.6784C8.187 24.7701 8.2554 24.8494 8.33881 24.9104C8.42221 24.9713 8.51841 25.0121 8.61998 25.0297L9.74477 25.2233L8.94808 26.0497Z" fill="#FB9100"/>
<path d="M35.2344 11.9373C35.3164 11.9785 35.4075 12 35.5 12C35.5925 12 35.6836 11.9785 35.7656 11.9373C38.7261 10.4649 39.0582 8.88218 38.9929 8.06935C38.9569 7.63052 38.789 7.21124 38.5096 6.86262C38.2302 6.514 37.8513 6.25111 37.4193 6.106C36.7139 5.87875 36.0068 6.02654 35.5004 6.50328C34.9941 6.02654 34.287 5.87557 33.5807 6.106C33.1487 6.25111 32.7698 6.514 32.4904 6.86262C32.211 7.21124 32.0431 7.63052 32.0071 8.06935C31.9418 8.88218 32.2739 10.4649 35.2344 11.9373Z" fill="#FB9100"/>
<path d="M16.7979 36.2165C16.7979 36.0825 16.8374 35.9515 16.9114 35.8401C16.9854 35.7287 17.0906 35.6419 17.2136 35.5906C17.3367 35.5394 17.4721 35.5259 17.6028 35.5521C17.7334 35.5782 17.8534 35.6427 17.9476 35.7375C18.0418 35.8322 18.106 35.9529 18.132 36.0843C18.158 36.2157 18.1446 36.3519 18.0936 36.4757C18.0427 36.5995 17.9563 36.7053 17.8456 36.7797C17.7348 36.8542 17.6046 36.8939 17.4714 36.8939C17.2927 36.8939 17.1214 36.8225 16.9951 36.6955C16.8688 36.5684 16.7979 36.3961 16.7979 36.2165Z" fill="black"/>
<path d="M19.4795 36.2165C19.4795 36.0825 19.519 35.9515 19.593 35.8401C19.667 35.7287 19.7722 35.6419 19.8953 35.5906C20.0183 35.5394 20.1538 35.5259 20.2844 35.5521C20.4151 35.5782 20.5351 35.6427 20.6293 35.7375C20.7235 35.8322 20.7876 35.9529 20.8136 36.0843C20.8396 36.2157 20.8263 36.3519 20.7753 36.4757C20.7243 36.5995 20.638 36.7053 20.5272 36.7797C20.4165 36.8542 20.2862 36.8939 20.153 36.8939C19.9744 36.8939 19.8031 36.8225 19.6768 36.6955C19.5505 36.5684 19.4795 36.3961 19.4795 36.2165Z" fill="#FB9100"/>
<path d="M22.1572 36.2165C22.1572 36.0825 22.1967 35.9515 22.2707 35.8401C22.3447 35.7287 22.4499 35.6419 22.573 35.5906C22.6961 35.5394 22.8315 35.5259 22.9622 35.5521C23.0928 35.5782 23.2128 35.6427 23.307 35.7375C23.4012 35.8322 23.4654 35.9529 23.4913 36.0843C23.5173 36.2157 23.504 36.3519 23.453 36.4757C23.402 36.5995 23.3157 36.7053 23.2049 36.7797C23.0942 36.8542 22.964 36.8939 22.8308 36.8939C22.6521 36.8939 22.4808 36.8225 22.3545 36.6955C22.2282 36.5684 22.1572 36.3961 22.1572 36.2165Z" fill="black"/>
<path d="M20.4047 14.7721C20.3177 14.656 20.205 14.562 20.0756 14.4975C19.9461 14.433 19.8035 14.3998 19.659 14.4004H17.6644V12.7756C17.6641 12.5254 17.5652 12.2856 17.3893 12.1087C17.2135 11.9318 16.975 11.8323 16.7263 11.8321H16.6118C16.4443 11.831 16.2797 11.8753 16.1353 11.9605C15.9908 12.0457 15.8719 12.1685 15.791 12.3159L14.7326 14.2379C14.6392 14.2083 14.5419 14.1929 14.444 14.1924H13.2249C12.9697 14.1924 12.725 14.2943 12.5445 14.4758C12.3641 14.6573 12.2627 14.9035 12.2627 15.1601V18.7262C12.2627 18.9829 12.3641 19.2291 12.5445 19.4105C12.725 19.592 12.9697 19.694 13.2249 19.694H14.4411C14.6474 19.6936 14.848 19.6256 15.0126 19.5004L15.4716 19.7656C15.5735 19.8254 15.6894 19.8568 15.8074 19.8566H18.7093C18.9158 19.8555 19.1162 19.7866 19.28 19.6602C19.4438 19.5339 19.5621 19.3571 19.6167 19.1569L20.5654 15.5927C20.6033 15.4527 20.6086 15.3058 20.5807 15.1634C20.5528 15.0211 20.4926 14.8871 20.4047 14.7721ZM14.0543 18.3314H13.6098V15.5443H14.0524L14.0543 18.3314ZM18.3995 18.4959H15.9854L15.3985 18.1553V15.8182L16.148 14.3821C16.2721 14.0782 16.3193 14.0172 16.3404 14.023C16.3616 14.0288 16.3337 14.2166 16.3164 14.5069C16.3039 14.6986 16.3039 14.891 16.3164 15.0827C16.3168 15.2637 16.3876 15.4374 16.5136 15.5666C16.6407 15.6918 16.812 15.7614 16.9899 15.7601H19.125L18.3995 18.4959Z" fill="#FB9100"/>
<path d="M22.6926 44.6305C22.6926 44.8102 22.6217 44.9825 22.4953 45.1096C22.369 45.2366 22.1977 45.308 22.0191 45.308H18.2849C18.1062 45.308 17.9349 45.2366 17.8086 45.1096C17.6823 44.9825 17.6113 44.8102 17.6113 44.6305C17.6113 44.4509 17.6823 44.2786 17.8086 44.1515C17.9349 44.0245 18.1062 43.9531 18.2849 43.9531H22.0191C22.1977 43.9531 22.369 44.0245 22.4953 44.1515C22.6217 44.2786 22.6926 44.4509 22.6926 44.6305Z" fill="black"/>
</g>
<defs>
<clipPath id="clip0_1637_3300">
<rect width="43" height="48" fill="white"/>
</clipPath>
</defs>
</svg>
