<svg width="48" height="48" viewBox="0 0 48 48" fill="none" xmlns="http://www.w3.org/2000/svg">
<g clip-path="url(#clip0_1637_1283)">
<path d="M12.8023 17.6016H11.2023C10.9902 17.6016 10.7867 17.6858 10.6367 17.8359C10.4866 17.9859 10.4023 18.1894 10.4023 18.4016V24.8016C10.4023 25.0137 10.4866 25.2172 10.6367 25.3672C10.7867 25.5173 10.9902 25.6016 11.2023 25.6016H12.8023C13.4389 25.6016 14.0493 25.3487 14.4994 24.8986C14.9495 24.4485 15.2023 23.8381 15.2023 23.2016C15.2028 22.6108 14.9844 22.0408 14.5893 21.6016C14.9844 21.1623 15.2028 20.5923 15.2023 20.0016C15.2023 19.365 14.9495 18.7546 14.4994 18.3045C14.0493 17.8544 13.4389 17.6016 12.8023 17.6016ZM12.8023 24.0016H12.0023V22.4016H12.8023C13.0145 22.4016 13.218 22.4858 13.368 22.6359C13.5181 22.7859 13.6023 22.9894 13.6023 23.2016C13.6023 23.4137 13.5181 23.6172 13.368 23.7672C13.218 23.9173 13.0145 24.0016 12.8023 24.0016ZM12.8023 20.8016H12.0023V19.2016H12.8023C13.0145 19.2016 13.218 19.2858 13.368 19.4359C13.5181 19.5859 13.6023 19.7894 13.6023 20.0016C13.6023 20.2137 13.5181 20.4172 13.368 20.5672C13.218 20.7173 13.0145 20.8016 12.8023 20.8016Z" fill="#242424"/>
<path d="M20.8039 20.0016C20.8039 19.365 20.551 18.7546 20.101 18.3045C19.6509 17.8544 19.0404 17.6016 18.4039 17.6016H16.8039C16.5917 17.6016 16.3882 17.6858 16.2382 17.8359C16.0882 17.9859 16.0039 18.1894 16.0039 18.4016V25.6016H17.6039V22.4016H18.0509C18.7954 23.2477 19.2054 24.3365 19.2039 25.4636V25.6016H20.8039V25.4636C20.8072 24.2252 20.4406 23.0141 19.7509 21.9856C20.0749 21.7658 20.3403 21.4702 20.5238 21.1244C20.7074 20.7785 20.8035 20.3931 20.8039 20.0016ZM18.4039 20.8016H17.6039V19.2016H18.4039C18.6161 19.2016 18.8196 19.2858 18.9696 19.4359C19.1196 19.5859 19.2039 19.7894 19.2039 20.0016C19.2039 20.2137 19.1196 20.4172 18.9696 20.5672C18.8196 20.7173 18.6161 20.8016 18.4039 20.8016Z" fill="#242424"/>
<path d="M24.0035 17.6016C23.367 17.6016 22.7565 17.8544 22.3065 18.3045C21.8564 18.7546 21.6035 19.365 21.6035 20.0016V25.6016H23.2035V23.2016H24.8035V25.6016H26.4035V20.0016C26.4035 19.365 26.1507 18.7546 25.7006 18.3045C25.2505 17.8544 24.64 17.6016 24.0035 17.6016ZM24.8035 21.6016H23.2035V20.0016C23.2035 19.7894 23.2878 19.5859 23.4378 19.4359C23.5879 19.2858 23.7913 19.2016 24.0035 19.2016C24.2157 19.2016 24.4192 19.2858 24.5692 19.4359C24.7192 19.5859 24.8035 19.7894 24.8035 20.0016V21.6016Z" fill="#F89520"/>
<path d="M30.4031 21.4126L28.7191 18.0436C28.6384 17.8824 28.5056 17.7532 28.3422 17.677C28.1788 17.6008 27.9945 17.5819 27.8191 17.6236C27.6439 17.665 27.4877 17.7643 27.3759 17.9055C27.2641 18.0467 27.2032 18.2215 27.2031 18.4016V25.6016H28.8031V21.7916L30.4871 25.1596C30.5536 25.2925 30.6559 25.4042 30.7823 25.4823C30.9088 25.5604 31.0545 25.6017 31.2031 25.6016C31.265 25.6014 31.3268 25.5944 31.3871 25.5806C31.5625 25.5391 31.7188 25.4396 31.8306 25.2982C31.9424 25.1568 32.0032 24.9818 32.0031 24.8016V17.6016H30.4031V21.4126Z" fill="#242424"/>
<path d="M35.2027 17.6016H33.6027C33.3906 17.6016 33.1871 17.6858 33.037 17.8359C32.887 17.9859 32.8027 18.1894 32.8027 18.4016V24.8016C32.8027 25.0137 32.887 25.2172 33.037 25.3672C33.1871 25.5173 33.3906 25.6016 33.6027 25.6016H35.2027C35.8393 25.6016 36.4497 25.3487 36.8998 24.8986C37.3499 24.4485 37.6027 23.8381 37.6027 23.2016V20.0016C37.6027 19.365 37.3499 18.7546 36.8998 18.3045C36.4497 17.8544 35.8393 17.6016 35.2027 17.6016ZM36.0027 23.2016C36.0027 23.4137 35.9184 23.6172 35.7684 23.7672C35.6184 23.9173 35.4149 24.0016 35.2027 24.0016H34.4027V19.2016H35.2027C35.4149 19.2016 35.6184 19.2858 35.7684 19.4359C35.9184 19.5859 36.0027 19.7894 36.0027 20.0016V23.2016Z" fill="#242424"/>
<path d="M44.8039 9.6C45.0161 9.6 45.2196 9.51571 45.3696 9.36569C45.5196 9.21566 45.6039 9.01217 45.6039 8.8V7.2H48.0039V5.6H45.6039V4C45.6039 3.78783 45.5196 3.58434 45.3696 3.43431C45.2196 3.28429 45.0161 3.2 44.8039 3.2H43.2039V0H41.6039V3.2H40.0039C39.7917 3.2 39.5882 3.28429 39.4382 3.43431C39.2882 3.58434 39.2039 3.78783 39.2039 4V5.6H8.80391V4C8.80391 3.78783 8.71962 3.58434 8.56959 3.43431C8.41956 3.28429 8.21608 3.2 8.00391 3.2H6.40391V0H4.80391V3.2H3.20391C2.99173 3.2 2.78825 3.28429 2.63822 3.43431C2.48819 3.58434 2.40391 3.78783 2.40391 4V5.6H0.00390625V7.2H2.40391V8.8C2.40391 9.01217 2.48819 9.21566 2.63822 9.36569C2.78825 9.51571 2.99173 9.6 3.20391 9.6H4.80391V38.4H3.20391C2.99173 38.4 2.78825 38.4843 2.63822 38.6343C2.48819 38.7843 2.40391 38.9878 2.40391 39.2V40.8H0.00390625V42.4H2.40391V44C2.40391 44.2122 2.48819 44.4157 2.63822 44.5657C2.78825 44.7157 2.99173 44.8 3.20391 44.8H4.80391V48H6.40391V44.8H8.00391C8.21608 44.8 8.41956 44.7157 8.56959 44.5657C8.71962 44.4157 8.80391 44.2122 8.80391 44V42.4H39.2039V44C39.2039 44.2122 39.2882 44.4157 39.4382 44.5657C39.5882 44.7157 39.7917 44.8 40.0039 44.8H41.6039V48H43.2039V44.8H44.8039C45.0161 44.8 45.2196 44.7157 45.3696 44.5657C45.5196 44.4157 45.6039 44.2122 45.6039 44V42.4H48.0039V40.8H45.6039V39.2C45.6039 38.9878 45.5196 38.7843 45.3696 38.6343C45.2196 38.4843 45.0161 38.4 44.8039 38.4H43.2039V9.6H44.8039ZM4.00391 8V4.8H7.20391V8H4.00391ZM7.20391 43.2H4.00391V40H7.20391V43.2ZM39.2039 39.2V40.8H36.6799V40.811H36.1039V40.8H8.80391V39.2C8.80391 38.9878 8.71962 38.7843 8.56959 38.6343C8.41956 38.4843 8.21608 38.4 8.00391 38.4H6.40391V9.6H8.00391C8.21608 9.6 8.41956 9.51571 8.56959 9.36569C8.71962 9.21566 8.80391 9.01217 8.80391 8.8V7.2H39.2039V8.8C39.2039 9.01217 39.2882 9.21566 39.4382 9.36569C39.5882 9.51571 39.7917 9.6 40.0039 9.6H41.6039V38.4H40.0039C39.7917 38.4 39.5882 38.4843 39.4382 38.6343C39.2882 38.7843 39.2039 38.9878 39.2039 39.2ZM44.0039 40V43.2H40.8039V40H44.0039ZM40.8039 8V4.8H44.0039V8H40.8039Z" fill="#242424"/>
<path d="M40.0773 36.173L37.2443 34.6C37.2519 34.555 37.2559 34.5096 37.2563 34.464C37.2558 34.2388 37.1659 34.023 37.0063 33.864L36.4583 33.316C36.3051 33.1621 36.0984 33.0732 35.8813 33.068L35.9003 31.445C35.9023 31.2025 35.8302 30.9651 35.6936 30.7646C35.5571 30.5641 35.3627 30.4101 35.1363 30.323L30.1023 28.406C29.9214 28.3367 29.7243 28.3215 29.5348 28.3621C29.3454 28.4028 29.1719 28.4976 29.0353 28.635C28.8986 28.7716 28.8044 28.9449 28.7642 29.1339C28.7239 29.3229 28.7392 29.5195 28.8083 29.7L30.7223 34.732C30.8077 34.9572 30.9595 35.1512 31.1575 35.2883C31.3555 35.4254 31.5905 35.4992 31.8313 35.5H31.8443L33.4673 35.481C33.4735 35.6981 33.5626 35.9046 33.7163 36.058L34.2643 36.606C34.343 36.6851 34.4364 36.7479 34.5394 36.7908C34.6424 36.8337 34.7528 36.8559 34.8643 36.856C34.9103 36.8561 34.9561 36.852 35.0013 36.844L36.5723 39.678C36.608 39.7421 36.6603 39.7955 36.7236 39.8326C36.7869 39.8697 36.859 39.8892 36.9323 39.889C37.0023 39.8893 37.0711 39.8718 37.1323 39.838C37.2275 39.7849 37.2978 39.6963 37.3278 39.5915C37.3577 39.4868 37.345 39.3744 37.2923 39.279L35.6923 36.387L36.7923 35.287L39.6843 36.887C39.7454 36.9212 39.8143 36.9391 39.8843 36.939C39.9576 36.9389 40.0296 36.9192 40.0927 36.8819C40.1558 36.8446 40.2078 36.7911 40.2433 36.727C40.2942 36.6314 40.3053 36.5196 40.2743 36.4159C40.2432 36.3121 40.1724 36.2248 40.0773 36.173ZM31.8353 34.673C31.7608 34.6739 31.6878 34.6519 31.6261 34.6101C31.5645 34.5683 31.5171 34.5085 31.4903 34.439L29.7903 29.965L31.6133 31.788C31.4925 32.0313 31.451 32.3064 31.4946 32.5745C31.5382 32.8427 31.6647 33.0904 31.8563 33.283C31.9767 33.4035 32.1196 33.499 32.277 33.564C32.4344 33.6291 32.603 33.6624 32.7733 33.662C32.9435 33.6624 33.112 33.6292 33.2693 33.5641C33.4265 33.4991 33.5692 33.4035 33.6893 33.283C33.9318 33.0394 34.0679 32.7097 34.0679 32.366C34.0679 32.0223 33.9318 31.6926 33.6893 31.449C33.5694 31.3283 33.4266 31.2326 33.2694 31.1675C33.1121 31.1025 32.9435 31.0693 32.7733 31.07C32.5723 31.0694 32.374 31.116 32.1943 31.206L30.3713 29.384L34.8453 31.084C34.9149 31.1105 34.9747 31.1577 35.0167 31.2192C35.0587 31.2807 35.0809 31.3535 35.0803 31.428L35.0563 33.506L34.6933 33.869L33.9153 34.647L31.8353 34.673ZM32.7713 31.891C32.8336 31.891 32.8952 31.9033 32.9527 31.9271C33.0102 31.951 33.0624 31.9859 33.1063 32.03C33.1952 32.1192 33.2452 32.24 33.2452 32.366C33.2452 32.4919 33.1952 32.6128 33.1063 32.702C33.0173 32.7908 32.8966 32.8407 32.7708 32.8407C32.645 32.8407 32.5244 32.7908 32.4353 32.702C32.3464 32.6128 32.2965 32.4919 32.2965 32.366C32.2965 32.24 32.3464 32.1192 32.4353 32.03C32.5249 31.942 32.6458 31.8931 32.7713 31.894V31.891ZM34.2883 35.45C34.2882 35.4457 34.2889 35.4415 34.2904 35.4376C34.292 35.4336 34.2943 35.43 34.2973 35.427L34.3753 35.349L35.7533 33.971L35.8323 33.892C35.8352 33.8891 35.8386 33.8868 35.8424 33.8852C35.8462 33.8837 35.8502 33.8829 35.8543 33.883C35.8628 33.8832 35.871 33.8864 35.8773 33.892L36.4253 34.44C36.4309 34.4464 36.4341 34.4545 36.4343 34.463C36.4344 34.4671 36.4336 34.4711 36.4321 34.4749C36.4306 34.4787 36.4282 34.4821 36.4253 34.485L34.8903 36.02C34.8873 36.023 34.8837 36.0253 34.8798 36.0269C34.8758 36.0284 34.8716 36.0291 34.8673 36.029C34.8632 36.0291 34.8592 36.0283 34.8554 36.0268C34.8516 36.0252 34.8482 36.0229 34.8453 36.02L34.2973 35.472C34.2921 35.4669 34.2889 35.4602 34.2883 35.453V35.45Z" fill="#F89520"/>
</g>
<defs>
<clipPath id="clip0_1637_1283">
<rect width="48" height="48" fill="white"/>
</clipPath>
</defs>
</svg>
