<svg width="48" height="48" viewBox="0 0 48 48" fill="none" xmlns="http://www.w3.org/2000/svg">
<g clip-path="url(#clip0_1637_2124)">
<path d="M40.9198 20.0856C40.7333 20.0855 40.5545 20.0114 40.4227 19.8796C40.2908 19.7477 40.2168 19.5689 40.2168 19.3824C40.2168 19.196 40.2908 19.0172 40.4227 18.8853C41.5875 17.7267 42.511 16.3485 43.1397 14.8306C43.7683 13.3127 44.0897 11.6851 44.0852 10.0422C44.0899 8.39941 43.7686 6.77202 43.1399 5.2543C42.5112 3.73657 41.5877 2.35868 40.4227 1.20043C40.2908 1.06857 40.2168 0.889765 40.2168 0.703323C40.2168 0.51688 40.2908 0.338071 40.4227 0.206216C40.488 0.140842 40.5655 0.0889808 40.6509 0.0535967C40.7362 0.0182126 40.8277 0 40.9201 0C41.0125 0 41.104 0.0182126 41.1894 0.0535967C41.2747 0.0889808 41.3523 0.140842 41.4176 0.206216C42.7136 1.49487 43.741 3.02783 44.4404 4.71632C45.1398 6.40481 45.4973 8.21528 45.4922 10.0429C45.497 11.8705 45.1393 13.6809 44.4398 15.3694C43.7402 17.0579 42.7128 18.5908 41.4169 19.8796C41.285 20.0114 41.1062 20.0855 40.9198 20.0856Z" fill="black"/>
<path d="M38.1239 17.2909C37.9374 17.2908 37.7586 17.2167 37.6268 17.0849C37.4949 16.953 37.4209 16.7742 37.4209 16.5878C37.4209 16.4013 37.4949 16.2225 37.6268 16.0906C39.2278 14.4855 40.1269 12.3109 40.1269 10.0438C40.1269 7.77669 39.2278 5.60211 37.6268 3.99695C37.4949 3.8651 37.4209 3.68629 37.4209 3.49985C37.4209 3.3134 37.4949 3.13459 37.6268 3.00274C37.7586 2.87093 37.9374 2.79688 38.1239 2.79688C38.3103 2.79688 38.4891 2.87093 38.621 3.00274C42.5029 6.88538 42.5029 13.2022 38.621 17.0849C38.4891 17.2167 38.3103 17.2908 38.1239 17.2909Z" fill="#FB9100"/>
<path d="M35.3255 14.4909C35.2332 14.4911 35.1417 14.4731 35.0563 14.4377C34.971 14.4023 34.8935 14.3504 34.8284 14.2849C34.6966 14.153 34.6226 13.9742 34.6226 13.7878C34.6226 13.6013 34.6966 13.4225 34.8284 13.2907C35.6885 12.4284 36.1715 11.2602 36.1715 10.0423C36.1715 8.82433 35.6885 7.65612 34.8284 6.79383C34.6966 6.66197 34.6226 6.48316 34.6226 6.29672C34.6226 6.11028 34.6966 5.93147 34.8284 5.79961C34.9603 5.6678 35.1391 5.59375 35.3255 5.59375C35.512 5.59375 35.6908 5.6678 35.8226 5.79961C36.9462 6.92571 37.5772 8.4515 37.5772 10.0423C37.5772 11.633 36.9462 13.1588 35.8226 14.2849C35.7575 14.3504 35.6801 14.4023 35.5947 14.4377C35.5094 14.4731 35.4179 14.4911 35.3255 14.4909Z" fill="black"/>
<path d="M7.07957 20.0863C6.8931 20.0862 6.71429 20.0121 6.58246 19.8803C5.28659 18.5914 4.25922 17.0583 3.55981 15.3697C2.86041 13.6811 2.50286 11.8706 2.50787 10.0429C2.50272 8.21528 2.86021 6.40481 3.55962 4.71632C4.25904 3.02783 5.28648 1.49487 6.58246 0.206216C6.64776 0.140842 6.72531 0.0889808 6.81066 0.0535967C6.89602 0.0182126 6.98752 0 7.07992 0C7.17232 0 7.26381 0.0182126 7.34917 0.0535967C7.43453 0.0889808 7.51208 0.140842 7.57738 0.206216C7.70919 0.338071 7.78324 0.516881 7.78324 0.703323C7.78324 0.889766 7.70919 1.06858 7.57738 1.20043C6.41239 2.35868 5.4888 3.73657 4.8601 5.2543C4.23141 6.77202 3.91011 8.39941 3.91481 10.0422C3.91031 11.6851 4.2317 13.3127 4.86037 14.8306C5.48905 16.3485 6.41253 17.7267 7.57738 18.8853C7.70919 19.0172 7.78324 19.196 7.78324 19.3825C7.78324 19.5689 7.70919 19.7477 7.57738 19.8796C7.51207 19.9451 7.43449 19.997 7.34907 20.0325C7.26364 20.068 7.17206 20.0863 7.07957 20.0863Z" fill="black"/>
<path d="M9.87832 17.2909C9.69186 17.2908 9.51305 17.2167 9.38122 17.0849C5.49858 13.2022 5.49858 6.88538 9.38122 3.00274C9.51307 2.87093 9.69188 2.79688 9.87832 2.79688C10.0648 2.79688 10.2436 2.87093 10.3754 3.00274C10.5072 3.13459 10.5813 3.3134 10.5813 3.49985C10.5813 3.68629 10.5072 3.8651 10.3754 3.99695C8.77408 5.60193 7.87475 7.77658 7.87475 10.0438C7.87475 12.311 8.77408 14.4857 10.3754 16.0906C10.5072 16.2225 10.5813 16.4013 10.5813 16.5878C10.5813 16.7742 10.5072 16.953 10.3754 17.0849C10.2436 17.2167 10.0648 17.2908 9.87832 17.2909Z" fill="#FB9100"/>
<path d="M12.6735 14.4909C12.5812 14.4911 12.4897 14.4731 12.4043 14.4377C12.319 14.4023 12.2415 14.3504 12.1764 14.2849C11.0529 13.1588 10.4219 11.633 10.4219 10.0423C10.4219 8.4515 11.0529 6.92571 12.1764 5.79961C12.3083 5.6678 12.4871 5.59375 12.6735 5.59375C12.86 5.59375 13.0388 5.6678 13.1706 5.79961C13.3025 5.93147 13.3765 6.11028 13.3765 6.29672C13.3765 6.48316 13.3025 6.66197 13.1706 6.79383C12.3105 7.65612 11.8275 8.82433 11.8275 10.0423C11.8275 11.2602 12.3105 12.4284 13.1706 13.2907C13.3025 13.4225 13.3765 13.6013 13.3765 13.7878C13.3765 13.9742 13.3025 14.153 13.1706 14.2849C13.1055 14.3504 13.0281 14.4023 12.9427 14.4377C12.8574 14.4731 12.7659 14.4911 12.6735 14.4909Z" fill="black"/>
<path d="M28.1665 19.3324C27.98 19.3324 27.8012 19.2583 27.6693 19.1264C27.5374 18.9946 27.4634 18.8157 27.4634 18.6292V18.348C27.4634 16.1922 27.713 15.5911 29.2423 14.059C30.6309 12.6675 31.4107 10.7819 31.4107 8.81613C31.4107 6.85031 30.6309 4.96478 29.2423 3.5733C28.5553 2.88292 27.7383 2.33566 26.8384 1.9632C25.9385 1.59075 24.9737 1.4005 23.9998 1.40347C23.0258 1.40103 22.0611 1.59152 21.1612 1.96394C20.2612 2.33636 19.444 2.88334 18.7566 3.5733C17.3695 4.96572 16.5907 6.85106 16.5907 8.81648C16.5907 10.7819 17.3695 12.6672 18.7566 14.0597C20.288 15.5911 20.5383 16.1922 20.5383 18.3487V18.6299C20.5383 18.8164 20.4642 18.9953 20.3324 19.1271C20.2005 19.259 20.0217 19.3331 19.8352 19.3331C19.6487 19.3331 19.4699 19.259 19.338 19.1271C19.2062 18.9953 19.1321 18.8164 19.1321 18.6299V18.3487C19.1321 16.4882 18.9964 16.2907 17.7617 15.056C14.3255 11.617 14.3255 6.02087 17.7617 2.5819C18.5793 1.76091 19.5515 1.11004 20.6221 0.666894C21.6926 0.223745 22.8404 -0.00290306 23.9991 3.96459e-05C25.1578 -0.00344608 26.3058 0.222954 27.3764 0.666134C28.4471 1.10931 29.4192 1.76047 30.2365 2.5819C31.8882 4.23736 32.8158 6.48041 32.8158 8.81894C32.8158 11.1575 31.8882 13.4005 30.2365 15.056C28.9561 16.3371 28.8696 16.548 28.8696 18.3501V18.6314C28.869 18.8175 28.7947 18.9958 28.6629 19.1272C28.5311 19.2586 28.3526 19.3324 28.1665 19.3324Z" fill="black"/>
<path d="M25.1261 26.3188H22.8761C22.0071 26.3177 21.174 25.972 20.5595 25.3575C19.945 24.743 19.5993 23.9099 19.5981 23.0408V21.6719C19.5981 21.4854 19.6722 21.3065 19.8041 21.1747C19.9359 21.0428 20.1148 20.9688 20.3013 20.9688C20.4877 20.9688 20.6666 21.0428 20.7985 21.1747C20.9303 21.3065 21.0044 21.4854 21.0044 21.6719V23.0408C21.0049 23.537 21.2022 24.0126 21.553 24.3635C21.9037 24.7144 22.3793 24.9118 22.8754 24.9126H25.1254C25.6217 24.912 26.0975 24.7146 26.4485 24.3638C26.7995 24.0129 26.9971 23.5372 26.9978 23.0408V21.6719C26.9978 21.4854 27.0719 21.3065 27.2037 21.1747C27.3356 21.0428 27.5144 20.9688 27.7009 20.9688C27.8874 20.9688 28.0662 21.0428 28.1981 21.1747C28.33 21.3065 28.404 21.4854 28.404 21.6719V23.0408C28.4029 23.9099 28.0572 24.743 27.4427 25.3575C26.8282 25.972 25.9951 26.3177 25.1261 26.3188Z" fill="black"/>
<path d="M23.9995 19.33C23.813 19.33 23.6342 19.2559 23.5023 19.124C23.3705 18.9922 23.2964 18.8133 23.2964 18.6268V10.5508C23.2964 10.3643 23.3705 10.1855 23.5023 10.0536C23.6342 9.92173 23.813 9.84766 23.9995 9.84766C24.186 9.84766 24.3648 9.92173 24.4967 10.0536C24.6285 10.1855 24.7026 10.3643 24.7026 10.5508V18.6268C24.7026 18.8133 24.6285 18.9922 24.4967 19.124C24.3648 19.2559 24.186 19.33 23.9995 19.33Z" fill="#FB9100"/>
<path d="M26.0621 11.2539H21.9404C21.7539 11.2539 21.5751 11.1798 21.4432 11.048C21.3114 10.9161 21.2373 10.7373 21.2373 10.5508C21.2373 10.3643 21.3114 10.1855 21.4432 10.0536C21.5751 9.92173 21.7539 9.84766 21.9404 9.84766H26.0621C26.2486 9.84766 26.4274 9.92173 26.5593 10.0536C26.6912 10.1855 26.7653 10.3643 26.7653 10.5508C26.7653 10.7373 26.6912 10.9161 26.5593 11.048C26.4274 11.1798 26.2486 11.2539 26.0621 11.2539Z" fill="#FB9100"/>
<path d="M20.2609 48.0006C20.2187 48.0004 20.1766 47.9964 20.1351 47.9887C19.9516 47.9555 19.7888 47.8508 19.6825 47.6975C19.5762 47.5443 19.5352 47.3551 19.5684 47.1716L21.2348 37.9608C21.268 37.7773 21.3727 37.6145 21.5259 37.5082C21.6791 37.4019 21.8683 37.3609 22.0518 37.394C22.2353 37.4272 22.3981 37.532 22.5043 37.6852C22.6106 37.8384 22.6517 38.0276 22.6185 38.2111L20.9521 47.422C20.9229 47.5841 20.8378 47.7309 20.7114 47.8366C20.5851 47.9424 20.4257 48.0004 20.2609 48.0006Z" fill="#FB9100"/>
<path d="M26.0733 38.7899H21.9249C21.792 38.7892 21.662 38.7509 21.55 38.6793C21.438 38.6078 21.3486 38.5059 21.2921 38.3856L19.5646 34.7048C19.5254 34.6212 19.503 34.5307 19.4988 34.4384C19.4946 34.3462 19.5086 34.254 19.54 34.1672C19.5714 34.0803 19.6196 34.0005 19.6818 33.9323C19.7441 33.8641 19.8191 33.8088 19.9028 33.7696C19.9864 33.7304 20.0769 33.7081 20.1691 33.7039C20.2614 33.6996 20.3535 33.7136 20.4404 33.745C20.5272 33.7764 20.607 33.8246 20.6752 33.8869C20.7434 33.9491 20.7987 34.0242 20.8379 34.1078L22.3749 37.3837H25.6276L27.1674 34.1071C27.2471 33.9389 27.3902 33.8092 27.5653 33.7463C27.7405 33.6835 27.9334 33.6926 28.1019 33.7717C28.2705 33.8511 28.4007 33.9943 28.4638 34.1696C28.527 34.345 28.5179 34.5382 28.4387 34.7069L26.7062 38.3863C26.6496 38.5065 26.5601 38.6082 26.4481 38.6796C26.3361 38.751 26.2062 38.7893 26.0733 38.7899Z" fill="#FB9100"/>
<path d="M27.7402 48.0006C27.5756 48.0003 27.4164 47.9423 27.2903 47.8367C27.1641 47.7311 27.079 47.5846 27.0497 47.4227L25.3805 38.2118C25.364 38.1209 25.3655 38.0276 25.385 37.9373C25.4046 37.847 25.4417 37.7614 25.4944 37.6854C25.547 37.6095 25.6141 37.5447 25.6918 37.4947C25.7695 37.4447 25.8563 37.4105 25.9472 37.394C26.1307 37.3609 26.3199 37.4019 26.4731 37.5082C26.6263 37.6145 26.731 37.7773 26.7642 37.9608L28.4327 47.1716C28.466 47.3545 28.4255 47.5432 28.3201 47.6963C28.2147 47.8494 28.053 47.9545 27.8702 47.9887C27.8273 47.9967 27.7838 48.0007 27.7402 48.0006Z" fill="#FB9100"/>
<path d="M18.8472 35.8614C18.7784 35.8614 18.7099 35.8514 18.644 35.8319C18.5537 35.8046 18.4698 35.7594 18.3973 35.699C18.3248 35.6386 18.2652 35.5642 18.2221 35.4803L15.1234 29.4827C15.081 29.4006 15.0552 29.311 15.0474 29.2189C15.0396 29.1268 15.0501 29.0341 15.0782 28.9461C15.1063 28.8581 15.1514 28.7765 15.2111 28.7059C15.2707 28.6353 15.3437 28.5772 15.4258 28.5349C15.5915 28.4494 15.7843 28.4332 15.9619 28.4899C16.1395 28.5466 16.2874 28.6716 16.3729 28.8372L19.1383 34.1936L22.7579 32.1756L18.5062 28.6692C18.4345 28.6105 18.375 28.5383 18.3313 28.4566C18.2876 28.375 18.2605 28.2855 18.2515 28.1933C18.2424 28.1011 18.2517 28.008 18.2788 27.9194C18.3058 27.8309 18.3501 27.7485 18.4091 27.6771C18.4681 27.6058 18.5405 27.5468 18.6222 27.5035C18.704 27.4603 18.7935 27.4336 18.8856 27.4249C18.9777 27.4163 19.0706 27.4259 19.1589 27.4533C19.2473 27.4806 19.3294 27.5251 19.4005 27.5843L24.4468 31.746C24.5352 31.8188 24.6044 31.9121 24.6485 32.0177C24.6926 32.1233 24.7103 32.2381 24.7 32.3521C24.6896 32.4661 24.6516 32.5758 24.5892 32.6717C24.5269 32.7677 24.442 32.847 24.3421 32.9027L19.1896 35.7756C19.0845 35.8325 18.9667 35.862 18.8472 35.8614Z" fill="black"/>
<path d="M29.152 35.8619C29.0323 35.8617 28.9145 35.8312 28.8096 35.7733L23.6571 32.9003C23.5572 32.8446 23.4724 32.7653 23.41 32.6694C23.3476 32.5735 23.3096 32.4637 23.2993 32.3498C23.2889 32.2358 23.3066 32.121 23.3507 32.0154C23.3948 31.9097 23.464 31.8165 23.5524 31.7437L28.6043 27.5847C28.7476 27.4675 28.9313 27.4115 29.1156 27.4289C29.2998 27.4463 29.4699 27.5356 29.5887 27.6775C29.7071 27.8214 29.7636 28.0065 29.7456 28.192C29.7277 28.3775 29.6368 28.5483 29.4931 28.6668L25.2385 32.1733L28.8581 34.1913L31.6277 28.8356C31.7134 28.67 31.8613 28.5453 32.0388 28.4887C32.2164 28.4322 32.4092 28.4484 32.5748 28.5339C32.6572 28.5762 32.7304 28.6344 32.7902 28.705C32.8501 28.7756 32.8954 28.8574 32.9235 28.9456C32.9517 29.0338 32.9621 29.1267 32.9543 29.2189C32.9465 29.3112 32.9205 29.401 32.8779 29.4832L29.7771 35.4836C29.734 35.5675 29.6744 35.6419 29.6019 35.7023C29.5294 35.7627 29.4456 35.8079 29.3552 35.8352C29.2891 35.8537 29.2207 35.8627 29.152 35.8619Z" fill="black"/>
<path d="M41.6183 47.9988H12.5885C12.402 47.9988 12.2232 47.9247 12.0913 47.7929C11.9595 47.661 11.8854 47.4822 11.8854 47.2957C11.8854 47.1092 11.9595 46.9304 12.0913 46.7985C12.2232 46.6667 12.402 46.5926 12.5885 46.5926H41.6183C41.7385 46.5955 41.8588 46.5875 41.9776 46.5687C41.9909 46.4416 41.9923 46.3135 41.9818 46.1862C41.9818 46.1728 41.9818 46.1587 41.9818 46.1454V39.709C41.9818 36.668 40.0201 33.9891 36.1515 31.7469C33.415 30.1627 30.4119 29.2227 28.8658 28.8036C28.6862 28.7543 28.5335 28.6357 28.4413 28.474C28.349 28.3123 28.3247 28.1205 28.3736 27.9409C28.4229 27.7613 28.5414 27.6087 28.7032 27.5164C28.8649 27.4241 29.0566 27.3998 29.2363 27.4487C30.8486 27.886 33.9831 28.8676 36.8581 30.5319C38.7882 31.6505 40.3161 32.9091 41.3989 34.2732C42.7201 35.9368 43.3901 37.7663 43.3901 39.7111V46.1278C43.4169 46.6137 43.3901 47.16 43.0203 47.5523C42.6505 47.9447 42.1041 47.9988 41.6183 47.9988ZM9.345 47.9988H6.38416C5.90322 47.9988 5.36112 47.9461 4.98846 47.5509C4.61581 47.1558 4.5919 46.6123 4.61862 46.1257V39.709C4.61862 36.4908 6.41017 33.6558 9.94336 31.2821C13.073 29.1798 16.8185 27.9774 18.7725 27.4466C18.9521 27.3977 19.1439 27.422 19.3056 27.5143C19.4673 27.6065 19.5859 27.7592 19.6352 27.9388C19.6841 28.1184 19.6598 28.3102 19.5675 28.4719C19.4752 28.6336 19.3226 28.7522 19.143 28.8015C17.2727 29.3091 13.6924 30.4573 10.7301 32.4472C7.6097 34.5439 6.02767 36.9865 6.02767 39.7069V46.1475C6.02767 46.1609 6.02767 46.1742 6.02767 46.1883C6.01709 46.3156 6.0185 46.4437 6.03189 46.5708C6.14974 46.5896 6.26907 46.5976 6.38837 46.5947H9.33867C9.52515 46.5947 9.70399 46.6688 9.83585 46.8006C9.96771 46.9325 10.0418 47.1113 10.0418 47.2978C10.0412 47.4839 9.96691 47.6622 9.83511 47.7936C9.70331 47.925 9.52479 47.9988 9.33867 47.9988H9.345Z" fill="black"/>
<path d="M28.1664 22.3772H25.5944C25.4079 22.3772 25.2291 22.3032 25.0972 22.1713C24.9654 22.0394 24.8913 21.8606 24.8913 21.6741C24.8913 21.4876 24.9654 21.3088 25.0972 21.1769C25.2291 21.0451 25.4079 20.971 25.5944 20.971H28.1664C28.3837 20.9708 28.592 20.8845 28.7457 20.7309C28.8994 20.5774 28.9859 20.3691 28.9863 20.1519C28.9861 19.9345 28.8996 19.7261 28.7459 19.5724C28.5922 19.4186 28.3838 19.3322 28.1664 19.332H19.8358C19.6184 19.3322 19.41 19.4186 19.2563 19.5724C19.1026 19.7261 19.0162 19.9345 19.016 20.1519C19.0164 20.3691 19.1029 20.5774 19.2566 20.7309C19.4103 20.8845 19.6186 20.9708 19.8358 20.971H22.3467C22.5332 20.971 22.712 21.0451 22.8439 21.1769C22.9757 21.3088 23.0498 21.4876 23.0498 21.6741C23.0498 21.8606 22.9757 22.0394 22.8439 22.1713C22.712 22.3032 22.5332 22.3772 22.3467 22.3772H19.833C19.2429 22.3767 18.6771 22.1421 18.2598 21.7249C17.8425 21.3077 17.6077 20.742 17.6069 20.1519C17.6075 19.5616 17.8422 18.9958 18.2596 18.5784C18.6769 18.1611 19.2428 17.9263 19.833 17.9258H28.1636C28.7538 17.9263 29.3197 18.1611 29.7371 18.5784C30.1544 18.9958 30.3891 19.5616 30.3897 20.1519C30.3889 20.7415 30.1545 21.3068 29.7378 21.7239C29.3211 22.141 28.756 22.3759 28.1664 22.3772Z" fill="#FB9100"/>
</g>
<defs>
<clipPath id="clip0_1637_2124">
<rect width="48" height="48" fill="white"/>
</clipPath>
</defs>
</svg>
