<svg width="36" height="48" viewBox="0 0 36 48" fill="none" xmlns="http://www.w3.org/2000/svg">
<g clip-path="url(#clip0_1637_4253)">
<path d="M0.894096 0.00252872C0.656967 0.00252872 0.429549 0.0957553 0.261874 0.261699C0.0941984 0.427643 0 0.652711 0 0.887391V47.1151C0 47.3498 0.0941984 47.5749 0.261874 47.7408C0.429549 47.9068 0.656967 48 0.894096 48H34.8493C35.0864 48 35.3138 47.9068 35.4815 47.7408C35.6492 47.5749 35.7434 47.3498 35.7434 47.1151V0.884863C35.7434 0.650182 35.6492 0.425114 35.4815 0.259171C35.3138 0.0932266 35.0864 0 34.8493 0L0.894096 0.00252872ZM12.4944 1.77225H23.249V3.55083C23.249 3.71846 23.1818 3.87922 23.062 3.99775C22.9422 4.11628 22.7798 4.18287 22.6104 4.18287H13.133C12.9636 4.18287 12.8012 4.11628 12.6814 3.99775C12.5616 3.87922 12.4944 3.71846 12.4944 3.55083V1.77225ZM33.9527 1.77225V46.2303H1.78819V1.77225H10.7062V3.55083C10.7062 4.18782 10.9618 4.79872 11.417 5.24914C11.8721 5.69955 12.4894 5.9526 13.133 5.9526H22.6104C23.254 5.9526 23.8713 5.69955 24.3264 5.24914C24.7816 4.79872 25.0372 4.18782 25.0372 3.55083V1.77225H33.9527Z" fill="black"/>
<path d="M12.6002 17.6894H6.05416C5.62032 17.6891 5.20435 17.5183 4.89757 17.2147C4.5908 16.9111 4.41831 16.4995 4.41797 16.0701V12.8302C4.41831 12.4009 4.5908 11.9892 4.89757 11.6856C5.20435 11.382 5.62032 11.2113 6.05416 11.2109H12.6002C13.034 11.2116 13.4497 11.3824 13.7564 11.686C14.0631 11.9895 14.2357 12.401 14.2364 12.8302V16.0701C14.2357 16.4994 14.0631 16.9108 13.7564 17.2144C13.4497 17.5179 13.034 17.6887 12.6002 17.6894ZM6.05416 12.2905C5.90952 12.2905 5.77079 12.3473 5.66851 12.4486C5.56623 12.5498 5.50877 12.6871 5.50877 12.8302V16.0701C5.5091 16.2131 5.56667 16.3502 5.66888 16.4514C5.77109 16.5526 5.90962 16.6095 6.05416 16.6099H12.6002C12.7448 16.6095 12.8833 16.5526 12.9855 16.4514C13.0877 16.3502 13.1453 16.2131 13.1456 16.0701V12.8302C13.1456 12.6871 13.0882 12.5498 12.9859 12.4486C12.8836 12.3473 12.7449 12.2905 12.6002 12.2905H6.05416Z" fill="#FB9100"/>
<path d="M12.6002 27.4069H6.05416C5.62032 27.4065 5.20435 27.2358 4.89757 26.9322C4.5908 26.6286 4.41831 26.2169 4.41797 25.7876V22.5502C4.41797 22.1207 4.59031 21.7087 4.89712 21.4048C5.20393 21.1009 5.6201 20.93 6.05416 20.9297H12.6002C13.0342 20.9304 13.4502 21.1014 13.7569 21.4052C14.0636 21.709 14.2361 22.1208 14.2364 22.5502V25.7888C14.2354 26.2179 14.0627 26.629 13.756 26.9323C13.4493 27.2356 13.0337 27.4062 12.6002 27.4069ZM6.05416 22.0092C5.90952 22.0092 5.77079 22.0661 5.66851 22.1673C5.56623 22.2685 5.50877 22.4058 5.50877 22.549V25.7888C5.50877 25.932 5.56623 26.0693 5.66851 26.1705C5.77079 26.2717 5.90952 26.3286 6.05416 26.3286H12.6002C12.7449 26.3286 12.8836 26.2717 12.9859 26.1705C13.0882 26.0693 13.1456 25.932 13.1456 25.7888V22.5502C13.1456 22.4071 13.0882 22.2698 12.9859 22.1686C12.8836 22.0674 12.7449 22.0105 12.6002 22.0105L6.05416 22.0092Z" fill="black"/>
<path d="M12.6002 37.1269H6.05416C5.62032 37.1266 5.20435 36.9558 4.89757 36.6522C4.5908 36.3486 4.41831 35.937 4.41797 35.5076V32.2677C4.41831 31.8384 4.5908 31.4267 4.89757 31.1231C5.20435 30.8195 5.62032 30.6488 6.05416 30.6484H12.6002C13.034 30.6491 13.4497 30.8199 13.7564 31.1235C14.0631 31.427 14.2357 31.8385 14.2364 32.2677V35.5076C14.2357 35.9369 14.0631 36.3483 13.7564 36.6519C13.4497 36.9554 13.034 37.1262 12.6002 37.1269ZM6.05416 31.728C5.90952 31.728 5.77079 31.7848 5.66851 31.8861C5.56623 31.9873 5.50877 32.1246 5.50877 32.2677V35.5076C5.5091 35.6506 5.56667 35.7877 5.66888 35.8889C5.77109 35.9901 5.90962 36.047 6.05416 36.0474H12.6002C12.7448 36.047 12.8833 35.9901 12.9855 35.8889C13.0877 35.7877 13.1453 35.6506 13.1456 35.5076V32.2677C13.1456 32.1246 13.0882 31.9873 12.9859 31.8861C12.8836 31.7848 12.7449 31.728 12.6002 31.728H6.05416Z" fill="#FB9100"/>
<path d="M30.0555 13.3725H16.9634C16.8187 13.3725 16.68 13.3156 16.5777 13.2144C16.4754 13.1132 16.418 12.9759 16.418 12.8327C16.418 12.6896 16.4754 12.5523 16.5777 12.4511C16.68 12.3498 16.8187 12.293 16.9634 12.293H30.0555C30.2001 12.293 30.3389 12.3498 30.4411 12.4511C30.5434 12.5523 30.6009 12.6896 30.6009 12.8327C30.6009 12.9759 30.5434 13.1132 30.4411 13.2144C30.3389 13.3156 30.2001 13.3725 30.0555 13.3725Z" fill="black"/>
<path d="M30.0555 16.6108H16.9634C16.8187 16.6108 16.68 16.5539 16.5777 16.4527C16.4754 16.3515 16.418 16.2142 16.418 16.071C16.418 15.9279 16.4754 15.7906 16.5777 15.6893C16.68 15.5881 16.8187 15.5312 16.9634 15.5312H30.0555C30.2001 15.5312 30.3389 15.5881 30.4411 15.6893C30.5434 15.7906 30.6009 15.9279 30.6009 16.071C30.6009 16.2142 30.5434 16.3515 30.4411 16.4527C30.3389 16.5539 30.2001 16.6108 30.0555 16.6108Z" fill="black"/>
<path d="M30.0555 23.0873H16.9634C16.8187 23.0873 16.68 23.0305 16.5777 22.9292C16.4754 22.828 16.418 22.6907 16.418 22.5476C16.418 22.4044 16.4754 22.2671 16.5777 22.1659C16.68 22.0647 16.8187 22.0078 16.9634 22.0078H30.0555C30.2001 22.0078 30.3389 22.0647 30.4411 22.1659C30.5434 22.2671 30.6009 22.4044 30.6009 22.5476C30.6009 22.6907 30.5434 22.828 30.4411 22.9292C30.3389 23.0305 30.2001 23.0873 30.0555 23.0873Z" fill="#FB9100"/>
<path d="M30.0555 26.3256H16.9634C16.8187 26.3256 16.68 26.2688 16.5777 26.1675C16.4754 26.0663 16.418 25.929 16.418 25.7859C16.418 25.6427 16.4754 25.5054 16.5777 25.4042C16.68 25.303 16.8187 25.2461 16.9634 25.2461H30.0555C30.2001 25.2461 30.3389 25.303 30.4411 25.4042C30.5434 25.5054 30.6009 25.6427 30.6009 25.7859C30.6009 25.929 30.5434 26.0663 30.4411 26.1675C30.3389 26.2688 30.2001 26.3256 30.0555 26.3256Z" fill="#FB9100"/>
<path d="M30.0555 32.8061H16.9634C16.8187 32.8061 16.68 32.7492 16.5777 32.648C16.4754 32.5468 16.418 32.4095 16.418 32.2663C16.418 32.1232 16.4754 31.9859 16.5777 31.8847C16.68 31.7834 16.8187 31.7266 16.9634 31.7266H30.0555C30.2001 31.7266 30.3389 31.7834 30.4411 31.8847C30.5434 31.9859 30.6009 32.1232 30.6009 32.2663C30.6009 32.4095 30.5434 32.5468 30.4411 32.648C30.3389 32.7492 30.2001 32.8061 30.0555 32.8061Z" fill="black"/>
<path d="M30.0555 36.0444H16.9634C16.8187 36.0444 16.68 35.9875 16.5777 35.8863C16.4754 35.7851 16.418 35.6478 16.418 35.5046C16.418 35.3615 16.4754 35.2242 16.5777 35.1229C16.68 35.0217 16.8187 34.9648 16.9634 34.9648H30.0555C30.2001 34.9648 30.3389 35.0217 30.4411 35.1229C30.5434 35.2242 30.6009 35.3615 30.6009 35.5046C30.6009 35.6478 30.5434 35.7851 30.4411 35.8863C30.3389 35.9875 30.2001 36.0444 30.0555 36.0444Z" fill="black"/>
</g>
<defs>
<clipPath id="clip0_1637_4253">
<rect width="35.7447" height="48" fill="white"/>
</clipPath>
</defs>
</svg>
