<svg width="51" height="48" viewBox="0 0 51 48" fill="none" xmlns="http://www.w3.org/2000/svg">
<g clip-path="url(#clip0_1637_2194)">
<path d="M50.2001 44.5263H29.5449C29.4402 44.5266 29.3364 44.5061 29.2396 44.466C29.1428 44.4259 29.0549 44.367 28.9808 44.2926C28.9068 44.2183 28.8481 44.13 28.8081 44.0329C28.7682 43.9357 28.7478 43.8315 28.748 43.7264V43.0026C28.7494 41.8503 29.206 40.7456 30.0177 39.9308C30.8293 39.116 31.9298 38.6576 33.0777 38.6562H46.6694C47.8172 38.6576 48.9177 39.116 49.7294 39.9308C50.541 40.7456 50.9976 41.8503 50.999 43.0026V43.7264C50.9982 43.9387 50.9137 44.142 50.764 44.2919C50.6143 44.4417 50.4115 44.526 50.2001 44.5263ZM30.3459 42.9265H49.4033C49.383 42.2121 49.0864 41.5336 48.5762 41.0351C48.066 40.5365 47.3824 40.2571 46.6704 40.256H33.0787C32.3666 40.2576 31.683 40.5371 31.1724 41.0355C30.6618 41.5338 30.3643 42.212 30.3427 42.9265H30.3459Z" fill="black"/>
<path d="M41.8968 37.1076C41.792 37.1079 41.6883 37.0874 41.5915 37.0473C41.4947 37.0072 41.4068 36.9483 41.3327 36.8739C41.2587 36.7996 41.2 36.7113 41.16 36.6141C41.1201 36.517 41.0997 36.4128 41.0999 36.3077V32.1416C41.094 30.932 41.4169 29.7436 42.0337 28.7045C42.2614 28.3243 42.3852 27.8904 42.3926 27.4468C42.4 27.0032 42.2908 26.5654 42.076 26.1777C41.8611 25.79 41.5482 25.4659 41.1688 25.2383C40.7895 25.0106 40.357 24.8874 39.9151 24.8811H39.8788C39.4355 24.8809 39.0001 24.9981 38.6164 25.2208C38.2328 25.4436 37.9144 25.7639 37.6934 26.1496C37.4724 26.5353 37.3566 26.9726 37.3578 27.4175C37.3589 27.8624 37.477 28.2992 37.6999 28.6837C38.3149 29.7303 38.6415 30.9223 38.6462 32.1374V36.3036C38.6462 36.5157 38.5622 36.7192 38.4128 36.8692C38.2633 37.0192 38.0607 37.1034 37.8493 37.1034C37.638 37.1034 37.4353 37.0192 37.2859 36.8692C37.1365 36.7192 37.0525 36.5157 37.0525 36.3036V32.1374C37.0486 31.2072 36.798 30.2947 36.3262 29.494C35.9594 28.8656 35.7648 28.1508 35.7622 27.4224C35.7597 26.694 35.9492 25.9779 36.3116 25.3468C36.674 24.7158 37.1963 24.1923 37.8256 23.8295C38.4548 23.4667 39.1684 23.2776 39.894 23.2813C40.6196 23.285 41.3313 23.4815 41.9568 23.8508C42.5822 24.22 43.0992 24.7489 43.4551 25.3837C43.8111 26.0184 43.9933 26.7365 43.9832 27.4648C43.9732 28.1931 43.7713 28.9058 43.3981 29.5305C42.9324 30.3205 42.6892 31.2226 42.6946 32.1406V36.3067C42.693 36.5186 42.608 36.7212 42.4581 36.8705C42.3083 37.0197 42.1058 37.1035 41.8947 37.1034L41.8968 37.1076Z" fill="black"/>
<path d="M32.2549 48H2.12487C1.5623 47.9997 1.02278 47.7756 0.624493 47.3768C0.226211 46.978 0.00164728 46.4369 0 45.8722V2.13306C0.000274929 1.56743 0.224233 1.02504 0.622664 0.625071C1.02109 0.225105 1.5614 0.000284677 2.12487 8.68899e-06H29.8208C30.1003 -0.000793971 30.3771 0.0540213 30.6353 0.161285C30.8936 0.268549 31.1281 0.426133 31.3252 0.624927L40.0468 9.38108C40.4442 9.78219 40.6679 10.3245 40.6693 10.8903V24.0896C40.6693 24.3017 40.5853 24.5052 40.4359 24.6552C40.2865 24.8052 40.0838 24.8895 39.8724 24.8895C39.6611 24.8895 39.4584 24.8052 39.309 24.6552C39.1596 24.5052 39.0756 24.3017 39.0756 24.0896V10.8913C39.0748 10.7501 39.0185 10.615 38.919 10.5153L30.1974 1.75603C30.1483 1.70632 30.0897 1.66692 30.0253 1.6401C29.9608 1.61328 29.8916 1.59958 29.8219 1.5998H2.12487C1.98407 1.60008 1.84911 1.65635 1.74955 1.75629C1.64998 1.85624 1.59393 1.99172 1.59365 2.13306V45.8722C1.59393 46.0135 1.64998 46.149 1.74955 46.2489C1.84911 46.3489 1.98407 46.4052 2.12487 46.4054H32.2549C32.3617 46.4016 32.4683 46.4193 32.5681 46.4577C32.668 46.4961 32.7591 46.5543 32.8361 46.6288C32.913 46.7033 32.9742 46.7926 33.016 46.8914C33.0578 46.9902 33.0794 47.0964 33.0794 47.2038C33.0794 47.3111 33.0578 47.4173 33.016 47.5161C32.9742 47.6149 32.913 47.7042 32.8361 47.7787C32.7591 47.8533 32.668 47.9114 32.5681 47.9498C32.4683 47.9882 32.3617 48.006 32.2549 48.0021V48Z" fill="black"/>
<path d="M39.7553 11.1363H30.375C30.2702 11.1366 30.1665 11.1161 30.0697 11.076C29.9729 11.0359 29.8849 10.977 29.8109 10.9027C29.7369 10.8283 29.6782 10.74 29.6382 10.6429C29.5983 10.5457 29.5779 10.4416 29.5781 10.3364V0.92099C29.5781 0.708844 29.6621 0.505387 29.8115 0.355378C29.9609 0.205368 30.1636 0.121094 30.375 0.121094C30.5863 0.121094 30.789 0.205368 30.9384 0.355378C31.0878 0.505387 31.1718 0.708844 31.1718 0.92099V9.53653H39.7574C39.9687 9.53653 40.1714 9.62081 40.3208 9.77082C40.4702 9.92083 40.5542 10.1243 40.5542 10.3364C40.5542 10.5486 40.4702 10.752 40.3208 10.902C40.1714 11.0521 39.9687 11.1363 39.7574 11.1363H39.7553Z" fill="black"/>
<path d="M25.5681 41.223H5.68165C5.47005 41.223 5.26711 41.1386 5.11748 40.9884C4.96785 40.8382 4.88379 40.6345 4.88379 40.422C4.88379 40.2096 4.96785 40.0059 5.11748 39.8557C5.26711 39.7055 5.47005 39.6211 5.68165 39.6211H25.565C25.7763 39.6211 25.979 39.7054 26.1284 39.8554C26.2778 40.0054 26.3618 40.2088 26.3618 40.421C26.3618 40.6331 26.2778 40.8366 26.1284 40.9866C25.979 41.1366 25.7763 41.2209 25.565 41.2209L25.5681 41.223Z" fill="#FB9100"/>
<path d="M14.6044 34.6545H5.68159C5.47026 34.6545 5.26758 34.5702 5.11815 34.4202C4.96872 34.2702 4.88477 34.0667 4.88477 33.8546C4.88477 33.6424 4.96872 33.439 5.11815 33.289C5.26758 33.139 5.47026 33.0547 5.68159 33.0547H14.6044C14.8157 33.0547 15.0184 33.139 15.1678 33.289C15.3173 33.439 15.4012 33.6424 15.4012 33.8546C15.4012 34.0667 15.3173 34.2702 15.1678 34.4202C15.0184 34.5702 14.8157 34.6545 14.6044 34.6545Z" fill="black"/>
<path d="M31.0702 34.6545H17.8022C17.5909 34.6545 17.3882 34.5702 17.2388 34.4202C17.0893 34.2702 17.0054 34.0667 17.0054 33.8546C17.0054 33.6424 17.0893 33.439 17.2388 33.289C17.3882 33.139 17.5909 33.0547 17.8022 33.0547H31.0702C31.2815 33.0547 31.4842 33.139 31.6336 33.289C31.7831 33.439 31.867 33.6424 31.867 33.8546C31.867 34.0667 31.7831 34.2702 31.6336 34.4202C31.4842 34.5702 31.2815 34.6545 31.0702 34.6545Z" fill="black"/>
<path d="M24.461 28.0842H5.68159C5.47026 28.0842 5.26758 27.9999 5.11815 27.8499C4.96872 27.6999 4.88477 27.4964 4.88477 27.2843C4.88477 27.0721 4.96872 26.8687 5.11815 26.7187C5.26758 26.5686 5.47026 26.4844 5.68159 26.4844H24.461C24.6723 26.4844 24.875 26.5686 25.0244 26.7187C25.1738 26.8687 25.2578 27.0721 25.2578 27.2843C25.2578 27.4964 25.1738 27.6999 25.0244 27.8499C24.875 27.9999 24.6723 28.0842 24.461 28.0842Z" fill="black"/>
<path d="M31.3585 28.0842H27.6835C27.4722 28.0842 27.2695 27.9999 27.1201 27.8499C26.9707 27.6999 26.8867 27.4964 26.8867 27.2843C26.8867 27.0721 26.9707 26.8687 27.1201 26.7187C27.2695 26.5686 27.4722 26.4844 27.6835 26.4844H31.3585C31.5698 26.4844 31.7725 26.5686 31.9219 26.7187C32.0714 26.8687 32.1553 27.0721 32.1553 27.2843C32.1553 27.4964 32.0714 27.6999 31.9219 27.8499C31.7725 27.9999 31.5698 28.0842 31.3585 28.0842Z" fill="black"/>
<path d="M15.5911 21.5178H5.68159C5.57695 21.5178 5.47334 21.4971 5.37666 21.4569C5.27998 21.4167 5.19214 21.3578 5.11815 21.2835C5.04416 21.2092 4.98546 21.121 4.94542 21.024C4.90538 20.9269 4.88477 20.8229 4.88477 20.7179C4.88477 20.6128 4.90538 20.5088 4.94542 20.4118C4.98546 20.3147 5.04416 20.2265 5.11815 20.1523C5.19214 20.078 5.27998 20.0191 5.37666 19.9789C5.47334 19.9387 5.57695 19.918 5.68159 19.918H15.589C15.8003 19.918 16.003 20.0022 16.1524 20.1523C16.3019 20.3023 16.3858 20.5057 16.3858 20.7179C16.3858 20.93 16.3019 21.1335 16.1524 21.2835C16.003 21.4335 15.8003 21.5178 15.589 21.5178H15.5911Z" fill="black"/>
<path d="M34.9875 21.5178H18.9057C18.8011 21.5178 18.6975 21.4971 18.6008 21.4569C18.5041 21.4167 18.4163 21.3578 18.3423 21.2835C18.2683 21.2092 18.2096 21.121 18.1695 21.024C18.1295 20.9269 18.1089 20.8229 18.1089 20.7179C18.1089 20.6128 18.1295 20.5088 18.1695 20.4118C18.2096 20.3147 18.2683 20.2265 18.3423 20.1523C18.4163 20.078 18.5041 20.0191 18.6008 19.9789C18.6975 19.9387 18.8011 19.918 18.9057 19.918H34.9875C35.1988 19.918 35.4015 20.0022 35.5509 20.1523C35.7004 20.3023 35.7843 20.5057 35.7843 20.7179C35.7843 20.93 35.7004 21.1335 35.5509 21.2835C35.4015 21.4335 35.1988 21.5178 34.9875 21.5178Z" fill="#FB9100"/>
<path d="M26.5174 14.9435H5.68159C5.47026 14.9435 5.26758 14.8593 5.11815 14.7093C4.96872 14.5592 4.88477 14.3558 4.88477 14.1436C4.88477 13.9315 4.96872 13.728 5.11815 13.578C5.26758 13.428 5.47026 13.3438 5.68159 13.3438H26.5174C26.7287 13.3438 26.9314 13.428 27.0808 13.578C27.2302 13.728 27.3142 13.9315 27.3142 14.1436C27.3142 14.3558 27.2302 14.5592 27.0808 14.7093C26.9314 14.8593 26.7287 14.9435 26.5174 14.9435Z" fill="black"/>
<path d="M24.4298 8.37714H5.68159C5.47026 8.37714 5.26758 8.29286 5.11815 8.14285C4.96872 7.99284 4.88477 7.78939 4.88477 7.57724C4.88477 7.36509 4.96872 7.16164 5.11815 7.01163C5.26758 6.86162 5.47026 6.77734 5.68159 6.77734H24.4298C24.6412 6.77734 24.8438 6.86162 24.9933 7.01163C25.1427 7.16164 25.2267 7.36509 25.2267 7.57724C25.2267 7.78939 25.1427 7.99284 24.9933 8.14285C24.8438 8.29286 24.6412 8.37714 24.4298 8.37714Z" fill="#FB9100"/>
<path d="M43.5039 40.258H36.2412C36.1365 40.2581 36.0328 40.2375 35.9361 40.1974C35.8393 40.1572 35.7514 40.0983 35.6774 40.024C35.6034 39.9497 35.5447 39.8615 35.5047 39.7643C35.4647 39.6672 35.4442 39.5632 35.4443 39.4581V37.3115C35.4446 36.8342 35.6336 36.3766 35.9698 36.0392C36.3059 35.7017 36.7618 35.512 37.2372 35.5117H42.5037C42.9791 35.512 43.435 35.7017 43.7712 36.0392C44.1073 36.3766 44.2963 36.8342 44.2966 37.3115V39.4581C44.2958 39.6693 44.2121 39.8716 44.0638 40.0213C43.9154 40.171 43.7143 40.2561 43.5039 40.258ZM37.0421 38.6582H42.7071V37.3115C42.7068 37.2585 42.6857 37.2078 42.6484 37.1704C42.6111 37.1329 42.5606 37.1118 42.5079 37.1115H37.2413C37.1886 37.1118 37.1381 37.1329 37.1008 37.1704C37.0635 37.2078 37.0424 37.2585 37.0421 37.3115V38.6582Z" fill="#FB9100"/>
<path d="M47.4941 48.0012H32.2548C31.6922 48.0009 31.1527 47.7768 30.7544 47.3779C30.3561 46.9791 30.1315 46.438 30.1299 45.8733V43.7257C30.1296 43.6206 30.15 43.5164 30.19 43.4192C30.2299 43.3221 30.2886 43.2338 30.3627 43.1595C30.4367 43.0851 30.5247 43.0262 30.6215 42.9861C30.7183 42.946 30.822 42.9255 30.9267 42.9258H48.819C48.9237 42.9255 49.0274 42.946 49.1242 42.9861C49.221 43.0262 49.309 43.0851 49.383 43.1595C49.4571 43.2338 49.5158 43.3221 49.5557 43.4192C49.5957 43.5164 49.6161 43.6206 49.6158 43.7257V45.8733C49.6139 46.4374 49.3897 46.9778 48.9921 47.3765C48.5946 47.7752 48.056 47.9998 47.4941 48.0012ZM31.7235 44.5256V45.8733C31.7238 46.0147 31.7799 46.1501 31.8794 46.2501C31.979 46.35 32.114 46.4063 32.2548 46.4066H47.4941C47.6348 46.406 47.7696 46.3497 47.8691 46.2498C47.9686 46.1499 48.0247 46.0146 48.0253 45.8733V44.5256H31.7235Z" fill="#FB9100"/>
</g>
<defs>
<clipPath id="clip0_1637_2194">
<rect width="51" height="48" fill="white"/>
</clipPath>
</defs>
</svg>
