<svg width="50" height="48" viewBox="0 0 50 48" fill="none" xmlns="http://www.w3.org/2000/svg">
<g clip-path="url(#clip0_1637_3197)">
<path d="M24.9997 37.5984C32.5602 37.5984 38.7094 31.4984 38.7094 23.9984C38.7094 16.4984 32.5602 10.3984 24.9997 10.3984C17.4392 10.3984 11.29 16.4984 11.29 23.9984C11.29 31.4984 17.4392 37.5984 24.9997 37.5984ZM24.9997 11.9984C27.3922 11.9984 29.731 12.7022 31.7203 14.0208C33.7096 15.3394 35.2601 17.2135 36.1757 19.4062C37.0913 21.5989 37.3308 24.0117 36.8641 26.3395C36.3973 28.6673 35.2452 30.8055 33.5534 32.4837C31.8617 34.1619 29.7062 35.3048 27.3597 35.7679C25.0131 36.2309 22.5809 35.9932 20.3705 35.085C18.1601 34.1767 16.2708 32.6387 14.9416 30.6653C13.6124 28.6919 12.9029 26.3718 12.9029 23.9984C12.9064 20.8169 14.182 17.7666 16.4498 15.517C18.7177 13.2673 21.7925 12.0019 24.9997 11.9984Z" fill="black"/>
<path d="M29.8387 29.6016H33.0645C33.2784 29.6016 33.4835 29.5173 33.6347 29.3672C33.786 29.2172 33.8709 29.0137 33.8709 28.8016V18.4016C33.8709 18.1894 33.786 17.9859 33.6347 17.8359C33.4835 17.6858 33.2784 17.6016 33.0645 17.6016H29.8387C29.6248 17.6016 29.4197 17.6858 29.2684 17.8359C29.1172 17.9859 29.0322 18.1894 29.0322 18.4016V28.8016C29.0322 29.0137 29.1172 29.2172 29.2684 29.3672C29.4197 29.5173 29.6248 29.6016 29.8387 29.6016ZM30.6451 19.2016H32.258V28.0016H30.6451V19.2016Z" fill="#FB9100"/>
<path d="M23.3875 29.6H26.6133C26.8272 29.6 27.0323 29.5157 27.1836 29.3657C27.3348 29.2157 27.4198 29.0122 27.4198 28.8V20.8C27.4198 20.5878 27.3348 20.3843 27.1836 20.2343C27.0323 20.0843 26.8272 20 26.6133 20H23.3875C23.1736 20 22.9685 20.0843 22.8173 20.2343C22.666 20.3843 22.5811 20.5878 22.5811 20.8V28.8C22.5811 29.0122 22.666 29.2157 22.8173 29.3657C22.9685 29.5157 23.1736 29.6 23.3875 29.6ZM24.194 21.6H25.8069V28H24.194V21.6Z" fill="#FB9100"/>
<path d="M20.1612 29.5992C20.375 29.5992 20.5802 29.5149 20.7314 29.3649C20.8827 29.2149 20.9676 29.0114 20.9676 28.7992V23.9992C20.9676 23.787 20.8827 23.5836 20.7314 23.4335C20.5802 23.2835 20.375 23.1992 20.1612 23.1992H16.9354C16.7215 23.1992 16.5163 23.2835 16.3651 23.4335C16.2139 23.5836 16.1289 23.787 16.1289 23.9992V28.7992C16.1289 29.0114 16.2139 29.2149 16.3651 29.3649C16.5163 29.5149 16.7215 29.5992 16.9354 29.5992H20.1612ZM17.7418 24.7992H19.3547V27.9992H17.7418V24.7992Z" fill="#FB9100"/>
<path d="M8.76991 19.0253C8.69893 19.2858 8.56457 19.5251 8.37862 19.7221C8.19266 19.9191 7.9608 20.0679 7.70338 20.1553L5.54209 20.8553C5.39568 20.9025 5.26596 20.9903 5.16825 21.1083C5.07054 21.2263 5.00892 21.3696 4.99068 21.5213C4.78436 23.1703 4.78436 24.8383 4.99068 26.4873C5.00962 26.6386 5.07179 26.7814 5.16984 26.8989C5.26789 27.0164 5.39775 27.1036 5.5441 27.1503L7.70539 27.8503C7.96221 27.9377 8.19351 28.0863 8.37908 28.2829C8.56465 28.4796 8.69884 28.7183 8.76991 28.9783C8.84854 29.2449 8.93322 29.5116 9.02394 29.7783C9.11627 30.0437 9.14394 30.3271 9.10469 30.6052C9.06545 30.8832 8.9604 31.1482 8.79814 31.3783L7.51084 33.1673C7.42173 33.2907 7.36986 33.4367 7.36129 33.5883C7.35272 33.7399 7.38781 33.8907 7.46245 34.0233C8.28739 35.4845 9.2902 36.8397 10.4483 38.0583C10.5555 38.1707 10.6931 38.2498 10.8446 38.2862C10.9962 38.3226 11.1551 38.3146 11.3022 38.2633L13.2518 37.5843C13.4997 37.4999 13.7652 37.4795 14.0233 37.5252C14.2813 37.5709 14.5234 37.681 14.7266 37.8453C14.9389 38.0133 15.1557 38.1763 15.3768 38.3343C15.6016 38.4972 15.7837 38.7113 15.9078 38.9586C16.0318 39.2059 16.0941 39.4791 16.0895 39.7553L16.0663 41.7073C16.0644 41.8609 16.1071 42.0118 16.1893 42.1419C16.2716 42.2721 16.3898 42.376 16.53 42.4413C18.0734 43.1622 19.7041 43.6825 21.3818 43.9893C21.4294 43.9973 21.4777 44.0013 21.526 44.0013C21.6574 44.0012 21.7868 43.9693 21.9029 43.9083C22.019 43.8473 22.1184 43.759 22.1923 43.6513L23.2356 42.1333C23.3871 41.9176 23.5888 41.7413 23.8236 41.6194C24.0584 41.4976 24.3194 41.4337 24.5844 41.4333C24.8606 41.4413 25.1375 41.4413 25.4151 41.4333C25.6815 41.4246 25.9457 41.4845 26.1819 41.6072C26.4181 41.7299 26.6182 41.9111 26.7629 42.1333L27.8052 43.6513C27.8933 43.7795 28.0171 43.8796 28.1616 43.9392C28.306 43.9989 28.4649 44.0156 28.6187 43.9873C30.2953 43.6801 31.925 43.1598 33.4675 42.4393C33.6072 42.374 33.725 42.2703 33.807 42.1406C33.889 42.0108 33.9318 41.8604 33.9302 41.7073L33.908 39.7543C33.9034 39.4782 33.9657 39.2051 34.0895 38.9578C34.2133 38.7106 34.3952 38.4964 34.6197 38.3333C34.8405 38.1753 35.0572 38.0133 35.2699 37.8453C35.4732 37.6808 35.7154 37.5705 35.9737 37.5248C36.2319 37.4791 36.4977 37.4996 36.7457 37.5843L38.6953 38.2633C38.8424 38.3146 39.0013 38.3226 39.1528 38.2862C39.3044 38.2498 39.442 38.1707 39.5491 38.0583C40.7093 36.8402 41.7139 35.485 42.5401 34.0233C42.6149 33.8908 42.6501 33.74 42.6417 33.5884C42.6333 33.4369 42.5816 33.2908 42.4927 33.1673L41.2034 31.3793C41.0409 31.1493 40.9357 30.8843 40.8965 30.6062C40.8572 30.3281 40.885 30.0447 40.9776 29.7793C41.0683 29.5126 41.1526 29.2459 41.2306 28.9793C41.3015 28.7186 41.4358 28.4791 41.6218 28.2819C41.8077 28.0847 42.0396 27.9358 42.2971 27.8483L44.4584 27.1483C44.6048 27.101 44.7345 27.0132 44.8323 26.8952C44.93 26.7772 44.9916 26.6339 45.0098 26.4823C45.1097 25.659 45.1602 24.8305 45.161 24.0013C45.1595 23.1713 45.1077 22.3421 45.0058 21.5183C44.9876 21.3666 44.9259 21.2233 44.8282 21.1053C44.7305 20.9873 44.6008 20.8995 44.4544 20.8523L42.2931 20.1523C42.0365 20.0647 41.8054 19.916 41.62 19.7194C41.4346 19.5228 41.3006 19.2841 41.2296 19.0243C41.151 18.7576 41.0663 18.4909 40.9756 18.2243C40.8832 17.9588 40.8556 17.6755 40.8948 17.3974C40.9341 17.1193 41.0391 16.8544 41.2014 16.6243L42.4907 14.8363C42.5798 14.7128 42.6317 14.5668 42.6402 14.4152C42.6488 14.2637 42.6137 14.1128 42.5391 13.9803C41.7141 12.519 40.7113 11.1639 39.5532 9.94526C39.4461 9.83287 39.3084 9.75369 39.1569 9.71731C39.0053 9.68093 38.8464 9.6889 38.6993 9.74026L36.7498 10.4193C36.5019 10.5041 36.2363 10.5247 35.9781 10.479C35.72 10.4333 35.4779 10.3229 35.275 10.1583C35.0619 9.99026 34.8452 9.82726 34.6248 9.66926C34.3999 9.50636 34.2178 9.29225 34.0938 9.04496C33.9697 8.79767 33.9074 8.52443 33.912 8.24826L33.9352 6.29626C33.937 6.14206 33.8938 5.99065 33.8108 5.86025C33.7278 5.72985 33.6086 5.62602 33.4675 5.56126C31.9241 4.84031 30.2934 4.32001 28.6157 4.01326C28.462 3.98515 28.3034 4.00194 28.1591 4.06159C28.0149 4.12124 27.8912 4.22118 27.8032 4.34926L26.7618 5.86726C26.6131 6.08564 26.4119 6.26393 26.1765 6.38612C25.9411 6.5083 25.6787 6.57055 25.4131 6.56726C25.1375 6.55993 24.8606 6.55993 24.5824 6.56726C24.3164 6.57438 24.0529 6.51378 23.8171 6.39124C23.5814 6.2687 23.3812 6.08831 23.2356 5.86726L22.1923 4.34926C22.1042 4.22118 21.9806 4.12124 21.8363 4.06159C21.6921 4.00194 21.5335 3.98515 21.3798 4.01326C19.7035 4.32042 18.0741 4.84071 16.532 5.56126C16.3922 5.62661 16.2742 5.73044 16.1922 5.86039C16.1102 5.99034 16.0675 6.14094 16.0693 6.29426L16.0915 8.24726C16.0964 8.52323 16.0343 8.79633 15.9105 9.04348C15.7866 9.29064 15.6046 9.50459 15.3798 9.66726C15.16 9.82526 14.9423 9.98726 14.7296 10.1553C14.5262 10.3196 14.284 10.4298 14.0258 10.4754C13.7676 10.5211 13.5019 10.5007 13.2538 10.4163L11.3052 9.73726C11.1579 9.68581 10.9987 9.67789 10.847 9.71445C10.6952 9.75102 10.5574 9.83051 10.4504 9.94326C9.28937 11.1607 8.28476 12.516 7.45943 13.9783C7.38464 14.1107 7.34938 14.2615 7.35777 14.4131C7.36616 14.5647 7.41785 14.7107 7.50681 14.8343L8.79713 16.6213C8.95997 16.8511 9.0653 17.1161 9.10439 17.3943C9.14348 17.6726 9.11522 17.956 9.02193 18.2213C8.93523 18.4883 8.85056 18.7543 8.77193 19.0213L8.76991 19.0253ZM10.1096 15.6933L9.12273 14.3243C9.74228 13.2918 10.4603 12.3207 11.2669 11.4243L12.7135 11.9243C13.2189 12.0996 13.7612 12.144 14.2888 12.0534C14.8164 11.9627 15.312 11.74 15.7286 11.4063C15.9215 11.2543 16.1174 11.1069 16.3163 10.9643C16.7509 10.6513 17.1033 10.2393 17.3438 9.76298C17.5843 9.28665 17.7059 8.75995 17.6983 8.22726L17.6832 6.80126C18.8015 6.3169 19.9659 5.94504 21.159 5.69126L21.901 6.77226C22.201 7.21226 22.6071 7.57084 23.0825 7.81536C23.5579 8.05988 24.0874 8.18257 24.6227 8.17226C24.8727 8.16626 25.1268 8.16626 25.3737 8.17226C25.9099 8.18702 26.441 8.06626 26.9171 7.82136C27.3932 7.57645 27.7987 7.21543 28.0955 6.77226L28.8395 5.69126C30.0326 5.94496 31.197 6.31682 32.3153 6.80126L32.2981 8.23226C32.291 8.76498 32.4129 9.29162 32.6536 9.7679C32.8942 10.2442 33.2467 10.6562 33.6812 10.9693C33.8828 11.1126 34.0787 11.2599 34.2689 11.4113C34.6853 11.7453 35.1809 11.9683 35.7086 12.059C36.2363 12.1496 36.7786 12.105 37.284 11.9293L38.7316 11.4293C39.538 12.3258 40.256 13.2969 40.8758 14.3293L39.8889 15.6973C39.5771 16.1343 39.3745 16.6386 39.2979 17.1685C39.2213 17.6985 39.2729 18.239 39.4483 18.7453C39.53 18.9863 39.6066 19.2283 39.6792 19.4743C39.8231 19.9861 40.0914 20.4551 40.4604 20.8402C40.8295 21.2253 41.2881 21.5148 41.7961 21.6833L43.4604 22.2193C43.5179 22.8303 43.5481 23.4293 43.5481 24.0063C43.5481 24.5833 43.5179 25.1823 43.4594 25.7933L41.7961 26.3293C41.288 26.4975 40.8292 26.7869 40.4601 27.1721C40.091 27.5572 39.8229 28.0263 39.6792 28.5383C39.6076 28.7843 39.531 29.0263 39.4483 29.2663C39.273 29.7726 39.2216 30.313 39.2981 30.843C39.3747 31.3729 39.5772 31.8772 39.8889 32.3143L40.8748 33.6833C40.2552 34.7157 39.5372 35.6869 38.7306 36.5833L37.284 36.0833C36.7786 35.9074 36.2363 35.8626 35.7086 35.9533C35.1808 36.0439 34.6852 36.267 34.2689 36.6013C34.076 36.7533 33.8801 36.9006 33.6812 37.0433C33.2466 37.3562 32.8942 37.7682 32.6537 38.2445C32.4131 38.7209 32.2916 39.2476 32.2991 39.7803L32.3163 41.2113C31.198 41.6956 30.0336 42.0675 28.8405 42.3213L28.0985 41.2403C27.8075 40.8105 27.4146 40.4581 26.9543 40.214C26.494 39.9699 25.9803 39.8416 25.4584 39.8403H25.3778C25.1268 39.8463 24.8737 39.8463 24.6258 39.8403C24.0898 39.8267 23.5592 39.948 23.0833 40.1928C22.6073 40.4376 22.2016 40.798 21.904 41.2403L21.161 42.3213C19.9672 42.0644 18.8024 41.6892 17.6842 41.2013L17.7014 39.7703C17.7085 39.2375 17.5866 38.7109 17.3459 38.2346C17.1053 37.7583 16.7528 37.3463 16.3183 37.0333C16.1167 36.8906 15.9208 36.7433 15.7306 36.5913C15.3143 36.257 14.8187 36.0339 14.2909 35.9433C13.7632 35.8526 13.2209 35.8974 12.7155 36.0733L11.2679 36.5733C10.4615 35.6767 9.74354 34.7056 9.12374 33.6733L10.1106 32.3053C10.4224 31.8683 10.625 31.364 10.7016 30.834C10.7782 30.304 10.7266 29.7636 10.5512 29.2573C10.4695 29.0163 10.3929 28.7743 10.3203 28.5283C10.1764 28.0164 9.90813 27.5474 9.53907 27.1623C9.17001 26.7772 8.71139 26.4877 8.20338 26.3193L6.53906 25.7833C6.4816 25.1773 6.45136 24.5783 6.45136 24.0013C6.45136 23.4243 6.4816 22.8253 6.54007 22.2143L8.20439 21.6783C8.7124 21.5098 9.17102 21.2203 9.54008 20.8352C9.90914 20.4501 10.1774 19.9811 10.3213 19.4693C10.3929 19.2233 10.4695 18.9813 10.5522 18.7413C10.7277 18.235 10.7793 17.6945 10.7027 17.1645C10.6261 16.6345 10.4235 16.1302 10.1116 15.6933H10.1096Z" fill="black"/>
<path d="M48.9384 14.441L47.3941 14.951C43.7055 5.98 34.8205 0 24.9999 0C14.8961 0 5.76704 6.319 2.28418 15.724L3.79628 16.275C7.0493 7.5 15.5695 1.6 24.9999 1.6C34.131 1.6 42.3951 7.138 45.8668 15.458L44.1047 16.041C43.9667 16.0858 43.8434 16.1668 43.7479 16.2754C43.6525 16.384 43.5883 16.5162 43.5623 16.658C43.5363 16.7997 43.5494 16.9458 43.6001 17.0809C43.6509 17.2159 43.7375 17.3348 43.8507 17.425L47.883 20.625C48.0261 20.7384 48.2038 20.8001 48.387 20.8C48.4856 20.8003 48.5834 20.7824 48.6753 20.747C48.8061 20.6967 48.9213 20.6134 49.0097 20.5053C49.0981 20.3973 49.1566 20.2683 49.1793 20.131L49.9858 15.331C50.0085 15.195 49.9955 15.0554 49.9479 14.9259C49.9002 14.7964 49.8197 14.6812 49.714 14.5917C49.6083 14.5021 49.4811 14.4412 49.3447 14.4148C49.2082 14.3884 49.0673 14.3974 48.9354 14.441H48.9384ZM47.8174 18.523L46.016 17.094L48.1783 16.379L47.8174 18.523Z" fill="#FB9100"/>
<path d="M0.939913 32.7882L2.39757 32.5472C5.95604 41.7992 14.9964 47.9992 25.0004 47.9992C35.1042 47.9992 44.2333 41.6802 47.7161 32.2752L46.204 31.7242C42.951 40.4992 34.4308 46.3992 25.0004 46.3992C15.7726 46.3992 7.42983 40.7452 4.03265 32.2772L5.78165 31.9882C5.92009 31.9649 6.04998 31.906 6.15846 31.8176C6.26695 31.7291 6.35026 31.6141 6.40016 31.4838C6.45006 31.3536 6.46482 31.2127 6.44297 31.0751C6.42112 30.9375 6.36343 30.8079 6.2756 30.6992L3.04979 26.6992C2.95927 26.5868 2.83984 26.5006 2.7041 26.4499C2.56835 26.3991 2.42132 26.3856 2.27849 26.4108C2.13566 26.436 2.00232 26.4989 1.89253 26.593C1.78273 26.687 1.70055 26.8087 1.65463 26.9452L0.0417274 31.7452C0.00111632 31.8655 -0.0100616 31.9937 0.00911641 32.1192C0.0282945 32.2446 0.0772785 32.3638 0.152024 32.4667C0.226769 32.5697 0.325132 32.6535 0.438991 32.7114C0.55285 32.7692 0.67894 32.7993 0.806848 32.7992C0.851445 32.7995 0.895977 32.7958 0.939913 32.7882ZM2.71612 28.8472L4.15665 30.6342L1.99536 30.9922L2.71612 28.8472Z" fill="black"/>
</g>
<defs>
<clipPath id="clip0_1637_3197">
<rect width="50" height="48" fill="white"/>
</clipPath>
</defs>
</svg>
