<svg width="48" height="48" viewBox="0 0 48 48" fill="none" xmlns="http://www.w3.org/2000/svg">
<g clip-path="url(#clip0_1637_2187)">
<path d="M8.25 31.5C6.61831 31.5 5.02325 31.9839 3.66655 32.8904C2.30984 33.7969 1.25242 35.0854 0.627998 36.5929C0.00357462 38.1004 -0.159803 39.7592 0.158525 41.3595C0.476853 42.9598 1.26259 44.4298 2.41637 45.5836C3.57016 46.7374 5.04017 47.5232 6.64051 47.8415C8.24085 48.1598 9.89965 47.9964 11.4071 47.372C12.9146 46.7476 14.2031 45.6902 15.1096 44.3335C16.0162 42.9767 16.5 41.3817 16.5 39.75C16.5 37.562 15.6308 35.4635 14.0836 33.9164C12.5365 32.3692 10.438 31.5 8.25 31.5ZM8.25 46.5C6.91498 46.5 5.60994 46.1041 4.4999 45.3624C3.38987 44.6207 2.52471 43.5665 2.01382 42.3331C1.50293 41.0997 1.36925 39.7425 1.6297 38.4331C1.89015 37.1238 2.53303 35.921 3.47703 34.977C4.42104 34.033 5.62377 33.3901 6.93314 33.1297C8.24252 32.8692 9.59972 33.0029 10.8331 33.5138C12.0665 34.0247 13.1207 34.8899 13.8624 35.9999C14.6041 37.1099 15 38.415 15 39.75C15 40.6364 14.8254 41.5142 14.4862 42.3331C14.147 43.1521 13.6498 43.8962 13.023 44.523C12.3962 45.1498 11.6521 45.647 10.8331 45.9862C10.0142 46.3254 9.13643 46.5 8.25 46.5Z" fill="black"/>
<path d="M9.56256 37.0847C9.67152 37.1902 9.73819 37.3319 9.75006 37.4831C9.74543 37.6788 9.81744 37.8685 9.95073 38.0117C10.084 38.155 10.268 38.2405 10.4635 38.25C10.6606 38.2537 10.8517 38.1818 10.9976 38.0492C11.1435 37.9166 11.2331 37.7332 11.2482 37.5366C11.2527 36.9826 11.0373 36.4496 10.6491 36.0544C10.2007 35.6229 9.61951 35.3559 9.00006 35.2969V35.25C9.00006 35.0511 8.92104 34.8603 8.78039 34.7197C8.63974 34.579 8.44897 34.5 8.25006 34.5C8.05115 34.5 7.86038 34.579 7.71973 34.7197C7.57908 34.8603 7.50006 35.0511 7.50006 35.25V35.3137C6.87847 35.3954 6.30779 35.7004 5.89437 36.1717C5.48095 36.643 5.253 37.2485 5.253 37.8755C5.253 38.5024 5.48095 39.108 5.89437 39.5793C6.30779 40.0506 6.87847 40.3555 7.50006 40.4372V42.6797C7.29229 42.6434 7.09805 42.5521 6.93756 42.4153C6.83331 42.314 6.7671 42.18 6.75006 42.0356C6.75963 41.8367 6.68979 41.6421 6.55591 41.4947C6.42203 41.3473 6.23507 41.2591 6.03615 41.2495C5.83724 41.24 5.64267 41.3098 5.49525 41.4437C5.34783 41.5776 5.25963 41.7645 5.25006 41.9634C5.24591 42.5173 5.46131 43.0502 5.84912 43.4456C6.29799 43.8775 6.87994 44.1445 7.50006 44.2031V44.25C7.50006 44.4489 7.57908 44.6397 7.71973 44.7803C7.86038 44.921 8.05115 45 8.25006 45C8.44897 45 8.63974 44.921 8.78039 44.7803C8.92104 44.6397 9.00006 44.4489 9.00006 44.25V44.1863C9.62165 44.1046 10.1923 43.7996 10.6057 43.3283C11.0192 42.857 11.2471 42.2515 11.2471 41.6245C11.2471 40.9976 11.0192 40.392 10.6057 39.9207C10.1923 39.4494 9.62165 39.1445 9.00006 39.0628V36.8203C9.20769 36.857 9.40182 36.9482 9.56256 37.0847ZM6.75006 37.875C6.74989 37.6474 6.82263 37.4258 6.95759 37.2426C7.09256 37.0594 7.28267 36.9242 7.50006 36.8569V38.8941C7.28275 38.8263 7.09278 38.6909 6.95786 38.5076C6.82294 38.3243 6.75014 38.1026 6.75006 37.875ZM9.75006 41.625C9.75022 41.8526 9.67749 42.0742 9.54252 42.2574C9.40755 42.4406 9.21744 42.5758 9.00006 42.6431V40.6059C9.21736 40.6737 9.40733 40.8091 9.54225 40.9924C9.67717 41.1757 9.74998 41.3974 9.75006 41.625Z" fill="#FB9100"/>
<path d="M47.2498 42.75H43.4998V11.25C43.4998 11.0511 43.4208 10.8603 43.2801 10.7197C43.1395 10.579 42.9487 10.5 42.7498 10.5H36.7498C36.5509 10.5 36.3601 10.579 36.2195 10.7197C36.0788 10.8603 35.9998 11.0511 35.9998 11.25V42.75H32.9998V15.75C32.9998 15.5511 32.9208 15.3603 32.7801 15.2197C32.6395 15.079 32.4487 15 32.2498 15H26.2498C26.0509 15 25.8601 15.079 25.7195 15.2197C25.5788 15.3603 25.4998 15.5511 25.4998 15.75V42.75H22.4998V20.25C22.4998 20.0511 22.4208 19.8603 22.2801 19.7197C22.1395 19.579 21.9487 19.5 21.7498 19.5H15.7498C15.5509 19.5 15.3601 19.579 15.2195 19.7197C15.0788 19.8603 14.9998 20.0511 14.9998 20.25V32.4075C14.9998 32.6064 15.0788 32.7972 15.2195 32.9378C15.3601 33.0785 15.5509 33.1575 15.7498 33.1575C15.9487 33.1575 16.1395 33.0785 16.2801 32.9378C16.4208 32.7972 16.4998 32.6064 16.4998 32.4075V21H20.9998V42.75H18.0523C17.8534 42.75 17.6626 42.829 17.522 42.9697C17.3813 43.1103 17.3023 43.3011 17.3023 43.5C17.3023 43.6989 17.3813 43.8897 17.522 44.0303C17.6626 44.171 17.8534 44.25 18.0523 44.25H46.4998V46.5H15.5923C15.3934 46.5 15.2026 46.579 15.062 46.7197C14.9213 46.8603 14.8423 47.0511 14.8423 47.25C14.8423 47.4489 14.9213 47.6397 15.062 47.7803C15.2026 47.921 15.3934 48 15.5923 48H47.2498C47.4487 48 47.6395 47.921 47.7801 47.7803C47.9208 47.6397 47.9998 47.4489 47.9998 47.25V43.5C47.9998 43.3011 47.9208 43.1103 47.7801 42.9697C47.6395 42.829 47.4487 42.75 47.2498 42.75ZM37.4998 12H41.9998V42.75H37.4998V12ZM26.9998 16.5H31.4998V42.75H26.9998V16.5Z" fill="black"/>
<path d="M5.25 30.435C5.44891 30.435 5.63968 30.356 5.78033 30.2153C5.92098 30.0747 6 29.8839 6 29.685V24.75H10.5V29.685C10.5 29.8839 10.579 30.0747 10.7197 30.2153C10.8603 30.356 11.0511 30.435 11.25 30.435C11.4489 30.435 11.6397 30.356 11.7803 30.2153C11.921 30.0747 12 29.8839 12 29.685V24C12 23.8011 11.921 23.6103 11.7803 23.4697C11.6397 23.329 11.4489 23.25 11.25 23.25H5.25C5.05109 23.25 4.86032 23.329 4.71967 23.4697C4.57902 23.6103 4.5 23.8011 4.5 24V29.685C4.5 29.8839 4.57902 30.0747 4.71967 30.2153C4.86032 30.356 5.05109 30.435 5.25 30.435Z" fill="#FB9100"/>
<path d="M8.24996 18.75H8.28652C21.7256 18.1088 34.889 6.50438 39 2.55281V7.5C39 7.69891 39.079 7.88968 39.2196 8.03033C39.3603 8.17098 39.551 8.25 39.75 8.25C39.9489 8.25 40.1396 8.17098 40.2803 8.03033C40.4209 7.88968 40.5 7.69891 40.5 7.5V0.75V0.741563C40.4931 0.545628 40.4116 0.359724 40.2722 0.221878C40.1328 0.0840323 39.946 0.00466115 39.75 0L33 0C32.801 0 32.6103 0.0790176 32.4696 0.21967C32.329 0.360322 32.25 0.551088 32.25 0.75C32.25 0.948912 32.329 1.13968 32.4696 1.28033C32.6103 1.42098 32.801 1.5 33 1.5H37.9153C33.8737 5.34375 20.94 16.6453 8.21433 17.25C8.11584 17.2523 8.01878 17.2741 7.92868 17.3139C7.83858 17.3538 7.75721 17.411 7.68922 17.4823C7.55191 17.6263 7.47742 17.8189 7.48215 18.0178C7.48687 18.2167 7.57042 18.4056 7.71441 18.5429C7.8584 18.6802 8.05105 18.7547 8.24996 18.75Z" fill="#FB9100"/>
</g>
<defs>
<clipPath id="clip0_1637_2187">
<rect width="48" height="48" fill="white"/>
</clipPath>
</defs>
</svg>
