<svg width="48" height="48" viewBox="0 0 48 48" fill="none" xmlns="http://www.w3.org/2000/svg">
<g clip-path="url(#clip0_1637_2177)">
<path d="M4.0002 4.79922C4.44202 4.79922 4.8002 4.44105 4.8002 3.99922C4.8002 3.55739 4.44202 3.19922 4.0002 3.19922C3.55837 3.19922 3.2002 3.55739 3.2002 3.99922C3.2002 4.44105 3.55837 4.79922 4.0002 4.79922Z" fill="#FB9100"/>
<path d="M7.1999 4.79922C7.64173 4.79922 7.9999 4.44105 7.9999 3.99922C7.9999 3.55739 7.64173 3.19922 7.1999 3.19922C6.75807 3.19922 6.3999 3.55739 6.3999 3.99922C6.3999 4.44105 6.75807 4.79922 7.1999 4.79922Z" fill="black"/>
<path d="M10.4001 4.79922C10.8419 4.79922 11.2001 4.44105 11.2001 3.99922C11.2001 3.55739 10.8419 3.19922 10.4001 3.19922C9.95827 3.19922 9.6001 3.55739 9.6001 3.99922C9.6001 4.44105 9.95827 4.79922 10.4001 4.79922Z" fill="black"/>
<path d="M34.4 28.8002H32.8V22.4002H36.88L24 12.2402L11.12 22.4002H15.2V28.8002H13.6V24.0002H6.47998L24 10.1602L41.52 24.0002H34.4V28.8002Z" fill="#FB9100"/>
<path d="M0 0V44.8H14.24L13.04 43.6L13.28 43.2H1.6V8H46.4V43.2H34.8L35.04 43.6L33.76 44.8H48V0H0ZM46.4 6.4H1.6V1.6H46.4V6.4Z" fill="black"/>
<path d="M26.2401 48.0013H21.7601L21.2001 45.0413C21.0401 44.9613 20.8801 44.9613 20.8001 44.8813L18.3201 46.5613L15.1201 43.3613L16.8001 40.8813C16.7257 40.7573 16.6717 40.6223 16.6401 40.4813L13.6001 39.8413V35.3613L16.5601 34.8013C16.6401 34.6413 16.6401 34.4813 16.7201 34.4013L15.0401 31.9213L18.2401 28.7213L20.7201 30.4013C20.844 30.3269 20.9791 30.2729 21.1201 30.2413L21.6801 27.2812H26.1601L26.7201 30.2413C26.8801 30.3213 27.0401 30.3213 27.1201 30.4013L29.6001 28.7213L32.8001 31.9213L31.1201 34.4013C31.1945 34.5252 31.2485 34.6602 31.2801 34.8013L34.2401 35.3613V39.8413L31.2801 40.4013C31.2001 40.5613 31.2001 40.7213 31.1201 40.8013L32.8001 43.2813L29.6001 46.4813L27.1201 44.8013C26.9962 44.8756 26.8611 44.9296 26.7201 44.9613L26.2401 48.0013ZM23.0401 46.4013H24.9601L25.4401 43.8413L25.9201 43.6813C26.2941 43.5888 26.6471 43.4259 26.9601 43.2013L27.3601 42.9613L29.5201 44.4013L30.8801 43.0413L29.4401 40.8813L29.6801 40.4813C29.8401 40.1613 30.0001 39.7613 30.1601 39.4413L30.3201 38.9613L32.8801 38.4813V36.5613L30.3201 36.0813L30.1601 35.6013C30.0676 35.2272 29.9047 34.8743 29.6801 34.5613L29.4401 34.1613L30.8801 32.0013L29.5201 30.6413L27.3601 32.0813L26.9601 31.8413C26.6401 31.6813 26.2401 31.5213 25.9201 31.3613L25.4401 31.2013L24.9601 28.8013H23.0401L22.5601 31.3613L22.0801 31.5213C21.7061 31.6137 21.3531 31.7766 21.0401 32.0013L20.6401 32.2413L18.4801 30.8013L17.1201 32.1613L18.5601 34.3213L18.3201 34.7213C18.1601 35.0413 18.0001 35.4413 17.8401 35.7613L17.6801 36.2413L15.2001 36.6413V38.5613L17.7601 39.0413L17.9201 39.5213C18.0126 39.8953 18.1755 40.2482 18.4001 40.5613L18.6401 40.9613L17.2001 43.1213L18.5601 44.4813L20.7201 43.0413L21.1201 43.2813C21.4401 43.4413 21.8401 43.6013 22.1601 43.7613L22.6401 43.9213L23.0401 46.4013Z" fill="#FB9100"/>
<path d="M24 41.6016C23.2089 41.6016 22.4355 41.367 21.7777 40.9274C21.1199 40.4879 20.6072 39.8632 20.3045 39.1323C20.0017 38.4014 19.9225 37.5971 20.0769 36.8212C20.2312 36.0453 20.6122 35.3325 21.1716 34.7731C21.731 34.2137 22.4437 33.8328 23.2196 33.6784C23.9956 33.5241 24.7998 33.6033 25.5307 33.906C26.2616 34.2088 26.8864 34.7215 27.3259 35.3793C27.7654 36.0371 28 36.8104 28 37.6016C28 38.6624 27.5786 39.6798 26.8284 40.43C26.0783 41.1801 25.0609 41.6016 24 41.6016ZM24 35.2016C23.5253 35.2016 23.0613 35.3423 22.6666 35.606C22.272 35.8698 21.9643 36.2446 21.7827 36.6831C21.601 37.1217 21.5535 37.6042 21.6461 38.0698C21.7387 38.5353 21.9673 38.963 22.3029 39.2986C22.6386 39.6343 23.0662 39.8628 23.5318 39.9554C23.9973 40.0481 24.4799 40.0005 24.9184 39.8189C25.357 39.6372 25.7318 39.3296 25.9955 38.9349C26.2592 38.5403 26.4 38.0762 26.4 37.6016C26.4054 37.2849 26.347 36.9704 26.2283 36.6768C26.1096 36.3831 25.9331 36.1164 25.7091 35.8924C25.4852 35.6685 25.2184 35.4919 24.9248 35.3732C24.6312 35.2545 24.3167 35.1961 24 35.2016Z" fill="black"/>
<path d="M24 15L30.9282 21H17.0718L24 15Z" fill="black"/>
</g>
<defs>
<clipPath id="clip0_1637_2177">
<rect width="48" height="48" fill="white"/>
</clipPath>
</defs>
</svg>
