<svg width="54" height="48" viewBox="0 0 54 48" fill="none" xmlns="http://www.w3.org/2000/svg">
<g clip-path="url(#clip0_1637_2075)">
<path d="M28.8074 23.1605C28.6949 22.0927 28.3096 21.0723 27.6891 20.1985C27.0685 19.3247 26.2337 18.6272 25.2658 18.1739C25.687 17.7128 25.9811 17.149 26.1188 16.5383C26.2565 15.9276 26.2331 15.2913 26.0508 14.6925C25.8686 14.0938 25.5338 13.5533 25.0798 13.1248C24.6258 12.6964 24.0683 12.3947 23.4625 12.2498C22.8568 12.1049 22.224 12.1218 21.6268 12.2988C21.0296 12.4759 20.4888 12.8069 20.058 13.259C19.6272 13.7111 19.3215 14.2687 19.1711 14.8763C19.0207 15.484 19.0308 16.1206 19.2006 16.7231C18.8759 16.2268 18.4338 15.8194 17.9139 15.5375C17.394 15.2555 16.8125 15.108 16.2219 15.108C15.6312 15.108 15.0498 15.2555 14.5299 15.5375C14.0099 15.8194 13.5678 16.2268 13.2432 16.7231C13.4123 16.1209 13.422 15.4847 13.2714 14.8776C13.1207 14.2705 12.8149 13.7135 12.3843 13.2618C11.9537 12.8102 11.4131 12.4796 10.8163 12.3028C10.2195 12.126 9.58714 12.1092 8.98186 12.2539C8.37658 12.3987 7.81942 12.7001 7.36562 13.1281C6.91182 13.5562 6.57712 14.0961 6.39472 14.6944C6.21232 15.2926 6.18853 15.9284 6.32573 16.5388C6.46292 17.1491 6.75633 17.7128 7.17688 18.1739C6.20885 18.6273 5.37395 19.3249 4.75335 20.1989C4.13276 21.0729 3.74759 22.0936 3.6353 23.1616C3.62227 23.2842 3.63513 23.4082 3.67303 23.5255C3.71093 23.6428 3.77301 23.7507 3.85523 23.8421C3.93744 23.9336 4.03793 24.0066 4.15012 24.0563C4.26231 24.106 4.38367 24.1314 4.50627 24.1307H10.603C10.3141 24.7551 10.1301 25.4233 10.0587 26.1082C10.0457 26.2309 10.0585 26.3548 10.0964 26.4721C10.1343 26.5894 10.1964 26.6973 10.2786 26.7888C10.3608 26.8802 10.4613 26.9532 10.5735 27.0029C10.6857 27.0527 10.8071 27.078 10.9297 27.0773H21.5413C21.6639 27.078 21.7853 27.0527 21.8975 27.0029C22.0097 26.9532 22.1101 26.8802 22.1924 26.7888C22.2746 26.6973 22.3367 26.5894 22.3746 26.4721C22.4125 26.3548 22.4253 26.2309 22.4123 26.1082C22.3403 25.4234 22.1564 24.7552 21.8679 24.1307H27.9647C28.0874 24.1314 28.2089 24.106 28.3211 24.0563C28.4334 24.0065 28.534 23.9334 28.6162 23.8418C28.6984 23.7502 28.7605 23.6421 28.7983 23.5247C28.8361 23.4073 28.8489 23.2832 28.8357 23.1605H28.8074ZM22.6355 13.9122C22.997 13.9122 23.3504 14.0201 23.651 14.2221C23.9516 14.4241 24.1859 14.7112 24.3243 15.0472C24.4626 15.3831 24.4988 15.7528 24.4283 16.1094C24.3578 16.466 24.1837 16.7936 23.928 17.0507C23.6724 17.3079 23.3467 17.483 22.9921 17.5539C22.6375 17.6248 22.27 17.5884 21.9359 17.4493C21.6019 17.3101 21.3164 17.0745 21.1156 16.7721C20.9147 16.4698 20.8075 16.1143 20.8075 15.7507C20.8078 15.2632 21.0005 14.7958 21.3432 14.451C21.686 14.1063 22.1508 13.9125 22.6355 13.9122ZM16.2219 16.86C16.7064 16.86 17.1711 17.0535 17.5137 17.3981C17.8563 17.7427 18.0487 18.21 18.0487 18.6974C18.0487 19.1847 17.8563 19.652 17.5137 19.9966C17.1711 20.3412 16.7064 20.5347 16.2219 20.5347C15.7374 20.5347 15.2727 20.3412 14.9301 19.9966C14.5875 19.652 14.395 19.1847 14.395 18.6974C14.395 18.21 14.5875 17.7427 14.9301 17.3981C15.2727 17.0535 15.7374 16.86 16.2219 16.86ZM11.9933 25.3253C12.2934 24.4375 12.8628 23.6668 13.6214 23.1216C14.38 22.5765 15.2896 22.2845 16.2219 22.2867C17.1536 22.2854 18.0623 22.5778 18.8202 23.1228C19.5781 23.6679 20.1471 24.4381 20.4472 25.3253H11.9933ZM20.6311 22.3787C20.1603 21.9007 19.6154 21.5028 19.0177 21.2005C19.4969 20.5324 20.1496 20.0097 20.9044 19.6898C21.6592 19.3699 22.4869 19.265 23.297 19.3867C24.1071 19.5084 24.8683 19.8519 25.4973 20.3796C26.1263 20.9073 26.5987 21.5989 26.8629 22.3787H20.6311Z" fill="black"/>
<path d="M50.9658 0H3.03423C2.22977 0.000869538 1.4585 0.32267 0.889661 0.894794C0.32082 1.46692 0.00086455 2.24263 0 3.05174V38.5294C0.00086455 39.3385 0.32082 40.1143 0.889661 40.6864C1.4585 41.2585 2.22977 41.5803 3.03423 41.5812H18.2903V47.1284C18.2903 47.3607 18.3821 47.5835 18.5454 47.7478C18.7088 47.9121 18.9303 48.0044 19.1613 48.0044H23.0502C23.2812 48.0044 23.5027 47.9121 23.666 47.7478C23.8294 47.5835 23.9211 47.3607 23.9211 47.1284V41.5768H26.5721V47.124C26.5721 47.3563 26.6639 47.5791 26.8272 47.7434C26.9906 47.9077 27.2121 48 27.4431 48H31.332C31.563 48 31.7845 47.9077 31.9478 47.7434C32.1112 47.5791 32.2029 47.3563 32.2029 47.124V41.5768H34.854V47.124C34.854 47.3563 34.9457 47.5791 35.1091 47.7434C35.2724 47.9077 35.4939 48 35.7249 48H39.6127C39.8437 48 40.0652 47.9077 40.2286 47.7434C40.3919 47.5791 40.4837 47.3563 40.4837 47.124V41.5768H43.1358V47.124C43.1358 47.3563 43.2275 47.5791 43.3909 47.7434C43.5542 47.9077 43.7757 48 44.0067 48H47.9032C48.1342 48 48.3558 47.9077 48.5191 47.7434C48.6824 47.5791 48.7742 47.3563 48.7742 47.124V41.5768H50.9701C51.7738 41.5748 52.544 41.2524 53.1119 40.6804C53.6798 40.1085 53.9991 39.3334 54 38.525V3.04736C53.998 2.23901 53.6775 1.46442 53.1088 0.893243C52.5401 0.322066 51.7695 0.000866648 50.9658 0ZM22.1835 46.248H20.0323V40.4971H22.1792L22.1835 46.248ZM30.4654 46.248H28.3184V33.8998H30.4654V46.248ZM38.7461 46.248H36.6002V36.5672H38.7461V46.248ZM47.0279 46.248H44.8821V28.7698H47.0323L47.0279 46.248ZM52.2537 38.525C52.2534 38.8697 52.1172 39.2001 51.8749 39.4438C51.6326 39.6875 51.3041 39.8245 50.9614 39.8248H48.7742V27.8894C48.7742 27.6571 48.6824 27.4343 48.5191 27.27C48.3558 27.1057 48.1342 27.0134 47.9032 27.0134H44.0111C43.7801 27.0134 43.5586 27.1057 43.3952 27.27C43.2319 27.4343 43.1401 27.6571 43.1401 27.8894V39.8248H40.488V35.6912C40.488 35.4589 40.3963 35.2361 40.2329 35.0718C40.0696 34.9075 39.8481 34.8152 39.6171 34.8152H35.7293C35.4983 34.8152 35.2767 34.9075 35.1134 35.0718C34.9501 35.2361 34.8583 35.4589 34.8583 35.6912V39.8248H32.2062V33.0238C32.2062 32.7915 32.1144 32.5687 31.9511 32.4044C31.7878 32.2401 31.5662 32.1478 31.3352 32.1478H27.4475C27.2165 32.1478 26.9949 32.2401 26.8316 32.4044C26.6683 32.5687 26.5765 32.7915 26.5765 33.0238V39.8248H23.9255V39.6211C23.9255 39.3888 23.8337 39.166 23.6704 39.0017C23.507 38.8374 23.2855 38.7451 23.0545 38.7451H19.1613C18.9303 38.7451 18.7088 38.8374 18.5454 39.0017C18.3821 39.166 18.2903 39.3888 18.2903 39.6211V39.8248H3.03423C2.69158 39.8245 2.36305 39.6875 2.12076 39.4438C1.87847 39.2001 1.74222 38.8697 1.74194 38.525V10.0268H52.2581L52.2537 38.525ZM52.2537 8.27484H1.74194V3.05174C1.74251 2.7072 1.87885 2.37694 2.12108 2.13331C2.36331 1.88969 2.69167 1.75256 3.03423 1.75198H50.9658C51.3083 1.75256 51.6367 1.88969 51.8789 2.13331C52.1212 2.37694 52.2575 2.7072 52.2581 3.05174L52.2537 8.27484Z" fill="black"/>
<path d="M7.8094 6.28476C8.50749 6.28476 9.07339 5.71558 9.07339 5.01347C9.07339 4.31136 8.50749 3.74219 7.8094 3.74219C7.11132 3.74219 6.54541 4.31136 6.54541 5.01347C6.54541 5.71558 7.11132 6.28476 7.8094 6.28476Z" fill="#FB9100"/>
<path d="M17.5164 6.28476C18.2145 6.28476 18.7804 5.71558 18.7804 5.01347C18.7804 4.31136 18.2145 3.74219 17.5164 3.74219C16.8183 3.74219 16.2524 4.31136 16.2524 5.01347C16.2524 5.71558 16.8183 6.28476 17.5164 6.28476Z" fill="#FB9100"/>
<path d="M12.6629 6.28476C13.361 6.28476 13.9269 5.71558 13.9269 5.01347C13.9269 4.31136 13.361 3.74219 12.6629 3.74219C11.9648 3.74219 11.3989 4.31136 11.3989 5.01347C11.3989 5.71558 11.9648 6.28476 12.6629 6.28476Z" fill="black"/>
<path d="M45.8566 21.8794C45.9387 21.9794 45.9977 22.0965 46.0293 22.2223C46.061 22.348 46.0645 22.4792 46.0395 22.6065L45.4396 25.6593C45.4006 25.8582 45.2942 26.0373 45.1385 26.1661C44.9829 26.2949 44.7876 26.3654 44.5861 26.3656C44.5291 26.3656 44.4722 26.3601 44.4163 26.3492C44.304 26.3269 44.1972 26.2826 44.102 26.2188C44.0068 26.1551 43.925 26.073 43.8613 25.9774C43.7976 25.8819 43.7533 25.7746 43.7308 25.6618C43.7083 25.5489 43.7082 25.4328 43.7304 25.3199L43.8186 24.8709L38.2596 29.9583C38.1359 30.0713 37.9825 30.1462 37.8176 30.174C37.6527 30.2018 37.4834 30.1812 37.3298 30.1148L29.514 26.7379L21.6372 32.7538C21.4533 32.8943 21.2213 32.9556 20.9925 32.9242C20.7636 32.8928 20.5565 32.7712 20.4167 32.5862C20.277 32.4013 20.216 32.168 20.2473 31.9378C20.2785 31.7076 20.3994 31.4993 20.5833 31.3588L28.8651 25.0341C28.9877 24.9399 29.1329 24.8802 29.2859 24.8609C29.4389 24.8417 29.5943 24.8637 29.7361 24.9246L37.5019 28.284L42.9247 23.3226H42.094C41.863 23.3226 41.6415 23.2303 41.4782 23.0661C41.3148 22.9018 41.2231 22.679 41.2231 22.4466C41.2231 22.2143 41.3148 21.9915 41.4782 21.8272C41.6415 21.6629 41.863 21.5706 42.094 21.5706L45.1881 21.5586C45.3165 21.5586 45.4434 21.5872 45.5595 21.6423C45.6756 21.6974 45.7782 21.7776 45.8599 21.8772L45.8566 21.8794Z" fill="#FB9100"/>
<path d="M20.0071 18.1749C19.9265 18.2132 19.847 18.2526 19.7676 18.2942C19.747 18.101 19.7106 17.9098 19.6587 17.7227C19.7631 17.8822 19.8796 18.0334 20.0071 18.1749Z" fill="black"/>
<path d="M12.6746 18.2942C12.5951 18.2526 12.5156 18.2132 12.4351 18.1749C12.5637 18.0337 12.6809 17.8825 12.7856 17.7227C12.7342 17.91 12.6978 18.1011 12.6768 18.2942H12.6746Z" fill="black"/>
<path d="M9.80732 17.5849C10.8163 17.5849 11.6342 16.7623 11.6342 15.7476C11.6342 14.7328 10.8163 13.9102 9.80732 13.9102C8.79838 13.9102 7.98047 14.7328 7.98047 15.7476C7.98047 16.7623 8.79838 17.5849 9.80732 17.5849Z" fill="#FB9100"/>
<path d="M5.57959 22.3772C5.84381 21.5974 6.31626 20.9058 6.94521 20.3781C7.57416 19.8503 8.33536 19.5068 9.14547 19.3852C9.95557 19.2635 10.7833 19.3684 11.5381 19.6883C12.2929 20.0082 12.9457 20.5309 13.4248 21.199C12.8271 21.5012 12.2822 21.8992 11.8114 22.3772H5.57959Z" fill="#FB9100"/>
</g>
<defs>
<clipPath id="clip0_1637_2075">
<rect width="54" height="48" fill="white"/>
</clipPath>
</defs>
</svg>
