<svg width="45" height="48" viewBox="0 0 45 48" fill="none" xmlns="http://www.w3.org/2000/svg">
<g clip-path="url(#clip0_1637_4264)">
<path d="M3.18001 27.375H4.12501C4.59373 29.0016 5.27592 30.5589 6.15376 32.0063L5.42251 32.7563C5.12635 33.0513 4.89136 33.402 4.73102 33.7881C4.57068 34.1742 4.48815 34.5882 4.48815 35.0063C4.48815 35.4243 4.57068 35.8383 4.73102 36.2244C4.89136 36.6105 5.12635 36.9612 5.42251 37.2563L7.79626 39.63C8.0911 39.9266 8.44167 40.162 8.82781 40.3226C9.21395 40.4832 9.62804 40.5659 10.0463 40.5659C10.4645 40.5659 10.8786 40.4832 11.2647 40.3226C11.6508 40.162 12.0014 39.9266 12.2963 39.63L13.125 38.7525C13.56 39 14.0063 39.2213 14.4563 39.4313C14.43 39.1575 14.4075 38.94 14.4 38.8688C14.3097 38.3804 14.1453 37.9087 13.9125 37.47C13.5675 37.275 13.2263 37.095 12.8963 36.8625L11.2238 38.5388C11.0677 38.695 10.8824 38.819 10.6784 38.9035C10.4745 38.9881 10.2558 39.0316 10.035 39.0316C9.81419 39.0316 9.59555 38.9881 9.39157 38.9035C9.18759 38.819 9.00229 38.695 8.84626 38.5388L6.46876 36.1613C6.31251 36.0052 6.18856 35.8199 6.10399 35.6159C6.01942 35.412 5.97589 35.1933 5.97589 34.9725C5.97589 34.7517 6.01942 34.533 6.10399 34.3291C6.18856 34.1251 6.31251 33.9398 6.46876 33.7838L8.06626 32.19C6.7274 30.2904 5.77906 28.1439 5.27626 25.875H3.18001C2.95826 25.8745 2.73879 25.8302 2.53421 25.7447C2.32962 25.6592 2.14395 25.534 1.98785 25.3765C1.83175 25.2191 1.7083 25.0323 1.62458 24.8269C1.54086 24.6216 1.49853 24.4018 1.50001 24.18V20.805C1.501 20.3597 1.67832 19.933 1.99316 19.6182C2.30801 19.3033 2.73475 19.126 3.18001 19.125H5.12626C5.52157 16.7466 6.40373 14.4754 7.71751 12.4538L6.46126 11.2013C6.30501 11.0452 6.18106 10.8599 6.09649 10.6559C6.01192 10.452 5.96839 10.2333 5.96839 10.0125C5.96839 9.79169 6.01192 9.57305 6.09649 9.36907C6.18106 9.16509 6.30501 8.97979 6.46126 8.82376L8.83876 6.44626C8.99479 6.29001 9.18009 6.16606 9.38407 6.08149C9.58805 5.99692 9.80669 5.95339 10.0275 5.95339C10.2483 5.95339 10.467 5.99692 10.6709 6.08149C10.8749 6.16606 11.0602 6.29001 11.2163 6.44626L12.375 7.63876C14.3974 6.21689 16.6978 5.23921 19.125 4.77001V3.18001C19.1255 2.95826 19.1698 2.73879 19.2553 2.53421C19.3409 2.32962 19.466 2.14395 19.6235 1.98785C19.781 1.83175 19.9677 1.7083 20.1731 1.62458C20.3784 1.54086 20.5983 1.49853 20.82 1.50001H24.195C24.6403 1.501 25.067 1.67832 25.3819 1.99316C25.6967 2.30801 25.874 2.73475 25.875 3.18001V4.77001C28.3022 5.23921 30.6027 6.21689 32.625 7.63876L33.7988 6.46126C33.9548 6.30501 34.1401 6.18106 34.3441 6.09649C34.548 6.01192 34.7667 5.96839 34.9875 5.96839C35.2083 5.96839 35.427 6.01192 35.6309 6.09649C35.8349 6.18106 36.0202 6.30501 36.1763 6.46126L38.5538 8.83876C38.71 8.99479 38.834 9.18009 38.9185 9.38407C39.0031 9.58805 39.0466 9.80669 39.0466 10.0275C39.0466 10.2483 39.0031 10.467 38.9185 10.6709C38.834 10.8749 38.71 11.0602 38.5538 11.2163L37.2975 12.4688C38.6041 14.4871 39.481 16.7529 39.8738 19.125H41.82C42.0418 19.1255 42.2612 19.1698 42.4658 19.2553C42.6704 19.3409 42.8561 19.466 43.0122 19.6235C43.1683 19.781 43.2917 19.9677 43.3754 20.1731C43.4592 20.3784 43.5015 20.5983 43.5 20.82V24.195C43.499 24.6403 43.3217 25.067 43.0069 25.3819C42.692 25.6967 42.2653 25.874 41.82 25.875H39.7238C39.2251 28.1486 38.2793 30.3004 36.9413 32.205L38.5388 33.7988C38.695 33.9548 38.819 34.1401 38.9035 34.3441C38.9881 34.548 39.0316 34.7667 39.0316 34.9875C39.0316 35.2083 38.9881 35.427 38.9035 35.6309C38.819 35.8349 38.695 36.0202 38.5388 36.1763L36.1613 38.5538C36.0052 38.71 35.8199 38.834 35.6159 38.9185C35.412 39.0031 35.1933 39.0466 34.9725 39.0466C34.7517 39.0466 34.533 39.0031 34.3291 38.9185C34.1251 38.834 33.9398 38.71 33.7838 38.5538L33.2213 37.9875C32.9143 38.3927 32.5324 38.7351 32.0963 38.9963L32.715 39.6113C33.0098 39.9079 33.3604 40.1432 33.7466 40.3039C34.1327 40.4645 34.5468 40.5472 34.965 40.5472C35.3832 40.5472 35.7973 40.4645 36.1835 40.3039C36.5696 40.1432 36.9202 39.9079 37.215 39.6113L39.5888 37.2375C39.8854 36.9427 40.1207 36.5921 40.2814 36.206C40.442 35.8198 40.5247 35.4057 40.5247 34.9875C40.5247 34.5693 40.442 34.1552 40.2814 33.7691C40.1207 33.3829 39.8854 33.0323 39.5888 32.7375L38.8388 31.9875C39.7242 30.5474 40.4152 28.9964 40.8938 27.375H41.82C42.2386 27.374 42.6529 27.2906 43.0392 27.1295C43.4256 26.9684 43.7764 26.7328 44.0717 26.4361C44.367 26.1394 44.601 25.7875 44.7602 25.4004C44.9195 25.0133 45.001 24.5986 45 24.18V20.805C44.998 19.9622 44.6624 19.1545 44.0664 18.5586C43.4705 17.9627 42.6628 17.627 41.82 17.625H41.1038C40.6954 15.895 40.0453 14.2311 39.1725 12.6825L39.5963 12.2588C39.8929 11.9639 40.1282 11.6133 40.2889 11.2272C40.4495 10.8411 40.5322 10.427 40.5322 10.0088C40.5322 9.59054 40.4495 9.17645 40.2889 8.79031C40.1282 8.40417 39.8929 8.0536 39.5963 7.75876L37.2225 5.38501C36.9277 5.0884 36.5771 4.85302 36.191 4.69239C35.8048 4.53177 35.3907 4.44908 34.9725 4.44908C34.5543 4.44908 34.1402 4.53177 33.7541 4.69239C33.3679 4.85302 33.0173 5.0884 32.7225 5.38501L32.4075 5.69626C30.8416 4.74804 29.1464 4.03184 27.375 3.57001V3.19501C27.376 2.77516 27.294 2.35925 27.1338 1.97117C26.9736 1.58308 26.7383 1.23048 26.4414 0.933597C26.1445 0.636717 25.7919 0.401413 25.4039 0.241199C25.0158 0.0809858 24.5999 -0.000980207 24.18 8.84516e-06H20.805C19.9622 0.00198953 19.1545 0.33766 18.5586 0.933597C17.9627 1.52953 17.627 2.33723 17.625 3.18001V3.55501C15.8461 4.02101 14.1445 4.74359 12.5738 5.70001L12.2588 5.38876C11.9639 5.09215 11.6133 4.85677 11.2272 4.69614C10.8411 4.53552 10.427 4.45283 10.0088 4.45283C9.59054 4.45283 9.17645 4.53552 8.79031 4.69614C8.40417 4.85677 8.0536 5.09215 7.75876 5.38876L5.38501 7.76251C5.0884 8.05735 4.85302 8.40792 4.69239 8.79406C4.53177 9.1802 4.44908 9.59429 4.44908 10.0125C4.44908 10.4307 4.53177 10.8448 4.69239 11.231C4.85302 11.6171 5.0884 11.9677 5.38501 12.2625L5.80876 12.6863C4.94285 14.2347 4.29904 15.8972 3.89626 17.625H3.18001C2.76142 17.626 2.34712 17.7094 1.96077 17.8705C1.57443 18.0316 1.22359 18.2672 0.9283 18.5639C0.63301 18.8606 0.399047 19.2125 0.23977 19.5996C0.0804937 19.9867 -0.000977228 20.4014 8.84506e-06 20.82V24.195C0.00198953 25.0378 0.33766 25.8455 0.933597 26.4414C1.52953 27.0374 2.33723 27.373 3.18001 27.375Z" fill="black"/>
<path d="M33.6754 31.2825C33.942 31.1561 34.1757 30.9699 34.3585 30.7383C34.5413 30.5068 34.6681 30.2361 34.7292 29.9475C34.7817 29.6151 34.7612 29.2752 34.6693 28.9514C34.5773 28.6277 34.4161 28.3278 34.1967 28.0725C33.7031 27.4304 33.3227 26.7088 33.0717 25.9388C32.9405 25.4089 32.8763 24.8646 32.8804 24.3188C32.8804 23.9438 32.8504 23.535 32.8017 23.115C32.565 21.3885 31.909 19.7462 30.8912 18.3316C29.8734 16.917 28.5247 15.7732 26.9629 15C25.4308 14.2568 23.7496 13.8721 22.0467 13.875C18.9879 13.8711 16.0472 15.0554 13.8448 17.178C11.6424 19.3007 10.3506 22.1957 10.2417 25.2525C10.0917 29.0025 12.0117 31.8263 13.5567 34.0988L13.7142 34.3313C14.6742 35.7338 15.6642 37.1813 15.8779 38.6775C15.9517 39.2798 15.9918 39.8858 15.9979 40.4925C15.9979 40.8903 16.156 41.2719 16.4373 41.5532C16.7186 41.8345 17.1001 41.9925 17.4979 41.9925H26.9854C27.3832 41.9925 27.7648 41.8345 28.0461 41.5532C28.3274 41.2719 28.4854 40.8903 28.4854 40.4925V39.0675C28.4849 38.9474 28.5081 38.8283 28.5536 38.7171C28.5992 38.6059 28.6661 38.5047 28.7508 38.4194C28.8354 38.3341 28.936 38.2663 29.0468 38.2199C29.1576 38.1734 29.2765 38.1493 29.3967 38.1488H29.5092C31.0092 38.1488 31.7592 37.4813 32.1342 36.9225C32.5351 36.2246 32.6596 35.4016 32.4829 34.6163C32.7498 34.4251 32.9608 34.1662 33.0942 33.8663C33.2401 33.5272 33.2781 33.1514 33.2029 32.79C33.2587 32.7158 33.3076 32.6367 33.3492 32.5538C33.5295 32.1942 33.5773 31.7826 33.4842 31.3913L33.5592 31.365L33.6754 31.2825ZM33.0004 29.9363L32.3254 30.1913C32.1268 30.2442 31.9466 30.3506 31.8042 30.4988C31.7263 30.625 31.6876 30.7714 31.693 30.9196C31.6983 31.0677 31.7474 31.211 31.8342 31.3313C31.9092 31.4738 32.1529 31.89 31.8342 31.9313C31.6504 32.0588 31.4592 32.1825 31.2829 32.3063C31.2698 32.3264 31.2629 32.3498 31.2629 32.3738C31.2629 32.3977 31.2698 32.4212 31.2829 32.4413C31.3504 32.52 31.4142 32.5988 31.4742 32.6813C31.5373 32.7628 31.5937 32.8494 31.6429 32.94C31.6871 33.023 31.6985 33.1195 31.6749 33.2105C31.6513 33.3015 31.5944 33.3803 31.5154 33.4313C31.4749 33.4543 31.4303 33.4696 31.3842 33.4763C31.2385 33.4691 31.096 33.52 30.9878 33.6176C30.8796 33.7153 30.8144 33.8519 30.8067 33.9975C30.7993 34.046 30.7993 34.0953 30.8067 34.1438C30.8629 34.38 30.9079 34.62 30.9417 34.86C31.0536 35.2825 31.0097 35.7311 30.8179 36.1238C30.5329 36.5625 29.9442 36.6563 29.4604 36.6563H29.3667C29.049 36.6548 28.7342 36.7159 28.4402 36.8361C28.1462 36.9563 27.8787 37.1332 27.6531 37.3567C27.4274 37.5803 27.248 37.8461 27.1251 38.139C27.0022 38.4319 26.9381 38.7461 26.9367 39.0638V40.5H22.8754V36H23.6254C23.8243 36 24.0151 35.921 24.1558 35.7803C24.2964 35.6397 24.3754 35.4489 24.3754 35.25C24.3754 35.0511 24.2964 34.8603 24.1558 34.7197C24.0151 34.579 23.8243 34.5 23.6254 34.5H20.6254C20.4265 34.5 20.2357 34.579 20.0951 34.7197C19.9544 34.8603 19.8754 35.0511 19.8754 35.25C19.8754 35.4489 19.9544 35.6397 20.0951 35.7803C20.2357 35.921 20.4265 36 20.6254 36H21.3754V40.5H17.4979C17.4898 39.8207 17.446 39.1423 17.3667 38.4675C17.0892 36.5325 15.8667 34.8188 14.7979 33.255C13.1554 30.84 11.6254 28.4625 11.7379 25.3125C11.8332 22.643 12.9613 20.1148 14.8844 18.2609C16.8076 16.407 19.3755 15.3723 22.0467 15.375C23.5194 15.3686 24.9741 15.6996 26.2992 16.3425C27.6347 17.0073 28.7878 17.9881 29.6583 19.1997C30.5288 20.4113 31.0903 21.8171 31.2942 23.295C31.4142 24.3263 31.2942 25.3838 31.6167 26.3888C31.9303 27.3369 32.4034 28.2246 33.0154 29.0138C33.0154 29.0138 33.5817 29.6625 33.0154 29.94L33.0004 29.9363Z" fill="#FB9100"/>
<path d="M27 44.25C27 44.0511 26.921 43.8603 26.7803 43.7197C26.6397 43.579 26.4489 43.5 26.25 43.5H18C17.8011 43.5 17.6103 43.579 17.4697 43.7197C17.329 43.8603 17.25 44.0511 17.25 44.25C17.25 44.4489 17.329 44.6397 17.4697 44.7803C17.6103 44.921 17.8011 45 18 45H26.25C26.4489 45 26.6397 44.921 26.7803 44.7803C26.921 44.6397 27 44.4489 27 44.25Z" fill="#FB9100"/>
<path d="M19.5 46.5C19.3011 46.5 19.1103 46.579 18.9697 46.7197C18.829 46.8603 18.75 47.0511 18.75 47.25C18.75 47.4489 18.829 47.6397 18.9697 47.7803C19.1103 47.921 19.3011 48 19.5 48H24.75C24.9489 48 25.1397 47.921 25.2803 47.7803C25.421 47.6397 25.5 47.4489 25.5 47.25C25.5 47.0511 25.421 46.8603 25.2803 46.7197C25.1397 46.579 24.9489 46.5 24.75 46.5H19.5Z" fill="black"/>
<path d="M28.2037 22.6912C28.1512 22.5525 28.0987 22.41 28.0387 22.275C28.2361 21.8933 28.3062 21.4584 28.2387 21.034C28.1712 20.6096 27.9697 20.218 27.6637 19.9163L26.9437 19.1962C26.6498 18.9037 26.2731 18.7087 25.8645 18.6376C25.456 18.5665 25.0355 18.6227 24.66 18.7988C24.4875 18.72 24.315 18.645 24.135 18.5775C23.9951 18.1915 23.7405 17.8574 23.4054 17.6201C23.0703 17.3829 22.6706 17.2537 22.26 17.25H21.24C20.8294 17.2537 20.4297 17.3829 20.0946 17.6201C19.7595 17.8574 19.5049 18.1915 19.365 18.5775C19.185 18.645 19.0125 18.7163 18.84 18.7988C18.4645 18.6227 18.044 18.5665 17.6355 18.6376C17.2269 18.7087 16.8502 18.9037 16.5563 19.1962L15.8362 19.9163C15.5303 20.218 15.3288 20.6096 15.2613 21.034C15.1938 21.4584 15.2639 21.8933 15.4612 22.275C15.4012 22.41 15.3488 22.5525 15.2963 22.6912C14.8849 22.8179 14.5249 23.073 14.2691 23.4193C14.0133 23.7655 13.8752 24.1845 13.875 24.615V25.635C13.8752 26.0847 14.026 26.5215 14.3033 26.8756C14.5806 27.2296 14.9684 27.4807 15.405 27.5887L15.525 27.8662C15.2906 28.2512 15.1923 28.7038 15.2461 29.1513C15.2998 29.5988 15.5024 30.0152 15.8212 30.3337L16.5413 31.0537C16.8696 31.382 17.3013 31.5866 17.7633 31.6331C18.2253 31.6796 18.6891 31.565 19.0762 31.3087L19.2675 31.3875C19.36 31.8425 19.6069 32.2515 19.9663 32.5453C20.3258 32.8392 20.7757 32.9998 21.24 33H22.26C22.724 33.0004 23.1738 32.8399 23.5328 32.5458C23.8917 32.2518 24.1377 31.8425 24.2288 31.3875L24.4237 31.3087C24.8109 31.565 25.2747 31.6796 25.7367 31.6331C26.1987 31.5866 26.6304 31.382 26.9587 31.0537L27.6787 30.3337C27.997 30.0149 28.1992 29.5985 28.2529 29.1512C28.3066 28.7038 28.2088 28.2514 27.975 27.8662L28.095 27.5887C28.5313 27.4801 28.9187 27.2289 29.1959 26.8749C29.4731 26.521 29.6241 26.0846 29.625 25.635V24.615C29.6248 24.1845 29.4867 23.7655 29.2309 23.4193C28.9751 23.073 28.6151 22.8179 28.2037 22.6912ZM28.125 25.635C28.125 25.7703 28.0713 25.9 27.9756 25.9956C27.88 26.0913 27.7503 26.145 27.615 26.145H26.9775C26.8266 26.8347 26.5398 27.4874 26.1338 28.065L26.625 28.5525C26.7203 28.6481 26.7738 28.7775 26.7738 28.9125C26.7738 29.0475 26.7203 29.1769 26.625 29.2725L25.8975 30C25.8019 30.0953 25.6725 30.1488 25.5375 30.1488C25.4025 30.1488 25.2731 30.0953 25.1775 30L24.6675 29.4938C24.0896 29.8644 23.4451 30.1191 22.77 30.2438V30.9938C22.769 31.1284 22.7148 31.2571 22.6193 31.352C22.5238 31.4468 22.3946 31.5 22.26 31.5H21.24C21.1047 31.5 20.975 31.4463 20.8794 31.3506C20.7837 31.255 20.73 31.1253 20.73 30.99V30.24C20.0549 30.1154 19.4104 29.8606 18.8325 29.49L18.3225 30C18.2269 30.0953 18.0975 30.1488 17.9625 30.1488C17.8275 30.1488 17.6981 30.0953 17.6025 30L16.875 29.2725C16.7797 29.1769 16.7262 29.0475 16.7262 28.9125C16.7262 28.7775 16.7797 28.6481 16.875 28.5525L17.3588 28.065C16.9512 27.4883 16.6643 26.8352 16.515 26.145H15.8775C15.7435 26.143 15.6157 26.0884 15.5217 25.993C15.4277 25.8976 15.375 25.769 15.375 25.635V24.615C15.375 24.4797 15.4287 24.35 15.5244 24.2544C15.62 24.1587 15.7497 24.105 15.885 24.105H16.4738C16.5946 23.3831 16.8627 22.6939 17.2612 22.08L16.8862 21.705C16.791 21.6094 16.7375 21.48 16.7375 21.345C16.7375 21.21 16.791 21.0806 16.8862 20.985L17.6025 20.25C17.6981 20.1547 17.8275 20.1012 17.9625 20.1012C18.0975 20.1012 18.2269 20.1547 18.3225 20.25L18.6975 20.6063C19.3122 20.1748 20.0113 19.8784 20.7488 19.7363V19.26C20.7487 19.1279 20.7998 19.001 20.8914 18.9058C20.9831 18.8107 21.108 18.7549 21.24 18.75H22.26C22.3953 18.75 22.525 18.8037 22.6206 18.8994C22.7163 18.995 22.77 19.1247 22.77 19.26V19.7438C23.5072 19.8893 24.205 20.1897 24.8175 20.625L25.1925 20.2687C25.2881 20.1735 25.4175 20.12 25.5525 20.12C25.6875 20.12 25.8169 20.1735 25.9125 20.2687L26.625 20.9775C26.7203 21.0731 26.7738 21.2025 26.7738 21.3375C26.7738 21.4725 26.7203 21.6019 26.625 21.6975L26.25 22.0725C26.6471 22.6871 26.915 23.3761 27.0375 24.0975H27.6262C27.7609 24.1005 27.8888 24.1565 27.9823 24.2535C28.0757 24.3504 28.127 24.4804 28.125 24.615V25.635Z" fill="black"/>
<path d="M21.75 21C20.9342 21 20.1366 21.2419 19.4583 21.6952C18.7799 22.1484 18.2512 22.7927 17.939 23.5464C17.6268 24.3002 17.5451 25.1296 17.7043 25.9297C17.8634 26.7299 18.2563 27.4649 18.8332 28.0418C19.4101 28.6187 20.1451 29.0116 20.9453 29.1707C21.7454 29.3299 22.5748 29.2482 23.3286 28.936C24.0823 28.6238 24.7266 28.0951 25.1798 27.4167C25.6331 26.7384 25.875 25.9408 25.875 25.125C25.875 24.031 25.4404 22.9818 24.6668 22.2082C23.8932 21.4346 22.844 21 21.75 21ZM21.75 27.75C21.2308 27.75 20.7233 27.596 20.2916 27.3076C19.86 27.0192 19.5235 26.6092 19.3248 26.1295C19.1261 25.6499 19.0742 25.1221 19.1754 24.6129C19.2767 24.1037 19.5267 23.636 19.8938 23.2688C20.261 22.9017 20.7287 22.6517 21.2379 22.5504C21.7471 22.4492 22.2749 22.5011 22.7545 22.6998C23.2342 22.8985 23.6442 23.2349 23.9326 23.6666C24.221 24.0983 24.375 24.6058 24.375 25.125C24.375 25.8212 24.0984 26.4889 23.6062 26.9812C23.1139 27.4734 22.4462 27.75 21.75 27.75Z" fill="#FB9100"/>
</g>
<defs>
<clipPath id="clip0_1637_4264">
<rect width="45" height="48" fill="white"/>
</clipPath>
</defs>
</svg>
