<svg width="66" height="66" viewBox="0 0 66 66" fill="none" xmlns="http://www.w3.org/2000/svg">
<rect width="66" height="66" rx="15" fill="#FB9100" fill-opacity="0.07"/>
<g clip-path="url(#clip0_1647_7)">
<path d="M19.4434 26.8242C19.2811 26.8242 19.1225 26.8723 18.9876 26.9625C18.8527 27.0526 18.7476 27.1807 18.6855 27.3306C18.6234 27.4805 18.6072 27.6454 18.6388 27.8046C18.6705 27.9637 18.7486 28.1099 18.8633 28.2246C18.978 28.3393 19.1242 28.4174 19.2833 28.4491C19.4424 28.4807 19.6074 28.4645 19.7573 28.4024C19.9072 28.3403 20.0353 28.2352 20.1254 28.1003C20.2156 27.9654 20.2637 27.8068 20.2637 27.6445C20.2637 27.427 20.1772 27.2183 20.0234 27.0645C19.8696 26.9106 19.6609 26.8242 19.4434 26.8242Z" fill="black"/>
<path d="M42.4275 36.6269C42.2737 36.4731 42.0651 36.3866 41.8475 36.3866C41.6302 36.3874 41.4218 36.4737 41.2676 36.6269L40.6884 37.2069L38.8017 35.3202C40.9467 32.3025 41.8797 28.5891 41.4159 24.916C40.9522 21.2428 39.1254 17.8779 36.2977 15.4881C33.47 13.0983 29.8477 11.858 26.1486 12.0129C22.4496 12.1679 18.9437 13.7068 16.3257 16.3248C13.7078 18.9427 12.1689 22.4486 12.0139 26.1476C11.859 29.8467 13.0993 33.469 15.4891 36.2967C17.8789 39.1244 21.2438 40.9512 24.917 41.415C28.5901 41.8787 32.3035 40.9457 35.3211 38.8007L37.2079 40.6875L36.6279 41.2674C36.5516 41.3436 36.4911 41.4341 36.4498 41.5337C36.4086 41.6332 36.3873 41.74 36.3873 41.8478C36.3873 41.9556 36.4086 42.0623 36.4498 42.1619C36.4911 42.2615 36.5516 42.352 36.6279 42.4282L46.9983 52.7969C47.3766 53.1887 47.8292 53.5011 48.3296 53.7161C48.83 53.931 49.3682 54.0442 49.9128 54.0489C50.4575 54.0537 50.9975 53.9499 51.5016 53.7436C52.0057 53.5374 52.4636 53.2329 52.8487 52.8478C53.2338 52.4626 53.5384 52.0047 53.7446 51.5006C53.9509 50.9966 54.0546 50.4565 54.0499 49.9119C54.0452 49.3673 53.932 48.8291 53.7171 48.3287C53.5021 47.8283 53.1896 47.3757 52.7979 46.9973L42.4275 36.6269ZM38.3678 39.5267L36.6098 37.7704C36.8133 37.5875 37.0134 37.3997 37.2062 37.2069C37.399 37.0141 37.5868 36.8139 37.7698 36.6105L39.5261 38.3668L38.3678 39.5267ZM17.4884 36.047C15.6525 34.2115 14.4022 31.8729 13.8955 29.3268C13.3889 26.7807 13.6486 24.1416 14.642 21.7431C15.6353 19.3447 17.3175 17.2947 19.476 15.8523C21.6345 14.41 24.1721 13.6402 26.7681 13.6402C29.3641 13.6402 31.9018 14.41 34.0603 15.8523C36.2188 17.2947 37.901 19.3447 38.8943 21.7431C39.8877 24.1416 40.1474 26.7807 39.6407 29.3268C39.1341 31.8729 37.8838 34.2115 36.0479 36.047C30.8463 41.2486 22.5472 41.1058 17.4884 36.047ZM41.8516 38.3668L44.1715 40.6866L40.6917 44.1664L38.3719 41.8466L41.8516 38.3668ZM51.638 51.637C51.1765 52.0981 50.5508 52.3571 49.8985 52.3571C49.2461 52.3571 48.6205 52.0981 48.159 51.637L41.8475 45.3263L45.3273 41.8466L51.638 48.1581C52.0991 48.6195 52.3581 49.2452 52.3581 49.8975C52.3581 50.5499 52.0991 51.1755 51.638 51.637Z" fill="black"/>
<path d="M34.8866 18.6454C33.8202 17.5788 32.5541 16.7328 31.1607 16.1556C29.7673 15.5783 28.2738 15.2812 26.7655 15.2812C25.2573 15.2812 23.7638 15.5783 22.3704 16.1556C20.977 16.7328 19.7109 17.5788 18.6444 18.6454C14.168 23.1226 14.168 30.4078 18.6444 34.8875C19.7104 35.955 20.9763 36.8018 22.3698 37.3796C23.7633 37.9573 25.257 38.2547 26.7655 38.2547C28.2741 38.2547 29.7678 37.9573 31.1613 37.3796C32.5548 36.8018 33.8207 35.955 34.8866 34.8875C39.3647 30.4111 39.3647 23.1259 34.8866 18.6454ZM33.7267 33.7284C32.3501 35.1053 30.5961 36.043 28.6866 36.423C26.777 36.8029 24.7977 36.6081 22.9989 35.8631C21.2 35.1181 19.6626 33.8564 18.5808 32.2376C17.4991 30.6188 16.9217 28.7155 16.9217 26.7685C16.9217 24.8215 17.4991 22.9183 18.5808 21.2994C19.6626 19.6806 21.2 18.4189 22.9989 17.6739C24.7977 16.9289 26.777 16.7341 28.6866 17.114C30.5961 17.494 32.3501 18.4317 33.7267 19.8086C34.6415 20.7221 35.3672 21.8071 35.8623 23.0013C36.3574 24.1955 36.6123 25.4757 36.6123 26.7685C36.6123 28.0613 36.3574 29.3415 35.8623 30.5357C35.3672 31.73 34.6415 32.8149 33.7267 33.7284Z" fill="#FB9100"/>
<path d="M26.7656 18.5625C25.0542 18.5626 23.3856 19.098 21.9937 20.0937C20.6017 21.0894 19.556 22.4955 19.003 24.1152C18.9331 24.3212 18.9478 24.5466 19.0441 24.7417C19.1403 24.9369 19.3101 25.0858 19.5161 25.1558C19.7222 25.2257 19.9475 25.2109 20.1427 25.1147C20.3378 25.0185 20.4867 24.8487 20.5567 24.6427C20.9994 23.3476 21.836 22.2234 22.9493 21.4274C24.0627 20.6313 25.397 20.2033 26.7656 20.2031C26.9832 20.2031 27.1918 20.1167 27.3457 19.9629C27.4995 19.809 27.5859 19.6004 27.5859 19.3828C27.5859 19.1653 27.4995 18.9566 27.3457 18.8028C27.1918 18.6489 26.9832 18.5625 26.7656 18.5625Z" fill="#FB9100"/>
<path d="M43.2959 45.6367L45.6161 43.3165L50.9085 48.6089C51.2161 48.9166 51.389 49.3339 51.389 49.769C51.389 50.2041 51.2161 50.6214 50.9085 50.9291C50.6008 51.2368 50.1835 51.4096 49.7484 51.4096C49.3132 51.4096 48.8959 51.2368 48.5883 50.9291L43.2959 45.6367Z" fill="#FB9100"/>
</g>
<defs>
<clipPath id="clip0_1647_7">
<rect width="42" height="42" fill="white" transform="translate(12 12)"/>
</clipPath>
</defs>
</svg>
