<svg width="45" height="48" viewBox="0 0 45 48" fill="none" xmlns="http://www.w3.org/2000/svg">
<g clip-path="url(#clip0_1637_3289)">
<path d="M22.5684 47.9999C34.8223 47.9258 44.777 38.161 44.9962 26.0009C45.2153 13.8408 35.6176 3.72916 23.3742 3.22011V1.54576C23.3755 1.27317 23.3044 1.00504 23.1681 0.768374C23.0318 0.531711 22.8351 0.334868 22.5977 0.197665C22.3708 0.0669321 22.1129 -0.00129972 21.8505 1.87517e-05C21.5881 0.00133722 21.3309 0.0721582 21.1053 0.205165L16.8831 2.65949C16.6504 2.79893 16.4579 2.99566 16.3243 3.23061C16.1907 3.46556 16.1205 3.73077 16.1205 4.00056C16.1205 4.27035 16.1907 4.53556 16.3243 4.77051C16.4579 5.00546 16.6504 5.20219 16.8831 5.34163L21.1063 7.79689C21.3318 7.92958 21.5889 8.00014 21.8511 8.00129C22.1133 8.00245 22.371 7.93415 22.5977 7.80345C22.835 7.6664 23.0317 7.46972 23.168 7.23322C23.3043 6.99672 23.3754 6.72875 23.3742 6.45629V4.82039C34.8355 5.25819 43.8136 14.7577 43.5179 26.1397C43.2223 37.5216 33.7653 46.5505 22.2964 46.4061C10.8275 46.2618 1.61045 36.9882 1.61045 25.6044C1.61045 25.3923 1.52556 25.1889 1.37446 25.0389C1.22336 24.8889 1.01843 24.8047 0.804737 24.8047C0.591049 24.8047 0.386112 24.8889 0.235011 25.0389C0.0839108 25.1889 -0.000976562 25.3923 -0.000976562 25.6044C0.0141365 37.9688 10.1096 47.9858 22.5684 47.9999ZM17.7512 4.01134L21.7646 1.68076L21.7816 3.91572C21.7741 3.94375 21.7684 3.97225 21.7646 4.00103C21.7687 4.03267 21.775 4.064 21.7835 4.09478L21.8015 6.34473L17.7512 4.01134Z" fill="black"/>
<path d="M0.923483 23.1904C0.964413 23.1967 1.00579 23.1999 1.04722 23.1997C1.24027 23.1994 1.42678 23.1303 1.57289 23.0051C1.71899 22.8798 1.81501 22.7067 1.84349 22.5172C1.88222 22.2576 1.92378 22.0007 1.97384 21.7457C2.00914 21.5388 1.96109 21.3264 1.84004 21.1544C1.719 20.9823 1.53467 20.8644 1.32681 20.826C1.11894 20.7876 0.90421 20.8319 0.728921 20.9492C0.553633 21.0665 0.431837 21.2475 0.389804 21.4532C0.338168 21.7282 0.291254 22.0044 0.249064 22.2819C0.217613 22.4911 0.270915 22.7041 0.397307 22.8743C0.523699 23.0446 0.71289 23.1582 0.923483 23.1904Z" fill="#FB9100"/>
<path d="M1.77296 19.1532C1.9745 19.2241 2.19616 19.2127 2.38922 19.1215C2.58228 19.0302 2.73094 18.8667 2.80253 18.6667C2.8951 18.4067 2.99239 18.1498 3.09441 17.8961C3.15901 17.7025 3.14674 17.4917 3.06009 17.3068C2.97345 17.1218 2.81896 16.9767 2.62816 16.901C2.43736 16.8253 2.22464 16.8247 2.03341 16.8993C1.84218 16.974 1.68686 17.1182 1.59916 17.3027C1.49148 17.5764 1.38695 17.853 1.28556 18.1323C1.25021 18.2313 1.23485 18.3362 1.24035 18.4411C1.24585 18.546 1.27211 18.6488 1.31764 18.7436C1.36316 18.8384 1.42705 18.9233 1.50566 18.9936C1.58427 19.0639 1.67606 19.1182 1.77579 19.1532H1.77296Z" fill="black"/>
<path d="M3.53683 15.0824C3.6275 15.1369 3.72808 15.173 3.83284 15.1889C3.9376 15.2047 4.04448 15.2 4.14738 15.1748C4.25027 15.1496 4.34716 15.1046 4.43251 15.0423C4.51786 14.9799 4.59 14.9015 4.6448 14.8115C4.80664 14.5509 4.97194 14.294 5.1407 14.0409C5.25299 13.8646 5.29151 13.6517 5.24808 13.4476C5.20465 13.2436 5.08268 13.0644 4.90814 12.9482C4.73361 12.832 4.52028 12.788 4.31356 12.8256C4.10684 12.8632 3.92305 12.9793 3.80131 13.1493C3.6168 13.4225 3.43891 13.699 3.26763 13.979C3.21202 14.0689 3.17486 14.1689 3.15829 14.2731C3.14173 14.3773 3.14608 14.4837 3.17109 14.5863C3.19611 14.6888 3.2413 14.7854 3.30407 14.8706C3.36683 14.9557 3.44594 15.0277 3.53683 15.0824Z" fill="#FB9100"/>
<path d="M6.44742 11.8903C6.56003 11.8905 6.67142 11.8672 6.77441 11.822C6.87739 11.7768 6.96969 11.7106 7.04533 11.6278C7.2503 11.4028 7.46283 11.1816 7.67819 10.965C7.75719 10.8915 7.82044 10.8029 7.86417 10.7046C7.9079 10.6063 7.9312 10.5002 7.93269 10.3927C7.93419 10.2852 7.91383 10.1786 7.87285 10.0791C7.83187 9.9796 7.7711 9.88933 7.69418 9.81368C7.61725 9.73802 7.52575 9.67853 7.42514 9.63877C7.32453 9.59901 7.21687 9.57978 7.1086 9.58224C7.00034 9.5847 6.89368 9.6088 6.79501 9.6531C6.69634 9.69739 6.60768 9.76098 6.53432 9.84005C6.30007 10.0732 6.07212 10.3116 5.85046 10.5553C5.74566 10.6701 5.67666 10.8125 5.65185 10.9654C5.62705 11.1182 5.64749 11.275 5.7107 11.4165C5.77392 11.5581 5.87719 11.6784 6.00796 11.7628C6.13874 11.8473 6.29141 11.8922 6.44742 11.8922V11.8903Z" fill="black"/>
<path d="M9.67253 9.00042C9.84507 8.99934 10.0127 8.94313 10.1505 8.84011C10.3649 8.68449 10.5821 8.53168 10.7994 8.38356C10.9763 8.26446 11.0982 8.08051 11.1384 7.87218C11.1786 7.66384 11.1338 7.44818 11.0138 7.27264C10.8938 7.09711 10.7085 6.97607 10.4986 6.93616C10.2887 6.89625 10.0714 6.94074 9.8945 7.05984C9.65647 7.21921 9.42254 7.38358 9.19269 7.55295C9.05484 7.65273 8.95241 7.79331 8.90013 7.95451C8.84785 8.1157 8.84841 8.28919 8.90174 8.45004C8.95506 8.6109 9.0584 8.75083 9.1969 8.84972C9.33539 8.94862 9.50192 9.00138 9.67253 9.00042Z" fill="#FB9100"/>
<path d="M13.0345 6.98091C13.1566 6.98065 13.277 6.95309 13.3868 6.90029C13.6012 6.79717 13.8166 6.69779 14.031 6.60123C14.1276 6.55814 14.2148 6.49659 14.2874 6.42008C14.3601 6.34357 14.4169 6.2536 14.4545 6.15532C14.4921 6.05704 14.5099 5.95236 14.5067 5.84727C14.5036 5.74217 14.4796 5.63872 14.4362 5.54282C14.3928 5.44691 14.3308 5.36043 14.2537 5.28832C14.1766 5.21621 14.086 5.15987 13.987 5.12252C13.8879 5.08518 13.7825 5.06755 13.6766 5.07066C13.5707 5.07377 13.4664 5.09755 13.3698 5.14064C13.1365 5.2447 12.906 5.35063 12.6756 5.46032C12.5113 5.53961 12.379 5.6719 12.3003 5.83554C12.2216 5.99918 12.2013 6.18448 12.2425 6.3611C12.2838 6.53773 12.3842 6.69523 12.5274 6.80783C12.6706 6.92043 12.848 6.98145 13.0307 6.98091H13.0345Z" fill="black"/>
<path d="M8.86597 37.6018H36.2716C36.4806 37.5947 36.6787 37.5073 36.824 37.358C36.9694 37.2087 37.0506 37.0092 37.0506 36.8017C37.0506 36.5941 36.9694 36.3946 36.824 36.2453C36.6787 36.096 36.4806 36.0086 36.2716 36.0015H33.8535V19.2018C33.8535 18.7774 33.6836 18.3704 33.3812 18.0703C33.0789 17.7702 32.6687 17.6016 32.2411 17.6016H30.6287C30.417 17.6016 30.2074 17.643 30.0119 17.7234C29.8163 17.8038 29.6386 17.9217 29.489 18.0703C29.3393 18.2189 29.2206 18.3954 29.1397 18.5895C29.0588 18.7837 29.0172 18.9917 29.0173 19.2018V36.0015H27.4049V22.4015C27.4049 22.1914 27.3632 21.9833 27.2822 21.7892C27.2011 21.5951 27.0824 21.4188 26.9326 21.2702C26.7829 21.1217 26.6051 21.0039 26.4095 20.9236C26.2139 20.8433 26.0043 20.802 25.7926 20.8021H24.1811C23.9694 20.802 23.7598 20.8433 23.5642 20.9236C23.3686 21.0039 23.1908 21.1217 23.0411 21.2702C22.8913 21.4188 22.7726 21.5951 22.6915 21.7892C22.6105 21.9833 22.5688 22.1914 22.5688 22.4015V36.0015H20.9564V25.602C20.9565 25.3919 20.9149 25.1839 20.834 24.9897C20.7531 24.7956 20.6344 24.6191 20.4848 24.4705C20.3351 24.3219 20.1574 24.204 19.9619 24.1236C19.7663 24.0431 19.5567 24.0018 19.345 24.0018H17.7326C17.305 24.0018 16.8949 24.1704 16.5925 24.4705C16.2901 24.7706 16.1202 25.1776 16.1202 25.602V36.0015H14.5088V30.4019C14.5088 29.9775 14.3389 29.5705 14.0365 29.2704C13.7342 28.9703 13.3241 28.8017 12.8964 28.8017H11.2841C11.0724 28.8017 10.8627 28.8431 10.6672 28.9235C10.4716 29.0039 10.2939 29.1218 10.1443 29.2704C9.99463 29.419 9.87595 29.5955 9.79502 29.7896C9.7141 29.9838 9.67251 30.1918 9.67263 30.4019V36.0015H8.86597C8.65694 36.0086 8.45885 36.096 8.3135 36.2453C8.16816 36.3946 8.08691 36.5941 8.08691 36.8017C8.08691 37.0092 8.16816 37.2087 8.3135 37.358C8.45885 37.5073 8.65694 37.5947 8.86597 37.6018ZM30.6287 19.2018H32.2411V36.0015H30.6287V19.2018ZM24.1811 22.4015H25.7926V36.0015H24.1811V22.4015ZM17.7326 25.602H19.345V36.0015H17.7326V25.602ZM11.2841 30.4019H12.8964V36.0015H11.2841V30.4019Z" fill="black"/>
<path d="M9.78561 25.2097C9.85701 25.3289 9.95834 25.4276 10.0797 25.4963C10.201 25.565 10.3383 25.6013 10.478 25.6016C10.6228 25.6015 10.7648 25.5623 10.8889 25.4882L30.9968 13.6403L30.6529 15.0071C30.6272 15.109 30.6219 15.2149 30.6374 15.3188C30.6529 15.4227 30.6889 15.5225 30.7433 15.6126C30.7977 15.7027 30.8694 15.7813 30.9544 15.8439C31.0393 15.9065 31.1359 15.9519 31.2386 15.9774C31.3412 16.0029 31.4479 16.0082 31.5526 15.9928C31.6573 15.9774 31.7579 15.9417 31.8487 15.8877C31.9394 15.8338 32.0186 15.7626 32.0817 15.6782C32.1447 15.5939 32.1904 15.498 32.2162 15.3962L33.0219 12.1956C33.0476 12.0937 33.0529 11.9877 33.0373 11.8837C33.0218 11.7798 32.9857 11.6799 32.9312 11.5898C32.8768 11.4997 32.8049 11.4211 32.7198 11.3586C32.6347 11.296 32.5381 11.2507 32.4353 11.2253L29.2106 10.4256C29.1073 10.3982 28.9995 10.3914 28.8935 10.4058C28.7875 10.4201 28.6855 10.4552 28.5933 10.5091C28.5011 10.563 28.4207 10.6345 28.3567 10.7196C28.2927 10.8046 28.2464 10.9015 28.2205 11.0045C28.1946 11.1075 28.1896 11.2146 28.2059 11.3195C28.2221 11.4244 28.2592 11.5251 28.3151 11.6156C28.3709 11.7062 28.4444 11.7848 28.5311 11.8469C28.6179 11.9089 28.7163 11.9532 28.8205 11.9772L30.1108 12.2978L10.0661 24.1101C9.97487 24.1635 9.89513 24.2343 9.83147 24.3184C9.76781 24.4025 9.72149 24.4982 9.69517 24.6001C9.66885 24.702 9.66304 24.8081 9.67807 24.9122C9.6931 25.0163 9.72868 25.1165 9.78278 25.2069L9.78561 25.2097Z" fill="#FB9100"/>
<path d="M32.283 17.6016H30.5573C30.1416 17.6026 29.7433 17.7671 29.4497 18.0592C29.1561 18.3513 28.9912 18.7471 28.9912 19.1597V36.0015H30.631V19.2018H32.2405V36.0015H33.8529V19.1597C33.8529 18.7464 33.6875 18.3501 33.3931 18.0579C33.0987 17.7657 32.6994 17.6016 32.283 17.6016Z" fill="#FB9100"/>
</g>
<defs>
<clipPath id="clip0_1637_3289">
<rect width="45" height="48" fill="white"/>
</clipPath>
</defs>
</svg>
