<svg width="48" height="47" viewBox="0 0 48 47" fill="none" xmlns="http://www.w3.org/2000/svg">
<g clip-path="url(#clip0_1637_1226)">
<path fill-rule="evenodd" clip-rule="evenodd" d="M48.0004 46.9988H3.40039V31.3358C3.40039 31.2023 3.45307 31.0743 3.54684 30.9799C3.64061 30.8855 3.76778 30.8325 3.90039 30.8325H17.7664C17.899 30.8325 18.0262 30.7794 18.1199 30.6851C18.2137 30.5907 18.2664 30.4626 18.2664 30.3291V21.727C18.2664 21.5935 18.3191 21.4655 18.4128 21.3711C18.5066 21.2767 18.6338 21.2237 18.7664 21.2237H32.6334C32.766 21.2237 32.8932 21.1707 32.9869 21.0763C33.0807 20.9819 33.1334 20.8538 33.1334 20.7203V14.2182C33.1334 14.0847 33.1861 13.9567 33.2798 13.8623C33.3736 13.7679 33.5008 13.7148 33.6334 13.7148H47.5004C47.633 13.7148 47.7602 13.7679 47.8539 13.8623C47.9477 13.9567 48.0004 14.0847 48.0004 14.2182V46.9988Z" fill="#515151"/>
<path fill-rule="evenodd" clip-rule="evenodd" d="M45.5 13.7148H47.5C47.6326 13.7148 47.7598 13.7679 47.8536 13.8623C47.9473 13.9567 48 14.0847 48 14.2182V46.9988H46V14.2182C46 14.0847 45.9473 13.9567 45.8536 13.8623C45.7598 13.7679 45.6326 13.7148 45.5 13.7148Z" fill="#FB9100"/>
<path fill-rule="evenodd" clip-rule="evenodd" d="M3.60079 21.4664C3.63261 21.3683 3.69443 21.2828 3.77741 21.2222C3.86039 21.1616 3.96028 21.129 4.06279 21.129C4.16531 21.129 4.2652 21.1616 4.34818 21.2222C4.43116 21.2828 4.49298 21.3683 4.52479 21.4664L5.26079 23.7475H7.64679C7.74946 23.7471 7.8496 23.7795 7.93279 23.8401C8.01598 23.9007 8.07794 23.9862 8.10974 24.0845C8.14154 24.1828 8.14154 24.2887 8.10974 24.387C8.07794 24.4852 8.01599 24.5708 7.93279 24.6314L6.00079 26.0407L6.74079 28.3219C6.77287 28.4201 6.77316 28.526 6.7416 28.6244C6.71005 28.7228 6.6483 28.8085 6.56523 28.8693C6.48216 28.9301 6.38208 28.9628 6.27938 28.9626C6.17669 28.9625 6.07669 28.9295 5.99379 28.8685L4.06679 27.4591L2.13879 28.8685C2.05577 28.9288 1.95595 28.9612 1.85357 28.961C1.75119 28.9608 1.65148 28.9281 1.56867 28.8675C1.48586 28.8069 1.42417 28.7215 1.39241 28.6235C1.36065 28.5256 1.36043 28.42 1.39179 28.3219L2.12879 26.0407L0.200793 24.6314C0.117671 24.5709 0.0557491 24.4854 0.0239284 24.3872C-0.00789235 24.289 -0.00797293 24.1832 0.0236982 24.085C0.0553693 23.9868 0.117161 23.9012 0.200191 23.8406C0.283221 23.7799 0.383213 23.7473 0.485793 23.7475H2.86879L3.60079 21.4664ZM12.4748 15.3598C12.5066 15.2617 12.5684 15.1763 12.6514 15.1157C12.7344 15.0551 12.8343 15.0224 12.9368 15.0224C13.0393 15.0224 13.1392 15.0551 13.2222 15.1157C13.3052 15.1763 13.367 15.2617 13.3988 15.3598L14.1348 17.641H16.5208C16.6235 17.6406 16.7236 17.673 16.8068 17.7336C16.89 17.7941 16.9519 17.8797 16.9837 17.978C17.0155 18.0763 17.0155 18.1821 16.9837 18.2804C16.9519 18.3787 16.89 18.4643 16.8068 18.5248L14.8788 19.9342L15.6148 22.2153C15.6469 22.3135 15.6472 22.4195 15.6156 22.5178C15.5841 22.6162 15.5223 22.702 15.4392 22.7628C15.3562 22.8236 15.2561 22.8562 15.1534 22.8561C15.0507 22.8559 14.9507 22.823 14.8678 22.762L12.9408 21.3526L11.0128 22.762C10.9298 22.8223 10.8299 22.8546 10.7276 22.8545C10.6252 22.8543 10.5255 22.8215 10.4427 22.7609C10.3599 22.7003 10.2982 22.615 10.2664 22.517C10.2346 22.419 10.2344 22.3134 10.2658 22.2153L11.0008 19.9342L9.07279 18.5248C8.9896 18.4643 8.92765 18.3787 8.89585 18.2804C8.86405 18.1821 8.86405 18.0763 8.89585 17.978C8.92765 17.8797 8.9896 17.7941 9.0728 17.7336C9.15599 17.673 9.25613 17.6406 9.35879 17.641H11.7408L12.4748 15.3598ZM24.0118 10.7794C24.0433 10.6812 24.105 10.5955 24.1879 10.5348C24.2708 10.474 24.3707 10.4413 24.4733 10.4413C24.5758 10.4413 24.6758 10.474 24.7587 10.5348C24.8416 10.5955 24.9033 10.6812 24.9348 10.7794L25.6708 13.0606H28.0538C28.1564 13.0604 28.2564 13.093 28.3394 13.1536C28.4224 13.2143 28.4842 13.2998 28.5159 13.3981C28.5476 13.4963 28.5475 13.6021 28.5157 13.7003C28.4838 13.7984 28.4219 13.8839 28.3388 13.9444L26.4118 15.3538L27.1478 17.6339C27.1799 17.7321 27.1802 17.838 27.1486 17.9364C27.1171 18.0348 27.0553 18.1206 26.9722 18.1814C26.8892 18.2421 26.7891 18.2748 26.6864 18.2747C26.5837 18.2745 26.4837 18.2416 26.4008 18.1805L24.4728 16.7712L22.5458 18.1805C22.4629 18.2416 22.3629 18.2745 22.2602 18.2747C22.1575 18.2748 22.0574 18.2421 21.9744 18.1814C21.8913 18.1206 21.8295 18.0348 21.798 17.9364C21.7664 17.838 21.7667 17.7321 21.7988 17.6339L22.5348 15.3538L20.6078 13.9444C20.5241 13.8835 20.4619 13.7973 20.4302 13.6983C20.3986 13.5994 20.3991 13.4928 20.4318 13.3942C20.4645 13.2955 20.5276 13.21 20.612 13.15C20.6963 13.09 20.7975 13.0587 20.9008 13.0606H23.2828L24.0118 10.7794ZM24.0118 0.338105C24.0433 0.239868 24.105 0.154223 24.1879 0.0934741C24.2708 0.0327254 24.3707 0 24.4733 0C24.5758 0 24.6758 0.0327254 24.7587 0.0934741C24.8416 0.154223 24.9033 0.239868 24.9348 0.338105L25.6708 2.61925H28.0538C28.1564 2.61908 28.2564 2.65166 28.3394 2.7123C28.4224 2.77294 28.4842 2.85853 28.5159 2.95675C28.5476 3.05497 28.5475 3.16077 28.5157 3.25894C28.4838 3.35711 28.4219 3.4426 28.3388 3.50311L26.4118 4.91247L27.1518 7.1916C27.1857 7.29053 27.1871 7.39781 27.1558 7.49762C27.1246 7.59742 27.0623 7.68448 26.9782 7.74594C26.894 7.80741 26.7925 7.84003 26.6885 7.83901C26.5846 7.83798 26.4837 7.80336 26.4008 7.74024L24.4728 6.33089L22.5458 7.74024C22.4627 7.80081 22.3627 7.83331 22.2601 7.83307C22.1576 7.83283 22.0577 7.79985 21.9749 7.73889C21.8921 7.67792 21.8307 7.5921 21.7994 7.49377C21.7681 7.39543 21.7686 7.28964 21.8008 7.1916L22.5368 4.91046L20.6098 3.5011C20.5271 3.44001 20.4658 3.3541 20.4346 3.25572C20.4035 3.15734 20.4041 3.05155 20.4365 2.95355C20.4688 2.85556 20.5312 2.77041 20.6146 2.71034C20.698 2.65027 20.7982 2.61838 20.9008 2.61925H23.2828L24.0118 0.338105ZM39.5598 1.10117C39.5916 1.00307 39.6534 0.917603 39.7364 0.857002C39.8194 0.796402 39.9193 0.763768 40.0218 0.763768C40.1243 0.763768 40.2242 0.796402 40.3072 0.857002C40.3902 0.917603 40.452 1.00307 40.4838 1.10117L41.2198 3.38231H43.6008C43.7035 3.38193 43.8036 3.41436 43.8868 3.47492C43.97 3.53548 44.0319 3.62106 44.0637 3.71933C44.0955 3.8176 44.0955 3.9235 44.0637 4.02177C44.0319 4.12004 43.97 4.20562 43.8868 4.26618L41.9588 5.67554L42.7008 7.95668C42.7324 8.05494 42.7324 8.16075 42.7006 8.25896C42.6688 8.35717 42.607 8.44275 42.524 8.50343C42.4409 8.5641 42.341 8.59677 42.2384 8.59675C42.1358 8.59673 42.0358 8.56402 41.9528 8.50331L40.0218 7.09093L38.0948 8.50029C38.0118 8.561 37.9118 8.59371 37.8092 8.59373C37.7066 8.59375 37.6066 8.56108 37.5236 8.50041C37.4406 8.43973 37.3788 8.35415 37.347 8.25594C37.3152 8.15773 37.3152 8.05192 37.3468 7.95366L38.0838 5.67252L36.1558 4.26316C36.0726 4.2026 36.0106 4.11702 35.9788 4.01875C35.9471 3.92048 35.9471 3.81458 35.9788 3.71631C36.0106 3.61804 36.0726 3.53246 36.1558 3.4719C36.239 3.41134 36.3391 3.37891 36.4418 3.37929H38.8238L39.5598 1.10117ZM3.60079 8.1711C3.63261 8.073 3.69443 7.98753 3.77741 7.92693C3.86039 7.86633 3.96028 7.8337 4.06279 7.8337C4.16531 7.8337 4.2652 7.86633 4.34818 7.92693C4.43116 7.98753 4.49298 8.073 4.52479 8.1711L5.26079 10.4522H7.64679C7.74946 10.4519 7.8496 10.4843 7.93279 10.5449C8.01598 10.6054 8.07794 10.691 8.10974 10.7893C8.14154 10.8875 8.14154 10.9934 8.10974 11.0917C8.07794 11.19 8.01599 11.2755 7.93279 11.3361L6.00079 12.7455L6.73679 15.0266C6.76887 15.1248 6.76916 15.2307 6.7376 15.3291C6.70605 15.4275 6.6443 15.5133 6.56123 15.574C6.47816 15.6348 6.37808 15.6675 6.27538 15.6674C6.17269 15.6672 6.07269 15.6343 5.98979 15.5732L4.06279 14.1639L2.13579 15.5732C2.05279 15.634 1.95283 15.6667 1.85022 15.6667C1.74762 15.6667 1.64765 15.634 1.56462 15.5734C1.48159 15.5127 1.41976 15.4271 1.388 15.3289C1.35624 15.2307 1.35616 15.1249 1.38779 15.0266L2.12479 12.7455L0.200793 11.3361C0.117601 11.2755 0.0556456 11.19 0.023848 11.0917C-0.00794965 10.9934 -0.00794932 10.8875 0.0238489 10.7893C0.0556472 10.691 0.117603 10.6054 0.200796 10.5449C0.283989 10.4843 0.384127 10.4519 0.486793 10.4522H2.86879L3.60079 8.1711Z" fill="#FB9100"/>
<path fill-rule="evenodd" clip-rule="evenodd" d="M3.84867 21.1846C3.91119 21.1529 3.97979 21.1351 4.04977 21.1326C4.11974 21.1301 4.18943 21.1428 4.25404 21.17C4.31866 21.1971 4.37666 21.2381 4.42407 21.29C4.47147 21.3418 4.50716 21.4034 4.52867 21.4705L5.26467 23.7516H4.82967L4.09367 21.4665C4.05228 21.3436 3.96418 21.2422 3.84867 21.1846ZM7.21167 23.7516H7.64667C7.74934 23.7513 7.84948 23.7837 7.93267 23.8443C8.01586 23.9048 8.07782 23.9904 8.10962 24.0887C8.14142 24.1869 8.14142 24.2928 8.10962 24.3911C8.07782 24.4894 8.01586 24.5749 7.93267 24.6355L6.00067 26.0408L6.74067 28.322C6.77045 28.4136 6.7726 28.5121 6.74685 28.605C6.72109 28.6979 6.66859 28.781 6.59596 28.8439C6.52333 28.9068 6.43383 28.9466 6.33874 28.9584C6.24366 28.9701 6.14724 28.9532 6.06167 28.9099C6.08533 28.8978 6.10805 28.884 6.12967 28.8686C6.21253 28.8078 6.27418 28.7222 6.30579 28.624C6.3374 28.5259 6.33736 28.4201 6.30567 28.322L5.56967 26.0408L7.49667 24.6315C7.57979 24.571 7.64172 24.4855 7.67354 24.3873C7.70536 24.2891 7.70544 24.1833 7.67377 24.0851C7.6421 23.9869 7.5803 23.9013 7.49727 23.8407C7.41424 23.78 7.31425 23.7474 7.21167 23.7476V23.7516ZM4.06667 27.4593L2.13967 28.8686C2.06803 28.9208 1.98355 28.9523 1.8954 28.9596C1.80725 28.9668 1.71881 28.9497 1.63967 28.9099C1.66313 28.8981 1.68554 28.8843 1.70667 28.8686L3.85167 27.2992L4.06667 27.4593ZM12.7227 15.0771C12.7852 15.0453 12.8538 15.0276 12.9238 15.025C12.9937 15.0225 13.0634 15.0353 13.128 15.0624C13.1927 15.0896 13.2507 15.1305 13.2981 15.1824C13.3455 15.2343 13.3812 15.2959 13.4027 15.363L14.1387 17.6441H13.7007L12.9637 15.363C12.9447 15.301 12.9136 15.2436 12.8722 15.194C12.8308 15.1443 12.78 15.1036 12.7227 15.074V15.0771ZM16.0857 17.6441H16.5207C16.6233 17.6437 16.7235 17.6761 16.8067 17.7367C16.8899 17.7973 16.9518 17.8828 16.9836 17.9811C17.0154 18.0794 17.0154 18.1853 16.9836 18.2836C16.9518 18.3818 16.8899 18.4674 16.8067 18.528L14.8787 19.9373L15.6147 22.2185C15.6445 22.3101 15.6466 22.4086 15.6208 22.5015C15.5951 22.5944 15.5426 22.6775 15.47 22.7404C15.3973 22.8033 15.3078 22.8431 15.2127 22.8549C15.1177 22.8666 15.0212 22.8497 14.9357 22.8064C14.9592 22.7942 14.982 22.7804 15.0037 22.7651C15.0865 22.7043 15.1482 22.6187 15.1798 22.5205C15.2114 22.4224 15.2114 22.3166 15.1797 22.2185L14.4437 19.9373L16.3707 18.528C16.4538 18.4675 16.5157 18.382 16.5475 18.2838C16.5794 18.1856 16.5794 18.0798 16.5478 17.9816C16.5161 17.8834 16.4543 17.7978 16.3713 17.7372C16.2882 17.6765 16.1883 17.6439 16.0857 17.6441ZM12.9407 21.3517L11.0127 22.7611C10.941 22.8133 10.8565 22.8447 10.7684 22.852C10.6803 22.8593 10.5918 22.8421 10.5127 22.8023C10.5361 22.7905 10.5585 22.7767 10.5797 22.7611L12.7247 21.1917L12.9407 21.3517ZM24.2597 10.4936C24.3222 10.4622 24.3907 10.4448 24.4605 10.4424C24.5303 10.4401 24.5998 10.4529 24.6642 10.48C24.7287 10.5072 24.7865 10.548 24.8339 10.5997C24.8812 10.6513 24.917 10.7127 24.9387 10.7795L25.6747 13.0607H25.2397L24.5007 10.7795C24.461 10.6559 24.3744 10.5531 24.2597 10.4936ZM27.6227 13.0607H28.0577C28.1603 13.0605 28.2602 13.0931 28.3433 13.1537C28.4263 13.2144 28.4881 13.3 28.5198 13.3982C28.5514 13.4964 28.5514 13.6022 28.5195 13.7004C28.4877 13.7985 28.4258 13.884 28.3427 13.9445L26.4157 15.3539L27.1517 17.634C27.1815 17.7257 27.1836 17.8242 27.1578 17.9171C27.1321 18.01 27.0796 18.0931 27.007 18.156C26.9343 18.2189 26.8448 18.2587 26.7497 18.2704C26.6547 18.2822 26.5582 18.2653 26.4727 18.2219C26.4963 18.2105 26.5188 18.1967 26.5397 18.1807C26.6228 18.1201 26.6848 18.0346 26.7166 17.9364C26.7484 17.8381 26.7484 17.7323 26.7167 17.634L25.9807 15.3539L27.9077 13.9445C27.9908 13.884 28.0527 13.7985 28.0845 13.7004C28.1164 13.6022 28.1164 13.4964 28.0848 13.3982C28.0531 13.3 27.9913 13.2144 27.9083 13.1537C27.8252 13.0931 27.7253 13.0605 27.6227 13.0607ZM24.4767 16.7723L22.5497 18.1817C22.478 18.2339 22.3935 18.2653 22.3054 18.2726C22.2172 18.2799 22.1288 18.2627 22.0497 18.2229C22.0735 18.2113 22.0963 18.1975 22.1177 18.1817L24.2627 16.6133L24.4767 16.7723ZM24.2597 0.0523194C24.3221 0.0205728 24.3907 0.0028294 24.4606 0.000311554C24.5305 -0.00220629 24.6001 0.0105612 24.6646 0.0377346C24.7292 0.064908 24.7871 0.105842 24.8344 0.157715C24.8817 0.209589 24.9173 0.27117 24.9387 0.338217L25.6747 2.61936H25.2397L24.5007 0.338217C24.4812 0.276926 24.4499 0.220115 24.4085 0.17105C24.3672 0.121985 24.3166 0.0816348 24.2597 0.0523194ZM27.6227 2.61936H28.0577C28.1603 2.61919 28.2602 2.65177 28.3433 2.71241C28.4263 2.77306 28.4881 2.85864 28.5198 2.95686C28.5514 3.05508 28.5514 3.16088 28.5195 3.25905C28.4877 3.35723 28.4258 3.44271 28.3427 3.50323L26.4157 4.91258L27.1517 7.19171C27.1815 7.28337 27.1836 7.38186 27.1578 7.47475C27.1321 7.56764 27.0796 7.65077 27.007 7.71365C26.9343 7.77654 26.8448 7.81636 26.7497 7.8281C26.6547 7.83984 26.5582 7.82297 26.4727 7.77962C26.4961 7.7678 26.5185 7.75399 26.5397 7.73834C26.6228 7.6778 26.6848 7.59226 26.7166 7.49404C26.7484 7.39581 26.7484 7.28996 26.7167 7.19171L25.9807 4.91258L27.9077 3.50323C27.9908 3.44271 28.0527 3.35723 28.0845 3.25905C28.1164 3.16088 28.1164 3.05508 28.0848 2.95686C28.0531 2.85864 27.9913 2.77306 27.9083 2.71241C27.8252 2.65177 27.7253 2.61919 27.6227 2.61936ZM24.4767 6.32999L22.5497 7.73935C22.4779 7.79135 22.3935 7.82268 22.3054 7.82995C22.2173 7.83723 22.1289 7.82017 22.0497 7.78062C22.0733 7.76858 22.0961 7.75479 22.1177 7.73935L24.2627 6.16993L24.4767 6.32999ZM39.8007 0.815385C39.8632 0.783983 39.9318 0.766512 40.0017 0.76416C40.0716 0.761809 40.1411 0.774631 40.2056 0.801756C40.2701 0.828881 40.3281 0.869672 40.3756 0.921357C40.423 0.973042 40.4589 1.03441 40.4807 1.10128L41.2167 3.38243H40.7817L40.0487 1.10128C40.0281 1.0395 39.9956 0.98243 39.9531 0.93336C39.9105 0.884289 39.8587 0.844192 39.8007 0.815385ZM43.1637 3.38243H43.6007C43.7033 3.38204 43.8035 3.41447 43.8867 3.47503C43.9699 3.5356 44.0318 3.62117 44.0636 3.71944C44.0954 3.81771 44.0954 3.92361 44.0636 4.02188C44.0318 4.12015 43.9699 4.20573 43.8867 4.26629L41.9587 5.67565L42.7007 7.95679C42.7301 8.04852 42.732 8.14696 42.706 8.23975C42.6801 8.33254 42.6275 8.41554 42.5548 8.47835C42.4822 8.54115 42.3927 8.58095 42.2977 8.59276C42.2027 8.60456 42.1063 8.58784 42.0207 8.54469C42.0446 8.53324 42.0674 8.51941 42.0887 8.50342C42.1715 8.44264 42.2332 8.35704 42.2648 8.25886C42.2964 8.16068 42.2964 8.05495 42.2647 7.95679L41.5287 5.67565L43.4567 4.26629C43.5399 4.20573 43.6018 4.12015 43.6336 4.02188C43.6654 3.92361 43.6654 3.81771 43.6336 3.71944C43.6018 3.62117 43.5399 3.5356 43.4567 3.47503C43.3735 3.41447 43.2733 3.38204 43.1707 3.38243H43.1637ZM40.0217 7.09104L38.0937 8.5004C38.0221 8.55282 37.9376 8.5844 37.8494 8.59168C37.7612 8.59896 37.6727 8.58166 37.5937 8.54167C37.6173 8.53023 37.6398 8.5164 37.6607 8.5004L39.8007 6.93501L40.0217 7.09104ZM3.84867 7.88532C3.91124 7.85392 3.9798 7.83644 4.04968 7.83409C4.11955 7.83174 4.18912 7.84456 4.25363 7.87169C4.31815 7.89881 4.37611 7.9396 4.42357 7.99129C4.47102 8.04297 4.50687 8.10434 4.52867 8.17122L5.26467 10.4524H4.82967L4.09267 8.17122C4.07285 8.10966 4.04107 8.05269 3.99918 8.00361C3.9573 7.95453 3.90613 7.91432 3.84867 7.88532ZM7.21167 10.4524H7.64667C7.74934 10.452 7.84948 10.4844 7.93267 10.545C8.01586 10.6055 8.07782 10.6911 8.10962 10.7894C8.14142 10.8876 8.14142 10.9935 8.10962 11.0918C8.07782 11.1901 8.01586 11.2757 7.93267 11.3362L6.00067 12.7456L6.73667 15.0267C6.76645 15.1184 6.7686 15.2169 6.74285 15.3098C6.71709 15.4026 6.66459 15.4858 6.59196 15.5487C6.51933 15.6115 6.42983 15.6514 6.33474 15.6631C6.23966 15.6749 6.14324 15.658 6.05767 15.6146C6.08153 15.603 6.10429 15.5892 6.12567 15.5734C6.20853 15.5126 6.27018 15.427 6.30179 15.3288C6.3334 15.2306 6.33336 15.1249 6.30167 15.0267L5.56567 12.7456L7.49267 11.3362C7.57579 11.2757 7.63772 11.1902 7.66954 11.0921C7.70136 10.9939 7.70144 10.8881 7.66977 10.7899C7.6381 10.6916 7.5763 10.6061 7.49327 10.5454C7.41024 10.4848 7.31025 10.4522 7.20767 10.4524H7.21167ZM4.06667 14.164L2.13867 15.5734C2.06703 15.6256 1.98255 15.657 1.8944 15.6643C1.80625 15.6716 1.7178 15.6544 1.63867 15.6146C1.66277 15.6034 1.68558 15.5896 1.70667 15.5734L3.85167 14.0049L4.06667 14.164Z" fill="#D57B00"/>
</g>
<defs>
<clipPath id="clip0_1637_1226">
<rect width="48" height="47" fill="white"/>
</clipPath>
</defs>
</svg>
