<svg width="57" height="48" viewBox="0 0 57 48" fill="none" xmlns="http://www.w3.org/2000/svg">
<g clip-path="url(#clip0_1637_1244)">
<path d="M25.9872 15.0864C24.0497 15.0546 22.2669 16.7662 22.3866 18.7432L22.7959 28.1118C22.871 29.8895 24.2737 31.2826 25.9872 31.2826C27.7008 31.2826 29.093 29.8918 29.1786 28.113L29.5879 18.7515C29.7064 16.7662 27.9248 15.0534 25.9872 15.0864ZM27.3044 28.028C27.2539 29.8034 24.717 29.8105 24.6701 28.028L24.262 18.6595C24.2045 16.4618 27.7712 16.4571 27.7125 18.6595L27.3044 28.028Z" fill="#FB9100"/>
<path d="M25.9871 31.9297C21.7847 31.9993 21.7812 38.2878 25.9871 38.361C30.1871 38.2902 30.1883 32.0064 25.9871 31.9297ZM25.9871 36.4748C24.2595 36.4689 24.2571 33.8277 25.9871 33.8171C27.7171 33.8065 27.7135 36.463 25.9871 36.4748Z" fill="#FB9100"/>
<path d="M54.4797 40.8246H53.6786C53.9061 32.6852 54.7189 22.439 43.9438 21.5378C38.7656 14.4152 33.4596 -5.47557 21.0824 1.43702C17.7597 2.05868 3.43196 30.4829 1.33371 33.1972C-2.51563 39.5353 2.47373 48.1666 9.82993 48.0038H56.0642C56.3131 48.0038 56.5517 47.9044 56.7277 47.7274C56.9037 47.5504 57.0025 47.3104 57.0025 47.0601V43.3561C57.0016 42.6839 56.7353 42.0397 56.2622 41.565C55.7891 41.0903 55.1479 40.824 54.4797 40.8246ZM51.802 31.7533V40.8246H46.6637V34.0135C46.6478 33.1836 46.3088 32.3931 45.7197 31.8118C45.1305 31.2306 44.3381 30.905 43.5128 30.905C42.6875 30.905 41.8952 31.2306 41.306 31.8118C40.7168 32.3931 40.3778 33.1836 40.3619 34.0135V40.8234H35.2201V31.7521C35.403 20.7852 51.6214 20.7887 51.802 31.7533ZM44.7871 34.0135V40.8246H42.2385V34.0135C42.2485 33.6803 42.3872 33.3641 42.6251 33.132C42.863 32.8999 43.1814 32.7701 43.5128 32.7701C43.8442 32.7701 44.1626 32.8999 44.4005 33.132C44.6384 33.3641 44.7771 33.6803 44.7871 34.0135ZM30.0266 46.1164H9.82993C6.92123 46.1164 4.41482 44.6572 2.9593 42.1222C2.25513 40.9115 1.884 39.5341 1.884 38.1315C1.884 36.7289 2.25513 35.3516 2.9593 34.1409L19.119 5.99626C21.8858 0.71863 30.0935 0.71745 32.8603 5.99626L41.8573 21.664C41.364 21.7452 40.8775 21.8635 40.4018 22.0179L39.6981 20.7887L31.6135 6.71701C30.7519 5.2162 29.3329 4.12105 27.6686 3.67243C26.0042 3.2238 24.2308 3.45844 22.7385 4.32473C20.3927 5.06318 13.7297 18.8471 12.2812 20.7875L4.20253 34.8628C3.776 35.6065 3.4993 36.4274 3.38823 37.2787C3.27716 38.13 3.3339 38.9949 3.55521 39.8241C3.77652 40.6533 4.15806 41.4306 4.67805 42.1115C5.19804 42.7924 5.84629 43.3636 6.58579 43.7925C8.13983 45.5006 27.7396 44.3576 30.0266 44.6678V46.1164ZM30.0947 42.7863H9.82993C8.60361 42.7851 7.428 42.294 6.56163 41.4211C5.69526 40.5482 5.20909 39.3649 5.21002 38.1315C4.61538 36.7514 13.3391 23.1609 13.9068 21.7348L21.9855 7.6607C22.3911 6.95424 22.9744 6.3676 23.6769 5.95973C24.3794 5.55186 25.1762 5.33714 25.9873 5.33714C26.7984 5.33714 27.5952 5.55186 28.2977 5.95973C29.0002 6.3676 29.5835 6.95424 29.9891 7.6607L38.0678 21.7336L38.6624 22.7669C32.0205 25.8635 33.4139 34.8852 33.3435 40.8246C31.9372 40.6547 30.4137 41.2681 30.0947 42.7804V42.7863ZM55.1259 46.1164H31.9032V43.3561C31.9054 43.1857 31.9737 43.023 32.0936 42.9026C32.2134 42.7822 32.3754 42.7138 32.5448 42.712H54.4773C54.6478 42.7126 54.8111 42.7804 54.9324 42.9008C55.0537 43.0212 55.1232 43.1847 55.1259 43.3561V46.1164Z" fill="black"/>
<path d="M42.6573 25.6437C42.6935 25.7624 42.7061 25.887 42.6943 26.0106C42.6825 26.1341 42.6466 26.2541 42.5886 26.3637C42.5307 26.4733 42.4518 26.5703 42.3565 26.6491C42.2612 26.728 42.1514 26.7872 42.0333 26.8233C41.0682 27.1262 40.2118 27.7055 39.5689 28.4903C38.9261 29.2751 38.5247 30.2315 38.4139 31.2422C38.2614 32.4879 36.3133 32.1776 36.5608 30.9319C36.7212 29.5666 37.2754 28.2784 38.1551 27.2261C39.0349 26.1738 40.2016 25.4035 41.5114 25.0102C41.747 24.9452 41.9985 24.9751 42.2125 25.0936C42.4264 25.2121 42.586 25.4099 42.6573 25.6449V25.6437Z" fill="#FB9100"/>
<path d="M33.5588 22.416L31.2048 20.0568C31.1177 19.9692 31.0485 19.8652 31.0013 19.7507C30.9541 19.6362 30.9297 19.5135 30.9297 19.3895C30.9296 19.2656 30.9538 19.1429 31.001 19.0283C31.0481 18.9138 31.1171 18.8097 31.2042 18.722C31.2913 18.6344 31.3948 18.5648 31.5086 18.5173C31.6224 18.4698 31.7444 18.4454 31.8677 18.4453C31.9909 18.4453 32.1129 18.4696 32.2268 18.517C32.3407 18.5644 32.4442 18.6338 32.5313 18.7215L34.8853 21.0807C35.7731 21.9336 34.4079 23.3043 33.5588 22.416Z" fill="black"/>
<path d="M43.5145 13.5898C43.7633 13.5898 44.002 13.6893 44.1779 13.8662C44.3539 14.0432 44.4528 14.2833 44.4528 14.5335V18.3154C44.4528 18.5657 44.3539 18.8057 44.1779 18.9827C44.002 19.1597 43.7633 19.2591 43.5145 19.2591C43.2656 19.2591 43.027 19.1597 42.851 18.9827C42.675 18.8057 42.5762 18.5657 42.5762 18.3154V14.5335C42.5762 14.2833 42.675 14.0432 42.851 13.8662C43.027 13.6893 43.2656 13.5898 43.5145 13.5898Z" fill="#FB9100"/>
<path d="M55.817 18.7176C55.9928 18.8946 56.0916 19.1345 56.0916 19.3847C56.0916 19.6348 55.9928 19.8748 55.817 20.0517L53.4713 22.411C53.2939 22.5805 53.0577 22.6736 52.813 22.6704C52.5683 22.6673 52.3346 22.5681 52.1615 22.3941C51.9885 22.2201 51.8899 21.985 51.8868 21.7389C51.8837 21.4928 51.9762 21.2553 52.1448 21.0768L54.4905 18.7176C54.6664 18.5407 54.905 18.4414 55.1538 18.4414C55.4025 18.4414 55.6411 18.5407 55.817 18.7176Z" fill="black"/>
</g>
<defs>
<clipPath id="clip0_1637_1244">
<rect width="57" height="48" fill="white"/>
</clipPath>
</defs>
</svg>
