<svg width="52" height="48" viewBox="0 0 52 48" fill="none" xmlns="http://www.w3.org/2000/svg">
<g clip-path="url(#clip0_1637_3205)">
<path d="M42.7967 10.984H1.01562C0.751054 10.9767 0.499753 10.8664 0.315183 10.6764C0.130614 10.4864 0.0273438 10.2318 0.0273438 9.96678C0.0273438 9.70173 0.130614 9.44714 0.315183 9.25717C0.499753 9.06721 0.751054 8.95686 1.01562 8.9496H42.7967C42.9325 8.94588 43.0676 8.96943 43.1941 9.01888C43.3205 9.06832 43.4358 9.14265 43.5332 9.23747C43.6305 9.3323 43.7078 9.44569 43.7606 9.57095C43.8135 9.69621 43.8407 9.83081 43.8407 9.96678C43.8407 10.1028 43.8135 10.2373 43.7606 10.3626C43.7078 10.4879 43.6305 10.6013 43.5332 10.6961C43.4358 10.7909 43.3205 10.8652 43.1941 10.9147C43.0676 10.9641 42.9325 10.9877 42.7967 10.984Z" fill="black"/>
<path d="M36.5163 6.50701H22.1904C21.9259 6.49976 21.6746 6.38941 21.49 6.19944C21.3054 6.00947 21.2021 5.75489 21.2021 5.48984C21.2021 5.22479 21.3054 4.9702 21.49 4.78023C21.6746 4.59026 21.9259 4.47991 22.1904 4.47266H36.5163C36.7809 4.47991 37.0322 4.59026 37.2168 4.78023C37.4014 4.9702 37.5046 5.22479 37.5046 5.48984C37.5046 5.75489 37.4014 6.00947 37.2168 6.19944C37.0322 6.38941 36.7809 6.49976 36.5163 6.50701Z" fill="#FB9100"/>
<path d="M10.4051 6.51006C10.3716 6.51006 10.3381 6.50853 10.3046 6.50548C10.2718 6.50167 10.2391 6.49709 10.2063 6.49023C10.1414 6.47706 10.0778 6.45765 10.0166 6.43225C9.95525 6.40694 9.89656 6.37551 9.84145 6.33843C9.81327 6.32012 9.78661 6.30029 9.76071 6.2797C9.73481 6.2591 9.71044 6.23546 9.68454 6.21257C9.66076 6.18845 9.63838 6.16298 9.61751 6.13629C9.59631 6.11199 9.57648 6.08652 9.5581 6.06001C9.52152 6.00456 9.49016 5.94583 9.46441 5.88457C9.4395 5.82285 9.42013 5.75904 9.40652 5.69388C9.40043 5.66184 9.3951 5.62828 9.39205 5.59548C9.389 5.56268 9.38672 5.52835 9.38672 5.49555C9.38672 5.46275 9.38672 5.42842 9.39205 5.39562C9.39738 5.36283 9.40043 5.32926 9.40652 5.29646C9.42002 5.23152 9.4394 5.16795 9.46441 5.10653C9.49 5.0452 9.52137 4.98645 9.5581 4.93109C9.59498 4.87608 9.63735 4.82496 9.68454 4.77853C9.70815 4.75488 9.73253 4.73276 9.76071 4.7114C9.78647 4.69005 9.81343 4.67019 9.84145 4.65191C9.89659 4.61509 9.95528 4.58392 10.0166 4.55885C10.0777 4.53311 10.1413 4.51368 10.2063 4.50087C10.2387 4.49393 10.2715 4.48884 10.3046 4.48562C10.3712 4.47875 10.4383 4.47875 10.5049 4.48562C10.5379 4.48884 10.5707 4.49393 10.6031 4.50087C10.6684 4.51379 10.7322 4.53321 10.7936 4.55885C10.8548 4.58423 10.9134 4.61539 10.9688 4.65191C10.9951 4.67049 11.0205 4.69034 11.0449 4.7114C11.0716 4.73231 11.097 4.75472 11.1211 4.77853C11.1683 4.82496 11.2107 4.87608 11.2475 4.93109C11.2843 4.98645 11.3156 5.0452 11.3412 5.10653C11.3666 5.16783 11.386 5.23143 11.3991 5.29646C11.4052 5.32926 11.4105 5.36206 11.4136 5.39562C11.4173 5.4288 11.4191 5.46217 11.4189 5.49555C11.419 5.52893 11.4172 5.56229 11.4136 5.59548C11.4136 5.62828 11.4052 5.66184 11.3991 5.69388C11.3859 5.75913 11.3665 5.82298 11.3412 5.88457C11.3155 5.94583 11.2841 6.00456 11.2475 6.06001C11.2292 6.08652 11.2093 6.11199 11.1881 6.13629C11.1673 6.16298 11.1449 6.18845 11.1211 6.21257C11.0982 6.23546 11.0731 6.25834 11.0449 6.2797C11.0167 6.30105 10.9924 6.32012 10.9688 6.33843C10.8581 6.41281 10.7338 6.46465 10.6031 6.49099C10.5704 6.49785 10.5376 6.50243 10.5049 6.50624C10.4721 6.51006 10.4386 6.51006 10.4051 6.51006Z" fill="black"/>
<path d="M5.47476 6.51073C5.44142 6.51083 5.40811 6.50905 5.37498 6.50539C5.34197 6.50248 5.30916 6.49765 5.27672 6.4909C5.21156 6.47763 5.1478 6.45821 5.0863 6.43292C5.02498 6.40744 4.96631 6.37602 4.91111 6.3391C4.88368 6.32079 4.85626 6.30096 4.83494 6.28037C4.81361 6.25977 4.7839 6.23613 4.75877 6.21324C4.73363 6.19036 4.7123 6.16442 4.69098 6.13696C4.66965 6.1095 4.65061 6.08433 4.63233 6.06068C4.59575 6.00523 4.56439 5.9465 4.53864 5.88524C4.51338 5.82365 4.494 5.7598 4.48075 5.69455C4.47466 5.66251 4.46932 5.62895 4.46628 5.59615C4.46262 5.56296 4.46084 5.5296 4.46095 5.49622C4.4608 5.46284 4.46258 5.42947 4.46628 5.3963C4.46628 5.3635 4.47466 5.32993 4.48075 5.29713C4.49389 5.2321 4.51328 5.1685 4.53864 5.1072C4.56422 5.04587 4.5956 4.98712 4.63233 4.93176C4.65061 4.90353 4.67041 4.87684 4.69098 4.8509C4.71154 4.82497 4.73515 4.80056 4.75877 4.77462C4.78286 4.75081 4.80829 4.7284 4.83494 4.7075C4.85921 4.68627 4.88463 4.6664 4.91111 4.648C4.96633 4.61133 5.025 4.58016 5.0863 4.55494C5.14768 4.5293 5.21147 4.50988 5.27672 4.49697C5.30915 4.48997 5.34195 4.48487 5.37498 4.48171C5.44158 4.47485 5.5087 4.47485 5.5753 4.48171C5.60832 4.48493 5.64112 4.49003 5.67356 4.49697C5.73859 4.50978 5.80214 4.5292 5.86322 4.55494C5.92458 4.58001 5.98327 4.61119 6.03841 4.648C6.06643 4.66628 6.09339 4.68615 6.11915 4.7075C6.14505 4.72886 6.16942 4.75098 6.19532 4.77462C6.24251 4.82106 6.28488 4.87217 6.32176 4.92718C6.35849 4.98254 6.38986 5.04129 6.41545 5.10262C6.44046 5.16404 6.45984 5.22762 6.47334 5.29256C6.47943 5.32536 6.48476 5.35892 6.48781 5.39172C6.49086 5.42452 6.49314 5.45808 6.49314 5.49164C6.49314 5.52521 6.49314 5.55801 6.48781 5.59157C6.48248 5.62513 6.47943 5.65793 6.47334 5.68997C6.45983 5.75524 6.44019 5.81909 6.41469 5.88067C6.38951 5.94205 6.35838 6.00081 6.32176 6.05611C6.30338 6.08262 6.28355 6.10808 6.26235 6.13239C6.24102 6.15832 6.21893 6.18349 6.19532 6.20867C6.17171 6.23384 6.14657 6.25443 6.11915 6.27579C6.09173 6.29715 6.06659 6.31622 6.03841 6.33453C5.9833 6.3716 5.92461 6.40303 5.86322 6.42835C5.80201 6.45374 5.7385 6.47316 5.67356 6.48632C5.64111 6.49301 5.6083 6.49785 5.5753 6.50081C5.542 6.50602 5.50843 6.50934 5.47476 6.51073Z" fill="black"/>
<path d="M15.3358 6.51073C15.3022 6.51085 15.2686 6.50907 15.2352 6.50539C15.2022 6.50243 15.1694 6.49759 15.137 6.4909C15.072 6.47773 15.0085 6.45832 14.9473 6.43292C14.8859 6.40761 14.8272 6.37618 14.7721 6.3391C14.7439 6.32079 14.7173 6.30096 14.6914 6.28037C14.6655 6.25977 14.6411 6.23613 14.6152 6.21324C14.5893 6.19036 14.5695 6.16442 14.5482 6.13696C14.527 6.11266 14.5071 6.08719 14.4888 6.06068C14.4521 6.00538 14.421 5.94662 14.3958 5.88524C14.3702 5.82377 14.3508 5.75989 14.3379 5.69455C14.331 5.66207 14.3259 5.62921 14.3227 5.59615C14.3227 5.56258 14.3174 5.52902 14.3174 5.49622C14.3174 5.46342 14.3174 5.4291 14.3227 5.3963C14.3259 5.36298 14.331 5.32987 14.3379 5.29713C14.3507 5.23201 14.3701 5.16837 14.3958 5.1072C14.4209 5.04575 14.452 4.98698 14.4888 4.93176C14.507 4.9037 14.5269 4.8767 14.5482 4.8509C14.5687 4.82573 14.5916 4.80056 14.6152 4.77462C14.6388 4.74869 14.6632 4.72886 14.6914 4.7075C14.7196 4.68614 14.7439 4.66631 14.7721 4.648C14.8273 4.61119 14.8859 4.58001 14.9473 4.55494C15.0084 4.5292 15.0719 4.50978 15.137 4.49697C15.1694 4.49003 15.2022 4.48493 15.2352 4.48171C15.3018 4.47485 15.3689 4.47485 15.4355 4.48171C15.4686 4.48493 15.5014 4.49003 15.5338 4.49697C15.5991 4.50988 15.6628 4.5293 15.7242 4.55494C15.7855 4.58016 15.8442 4.61133 15.8994 4.648C15.9268 4.66631 15.9543 4.6869 15.9794 4.7075C16.006 4.7284 16.0315 4.75081 16.0556 4.77462C16.0792 4.79827 16.102 4.82344 16.1234 4.8509C16.1447 4.87836 16.1637 4.90353 16.182 4.93176C16.219 4.98694 16.2504 5.04572 16.2757 5.1072C16.3011 5.1685 16.3204 5.2321 16.3336 5.29713C16.3403 5.32989 16.3451 5.36299 16.3481 5.3963C16.3518 5.42947 16.3535 5.46284 16.3534 5.49622C16.3535 5.5296 16.3517 5.56296 16.3481 5.59615C16.3452 5.6292 16.3403 5.66206 16.3336 5.69455C16.3203 5.7598 16.3009 5.82365 16.2757 5.88524C16.2503 5.94664 16.2189 6.0054 16.182 6.06068C16.1637 6.08814 16.1439 6.11561 16.1234 6.13696C16.1028 6.15832 16.0792 6.18807 16.0556 6.21324C16.032 6.23841 16.0076 6.25901 15.9794 6.28037C15.9512 6.30172 15.9268 6.32079 15.8994 6.3391C15.8442 6.37602 15.7855 6.40744 15.7242 6.43292C15.6627 6.45821 15.599 6.47763 15.5338 6.4909C15.5014 6.49759 15.4685 6.50243 15.4355 6.50539C15.4024 6.50905 15.3691 6.51083 15.3358 6.51073Z" fill="black"/>
<path d="M26.1686 39.0531H16.5271C16.2578 39.0531 15.9995 38.946 15.8091 38.7553C15.6187 38.5646 15.5117 38.306 15.5117 38.0363C15.5117 37.7667 15.6187 37.508 15.8091 37.3173C15.9995 37.1267 16.2578 37.0195 16.5271 37.0195H26.1686C26.4378 37.0195 26.6961 37.1267 26.8865 37.3173C27.0769 37.508 27.1839 37.7667 27.1839 38.0363C27.1839 38.306 27.0769 38.5646 26.8865 38.7553C26.6961 38.946 26.4378 39.0531 26.1686 39.0531Z" fill="black"/>
<path d="M7.38699 39.054H1.01543C0.746811 39.053 0.489533 38.9454 0.299944 38.7549C0.110354 38.5643 0.00390436 38.3062 0.00390625 38.0372V1.0168C0.00390436 0.747786 0.110354 0.489736 0.299944 0.299159C0.489533 0.108581 0.746811 0.00100905 1.01543 0H43.2681C43.5373 0 43.7956 0.107127 43.986 0.297814C44.1764 0.4885 44.2834 0.747126 44.2834 1.0168V23.9989C44.2834 24.2685 44.1764 24.5272 43.986 24.7178C43.7956 24.9085 43.5373 25.0157 43.2681 25.0157C42.9988 25.0157 42.7405 24.9085 42.5501 24.7178C42.3597 24.5272 42.2527 24.2685 42.2527 23.9989V2.03359H2.03534V37.0204H7.3908C7.66009 37.0204 7.91834 37.1275 8.10875 37.3182C8.29917 37.5089 8.40614 37.7675 8.40614 38.0372C8.40614 38.3069 8.29917 38.5655 8.10875 38.7562C7.91834 38.9469 7.66009 39.054 7.3908 39.054H7.38699Z" fill="black"/>
<path d="M48.1465 48.0004C47.6472 48.0015 47.1526 47.904 46.6911 47.7133C46.2295 47.5225 45.8101 47.2424 45.457 46.889L38.4776 39.8988C38.2872 39.7077 38.1804 39.4487 38.1807 39.1788C38.181 38.9089 38.2883 38.6501 38.4791 38.4594C38.6699 38.2688 38.9285 38.1618 39.1981 38.1621C39.4676 38.1624 39.726 38.2699 39.9164 38.4609L46.8966 45.4504C47.237 45.7864 47.6962 45.9739 48.1742 45.9721C48.6521 45.9703 49.11 45.7794 49.4479 45.4409C49.7858 45.1024 49.9764 44.6438 49.978 44.1652C49.9796 43.6866 49.7922 43.2267 49.4566 42.8859L42.4772 35.8965C42.2867 35.7058 42.1797 35.4471 42.1796 35.1774C42.1795 34.9077 42.2864 34.649 42.4768 34.4582C42.6672 34.2674 42.9255 34.1602 43.1949 34.1602C43.4642 34.1601 43.7225 34.2672 43.913 34.4578L50.8932 41.448C51.4248 41.9892 51.7849 42.6755 51.9282 43.421C52.0715 44.1664 51.9916 44.9376 51.6986 45.6377C51.4056 46.3378 50.9126 46.9356 50.2814 47.3559C49.6502 47.7763 48.9091 48.0005 48.1511 48.0004H48.1465Z" fill="black"/>
<path d="M33.2797 41.4629C26.5479 41.4629 21.0713 35.9785 21.0713 29.2369C21.0713 22.4954 26.5479 17.0117 33.2797 17.0117C40.0115 17.0117 45.4881 22.4962 45.4881 29.2369C45.4881 35.9777 40.0115 41.4629 33.2797 41.4629ZM33.2797 19.0453C27.6675 19.0453 23.1027 23.6175 23.1027 29.2369C23.1027 34.8564 27.6675 39.4293 33.2797 39.4293C38.8919 39.4293 43.4567 34.8572 43.4567 29.2369C43.4567 23.6167 38.8911 19.0453 33.2797 19.0453Z" fill="black"/>
<path d="M39.5978 30.2535H31.8369C31.5723 30.2462 31.321 30.1359 31.1365 29.9459C30.9519 29.7559 30.8486 29.5014 30.8486 29.2363C30.8486 28.9713 30.9519 28.7167 31.1365 28.5267C31.321 28.3367 31.5723 28.2264 31.8369 28.2191H39.5978C39.7335 28.2154 39.8686 28.239 39.9951 28.2884C40.1216 28.3379 40.2369 28.4122 40.3342 28.507C40.4315 28.6018 40.5089 28.7152 40.5617 28.8405C40.6145 28.9657 40.6417 29.1003 40.6417 29.2363C40.6417 29.3723 40.6145 29.5069 40.5617 29.6321C40.5089 29.7574 40.4315 29.8708 40.3342 29.9656C40.2369 30.0604 40.1216 30.1348 39.9951 30.1842C39.8686 30.2337 39.7335 30.2572 39.5978 30.2535Z" fill="#FB9100"/>
<path d="M15.5867 31.935H8.32775C7.41203 31.935 6.53381 31.5707 5.88629 30.9222C5.23877 30.2738 4.875 29.3943 4.875 28.4773C4.875 27.5602 5.23877 26.6807 5.88629 26.0323C6.53381 25.3838 7.41203 25.0195 8.32775 25.0195H15.5867C16.5024 25.0195 17.3806 25.3838 18.0282 26.0323C18.6757 26.6807 19.0394 27.5602 19.0394 28.4773C19.0394 29.3943 18.6757 30.2738 18.0282 30.9222C17.3806 31.5707 16.5024 31.935 15.5867 31.935ZM8.32775 27.0531C7.95059 27.0531 7.58888 27.2032 7.32219 27.4702C7.0555 27.7373 6.90567 28.0996 6.90567 28.4773C6.90567 28.855 7.0555 29.2172 7.32219 29.4843C7.58888 29.7513 7.95059 29.9014 8.32775 29.9014H15.5867C15.9638 29.9014 16.3256 29.7513 16.5922 29.4843C16.8589 29.2172 17.0088 28.855 17.0088 28.4773C17.0088 28.0996 16.8589 27.7373 16.5922 27.4702C16.3256 27.2032 15.9638 27.0531 15.5867 27.0531H8.32775Z" fill="#FB9100"/>
<path d="M16.2838 22.1828H6.59961C6.33504 22.1755 6.08374 22.0652 5.89917 21.8752C5.7146 21.6853 5.61133 21.4307 5.61133 21.1656C5.61133 20.9006 5.7146 20.646 5.89917 20.456C6.08374 20.266 6.33504 20.1557 6.59961 20.1484H16.2838C16.5483 20.1557 16.7996 20.266 16.9842 20.456C17.1688 20.646 17.272 20.9006 17.272 21.1656C17.272 21.4307 17.1688 21.6853 16.9842 21.8752C16.7996 22.0652 16.5483 22.1755 16.2838 22.1828Z" fill="black"/>
<path d="M16.5275 17.3039H6.59961C6.33504 17.2966 6.08374 17.1863 5.89917 16.9963C5.7146 16.8063 5.61133 16.5518 5.61133 16.2867C5.61133 16.0217 5.7146 15.7671 5.89917 15.5771C6.08374 15.3871 6.33504 15.2768 6.59961 15.2695H16.5275C16.7921 15.2768 17.0434 15.3871 17.228 15.5771C17.4125 15.7671 17.5158 16.0217 17.5158 16.2867C17.5158 16.5518 17.4125 16.8063 17.228 16.9963C17.0434 17.1863 16.7921 17.2966 16.5275 17.3039Z" fill="black"/>
<path d="M24.5428 17.3043H21.4268C21.1622 17.297 20.9109 17.1867 20.7263 16.9967C20.5417 16.8067 20.4385 16.5521 20.4385 16.2871C20.4385 16.022 20.5417 15.7675 20.7263 15.5775C20.9109 15.3875 21.1622 15.2772 21.4268 15.2699H24.5428C24.6786 15.2662 24.8137 15.2897 24.9401 15.3392C25.0666 15.3886 25.1819 15.463 25.2792 15.5578C25.3766 15.6526 25.4539 15.766 25.5067 15.8913C25.5595 16.0165 25.5868 16.1511 25.5868 16.2871C25.5868 16.4231 25.5595 16.5577 25.5067 16.6829C25.4539 16.8082 25.3766 16.9216 25.2792 17.0164C25.1819 17.1112 25.0666 17.1855 24.9401 17.235C24.8137 17.2844 24.6786 17.308 24.5428 17.3043Z" fill="black"/>
<path d="M29.3988 32.6943C28.7158 32.6943 28.0481 32.4915 27.4802 32.1115C26.9122 31.7314 26.4696 31.1913 26.2082 30.5593C25.9468 29.9274 25.8784 29.232 26.0117 28.5611C26.1449 27.8902 26.4738 27.274 26.9568 26.7903C27.4398 26.3066 28.0552 25.9772 28.7251 25.8438C29.395 25.7104 30.0894 25.7788 30.7204 26.0406C31.3515 26.3024 31.8908 26.7457 32.2703 27.3144C32.6498 27.8831 32.8523 28.5518 32.8523 29.2358C32.8513 30.1528 32.4872 31.0319 31.8397 31.6802C31.1923 32.3286 30.3144 32.6933 29.3988 32.6943ZM29.3988 27.8125C29.1175 27.8125 28.8426 27.896 28.6087 28.0525C28.3748 28.209 28.1925 28.4315 28.0849 28.6918C27.9773 28.952 27.9492 29.2384 28.0041 29.5147C28.0591 29.791 28.1946 30.0447 28.3935 30.2439C28.5925 30.443 28.846 30.5786 29.1219 30.6334C29.3978 30.6883 29.6837 30.66 29.9436 30.5521C30.2034 30.4442 30.4254 30.2615 30.5816 30.0272C30.7378 29.7929 30.8211 29.5175 30.8209 29.2358C30.8205 28.8583 30.6705 28.4964 30.4039 28.2295C30.1373 27.9627 29.7758 27.8127 29.3988 27.8125Z" fill="#FB9100"/>
<path d="M35.5349 32.1036C35.2656 32.1036 35.0073 31.9965 34.8169 31.8058C34.6265 31.6151 34.5195 31.3565 34.5195 31.0868V29.2355C34.5195 28.9659 34.6265 28.7072 34.8169 28.5166C35.0073 28.3259 35.2656 28.2188 35.5349 28.2188C35.8042 28.2188 36.0624 28.3259 36.2528 28.5166C36.4432 28.7072 36.5502 28.9659 36.5502 29.2355V31.0868C36.5502 31.3565 36.4432 31.6151 36.2528 31.8058C36.0624 31.9965 35.8042 32.1036 35.5349 32.1036Z" fill="#FB9100"/>
<path d="M39.5974 31.6256C39.3281 31.6256 39.0698 31.5185 38.8794 31.3278C38.689 31.1371 38.582 30.8785 38.582 30.6088V29.2358C38.5893 28.9708 38.6995 28.7192 38.8892 28.5343C39.0789 28.3495 39.3331 28.2461 39.5978 28.2461C39.8624 28.2461 40.1166 28.3495 40.3063 28.5343C40.496 28.7192 40.6062 28.9708 40.6135 29.2358V30.6088C40.6135 30.7424 40.5872 30.8747 40.5361 30.9981C40.485 31.1215 40.4102 31.2336 40.3158 31.3281C40.2214 31.4225 40.1094 31.4974 39.9862 31.5484C39.8629 31.5995 39.7308 31.6257 39.5974 31.6256Z" fill="#FB9100"/>
<path d="M11.9575 39.0528C11.9239 39.053 11.8903 39.0512 11.857 39.0475C11.8242 39.0475 11.7915 39.0391 11.7587 39.033C11.6281 39.0063 11.504 38.9545 11.3931 38.8805C11.3654 38.862 11.3388 38.8421 11.3131 38.821C11.2355 38.7575 11.168 38.6827 11.1128 38.599C11.0761 38.5436 11.0447 38.4849 11.0191 38.4235C10.9937 38.3622 10.9744 38.2986 10.9612 38.2336C10.9551 38.2008 10.9498 38.168 10.9467 38.1352C10.9396 38.0685 10.9396 38.0013 10.9467 37.9346C10.9467 37.9018 10.9551 37.869 10.9612 37.8362C10.9745 37.7709 10.9938 37.7071 11.0191 37.6455C11.045 37.5843 11.0764 37.5256 11.1128 37.4701C11.1312 37.4424 11.1511 37.4156 11.1722 37.39C11.1928 37.3631 11.2152 37.3376 11.2392 37.3137C11.2633 37.2896 11.2887 37.267 11.3154 37.2458C11.3413 37.2252 11.368 37.2054 11.3954 37.1871C11.451 37.1504 11.5099 37.119 11.5713 37.0932C11.6325 37.0678 11.696 37.0484 11.761 37.0353C11.7937 37.0292 11.8265 37.0238 11.8592 37.0208C11.9258 37.0139 11.993 37.0139 12.0596 37.0208C12.0923 37.0208 12.1251 37.0292 12.1578 37.0353C12.223 37.0485 12.2867 37.068 12.3483 37.0932C12.4093 37.1192 12.468 37.1506 12.5234 37.1871C12.5509 37.2054 12.5775 37.2252 12.5996 37.2458C12.6263 37.267 12.6517 37.2896 12.6758 37.3137C12.6998 37.3376 12.7222 37.3631 12.7428 37.39C12.7639 37.4156 12.7838 37.4424 12.8022 37.4701C12.8386 37.5256 12.87 37.5843 12.8959 37.6455C12.9212 37.7071 12.9405 37.7709 12.9538 37.8362C12.9599 37.869 12.9652 37.9018 12.9683 37.9346C12.9754 38.0013 12.9754 38.0685 12.9683 38.1352C12.9683 38.168 12.9599 38.2008 12.9538 38.2336C12.9407 38.2986 12.9213 38.3622 12.8959 38.4235C12.8703 38.4849 12.839 38.5436 12.8022 38.599C12.7653 38.654 12.723 38.7051 12.6758 38.7515C12.6519 38.7756 12.6264 38.798 12.5996 38.8187C12.5752 38.8397 12.5498 38.8596 12.5234 38.8782C12.468 38.9146 12.4093 38.946 12.3483 38.972C12.2866 38.9969 12.2229 39.0163 12.1578 39.03C12.1251 39.0361 12.0923 39.0414 12.0596 39.0445C12.0257 39.0492 11.9917 39.052 11.9575 39.0528Z" fill="#FB9100"/>
</g>
<defs>
<clipPath id="clip0_1637_3205">
<rect width="52" height="48" fill="white"/>
</clipPath>
</defs>
</svg>
