<svg width="47" height="48" viewBox="0 0 47 48" fill="none" xmlns="http://www.w3.org/2000/svg">
<g clip-path="url(#clip0_1637_1716)">
<path d="M8.92017 2.93628L27.5933 21.5669L32.4222 16.7491L41.7578 25.4865C42.1247 25.0424 42.5079 24.6125 42.8961 24.1857L32.4273 14.3128L27.5984 19.1306L10.1419 1.71965H15.2238V-0.00390625H7.19434V8.00556H8.9222L8.92017 2.93628Z" fill="#FB9100"/>
<path d="M42.0323 6.0292C39.2284 3.22448 35.526 1.49125 31.5716 1.13213C27.6171 0.77301 23.6618 1.81082 20.3963 4.06434L23.0816 6.74295C24.8854 5.63186 26.9303 4.9689 29.0443 4.80978C31.1583 4.65065 33.2797 5.00002 35.2303 5.82852C37.1808 6.65702 38.9035 7.94044 40.2535 9.57093C41.6036 11.2014 42.5416 13.1313 42.9887 15.1985C43.4917 17.5782 43.3385 20.0494 42.5455 22.3492C41.6361 24.9361 39.9444 27.1778 37.7038 28.7652C35.4632 30.3525 32.784 31.2072 30.0358 31.2114C28.2876 31.2172 26.5558 30.8751 24.9418 30.205C23.3277 29.535 21.864 28.5504 20.6362 27.309C18.3476 24.9989 16.9845 21.934 16.8034 18.6912L13.2989 15.1955C12.893 17.6042 13.0153 20.072 13.6573 22.4291C14.2993 24.7861 15.4458 26.9764 17.0178 28.8491L17.9427 29.9491L19.0333 30.8788C22.1017 33.4892 26.0031 34.9218 30.0358 34.919C39.3866 34.919 47.0014 27.3273 47.0014 17.9957C47.0076 15.7724 46.5716 13.57 45.7187 11.5159C44.8657 9.4618 43.6127 7.59691 42.0323 6.0292Z" fill="black"/>
<path d="M13.0357 38.6681L9.35449 34.9961L-7.68052e-05 44.3273L3.68109 47.9993L13.0357 38.6681Z" fill="#FB9100"/>
<path d="M20.0188 29.3039L18.457 27.7461L9.10246 37.0773L10.6642 38.6352L20.0188 29.3039Z" fill="black"/>
</g>
<defs>
<clipPath id="clip0_1637_1716">
<rect width="47" height="48" fill="white"/>
</clipPath>
</defs>
</svg>
