<svg width="49" height="48" viewBox="0 0 49 48" fill="none" xmlns="http://www.w3.org/2000/svg">
<g clip-path="url(#clip0_1637_3261)">
<path d="M15.7824 21.6067C15.5349 21.6067 15.2976 21.5089 15.1226 21.3349C14.9476 21.1608 14.8493 20.9247 14.8493 20.6785V19.3577H13.4855C12.9744 19.3571 12.4844 19.1549 12.1229 18.7954C11.7615 18.4358 11.5582 17.9484 11.5576 17.4399V14.9703C11.5588 14.4626 11.762 13.976 12.1229 13.617C12.4838 13.258 12.973 13.0558 13.4834 13.0547H16.47C16.9813 13.0551 17.4715 13.2572 17.8331 13.6168C18.1947 13.9763 18.3981 14.4639 18.3987 14.9724V17.6734C18.4012 18.4342 18.2072 19.183 17.8352 19.8477C17.4631 20.5125 16.9256 21.071 16.2741 21.4696C16.1262 21.5599 15.9559 21.6074 15.7824 21.6067ZM13.4855 14.4805C13.3558 14.4831 13.232 14.5355 13.1402 14.6268C13.0484 14.7181 12.9957 14.8412 12.9932 14.9703V17.4399C12.9957 17.569 13.0484 17.6921 13.1402 17.7834C13.232 17.8747 13.3558 17.9272 13.4855 17.9297H15.0955C15.4112 17.9301 15.7139 18.055 15.9371 18.2771C16.1603 18.4991 16.2859 18.8002 16.2863 19.1142V19.5847C16.7277 19.0439 16.9675 18.3679 16.9653 17.6713V14.9703C16.9622 14.8411 16.9088 14.7181 16.8165 14.6272C16.7241 14.5363 16.6 14.4845 16.47 14.4826L13.4855 14.4805Z" fill="#FB9100"/>
<path d="M23.7277 21.6067C23.4803 21.6067 23.2429 21.5089 23.0679 21.3349C22.8929 21.1608 22.7946 20.9247 22.7946 20.6785V19.3577H21.4309C20.9197 19.3571 20.4297 19.1549 20.0682 18.7954C19.7068 18.4358 19.5035 17.9484 19.5029 17.4399V14.9703C19.5041 14.4626 19.7073 13.976 20.0682 13.617C20.4291 13.258 20.9183 13.0558 21.4287 13.0547H24.4161C24.9272 13.0553 25.4173 13.2575 25.7787 13.617C26.1401 13.9765 26.3434 14.464 26.344 14.9724V17.6734C26.3467 18.4342 26.1528 19.1829 25.7809 19.8477C25.409 20.5124 24.8715 21.0709 24.2201 21.4696C24.072 21.56 23.9015 21.6075 23.7277 21.6067ZM21.4309 14.4805C21.3011 14.4831 21.1773 14.5355 21.0855 14.6268C20.9937 14.7181 20.941 14.8412 20.9385 14.9703V17.4399C20.941 17.569 20.9937 17.6921 21.0855 17.7834C21.1773 17.8747 21.3011 17.9272 21.4309 17.9297H23.0408C23.3565 17.9301 23.6592 18.055 23.8824 18.2771C24.1056 18.4991 24.2312 18.8002 24.2316 19.1142V19.5847C24.6724 19.0436 24.912 18.3677 24.9099 17.6713V14.9703C24.9068 14.8413 24.8536 14.7186 24.7616 14.6277C24.6695 14.5368 24.5457 14.4848 24.4161 14.4826L21.4309 14.4805Z" fill="#FB9100"/>
<path d="M32.5706 25.0647H7.86425C7.67389 25.0647 7.49132 24.9895 7.35672 24.8556C7.22211 24.7217 7.14648 24.5401 7.14648 24.3507C7.14648 24.1613 7.22211 23.9797 7.35672 23.8458C7.49132 23.7119 7.67389 23.6367 7.86425 23.6367H32.5706C32.761 23.6367 32.9435 23.7119 33.0782 23.8458C33.2128 23.9797 33.2884 24.1613 33.2884 24.3507C33.2884 24.5401 33.2128 24.7217 33.0782 24.8556C32.9435 24.9895 32.761 25.0647 32.5706 25.0647Z" fill="#020202"/>
<path d="M32.5706 28.3498H7.86425C7.67389 28.3498 7.49132 28.2746 7.35672 28.1407C7.22211 28.0068 7.14648 27.8252 7.14648 27.6359C7.14648 27.4465 7.22211 27.2649 7.35672 27.131C7.49132 26.9971 7.67389 26.9219 7.86425 26.9219H32.5706C32.761 26.9219 32.9435 26.9971 33.0782 27.131C33.2128 27.2649 33.2884 27.4465 33.2884 27.6359C33.2884 27.8252 33.2128 28.0068 33.0782 28.1407C32.9435 28.2746 32.761 28.3498 32.5706 28.3498Z" fill="#FB9100"/>
<path d="M32.5706 31.635H7.86425C7.67389 31.635 7.49132 31.5598 7.35672 31.4259C7.22211 31.292 7.14648 31.1104 7.14648 30.921C7.14648 30.7317 7.22211 30.55 7.35672 30.4162C7.49132 30.2823 7.67389 30.207 7.86425 30.207H32.5706C32.761 30.207 32.9435 30.2823 33.0782 30.4162C33.2128 30.55 33.2884 30.7317 33.2884 30.921C33.2884 31.1104 33.2128 31.292 33.0782 31.4259C32.9435 31.5598 32.761 31.635 32.5706 31.635Z" fill="#020202"/>
<path d="M26.3945 34.9162H14.041C13.8506 34.9162 13.6681 34.841 13.5335 34.7071C13.3989 34.5732 13.3232 34.3916 13.3232 34.2023C13.3232 34.0129 13.3989 33.8313 13.5335 33.6974C13.6681 33.5635 13.8506 33.4883 14.041 33.4883H26.3945C26.5849 33.4883 26.7675 33.5635 26.9021 33.6974C27.0367 33.8313 27.1123 34.0129 27.1123 34.2023C27.1123 34.3916 27.0367 34.5732 26.9021 34.7071C26.7675 34.841 26.5849 34.9162 26.3945 34.9162Z" fill="#FB9100"/>
<path d="M22.7684 47.9991C22.4822 47.9979 22.2011 47.9244 21.9513 47.7854C21.7016 47.6465 21.4915 47.4466 21.3407 47.2046C21.19 46.9627 21.1036 46.6866 21.0897 46.4023C21.0757 46.1179 21.1347 45.8348 21.2611 45.5794C22.1197 43.8394 22.7789 42.009 23.2263 40.1225C23.2385 40.0732 23.239 40.0218 23.228 39.9722C23.2169 39.9227 23.1945 39.8764 23.1624 39.8369C23.1303 39.7959 23.0891 39.7627 23.0421 39.7401C22.995 39.7174 22.9434 39.7058 22.8911 39.7062H6.99826C5.14285 39.7041 3.36402 38.97 2.05205 37.665C0.740074 36.3599 0.00208975 34.5905 0 32.7449V15.0511C0.00208975 13.2055 0.740074 11.4361 2.05205 10.1311C3.36402 8.82601 5.14285 8.09192 6.99826 8.08984H33.484C35.3394 8.09192 37.1182 8.82601 38.4302 10.1311C39.7421 11.4361 40.4801 13.2055 40.4822 15.0511V22.6835C40.4822 22.8729 40.4066 23.0545 40.272 23.1884C40.1374 23.3223 39.9548 23.3975 39.7645 23.3975C39.5741 23.3975 39.3915 23.3223 39.2569 23.1884C39.1223 23.0545 39.0467 22.8729 39.0467 22.6835V15.0511C39.045 13.5841 38.4584 12.1777 37.4155 11.1404C36.3727 10.103 34.9588 9.5195 33.484 9.5178H6.99826C5.52346 9.5195 4.10955 10.103 3.06671 11.1404C2.02387 12.1777 1.43725 13.5841 1.43554 15.0511V32.7513C1.43725 34.2184 2.02387 35.6248 3.06671 36.6621C4.10955 37.6995 5.52346 38.283 6.99826 38.2847H22.8933C23.161 38.2844 23.4254 38.3444 23.6666 38.46C23.9079 38.5756 24.1197 38.744 24.2864 38.9525C24.453 39.1609 24.5702 39.4042 24.6291 39.664C24.6881 39.9238 24.6872 40.1936 24.6267 40.453C24.1541 42.4436 23.4583 44.3752 22.5523 46.2113C22.5243 46.2593 22.5145 46.3157 22.5246 46.3703C22.5348 46.4249 22.5642 46.4741 22.6076 46.509C22.6459 46.5474 22.6967 46.571 22.751 46.5754C22.8052 46.5799 22.8592 46.5649 22.9033 46.5333C25.2196 45.1053 28.5737 42.6885 31.3874 39.2664C31.6412 38.9582 31.9609 38.7102 32.3232 38.5404C32.6855 38.3706 33.0813 38.2832 33.4818 38.2847C34.9566 38.283 36.3705 37.6995 37.4134 36.6621C38.4562 35.6248 39.0428 34.2184 39.0445 32.7513V26.0157C39.0445 25.8263 39.1202 25.6447 39.2548 25.5108C39.3894 25.3769 39.5719 25.3017 39.7623 25.3017C39.9527 25.3017 40.1352 25.3769 40.2698 25.5108C40.4045 25.6447 40.4801 25.8263 40.4801 26.0157V32.7478C40.478 34.5934 39.74 36.3628 38.428 37.6679C37.116 38.9729 35.3372 39.707 33.4818 39.7091C33.294 39.7079 33.1082 39.7485 32.9381 39.8278C32.768 39.9071 32.6178 40.0231 32.4985 40.1674C29.5556 43.7416 26.068 46.2605 23.6584 47.7442C23.3914 47.91 23.0831 47.9982 22.7684 47.9991Z" fill="#020202"/>
<path d="M9.23828 9.51518C9.04791 9.51518 8.86535 9.43996 8.73074 9.30606C8.59613 9.17216 8.52051 8.99056 8.52051 8.8012V6.96128C8.5226 5.11567 9.26058 3.34625 10.5726 2.04121C11.8845 0.736164 13.6634 0.00207871 15.5188 0H27.0856C27.276 0 27.4586 0.0752241 27.5932 0.209121C27.7278 0.343018 27.8034 0.524619 27.8034 0.713978C27.8034 0.903336 27.7278 1.08494 27.5932 1.21884C27.4586 1.35274 27.276 1.42796 27.0856 1.42796H15.5188C14.044 1.42966 12.6301 2.01318 11.5872 3.05051C10.5444 4.08784 9.95776 5.49427 9.95605 6.96128V8.8012C9.95605 8.99056 9.88043 9.17216 9.74582 9.30606C9.61121 9.43996 9.42864 9.51518 9.23828 9.51518Z" fill="#020202"/>
<path d="M42.0007 31.6235H39.7613C39.5709 31.6235 39.3883 31.5483 39.2537 31.4144C39.1191 31.2805 39.0435 31.0989 39.0435 30.9095C39.0435 30.7202 39.1191 30.5386 39.2537 30.4047C39.3883 30.2708 39.5709 30.1955 39.7613 30.1955H42.0007C43.4755 30.1938 44.8894 29.6103 45.9323 28.573C46.9751 27.5357 47.5617 26.1292 47.5634 24.6622V6.96128C47.5617 5.49427 46.9751 4.08784 45.9323 3.05051C44.8894 2.01318 43.4755 1.42966 42.0007 1.42796H30.4346C30.2442 1.42796 30.0616 1.35274 29.927 1.21884C29.7924 1.08494 29.7168 0.903336 29.7168 0.713978C29.7168 0.524619 29.7924 0.343018 29.927 0.209121C30.0616 0.0752241 30.2442 0 30.4346 0H42.0007C43.8561 0.00207871 45.6349 0.736164 46.9469 2.04121C48.2589 3.34625 48.9969 5.11567 48.999 6.96128V24.6622C48.9969 26.5078 48.2589 28.2772 46.9469 29.5823C45.6349 30.8873 43.8561 31.6214 42.0007 31.6235Z" fill="#020202"/>
</g>
<defs>
<clipPath id="clip0_1637_3261">
<rect width="49" height="48" fill="white"/>
</clipPath>
</defs>
</svg>
