<svg width="66" height="66" viewBox="0 0 66 66" fill="none" xmlns="http://www.w3.org/2000/svg">
<rect width="66" height="66" rx="15" fill="#FB9100" fill-opacity="0.07"/>
<g clip-path="url(#clip0_1647_5)">
<path d="M34.9189 20.2275C34.9271 20.1585 34.9487 20.0918 34.9824 20.0312C35.0161 19.9707 35.0613 19.9174 35.1153 19.8745C35.1694 19.8316 35.2313 19.7999 35.2975 19.7812C35.3636 19.7625 35.4328 19.7572 35.501 19.7656L39.5198 20.2575C39.6572 20.2745 39.7824 20.3459 39.8678 20.4562C39.9533 20.5664 39.992 20.7065 39.9755 20.8456L39.4936 24.9116C39.477 25.0519 39.406 25.1797 39.2961 25.267C39.1863 25.3543 39.0467 25.3939 38.9081 25.3771C38.7694 25.3603 38.643 25.2884 38.5568 25.1773C38.4705 25.0662 38.4313 24.9249 38.448 24.7846L38.7843 21.9723C32.1001 27.5124 25.1352 31.2795 17.5186 33.4783C17.4718 33.4919 17.4234 33.4988 17.3748 33.4986C17.2486 33.4987 17.1267 33.4526 17.0315 33.3689C16.9362 33.2852 16.8741 33.1694 16.8566 33.043C16.8391 32.9166 16.8674 32.7881 16.9362 32.6811C17.005 32.5741 17.1097 32.4959 17.231 32.4609C24.7082 30.3018 31.5511 26.5999 38.1256 21.1524L35.3738 20.8156C35.2365 20.7984 35.1116 20.7268 35.0263 20.6166C34.9411 20.5064 34.9024 20.3665 34.9189 20.2275Z" fill="#FB9100"/>
<path d="M19.6991 41.3516H13.7738C13.6351 41.3516 13.5022 41.4073 13.4041 41.5065C13.3061 41.6057 13.251 41.7402 13.251 41.8805V49.6106C13.251 49.7509 13.3061 49.8854 13.4041 49.9846C13.5022 50.0838 13.6351 50.1396 13.7738 50.1396H19.6991C19.8378 50.1396 19.9708 50.0838 20.0688 49.9846C20.1668 49.8854 20.2219 49.7509 20.2219 49.6106V41.8805C20.2219 41.7402 20.1668 41.6057 20.0688 41.5065C19.9708 41.4073 19.8378 41.3516 19.6991 41.3516ZM19.1763 49.0816H14.2966V42.4095H19.1763V49.0816Z" fill="#FB9100"/>
<path d="M29.4315 37.7422H23.5062C23.3676 37.7422 23.2346 37.7979 23.1365 37.8971C23.0385 37.9963 22.9834 38.1309 22.9834 38.2712V49.6123C22.9834 49.7526 23.0385 49.8872 23.1365 49.9864C23.2346 50.0856 23.3676 50.1413 23.5062 50.1413H29.4315C29.5702 50.1413 29.7032 50.0856 29.8012 49.9864C29.8993 49.8872 29.9544 49.7526 29.9544 49.6123V38.2712C29.9544 38.1309 29.8993 37.9963 29.8012 37.8971C29.7032 37.7979 29.5702 37.7422 29.4315 37.7422ZM28.9087 49.0834H24.029V38.8001H28.9087V49.0834Z" fill="black"/>
<path d="M39.164 32.6367H33.2386C33.1 32.6367 32.967 32.6925 32.869 32.7917C32.7709 32.8909 32.7158 33.0254 32.7158 33.1657V49.6132C32.7158 49.7535 32.7709 49.888 32.869 49.9872C32.967 50.0864 33.1 50.1422 33.2386 50.1422H39.164C39.3026 50.1422 39.4356 50.0864 39.5336 49.9872C39.6317 49.888 39.6868 49.7535 39.6868 49.6132V33.1657C39.6868 33.0254 39.6317 32.8909 39.5336 32.7917C39.4356 32.6925 39.3026 32.6367 39.164 32.6367ZM38.6411 49.0842H33.7615V33.6947H38.6411V49.0842Z" fill="black"/>
<path d="M48.8964 24.7969H42.9711C42.8324 24.7969 42.6994 24.8526 42.6014 24.9518C42.5033 25.051 42.4482 25.1856 42.4482 25.3258V49.6145C42.4482 49.7548 42.5033 49.8893 42.6014 49.9885C42.6994 50.0877 42.8324 50.1435 42.9711 50.1435H48.8964C49.035 50.1435 49.168 50.0877 49.2661 49.9885C49.3641 49.8893 49.4192 49.7548 49.4192 49.6145V25.3258C49.4192 25.1856 49.3641 25.051 49.2661 24.9518C49.168 24.8526 49.035 24.7969 48.8964 24.7969ZM48.3736 49.0855H43.4939V25.8548H48.3736V49.0855Z" fill="black"/>
<path d="M52.4772 23.3281C52.3385 23.3281 52.2055 23.3839 52.1075 23.4831C52.0094 23.5823 51.9544 23.7168 51.9544 23.8571L51.821 51.9446L11.5228 51.7807C11.3842 51.7807 11.2512 51.8364 11.1531 51.9356C11.0551 52.0348 11 52.1693 11 52.3096C11 52.4499 11.0551 52.5845 11.1531 52.6837C11.2512 52.7829 11.3842 52.8386 11.5228 52.8386L52.3412 52.9982C52.4799 52.9982 52.6129 52.9425 52.7109 52.8433C52.809 52.744 52.8641 52.6095 52.8641 52.4692L53 23.8597C53 23.7194 52.9449 23.5849 52.8469 23.4857C52.7488 23.3865 52.6158 23.3308 52.4772 23.3308V23.3281Z" fill="black"/>
<path d="M41.27 17.1077C41.1922 17.0396 41.1359 16.9499 41.1082 16.8497C41.0805 16.7494 41.0826 16.6431 41.1143 16.5441C41.1461 16.4451 41.2059 16.3578 41.2865 16.293C41.367 16.2283 41.4647 16.1891 41.5672 16.1802L44.3643 15.9422L45.4517 13.3237C45.4917 13.2278 45.5587 13.1459 45.6444 13.0883C45.7301 13.0307 45.8307 13 45.9336 13C46.0365 13 46.1371 13.0307 46.2228 13.0883C46.3085 13.1459 46.3756 13.2278 46.4155 13.3237L47.503 15.9422L50.3 16.1802C50.4025 16.1891 50.5002 16.2283 50.5807 16.293C50.6613 16.3578 50.7212 16.4451 50.7529 16.5441C50.7846 16.6431 50.7868 16.7494 50.7591 16.8497C50.7314 16.9499 50.6751 17.0396 50.5972 17.1077L48.4693 18.9635L49.1106 21.7282C49.1341 21.8296 49.1274 21.9358 49.0915 22.0333C49.0556 22.1309 48.9921 22.2156 48.9088 22.2768C48.8255 22.338 48.7263 22.373 48.6234 22.3773C48.5206 22.3817 48.4188 22.3552 48.3308 22.3013L45.9319 20.8343L43.5304 22.3057C43.4424 22.3593 43.3407 22.3856 43.238 22.3811C43.1353 22.3766 43.0362 22.3416 42.9531 22.2804C42.87 22.2193 42.8065 22.1347 42.7707 22.0373C42.7348 21.9399 42.7281 21.8339 42.7514 21.7326L43.3927 18.9679L41.27 17.1077Z" fill="#FB9100"/>
<path d="M42.8926 17.1294L44.3155 18.3725C44.3881 18.4353 44.4423 18.5169 44.4722 18.6086C44.5022 18.7003 44.5067 18.7985 44.4854 18.8927L44.0559 20.7441L45.6644 19.7584C45.7461 19.7083 45.8398 19.6818 45.9354 19.6818C46.031 19.6818 46.1247 19.7083 46.2064 19.7584L47.8149 20.7441L47.3854 18.8927C47.3636 18.7987 47.3677 18.7004 47.3971 18.6085C47.4266 18.5167 47.4804 18.4348 47.5527 18.3716L48.9756 17.1294L47.1022 16.9699C47.0075 16.9614 46.9169 16.9269 46.8401 16.8702C46.7634 16.8135 46.7033 16.7367 46.6665 16.6481L45.938 14.8945L45.2095 16.6481C45.1727 16.7367 45.1127 16.8135 45.0359 16.8702C44.9591 16.9269 44.8685 16.9614 44.7739 16.9699L42.8926 17.1294Z" fill="#FB9100"/>
<path d="M23.2187 23.5546C23.1868 23.4556 23.1269 23.3684 23.0463 23.3038C22.9657 23.2392 22.868 23.2001 22.7656 23.1913L20.8068 23.0247L20.0452 21.1909C20.0053 21.095 19.9382 21.0131 19.8525 20.9555C19.7668 20.8979 19.6662 20.8672 19.5633 20.8672C19.4604 20.8672 19.3598 20.8979 19.2741 20.9555C19.1884 21.0131 19.1214 21.095 19.0814 21.1909L18.3199 23.0247L16.3602 23.1904C16.2577 23.1993 16.16 23.2386 16.0795 23.3033C15.9989 23.368 15.939 23.4554 15.9073 23.5544C15.8756 23.6534 15.8734 23.7597 15.9011 23.8599C15.9288 23.9602 15.9851 24.0499 16.063 24.1179L17.5504 25.4174L17.0999 27.357C17.0757 27.459 17.082 27.566 17.118 27.6644C17.154 27.7628 17.2181 27.8481 17.3022 27.9096C17.3862 27.971 17.4864 28.0057 17.5901 28.0094C17.6937 28.013 17.7961 27.9854 17.8842 27.93L19.5659 26.8994L21.2477 27.93C21.3357 27.9837 21.4374 28.0099 21.5401 28.0054C21.6427 28.0009 21.7418 27.9659 21.8249 27.9048C21.908 27.8436 21.9715 27.7591 22.0074 27.6616C22.0433 27.5642 22.05 27.4582 22.0267 27.357L21.5779 25.4174L23.0653 24.1188C23.1429 24.0504 23.1989 23.9604 23.2262 23.8601C23.2534 23.7597 23.2508 23.6534 23.2187 23.5546ZM20.6534 24.8267C20.5812 24.8899 20.5274 24.9718 20.4979 25.0636C20.4684 25.1555 20.4643 25.2537 20.4861 25.3478L20.7231 26.3704L19.8343 25.8265C19.7526 25.7764 19.6589 25.7499 19.5633 25.7499C19.4678 25.7499 19.374 25.7764 19.2923 25.8265L18.407 26.3704L18.644 25.3478C18.6658 25.2537 18.6617 25.1555 18.6322 25.0636C18.6027 24.9718 18.5489 24.8899 18.4767 24.8267L17.6925 24.1399L18.7277 24.0518C18.8223 24.0433 18.9129 24.0088 18.9897 23.9521C19.0665 23.8954 19.1265 23.8186 19.1633 23.73L19.5659 22.7602L19.9685 23.73C20.0053 23.8186 20.0654 23.8954 20.1421 23.9521C20.2189 24.0088 20.3095 24.0433 20.4042 24.0518L21.4394 24.1399L20.6534 24.8267Z" fill="black"/>
<path d="M31.9662 20.4337C31.9344 20.3348 31.8744 20.2476 31.7938 20.183C31.7132 20.1184 31.6156 20.0792 31.5131 20.0705L29.3164 19.8836L28.4624 17.8276C28.4225 17.7317 28.3555 17.6498 28.2698 17.5922C28.1841 17.5346 28.0835 17.5039 27.9806 17.5039C27.8777 17.5039 27.7771 17.5346 27.6914 17.5922C27.6056 17.6498 27.5386 17.7317 27.4987 17.8276L26.6448 19.8836L24.448 20.0705C24.3455 20.0793 24.2479 20.1186 24.1674 20.1833C24.0868 20.2481 24.0269 20.3354 23.9952 20.4344C23.9635 20.5334 23.9613 20.6397 23.989 20.74C24.0167 20.8402 24.073 20.9299 24.1509 20.998L25.8187 22.4553L25.3151 24.6232C25.2918 24.7244 25.2985 24.8304 25.3343 24.9278C25.3702 25.0253 25.4337 25.1098 25.5168 25.171C25.5999 25.2321 25.699 25.2671 25.8017 25.2716C25.9043 25.2761 26.006 25.2499 26.0941 25.1962L27.9797 24.0413L29.8653 25.1962C29.9534 25.2502 30.0552 25.2766 30.158 25.2723C30.2608 25.2679 30.3601 25.233 30.4434 25.1718C30.5267 25.1106 30.5902 25.0259 30.6261 24.9283C30.662 24.8307 30.6687 24.7246 30.6452 24.6232L30.1416 22.4517L31.8102 20.9944C31.8876 20.9267 31.9437 20.8374 31.9714 20.7378C31.9991 20.6381 31.9973 20.5324 31.9662 20.4337ZM29.2197 21.8637C29.1474 21.9268 29.0936 22.0088 29.0641 22.1006C29.0347 22.1925 29.0306 22.2907 29.0524 22.3847L29.3443 23.6428L28.2533 22.9737C28.1716 22.9236 28.0779 22.8971 27.9823 22.8971C27.8868 22.8971 27.793 22.9236 27.7113 22.9737L26.6186 23.6428L26.9105 22.3847C26.9323 22.2907 26.9282 22.1925 26.8987 22.1006C26.8693 22.0088 26.8155 21.9268 26.7432 21.8637L25.7769 21.0191L27.0491 20.9107C27.1438 20.9022 27.2343 20.8677 27.3111 20.811C27.3879 20.7543 27.4479 20.6775 27.4848 20.5889L27.9797 19.3978L28.4746 20.5889C28.5115 20.6775 28.5715 20.7543 28.6483 20.811C28.7251 20.8677 28.8157 20.9022 28.9103 20.9107L30.1825 21.0191L29.2197 21.8637Z" fill="black"/>
</g>
<defs>
<clipPath id="clip0_1647_5">
<rect width="42" height="40" fill="white" transform="translate(11 13)"/>
</clipPath>
</defs>
</svg>
