<svg width="72" height="48" viewBox="0 0 72 48" fill="none" xmlns="http://www.w3.org/2000/svg">
<g clip-path="url(#clip0_1637_2750)">
<path d="M52.3245 35.1474L46.01 28.8562C48.4222 26.0467 49.6477 22.4152 49.4293 18.7244C49.2108 15.0337 47.5654 11.5709 44.8385 9.06326C42.1116 6.55567 38.5155 5.19844 34.8055 5.27664C31.0955 5.35484 27.5602 6.86237 24.9422 9.48262C22.3242 12.1029 20.8272 15.6319 20.7656 19.3286C20.7041 23.0253 22.0827 26.6019 24.612 29.3072C27.1412 32.0126 30.6243 33.6362 34.3297 33.837C38.0351 34.0379 41.6744 32.8003 44.4833 30.3842L50.795 36.6726C50.8957 36.773 51.0152 36.8526 51.1468 36.9069C51.2784 36.9612 51.4194 36.9891 51.5618 36.9891C51.7042 36.9891 51.8452 36.9612 51.9768 36.9069C52.1084 36.8526 52.2279 36.773 52.3286 36.6726C52.4293 36.5723 52.5092 36.4532 52.5637 36.3221C52.6182 36.191 52.6463 36.0505 52.6463 35.9086C52.6463 35.7668 52.6182 35.6263 52.5637 35.4952C52.5092 35.3641 52.4293 35.245 52.3286 35.1446L52.3245 35.1474ZM43.7276 28.1409C41.432 30.3713 38.3467 31.6107 35.1403 31.5906C31.9339 31.5704 28.8645 30.2924 26.5973 28.0333C24.3301 25.7743 23.0475 22.7161 23.0276 19.5215C23.0077 16.3269 24.2519 13.2531 26.4908 10.9661C28.7864 8.73573 31.8717 7.49632 35.0781 7.51644C38.2845 7.53657 41.3538 8.81462 43.6211 11.0737C45.8883 13.3327 47.1709 16.3909 47.1908 19.5855C47.2107 22.7801 45.9665 25.8539 43.7276 28.1409Z" fill="#FB9100"/>
<path d="M32.7478 10.2159C31.1222 10.7727 29.6464 11.6937 28.4341 12.9079C26.5491 14.7875 25.3878 17.2678 25.1535 19.9145C25.1287 20.1992 25.2183 20.4821 25.4025 20.7011C25.5868 20.9201 25.8507 21.0573 26.1364 21.0827H26.2326C26.503 21.082 26.7634 20.9806 26.9626 20.7983C27.1617 20.6161 27.2853 20.3662 27.3089 20.0979C27.4966 17.9566 28.4344 15.9493 29.958 14.4276C30.9375 13.4454 32.1299 12.6998 33.4436 12.2481C33.5821 12.2053 33.7105 12.1352 33.8213 12.042C33.9321 11.9487 34.0229 11.8342 34.0884 11.7053C34.1539 11.5764 34.1927 11.4357 34.2025 11.2916C34.2123 11.1474 34.193 11.0028 34.1456 10.8662C34.0982 10.7297 34.0237 10.604 33.9266 10.4967C33.8295 10.3894 33.7117 10.3027 33.5803 10.2416C33.4489 10.1806 33.3065 10.1464 33.1615 10.1413C33.0166 10.1362 32.8721 10.1601 32.7367 10.2117L32.7478 10.2159Z" fill="black"/>
<path d="M70.3027 39.2001H67.9172V4.00058C67.9157 2.93977 67.492 1.92285 66.739 1.17288C65.9859 0.422901 64.9651 0.00110246 63.9004 0H7.35039C6.28578 0.00110315 5.26509 0.422946 4.5123 1.17296C3.75951 1.92298 3.33611 2.9399 3.335 4.00058V39.2001H1.08192C0.939792 39.1999 0.799021 39.2277 0.667673 39.2818C0.536325 39.3359 0.416982 39.4153 0.31648 39.5154C0.215977 39.6156 0.13629 39.7345 0.0819836 39.8653C0.0276769 39.9962 -0.000182614 40.1364 9.00749e-07 40.2781V43.998C0.00110744 45.0588 0.424467 46.0759 1.17722 46.8261C1.92997 47.5764 2.95065 47.9985 4.01539 48H67.3692C68.434 47.9985 69.4546 47.5764 70.2074 46.8261C70.9601 46.0759 71.3835 45.0588 71.3846 43.998V40.2781C71.3848 40.1364 71.3569 39.9962 71.3026 39.8653C71.2483 39.7345 71.1686 39.6156 71.0681 39.5154C70.9676 39.4153 70.8483 39.3359 70.7169 39.2818C70.5856 39.2277 70.4448 39.1999 70.3027 39.2001ZM5.49745 4.00058C5.49782 3.51108 5.69316 3.04173 6.04057 2.6956C6.38798 2.34946 6.85907 2.15485 7.35039 2.15448H63.9018C64.3928 2.15521 64.8636 2.34999 65.2107 2.69609C65.5578 3.04218 65.7529 3.51132 65.7533 4.00058V39.2001H43.0943C42.8073 39.2001 42.5321 39.3137 42.3292 39.5158C42.1263 39.718 42.0124 39.9922 42.0124 40.2781V41.5921H29.2384V40.2781C29.2381 39.9935 29.1249 39.7206 28.9236 39.5187C28.7223 39.3168 28.4491 39.2023 28.1635 39.2001H5.49745V4.00058ZM69.2208 43.998C69.2204 44.4873 69.0253 44.9564 68.6781 45.3025C68.331 45.6486 67.8603 45.8434 67.3692 45.8441H4.01539C3.52418 45.8434 3.05331 45.6487 2.70598 45.3026C2.35865 44.9566 2.16319 44.4874 2.16245 43.998V41.3588H27.0746V42.6728C27.0749 42.9586 27.189 43.2326 27.3919 43.4346C27.5947 43.6367 27.8697 43.7504 28.1565 43.7508H43.0943C43.3812 43.7508 43.6564 43.6372 43.8593 43.4351C44.0622 43.2329 44.1762 42.9587 44.1762 42.6728V41.3588H69.2208V43.998Z" fill="black"/>
<path d="M45.5479 42.3906H67.8988V43.9186C67.8988 44.143 67.8093 44.3582 67.6501 44.5168C67.4908 44.6755 67.2749 44.7646 67.0497 44.7646H45.5479V42.3906Z" fill="#FB9100"/>
</g>
<defs>
<clipPath id="clip0_1637_2750">
<rect width="71.3846" height="48" fill="white"/>
</clipPath>
</defs>
</svg>
