<svg width="41" height="48" viewBox="0 0 41 48" fill="none" xmlns="http://www.w3.org/2000/svg">
<g clip-path="url(#clip0_1637_2738)">
<path d="M20.0973 0C0.368002 0.1875 -7.43962 25.2759 8.65234 36.6262C8.53579 36.7136 8.4412 36.8268 8.37604 36.957C8.31089 37.0872 8.27697 37.2307 8.27697 37.3762V47.0625C8.27697 47.3111 8.37584 47.5496 8.55183 47.7254C8.72782 47.9012 8.96651 48 9.21539 48H13.9628C14.0861 48 14.2081 47.9758 14.322 47.9286C14.4358 47.8815 14.5393 47.8125 14.6264 47.7254C14.7135 47.6384 14.7827 47.535 14.8298 47.4213C14.877 47.3075 14.9013 47.1856 14.9013 47.0625V46.5225H16.1634C16.4482 46.5201 16.7257 46.6128 16.9517 46.7859C17.8831 47.5315 19.0427 47.9346 20.2361 47.9278H24.444C25.3494 47.9309 26.223 47.5944 26.8921 46.9849C27.5611 46.3754 27.9768 45.5372 28.0569 44.6362L28.7251 39.7097L28.7307 39.6647C28.7706 39.2118 28.7251 38.7555 28.5965 38.3194C47.9344 28.9687 41.6058 0.334687 20.0973 0ZM10.1501 46.125V38.3156H13.0207V46.125H10.1501ZM26.8632 39.4828L26.1951 44.4047L26.1895 44.4497C26.1535 44.8882 25.9532 45.2969 25.6285 45.5942C25.3038 45.8914 24.8788 46.0552 24.4384 46.0528H20.2305C19.4619 46.0578 18.715 45.7982 18.1153 45.3178C17.1262 44.5209 16.0799 44.6503 14.8975 44.6475V38.1984C15.6069 37.9997 16.1306 37.4738 16.5125 36.8653L20.025 31.3022L20.6819 31.6406C20.8636 31.7348 21.0249 31.864 21.1564 32.0208C21.2879 32.1775 21.387 32.3587 21.4481 32.554C21.5092 32.7492 21.5309 32.9545 21.5122 33.1582C21.4934 33.3619 21.4345 33.5598 21.3388 33.7406L20.4238 35.3738C19.8871 36.3431 20.6115 37.5928 21.7329 37.5928H25.1112C25.3526 37.5954 25.5909 37.647 25.8116 37.7447C26.0323 37.8424 26.2308 37.984 26.3949 38.1609C26.5589 38.3378 26.6852 38.5463 26.7659 38.7735C26.8466 39.0008 26.88 39.2422 26.8642 39.4828H26.8632ZM35.1617 30.375C33.2738 33.1394 30.6601 35.3309 27.6074 36.7087C26.9308 36.0744 26.0382 35.7206 25.1103 35.7188H22.3842L22.5034 35.5059C33.9886 33.9122 39.7214 19.7559 32.505 10.6406C30.4676 7.98461 27.6341 6.0483 24.4177 5.11406C24.1801 5.05033 23.9269 5.08239 23.7127 5.20334C23.4985 5.32429 23.3404 5.52445 23.2725 5.76072C23.2046 5.99698 23.2322 6.25044 23.3496 6.46651C23.4669 6.68259 23.6644 6.84398 23.8997 6.91594C26.7289 7.73878 29.2213 9.44241 31.0139 11.7787C37.0657 19.3997 32.7734 31.2966 23.3864 33.4209C23.4634 32.7348 23.3326 32.0414 23.0109 31.4304C22.6892 30.8193 22.1914 30.3188 21.5818 29.9934L20.1245 29.2434C19.9058 29.1342 19.6536 29.1129 19.4196 29.1839C19.1857 29.2549 18.9879 29.4127 18.867 29.625L16.521 33.3478C3.17199 29.5425 2.98525 10.9875 16.2544 6.92719C16.4935 6.85769 16.6951 6.69617 16.815 6.47816C16.9348 6.26015 16.9631 6.00351 16.8935 5.76469C16.8239 5.52587 16.6623 5.32444 16.444 5.20471C16.2258 5.08498 15.9689 5.05676 15.7299 5.12625C0.919791 9.63937 0.764015 30.2353 15.4737 34.9931L14.8168 36.0244C14.5691 36.3469 14.3748 36.4313 13.9478 36.4369H12.0166C-5.12455 27.6834 0.818442 2.15625 20.0973 1.875C34.5385 1.6875 43.4666 18.5944 35.1617 30.375Z" fill="black"/>
<path d="M20.0979 9.99219C19.9432 9.99211 19.7909 10.0302 19.6545 10.1032C19.5181 10.1761 19.4019 10.2816 19.3162 10.4103L16.4212 14.7622L11.3828 16.1684C11.2353 16.2121 11.1006 16.2909 10.9904 16.3982C10.8803 16.5055 10.7979 16.6379 10.7504 16.7841C10.7029 16.9303 10.6917 17.0858 10.7179 17.2373C10.744 17.3888 10.8067 17.5316 10.9005 17.6534L14.1483 21.7484L13.9306 26.9694C13.9263 27.1231 13.9595 27.2755 14.0274 27.4135C14.0954 27.5515 14.1959 27.6708 14.3204 27.7612C14.4449 27.8516 14.5896 27.9103 14.7419 27.9323C14.8943 27.9542 15.0497 27.9388 15.1947 27.8872L20.0979 26.0666L25.0011 27.8872C25.1461 27.9388 25.3015 27.9542 25.4538 27.9323C25.6062 27.9103 25.7509 27.8516 25.8754 27.7612C25.9999 27.6708 26.1004 27.5515 26.1683 27.4135C26.2363 27.2755 26.2695 27.1231 26.2652 26.9694L26.0474 21.7484L29.2953 17.6525C29.3891 17.5306 29.4517 17.3878 29.4779 17.2364C29.504 17.0849 29.4929 16.9294 29.4454 16.7832C29.3979 16.637 29.3155 16.5045 29.2053 16.3973C29.0951 16.29 28.9605 16.2111 28.813 16.1675L23.7746 14.7613L20.8796 10.4094C20.7938 10.2809 20.6775 10.1756 20.5411 10.1028C20.4048 10.03 20.2525 9.99201 20.0979 9.99219ZM22.9338 16.4741L26.9474 17.5944L24.3592 20.8578C24.2195 21.0341 24.1479 21.2547 24.1575 21.4794L24.3311 25.6391L20.4245 24.1859C20.2126 24.1069 19.9794 24.1069 19.7676 24.1859L15.8647 25.6391L16.0383 21.4794C16.0478 21.2547 15.9762 21.0341 15.8365 20.8578L13.2484 17.5944L17.2657 16.4741C17.4825 16.4138 17.6703 16.2777 17.795 16.0906L20.1016 12.6219L22.4083 16.0906C22.533 16.2777 22.7208 16.4138 22.9375 16.4741H22.9338Z" fill="#F49824"/>
<path d="M19.2362 5.80172C19.5543 6.56484 20.6757 6.55172 20.976 5.78203C21.2885 4.97953 20.3904 4.20328 19.6397 4.62797C19.4421 4.74216 19.2925 4.92382 19.2183 5.13949C19.1442 5.35517 19.1505 5.59034 19.2362 5.80172Z" fill="#F49824"/>
</g>
<defs>
<clipPath id="clip0_1637_2738">
<rect width="40.1633" height="48" fill="white"/>
</clipPath>
</defs>
</svg>
