<svg width="47" height="48" viewBox="0 0 47 48" fill="none" xmlns="http://www.w3.org/2000/svg">
<g clip-path="url(#clip0_1637_2719)">
<path d="M2.57404 43.4319L4.41348 45.3046C4.52763 45.4177 4.67301 45.4927 4.83014 45.5193C4.98727 45.546 5.14865 45.5231 5.29266 45.4538L7.86671 44.1808C8.23499 44.4056 8.67653 44.5557 9.03895 44.7049L9.91813 47.4757C9.95868 47.6236 10.0448 47.7544 10.1639 47.8488C10.283 47.9431 10.4286 47.9961 10.5795 47.9998H13.2278C13.3786 47.9961 13.5243 47.9431 13.6433 47.8488C13.7624 47.7544 13.8485 47.6236 13.8891 47.4757L14.4752 45.604L14.9168 46.877C14.9168 46.9516 14.99 47.0271 15.0633 47.1017C15.5781 47.6985 16.3137 47.9968 17.1225 47.9968H44.1309C44.8915 47.996 45.6206 47.6882 46.1585 47.1408C46.6963 46.5934 46.999 45.8511 47 45.0769V11.3076C47 11.0828 46.8525 10.8591 46.7069 10.7109C36.0405 -0.298557 36.5553 0.000796317 36.0405 0.000796317H17.2114C16.4509 0.00158567 15.7217 0.309443 15.1839 0.856839C14.646 1.40423 14.3434 2.14647 14.3424 2.92074V25.3862L13.9751 24.1132C13.9342 23.9652 13.8478 23.8345 13.7286 23.7402C13.6094 23.6458 13.4637 23.5929 13.3127 23.5891H10.6654C10.2972 23.5891 10.0793 23.8128 9.92985 24.1132L9.05067 26.8829C8.62155 27.0259 8.20357 27.2014 7.80028 27.4081L5.2995 26.1351C5.16907 26.0366 5.0079 25.9899 4.8461 26.0036C4.6843 26.0174 4.53295 26.0906 4.42032 26.2096L2.57404 28.0814C2.46293 28.1976 2.38934 28.3456 2.36315 28.5055C2.33696 28.6655 2.35942 28.8298 2.42751 28.9764L3.6779 31.597C3.4748 32.0074 3.3027 32.433 3.16309 32.87L0.514809 33.6935C0.221749 33.8437 0 34.143 0 34.4424V37.1385C0.00380929 37.2921 0.055864 37.4403 0.148522 37.5615C0.241179 37.6827 0.369558 37.7704 0.514809 37.8118L3.23636 38.7069C3.37597 39.1439 3.54807 39.5695 3.75117 39.9799L2.50078 42.5259C2.40409 42.6587 2.3582 42.8228 2.37168 42.9875C2.38517 43.1522 2.4571 43.3063 2.57404 43.421V43.4319ZM36.7761 2.54679L44.5725 10.4841H38.5413C38.318 10.4885 38.096 10.4469 37.8888 10.3618C37.6816 10.2768 37.4934 10.1501 37.3355 9.98925C37.1775 9.82843 37.053 9.63681 36.9695 9.42587C36.886 9.21493 36.8451 8.989 36.8494 8.76161V2.54679H36.7761ZM15.8135 2.92074C15.8135 2.73389 15.8497 2.54887 15.9199 2.37626C15.9902 2.20365 16.0932 2.04683 16.223 1.91475C16.3528 1.78268 16.5069 1.67794 16.6765 1.60653C16.8461 1.53512 17.0279 1.49843 17.2114 1.49856H35.3049V8.75863C35.3049 10.4812 36.7761 11.9789 38.468 11.9789H45.5992V44.9973C45.5993 45.1841 45.5633 45.3691 45.4931 45.5417C45.4229 45.7143 45.3201 45.8711 45.1903 46.0032C45.0606 46.1353 44.9065 46.2401 44.737 46.3115C44.5674 46.3829 44.3857 46.4196 44.2023 46.4195H17.2114C16.8956 46.4121 16.5893 46.3081 16.3322 46.1211L15.6709 44.324C15.8174 44.2494 15.964 44.2494 16.0382 44.1738L18.539 45.4468C18.683 45.5162 18.8444 45.539 19.0015 45.5124C19.1586 45.4857 19.304 45.4108 19.4182 45.2977L21.3299 43.425C21.4412 43.3089 21.5149 43.1609 21.5413 43.0009C21.5677 42.841 21.5454 42.6766 21.4774 42.5299L20.227 39.9093C20.4478 39.5344 20.5943 39.0848 20.7418 38.6363L23.4634 37.7412C23.6087 37.6996 23.7371 37.6117 23.8298 37.4903C23.9224 37.369 23.9744 37.2206 23.9782 37.0669V34.4463C23.9744 34.2928 23.9223 34.1446 23.8297 34.0234C23.737 33.9022 23.6086 33.8145 23.4634 33.773L20.7418 32.878C20.615 32.4601 20.4423 32.0581 20.227 31.6796L21.4774 29.1336C21.6239 28.8352 21.5507 28.5368 21.3299 28.2385L19.4182 26.2166C19.3041 26.1033 19.1588 26.0282 19.0017 26.0014C18.8445 25.9745 18.6831 25.9972 18.539 26.0664L16.0382 27.3394C15.9649 27.3394 15.8907 27.2648 15.8174 27.2648L15.8135 2.92074ZM1.47116 36.5428V34.9705L4.04521 34.0754C4.26598 33.9998 4.48675 33.777 4.48675 33.5513C4.6432 32.9775 4.86516 32.4244 5.14809 31.9033C5.21981 31.8063 5.2586 31.6881 5.2586 31.5667C5.2586 31.4452 5.21981 31.3271 5.14809 31.23L3.97585 28.7586L5.07385 27.6318L7.50136 28.9048C7.72213 29.055 8.01617 28.9804 8.23694 28.9048C8.74424 28.6036 9.29084 28.3769 9.8605 28.2315C10.0813 28.1559 10.302 28.0068 10.3753 27.782L11.2545 25.1614H12.7989L13.6078 27.782C13.682 28.0068 13.9008 28.2315 14.1226 28.2315C14.6906 28.3773 15.2355 28.6039 15.7412 28.9048C15.8366 28.9778 15.9526 29.0173 16.0719 29.0173C16.1912 29.0173 16.3073 28.9778 16.4026 28.9048L18.8301 27.7114L19.9339 28.8342L18.7568 31.3056C18.6836 31.5239 18.6836 31.7607 18.7568 31.9789C19.0519 32.4941 19.2749 33.0488 19.4191 33.6269C19.4924 33.8516 19.6389 34.0764 19.8597 34.151L22.4347 35.046V36.6184L19.8597 37.4419C19.6389 37.5165 19.4191 37.7402 19.4191 37.966C19.275 38.5438 19.0521 39.0981 18.7568 39.6129C18.685 39.7101 18.6462 39.8285 18.6462 39.9501C18.6462 40.0717 18.685 40.19 18.7568 40.2872L19.933 42.7596L18.8291 43.8824L16.4016 42.689C16.1874 42.6135 15.9545 42.6135 15.7403 42.689C15.2342 42.9878 14.6893 43.2125 14.1216 43.3563C13.9008 43.4309 13.681 43.5811 13.6068 43.8059L12.7276 46.4265H11.1802L10.3011 43.8059C10.2566 43.6864 10.1877 43.5778 10.099 43.4875C10.0102 43.3971 9.90363 43.327 9.78625 43.2817C9.22315 43.1217 8.68026 42.8954 8.16856 42.6075C8.0729 42.5348 7.95675 42.4956 7.8374 42.4956C7.71806 42.4956 7.60191 42.5348 7.50625 42.6075L5.07385 43.8069L3.97194 42.684L5.14418 40.2126C5.21842 39.9879 5.21842 39.6885 5.14418 39.5383C4.8505 39.0235 4.62951 38.469 4.48773 37.8914C4.45611 37.7853 4.39927 37.6887 4.32226 37.6103C4.24524 37.5319 4.15041 37.4741 4.04618 37.4419L1.47116 36.5428Z" fill="black"/>
<path d="M11.9116 40.4393C12.814 40.4401 13.6963 40.1683 14.447 39.6584C15.1976 39.1484 15.7828 38.4233 16.1285 37.5746C16.4742 36.726 16.5649 35.792 16.389 34.8909C16.2132 33.9898 15.7787 33.162 15.1406 32.5124C14.5025 31.8627 13.6894 31.4204 12.8043 31.2414C11.9192 31.0623 11.0018 31.1546 10.1683 31.5066C9.33469 31.8585 8.6224 32.4543 8.12153 33.2185C7.62066 33.9827 7.35372 34.8811 7.35449 35.7998C7.36142 37.0281 7.84376 38.2041 8.69688 39.0726C9.55001 39.9412 10.7051 40.4322 11.9116 40.4393ZM11.9116 32.6511C12.5227 32.6503 13.1204 32.8341 13.629 33.1791C14.1375 33.5241 14.5342 34.015 14.7687 34.5895C15.0033 35.1641 15.0652 35.7966 14.9466 36.407C14.8281 37.0173 14.5344 37.5782 14.1027 38.0187C13.6711 38.4591 13.1208 38.7594 12.5215 38.8814C11.9222 39.0034 11.3009 38.9418 10.736 38.7043C10.1711 38.4668 9.68812 38.064 9.34808 37.547C9.00804 37.03 8.82624 36.422 8.82566 35.7998C8.82136 35.3857 8.89819 34.9748 9.05166 34.5913C9.20514 34.2078 9.43217 33.8592 9.7195 33.566C10.0068 33.2729 10.3487 33.041 10.7251 32.8839C11.1014 32.7268 11.5048 32.6476 11.9116 32.6511Z" fill="black"/>
<path d="M42.0712 26.2852H24.1946C23.9995 26.2852 23.8124 26.3641 23.6744 26.5045C23.5365 26.6449 23.459 26.8354 23.459 27.034C23.459 27.2327 23.5365 27.4231 23.6744 27.5636C23.8124 27.704 23.9995 27.7829 24.1946 27.7829H42.0712C42.1694 27.789 42.2677 27.7738 42.3597 27.7384C42.4516 27.7029 42.5351 27.6479 42.6047 27.5771C42.6742 27.5063 42.7282 27.4213 42.763 27.3277C42.7979 27.2341 42.8128 27.134 42.8068 27.034C42.8066 26.8355 42.729 26.6452 42.5911 26.5048C42.4532 26.3644 42.2662 26.2854 42.0712 26.2852Z" fill="#FB9100"/>
<path d="M32.5103 10.4844H25.1545C24.9594 10.4844 24.7723 10.5633 24.6344 10.7037C24.4964 10.8442 24.4189 11.0346 24.4189 11.2333C24.4189 11.4319 24.4964 11.6224 24.6344 11.7628C24.7723 11.9032 24.9594 11.9821 25.1545 11.9821H32.5103C32.6085 11.9882 32.7068 11.973 32.7988 11.9376C32.8907 11.9021 32.9742 11.8471 33.0438 11.7763C33.1133 11.7055 33.1673 11.6205 33.2021 11.5269C33.237 11.4333 33.2519 11.3332 33.2459 11.2333C33.2454 11.0348 33.1677 10.8446 33.0299 10.7043C32.8921 10.564 32.7053 10.4849 32.5103 10.4844Z" fill="#FB9100"/>
<path d="M19.3443 11.9835H21.6243C21.8194 11.9835 22.0065 11.9046 22.1444 11.7641C22.2824 11.6237 22.3599 11.4332 22.3599 11.2346C22.3599 11.036 22.2824 10.8455 22.1444 10.705C22.0065 10.5646 21.8194 10.4857 21.6243 10.4857H19.3443C19.2461 10.4796 19.1478 10.4948 19.0559 10.5303C18.9639 10.5657 18.8804 10.6207 18.8109 10.6915C18.7413 10.7623 18.6873 10.8473 18.6525 10.9409C18.6176 11.0345 18.6027 11.1346 18.6087 11.2346C18.6092 11.433 18.6869 11.6232 18.8247 11.7635C18.9626 11.9039 19.1494 11.9829 19.3443 11.9835Z" fill="black"/>
<path d="M26.3316 33.0225H31.3332C31.5282 33.0225 31.7153 32.9436 31.8533 32.8032C31.9912 32.6627 32.0687 32.4722 32.0687 32.2736C32.0687 32.075 31.9912 31.8845 31.8533 31.7441C31.7153 31.6037 31.5282 31.5248 31.3332 31.5248H26.3316C26.2334 31.5187 26.1351 31.5338 26.0432 31.5693C25.9512 31.6048 25.8677 31.6598 25.7982 31.7305C25.7286 31.8013 25.6746 31.8864 25.6398 31.98C25.6049 32.0736 25.59 32.1737 25.596 32.2736C25.5965 32.4721 25.6742 32.6623 25.812 32.8026C25.9499 32.9429 26.1367 33.022 26.3316 33.0225Z" fill="black"/>
<path d="M42.0714 31.5273H36.0403C35.8452 31.5273 35.6581 31.6062 35.5201 31.7467C35.3822 31.8871 35.3047 32.0776 35.3047 32.2762C35.3047 32.4748 35.3822 32.6653 35.5201 32.8058C35.6581 32.9462 35.8452 33.0251 36.0403 33.0251H42.0714C42.1696 33.031 42.2678 33.0157 42.3597 32.9802C42.4516 32.9447 42.535 32.8897 42.6045 32.819C42.674 32.7482 42.728 32.6632 42.7629 32.5697C42.7978 32.4761 42.8129 32.3761 42.807 32.2762C42.8068 32.0777 42.7292 31.8874 42.5913 31.747C42.4534 31.6066 42.2665 31.5276 42.0714 31.5273Z" fill="black"/>
<path d="M32.3626 16.551C32.3566 16.6509 32.3715 16.751 32.4064 16.8446C32.4412 16.9382 32.4952 17.0233 32.5648 17.0941C32.6343 17.1649 32.7178 17.2198 32.8098 17.2553C32.9017 17.2908 33 17.306 33.0982 17.2999H42.0717C42.2668 17.2999 42.4539 17.221 42.5918 17.0805C42.7298 16.9401 42.8073 16.7496 42.8073 16.551C42.8073 16.3524 42.7298 16.1619 42.5918 16.0214C42.4539 15.881 42.2668 15.8021 42.0717 15.8021H33.0982C33 15.796 32.9017 15.8112 32.8098 15.8467C32.7178 15.8821 32.6343 15.9371 32.5648 16.0079C32.4952 16.0787 32.4412 16.1637 32.4064 16.2573C32.3715 16.351 32.3566 16.451 32.3626 16.551Z" fill="black"/>
<path d="M19.3443 17.2999H29.2741C29.4692 17.2999 29.6563 17.221 29.7943 17.0805C29.9322 16.9401 30.0097 16.7496 30.0097 16.551C30.0097 16.3524 29.9322 16.1619 29.7943 16.0214C29.6563 15.881 29.4692 15.8021 29.2741 15.8021H19.3443C19.2461 15.796 19.1478 15.8112 19.0559 15.8467C18.9639 15.8821 18.8804 15.9371 18.8109 16.0079C18.7413 16.0787 18.6873 16.1637 18.6525 16.2573C18.6176 16.351 18.6027 16.451 18.6087 16.551C18.6092 16.7494 18.6869 16.9396 18.8247 17.0799C18.9626 17.2203 19.1494 17.2993 19.3443 17.2999Z" fill="black"/>
<path d="M26.3316 38.3418H36.2615C36.3602 38.3455 36.4587 38.3289 36.5511 38.2929C36.6434 38.2569 36.7277 38.2024 36.7988 38.1325C36.87 38.0627 36.9266 37.9789 36.9652 37.8863C37.0039 37.7937 37.0238 37.6941 37.0238 37.5934C37.0238 37.4928 37.0039 37.3932 36.9652 37.3006C36.9266 37.2079 36.87 37.1242 36.7988 37.0543C36.7277 36.9845 36.6434 36.93 36.5511 36.894C36.4587 36.858 36.3602 36.8414 36.2615 36.8451H26.3316C26.2334 36.839 26.1351 36.8542 26.0432 36.8896C25.9512 36.9251 25.8677 36.9801 25.7982 37.0509C25.7286 37.1217 25.6746 37.2067 25.6398 37.3003C25.6049 37.3939 25.59 37.494 25.596 37.5939C25.5968 37.7922 25.6746 37.9821 25.8124 38.1223C25.9502 38.2624 26.1368 38.3413 26.3316 38.3418Z" fill="black"/>
<path d="M42.0718 36.8442H39.4977C39.3989 36.8406 39.3004 36.8572 39.2081 36.8932C39.1158 36.9291 39.0315 36.9837 38.9604 37.0535C38.8892 37.1234 38.8326 37.2071 38.7939 37.2998C38.7553 37.3924 38.7354 37.492 38.7354 37.5926C38.7354 37.6933 38.7553 37.7929 38.7939 37.8855C38.8326 37.9781 38.8892 38.0619 38.9604 38.1317C39.0315 38.2016 39.1158 38.2561 39.2081 38.2921C39.3004 38.328 39.3989 38.3447 39.4977 38.341H42.0718C42.1698 38.3471 42.2681 38.3319 42.36 38.2965C42.4519 38.2611 42.5353 38.2062 42.6048 38.1355C42.6744 38.0649 42.7284 37.98 42.7633 37.8865C42.7982 37.793 42.8132 37.693 42.8074 37.5931C42.8071 37.3946 42.7295 37.2043 42.5916 37.0639C42.4537 36.9235 42.2668 36.8445 42.0718 36.8442Z" fill="black"/>
<path d="M42.0717 21.0435H39.8649C39.7661 21.0398 39.6676 21.0564 39.5753 21.0924C39.483 21.1284 39.3987 21.1829 39.3275 21.2528C39.2564 21.3226 39.1998 21.4063 39.1611 21.499C39.1225 21.5916 39.1025 21.6912 39.1025 21.7918C39.1025 21.8925 39.1225 21.9921 39.1611 22.0847C39.1998 22.1774 39.2564 22.2611 39.3275 22.3309C39.3987 22.4008 39.483 22.4553 39.5753 22.4913C39.6676 22.5273 39.7661 22.5439 39.8649 22.5402H42.0717C42.1698 22.5463 42.2681 22.5311 42.3601 22.4957C42.4521 22.4602 42.5356 22.4052 42.6051 22.3344C42.6746 22.2636 42.7286 22.1786 42.7635 22.085C42.7983 21.9914 42.8132 21.8913 42.8072 21.7914C42.8067 21.593 42.729 21.4029 42.5912 21.2627C42.4533 21.1226 42.2665 21.0437 42.0717 21.0435Z" fill="black"/>
<path d="M27.2874 21.7914C27.2814 21.8913 27.2964 21.9914 27.3312 22.085C27.366 22.1786 27.42 22.2636 27.4896 22.3344C27.5591 22.4052 27.6426 22.4602 27.7346 22.4957C27.8265 22.5311 27.9248 22.5463 28.023 22.5402H36.0402C36.1389 22.5439 36.2374 22.5273 36.3298 22.4913C36.4221 22.4553 36.5064 22.4008 36.5775 22.3309C36.6487 22.2611 36.7053 22.1774 36.7439 22.0847C36.7826 21.9921 36.8025 21.8925 36.8025 21.7918C36.8025 21.6912 36.7826 21.5916 36.7439 21.499C36.7053 21.4063 36.6487 21.3226 36.5775 21.2528C36.5064 21.1829 36.4221 21.1284 36.3298 21.0924C36.2374 21.0564 36.1389 21.0398 36.0402 21.0435H28.023C27.8282 21.0437 27.6414 21.1226 27.5035 21.2627C27.3656 21.4029 27.2879 21.593 27.2874 21.7914Z" fill="black"/>
<path d="M25.4498 21.7922C25.4557 21.6923 25.4406 21.5923 25.4057 21.4988C25.3708 21.4053 25.3168 21.3204 25.2473 21.2497C25.1778 21.1791 25.0943 21.1242 25.0024 21.0888C24.9105 21.0534 24.8123 21.0382 24.7142 21.0443H19.4186C19.3198 21.0406 19.2213 21.0573 19.129 21.0932C19.0367 21.1292 18.9524 21.1837 18.8813 21.2536C18.8101 21.3234 18.7535 21.4072 18.7148 21.4998C18.6762 21.5924 18.6562 21.692 18.6562 21.7927C18.6562 21.8933 18.6762 21.9929 18.7148 22.0855C18.7535 22.1782 18.8101 22.2619 18.8813 22.3318C18.9524 22.4016 19.0367 22.4562 19.129 22.4921C19.2213 22.5281 19.3198 22.5447 19.4186 22.541H24.7142C24.905 22.5278 25.0847 22.4446 25.2199 22.307C25.3551 22.1693 25.4368 21.9864 25.4498 21.7922Z" fill="black"/>
<path d="M26.6993 42.0859H24.1985C24.0034 42.0859 23.8163 42.1648 23.6783 42.3053C23.5404 42.4457 23.4629 42.6362 23.4629 42.8348C23.4629 43.0334 23.5404 43.2239 23.6783 43.3644C23.8163 43.5048 24.0034 43.5837 24.1985 43.5837H26.6993C26.7974 43.5896 26.8956 43.5743 26.9875 43.5388C27.0794 43.5033 27.1628 43.4483 27.2323 43.3775C27.3018 43.3068 27.3558 43.2218 27.3907 43.1283C27.4256 43.0347 27.4407 42.9347 27.4348 42.8348C27.4343 42.6364 27.3567 42.4462 27.2188 42.3059C27.081 42.1655 26.8942 42.0865 26.6993 42.0859Z" fill="black"/>
<path d="M42.0716 42.0859H32.51C32.3149 42.0859 32.1278 42.1648 31.9899 42.3053C31.8519 42.4457 31.7744 42.6362 31.7744 42.8348C31.7744 43.0334 31.8519 43.2239 31.9899 43.3644C32.1278 43.5048 32.3149 43.5837 32.51 43.5837H42.0716C42.1697 43.5898 42.268 43.5746 42.36 43.5391C42.452 43.5037 42.5355 43.4487 42.605 43.3779C42.6745 43.3071 42.7285 43.2221 42.7634 43.1285C42.7982 43.0348 42.8131 42.9348 42.8071 42.8348C42.8069 42.6363 42.7293 42.446 42.5914 42.3056C42.4535 42.1652 42.2666 42.0862 42.0716 42.0859Z" fill="#FB9100"/>
<path d="M19.3442 6.7412H32.4342C32.5324 6.74714 32.6306 6.73183 32.7225 6.6963C32.8144 6.66077 32.8978 6.60581 32.9673 6.53505C33.0368 6.46429 33.0908 6.37933 33.1257 6.28578C33.1606 6.19223 33.1757 6.09221 33.1698 5.99232C33.1757 5.89242 33.1606 5.7924 33.1257 5.69885C33.0908 5.6053 33.0368 5.52035 32.9673 5.44959C32.8978 5.37883 32.8144 5.32387 32.7225 5.28833C32.6306 5.2528 32.5324 5.2375 32.4342 5.24344H19.3442C19.2461 5.2375 19.1479 5.2528 19.056 5.28833C18.9641 5.32387 18.8806 5.37883 18.8111 5.44959C18.7416 5.52035 18.6876 5.6053 18.6527 5.69885C18.6178 5.7924 18.6028 5.89242 18.6086 5.99232C18.6092 6.19077 18.6868 6.38095 18.8247 6.52128C18.9625 6.6616 19.1493 6.74067 19.3442 6.7412Z" fill="black"/>
<path d="M4.8542 0C3.60381 0 2.64746 0.973645 2.64746 2.17106V17.2989C2.64746 17.3734 2.64746 17.5236 2.7217 17.5972L5.81056 23.812C5.95806 24.0368 6.17883 24.2616 6.47287 24.2616C6.76691 24.2616 6.98768 24.1124 7.13421 23.812C10.4448 17.0731 10.2973 17.5226 10.2973 17.2979V2.17106C10.2973 0.977623 9.34095 0 8.09056 0H4.8542ZM6.47287 21.8657L4.56017 18.0467H8.31134L6.47287 21.8657ZM8.82614 16.549H4.11862V5.91546H8.82614V16.549ZM8.82614 2.17106V4.34311H4.11862V2.17106C4.11862 1.79712 4.41168 1.49776 4.8542 1.49776H8.09056C8.53211 1.49776 8.82614 1.79712 8.82614 2.17106Z" fill="#FB9100"/>
</g>
<defs>
<clipPath id="clip0_1637_2719">
<rect width="47" height="48" fill="white"/>
</clipPath>
</defs>
</svg>
