<svg width="48" height="49" viewBox="0 0 48 49" fill="none" xmlns="http://www.w3.org/2000/svg">
<g clip-path="url(#clip0_1637_1685)">
<path d="M47.259 20.6581C46.8645 20.3202 46.3612 20.1339 45.8402 20.1328C45.3192 20.1318 44.8151 20.3161 44.4193 20.6524L37.4827 26.6003C37.371 26.4095 37.2349 26.2339 37.0777 26.0778C36.6295 25.63 36.0286 25.3649 35.3934 25.3346C34.7582 25.3043 34.1345 25.511 33.6451 25.9141L27.6389 30.8227C26.912 31.415 26.3267 32.16 25.9252 33.0041C25.5237 33.8481 25.316 34.7702 25.3171 35.7036V39.948C25.1185 40.1185 24.9592 40.3294 24.8499 40.5663C24.7406 40.8033 24.6839 41.0608 24.6836 41.3214V48.2819C24.6836 48.4722 24.7598 48.6548 24.8954 48.7894C25.031 48.924 25.215 48.9996 25.4068 48.9996C25.5986 48.9996 25.7825 48.924 25.9181 48.7894C26.0537 48.6548 26.1299 48.4722 26.1299 48.2819V41.3233C26.1299 41.2218 26.1706 41.1244 26.2429 41.0526C26.3152 40.9808 26.4133 40.9405 26.5156 40.9405H35.3344C35.4367 40.9405 35.5348 40.9808 35.6071 41.0526C35.6795 41.1244 35.7201 41.2218 35.7201 41.3233V48.2838C35.7201 48.4741 35.7963 48.6567 35.9319 48.7913C36.0675 48.9259 36.2515 49.0015 36.4433 49.0015C36.6351 49.0015 36.819 48.9259 36.9546 48.7913C37.0902 48.6567 37.1664 48.4741 37.1664 48.2838V41.3233C37.1663 40.9927 37.0754 40.6684 36.9035 40.3853C36.7315 40.1022 36.4851 39.8709 36.1906 39.7164V36.5113L37.8366 35.9027C39.2142 35.3976 40.3912 34.4653 41.193 33.244L47.6533 23.4574C47.9388 23.0227 48.057 22.5005 47.9862 21.9864C47.9153 21.4723 47.6602 21.0007 47.2676 20.6581H47.259ZM46.4403 22.6679L39.9868 32.4593C39.3538 33.424 38.4243 34.1603 37.3361 34.559L34.4647 35.6203C34.306 35.6789 34.173 35.791 34.0891 35.937C34.0052 36.083 33.9757 36.2536 34.0057 36.4191C34.0357 36.5845 34.1233 36.7342 34.2532 36.842C34.3831 36.9499 34.547 37.0089 34.7163 37.009H34.7501V39.504H26.7615V35.7055C26.7615 34.9834 26.923 34.2702 27.2343 33.6175C27.5456 32.9648 27.999 32.3888 28.5617 31.931L34.5678 27.0224C34.7887 26.8448 35.0697 26.7579 35.3531 26.7795C35.6365 26.801 35.9008 26.9294 36.0919 27.1383C36.2829 27.3471 36.3862 27.6206 36.3806 27.9027C36.3749 28.1847 36.2607 28.4539 36.0614 28.6551L33.6923 31.0074C33.5617 31.1428 33.4897 31.3236 33.4917 31.511C33.4938 31.6984 33.5697 31.8776 33.7032 32.0101C33.8368 32.1427 34.0173 32.218 34.2061 32.22C34.3949 32.2221 34.5771 32.1506 34.7134 32.0209L37.0825 29.6695C37.4775 29.2795 37.7323 28.7713 37.8076 28.2234L45.3681 21.7395C45.4998 21.626 45.6685 21.5636 45.843 21.5639C46.0174 21.5642 46.1859 21.6271 46.3172 21.7411C46.4485 21.8551 46.5338 22.0125 46.5574 22.1841C46.5809 22.3556 46.541 22.5299 46.4451 22.6746L46.4403 22.6679Z" fill="black"/>
<path d="M22.6788 39.9477V35.7033C22.6797 34.7803 22.4766 33.8684 22.0837 33.0318C21.6909 32.1953 21.1179 31.4544 20.4052 30.8616C20.3326 30.8011 20.2486 30.7553 20.1582 30.7269C20.0677 30.6985 19.9725 30.6881 19.878 30.6962C19.7835 30.7043 19.6916 30.7309 19.6074 30.7743C19.5232 30.8177 19.4485 30.8771 19.3874 30.9492C19.3264 31.0213 19.2803 31.1046 19.2517 31.1944C19.2231 31.2841 19.2126 31.3786 19.2208 31.4724C19.229 31.5662 19.2557 31.6575 19.2994 31.741C19.3432 31.8246 19.403 31.8988 19.4757 31.9593C20.0268 32.4178 20.4699 32.9907 20.7738 33.6375C21.0776 34.2844 21.2349 34.9895 21.2344 35.7033V39.5008H13.2487V37.0058H13.2815C13.4509 37.006 13.615 36.947 13.7451 36.8393C13.8752 36.7315 13.9629 36.5818 13.993 36.4163C14.0231 36.2508 13.9937 36.0801 13.9098 35.934C13.8259 35.7879 13.6929 35.6758 13.5341 35.6171L10.6627 34.5558C9.57436 34.1569 8.64476 33.4202 8.01201 32.4551L1.56232 22.6704C1.46716 22.5258 1.42781 22.3519 1.4515 22.1808C1.47519 22.0097 1.56034 21.8529 1.69127 21.7391C1.8222 21.6253 1.99012 21.5623 2.16413 21.5616C2.33815 21.5609 2.50656 21.6226 2.63839 21.7354L10.2008 28.2202C10.2764 28.7671 10.5304 29.2744 10.924 29.6644L13.294 32.0168C13.3611 32.0833 13.4408 32.1361 13.5285 32.1721C13.6161 32.2081 13.7101 32.2266 13.8049 32.2265C13.8998 32.2265 13.9937 32.2079 14.0813 32.1718C14.169 32.1358 14.2486 32.0829 14.3156 32.0163C14.3827 31.9497 14.4358 31.8706 14.4721 31.7836C14.5084 31.6966 14.527 31.6034 14.527 31.5092C14.5269 31.415 14.5082 31.3218 14.4718 31.2349C14.4355 31.1479 14.3822 31.0689 14.3151 31.0023L11.9451 28.6509C11.744 28.45 11.6284 28.1802 11.622 27.8971C11.6157 27.6141 11.7191 27.3394 11.9109 27.1298C12.1027 26.9203 12.3683 26.7919 12.6528 26.7711C12.9373 26.7503 13.219 26.8388 13.4396 27.0182L17.0603 29.9773C17.1331 30.0399 17.2178 30.0874 17.3094 30.117C17.401 30.1466 17.4977 30.1577 17.5937 30.1497C17.6897 30.1417 17.7831 30.1146 17.8684 30.0702C17.9537 30.0258 18.0292 29.9649 18.0905 29.8911C18.1517 29.8173 18.1975 29.7321 18.225 29.6404C18.2526 29.5488 18.2614 29.4526 18.2509 29.3576C18.2405 29.2625 18.2109 29.1705 18.1641 29.0869C18.1173 29.0034 18.0541 28.93 17.9782 28.871L14.3576 25.9109C14.0713 25.6763 13.7369 25.5064 13.3777 25.4132C13.0186 25.32 12.6432 25.3056 12.2779 25.3711C11.9126 25.4367 11.566 25.5804 11.2624 25.7925C10.9588 26.0046 10.7054 26.2798 10.52 26.599L3.58333 20.6501C3.18808 20.3102 2.68231 20.1237 2.15937 20.125C1.63642 20.1263 1.13158 20.3152 0.738009 20.657C0.344435 20.9988 0.0886878 21.4703 0.0179596 21.9846C-0.0527686 22.4989 0.0662954 23.0212 0.353181 23.4552L6.80673 33.2418C7.60799 34.4628 8.78428 35.395 10.1613 35.9004L11.8072 36.5091V39.7132C11.5126 39.8678 11.2661 40.0992 11.0941 40.3825C10.9222 40.6658 10.8313 40.9903 10.8314 41.321V48.2815C10.8314 48.4719 10.9076 48.6544 11.0432 48.7891C11.1788 48.9237 11.3628 48.9993 11.5546 48.9993C11.7464 48.9993 11.9303 48.9237 12.0659 48.7891C12.2015 48.6544 12.2777 48.4719 12.2777 48.2815V41.321C12.2777 41.2195 12.3184 41.1221 12.3907 41.0503C12.463 40.9785 12.5611 40.9382 12.6634 40.9382H21.4822C21.5845 40.9382 21.6826 40.9785 21.7549 41.0503C21.8273 41.1221 21.8679 41.2195 21.8679 41.321V48.2815C21.8679 48.4719 21.9441 48.6544 22.0797 48.7891C22.2153 48.9237 22.3993 48.9993 22.5911 48.9993C22.7829 48.9993 22.9668 48.9237 23.1024 48.7891C23.238 48.6544 23.3142 48.4719 23.3142 48.2815V41.321C23.3137 41.0603 23.2567 40.8027 23.1471 40.5657C23.0374 40.3288 22.8777 40.118 22.6788 39.9477Z" fill="black"/>
<path d="M11.8243 22.7084C14.0868 22.7084 16.2986 22.0425 18.1798 20.7949C20.061 19.5473 21.5272 17.774 22.3931 15.6993C23.2589 13.6246 23.4854 11.3416 23.044 9.13913C22.6027 6.93662 21.5131 4.9135 19.9133 3.32558C18.3134 1.73766 16.2751 0.656278 14.0561 0.218173C11.837 -0.219932 9.53689 0.00491952 7.44659 0.864293C5.35628 1.72367 3.56967 3.17897 2.31268 5.04616C1.05568 6.91335 0.384766 9.10857 0.384766 11.3542C0.388084 14.3645 1.59438 17.2506 3.739 19.3792C5.88361 21.5078 8.79137 22.7052 11.8243 22.7084ZM11.8243 1.43364C13.8012 1.43364 15.7336 2.01547 17.3773 3.10556C19.021 4.19565 20.3021 5.74503 21.0586 7.55778C21.8151 9.37053 22.0131 11.3652 21.6274 13.2896C21.2417 15.214 20.2898 16.9817 18.8919 18.3691C17.4941 19.7566 15.7131 20.7014 13.7743 21.0842C11.8354 21.467 9.82571 21.2705 7.99934 20.5197C6.17296 19.7688 4.61194 18.4972 3.51366 16.8658C2.41538 15.2344 1.82917 13.3163 1.82917 11.3542C1.83223 8.72405 2.88627 6.20248 4.76006 4.34267C6.63385 2.48286 9.17437 1.43668 11.8243 1.43364Z" fill="black"/>
<path d="M9.27722 15.8562C9.69003 16.2445 10.2401 16.4561 10.8087 16.4453C11.3773 16.4346 11.9188 16.2024 12.3165 15.7988L13.8505 14.2417C13.9803 14.105 14.0509 13.9232 14.047 13.7354C14.0431 13.5476 13.9651 13.3688 13.8298 13.2375C13.6945 13.1062 13.5126 13.0329 13.3234 13.0333C13.1341 13.0337 12.9526 13.1078 12.8178 13.2397L11.2799 14.7987C11.1472 14.9331 10.9667 15.0104 10.7772 15.014C10.5876 15.0176 10.4042 14.9471 10.2665 14.8179L8.0999 12.7794L9.09402 11.7362L9.93482 12.5277C10.1508 12.7298 10.4378 12.8402 10.7346 12.8354C11.0315 12.8306 11.3146 12.7109 11.5239 12.5018L15.7452 8.2153L16.7769 9.21731L14.9661 11.0558C14.8978 11.1226 14.8436 11.2024 14.8067 11.2903C14.7697 11.3782 14.7508 11.4725 14.751 11.5677C14.7512 11.663 14.7706 11.7572 14.8079 11.8449C14.8452 11.9327 14.8998 12.0122 14.9684 12.0787C15.037 12.1453 15.1183 12.1977 15.2075 12.2327C15.2967 12.2677 15.3921 12.2848 15.488 12.2828C15.584 12.2809 15.6785 12.26 15.7662 12.2213C15.8539 12.1827 15.933 12.1271 15.9988 12.0578L18.0237 9.99825C18.2333 9.78487 18.3491 9.49768 18.3457 9.19967C18.3422 8.90167 18.2198 8.61719 18.0054 8.40862L16.5272 6.97307C16.4211 6.86933 16.2953 6.78756 16.1571 6.73252C16.0189 6.67748 15.871 6.65027 15.7221 6.65247C15.5734 6.65377 15.4265 6.68429 15.2898 6.74228C15.1531 6.80026 15.0293 6.88456 14.9256 6.9903L10.7014 11.2778L9.85672 10.4835C9.6387 10.2783 9.34749 10.1674 9.04714 10.1753C8.7468 10.1832 8.46191 10.3092 8.25514 10.5256L6.83774 12.0166C6.63112 12.2331 6.51962 12.5223 6.52776 12.8204C6.5359 13.1185 6.663 13.4012 6.88112 13.6063L9.27722 15.8562Z" fill="#FB9100"/>
<path d="M36.178 22.7104C38.8651 22.7095 41.4663 21.7708 43.5264 20.0584C43.5991 19.9979 43.659 19.9238 43.7028 19.8403C43.7467 19.7568 43.7735 19.6655 43.7818 19.5717C43.79 19.4779 43.7796 19.3834 43.7511 19.2936C43.7226 19.2038 43.6765 19.1204 43.6156 19.0483C43.5546 18.9761 43.4799 18.9166 43.3958 18.8731C43.3116 18.8297 43.2197 18.803 43.1252 18.7948C43.0307 18.7866 42.9355 18.7969 42.845 18.8252C42.7545 18.8535 42.6705 18.8992 42.5978 18.9598C40.6637 20.5661 38.1885 21.3861 35.6699 21.2548C33.1514 21.1235 30.7764 20.0506 29.0225 18.2519C27.2685 16.4532 26.2657 14.0621 26.2157 11.5595C26.1658 9.05678 27.0723 6.62812 28.7531 4.76187C30.4338 2.89561 32.7641 1.73016 35.2754 1.49989C37.7867 1.26961 40.2927 1.99158 42.2895 3.52062C44.2863 5.04965 45.6258 7.27236 46.0386 9.74177C46.4514 12.2112 45.907 14.7441 44.5147 16.8313C44.4134 16.9897 44.3787 17.1812 44.4181 17.3647C44.4574 17.5482 44.5677 17.7091 44.7252 17.8128C44.8827 17.9165 45.0749 17.9548 45.2605 17.9194C45.4461 17.8841 45.6104 17.7779 45.7181 17.6237C47.1249 15.5147 47.782 12.9998 47.5851 10.478C47.3883 7.95615 46.3487 5.57175 44.6313 3.70297C42.914 1.83419 40.6171 0.588032 38.1051 0.162139C35.5931 -0.263754 33.0097 0.155007 30.7648 1.352C28.5198 2.549 26.7417 4.45569 25.7126 6.76967C24.6835 9.08365 24.4623 11.6724 25.084 14.1254C25.7057 16.5784 27.1347 18.7551 29.1445 20.3103C31.1542 21.8655 33.6296 22.7102 36.178 22.7104Z" fill="#FB9100"/>
<path d="M42.0489 7.30753L40.3923 5.62411C40.2891 5.5185 40.1659 5.43426 40.0296 5.37627C39.8934 5.31828 39.747 5.28769 39.5988 5.28628C39.4504 5.28394 39.3031 5.31091 39.1654 5.36562C39.0277 5.42034 38.9023 5.5017 38.7965 5.60497L36.1787 8.14588L33.556 5.60305C33.4502 5.49991 33.3248 5.4187 33.187 5.36415C33.0493 5.3096 32.902 5.2828 32.7537 5.28532C32.6054 5.28659 32.4589 5.31701 32.3225 5.37483C32.1861 5.43266 32.0627 5.51673 31.9592 5.62219L30.2969 7.30657C30.1934 7.41158 30.112 7.53597 30.0573 7.6725C30.0027 7.80904 29.976 7.95498 29.9787 8.10186C29.98 8.24891 30.0106 8.39425 30.0689 8.52945C30.1271 8.66466 30.2118 8.78704 30.3181 8.8895L32.8627 11.3558L30.3181 13.822C30.1043 14.0297 29.9822 14.3131 29.9786 14.61C29.975 14.9069 30.0902 15.1931 30.2988 15.4059L31.9554 17.0893C32.0587 17.195 32.1822 17.2792 32.3185 17.3372C32.4549 17.3952 32.6015 17.4258 32.7499 17.4272H32.7634C33.0583 17.428 33.3417 17.3135 33.5521 17.1085L36.1787 14.5666L38.8004 17.1075C39.0151 17.3144 39.3034 17.4289 39.6026 17.4262C39.7508 17.4248 39.8973 17.3942 40.0335 17.3362C40.1697 17.2782 40.293 17.194 40.3962 17.0884L42.0527 15.405C42.2616 15.1922 42.3769 14.9059 42.3735 14.6088C42.37 14.3117 42.2481 14.0281 42.0344 13.8201L39.4879 11.3558L42.0305 8.89141C42.2442 8.68358 42.3661 8.40013 42.3695 8.10323C42.373 7.80632 42.2576 7.52017 42.0489 7.30753ZM37.949 10.8428C37.88 10.9096 37.8253 10.9894 37.7879 11.0774C37.7505 11.1655 37.7312 11.2602 37.7312 11.3558C37.7312 11.4514 37.7505 11.546 37.7879 11.6341C37.8253 11.7222 37.88 11.802 37.949 11.8687L40.7954 14.6269L39.5795 15.8624L36.6791 13.0516C36.5442 12.921 36.3632 12.8479 36.1748 12.8479C35.9864 12.8479 35.8054 12.921 35.6705 13.0516L32.7692 15.8634L31.5504 14.6288L34.3977 11.8687C34.4667 11.802 34.5214 11.7222 34.5588 11.6341C34.5962 11.546 34.6155 11.4514 34.6155 11.3558C34.6155 11.2602 34.5962 11.1655 34.5588 11.0774C34.5214 10.9894 34.4667 10.9096 34.3977 10.8428L31.5504 8.08368L32.7692 6.84815L35.6705 9.65991C35.8052 9.79096 35.9862 9.86436 36.1748 9.86436C36.3634 9.86436 36.5444 9.79096 36.6791 9.65991L39.5795 6.84911L40.7954 8.08463L37.949 10.8428Z" fill="black"/>
</g>
<defs>
<clipPath id="clip0_1637_1685">
<rect width="48" height="49" fill="white"/>
</clipPath>
</defs>
</svg>
