<svg width="54" height="48" viewBox="0 0 54 48" fill="none" xmlns="http://www.w3.org/2000/svg">
<g clip-path="url(#clip0_1637_2742)">
<path d="M50.1429 0H3.85714C2.83416 0 1.85309 0.404651 1.12973 1.12493C0.406376 1.84522 0 2.82213 0 3.84077V36.4873C0 37.5059 0.406376 38.4828 1.12973 39.2031C1.85309 39.9234 2.83416 40.3281 3.85714 40.3281H10.8675C11.1232 40.3281 11.3685 40.2269 11.5494 40.0468C11.7302 39.8668 11.8318 39.6225 11.8318 39.3679C11.8318 39.1132 11.7302 38.869 11.5494 38.6889C11.3685 38.5088 11.1232 38.4077 10.8675 38.4077H3.85714C3.34565 38.4077 2.85511 38.2054 2.49344 37.8452C2.13176 37.4851 1.92857 36.9966 1.92857 36.4873V9.60192H15.0332C15.5919 9.60286 16.1453 9.49393 16.6616 9.28137C17.1779 9.06881 17.6469 8.7568 18.0418 8.36327C18.2555 8.14643 18.5106 7.97439 18.7922 7.8573C19.0737 7.74022 19.376 7.68045 19.6811 7.68154H48.2143C48.47 7.68154 48.7153 7.58037 48.8961 7.4003C49.077 7.22023 49.1786 6.976 49.1786 6.72134C49.1786 6.46669 49.077 6.22246 48.8961 6.04239C48.7153 5.86232 48.47 5.76115 48.2143 5.76115H19.6811C19.1224 5.76021 18.569 5.86914 18.0527 6.08171C17.5364 6.29427 17.0674 6.60627 16.6725 6.9998C16.4588 7.21664 16.2036 7.38868 15.9221 7.50577C15.6406 7.62285 15.3383 7.68262 15.0332 7.68154H1.92857V3.84077C1.92857 3.33145 2.13176 2.84299 2.49344 2.48285C2.85511 2.12271 3.34565 1.92038 3.85714 1.92038H50.1429C50.6543 1.92038 51.1449 2.12271 51.5066 2.48285C51.8682 2.84299 52.0714 3.33145 52.0714 3.84077V36.4873C52.0714 36.9966 51.8682 37.4851 51.5066 37.8452C51.1449 38.2054 50.6543 38.4077 50.1429 38.4077H43.3061C43.0503 38.4077 42.8051 38.5088 42.6242 38.6889C42.4434 38.869 42.3418 39.1132 42.3418 39.3679C42.3418 39.6225 42.4434 39.8668 42.6242 40.0468C42.8051 40.2269 43.0503 40.3281 43.3061 40.3281H50.1429C51.1658 40.3281 52.1469 39.9234 52.8703 39.2031C53.5936 38.4828 54 37.5059 54 36.4873V3.84077C54 2.82213 53.5936 1.84522 52.8703 1.12493C52.1469 0.404651 51.1658 0 50.1429 0Z" fill="black"/>
<path d="M8.19629 4.80004C8.19629 5.05469 8.29788 5.29892 8.47872 5.47899C8.65956 5.65906 8.90483 5.76023 9.16057 5.76023C9.41632 5.76023 9.66159 5.65906 9.84243 5.47899C10.0233 5.29892 10.1249 5.05469 10.1249 4.80004C10.1249 4.54538 10.0233 4.30115 9.84243 4.12108C9.66159 3.94101 9.41632 3.83984 9.16057 3.83984C8.90483 3.83984 8.65956 3.94101 8.47872 4.12108C8.29788 4.30115 8.19629 4.54538 8.19629 4.80004Z" fill="black"/>
<path d="M41.5894 43.0937L34.7719 36.3147C35.948 34.4177 36.5925 32.2417 36.6382 30.0128C36.684 27.7839 36.1295 25.5835 35.0323 23.6402C34.5792 24.0226 34.1509 24.4331 33.7498 24.8692C33.6975 24.9224 33.6353 24.9648 33.5666 24.994C34.4444 26.7196 34.8295 28.652 34.6799 30.5806C34.5302 32.5092 33.8516 34.3598 32.718 35.9306C32.6041 36.114 32.5554 36.3302 32.5799 36.5444C32.6044 36.7587 32.7006 36.9585 32.853 37.1117L40.2587 44.4859C40.3442 44.5802 40.4101 44.6904 40.4526 44.8101C40.495 44.9299 40.5132 45.0569 40.506 45.1837C40.4988 45.3105 40.4665 45.4347 40.4108 45.5489C40.3551 45.6632 40.2772 45.7653 40.1816 45.8494C40.0022 46.0196 39.764 46.1146 39.5162 46.1146C39.2684 46.1146 39.0302 46.0196 38.8509 45.8494C38.6676 45.6574 31.4837 38.4943 31.4451 38.4655C31.2663 38.2981 31.0301 38.2049 30.7846 38.2049C30.5391 38.2049 30.3029 38.2981 30.1241 38.4655C23.7598 43.0264 14.3194 38.7632 13.5673 30.9856C13.3925 29.3939 13.5815 27.7834 14.12 26.2747C14.6585 24.766 15.5327 23.398 16.6772 22.2732C17.8216 21.1484 19.2067 20.2959 20.7288 19.7793C22.2508 19.2628 23.8705 19.0957 25.4666 19.2905C26.5854 19.4343 27.6732 19.7586 28.6873 20.2507C28.9187 20.3602 29.1844 20.3737 29.4258 20.2881C29.6672 20.2026 29.8646 20.0251 29.9746 19.7946C30.0846 19.5641 30.0981 19.2996 30.0122 19.0592C29.9263 18.8188 29.748 18.6222 29.5166 18.5127C27.1766 17.3994 24.5475 17.036 21.9915 17.4728C19.4354 17.9096 17.0784 19.1251 15.2451 20.9516C4.99479 31.629 17.8776 47.837 30.6737 40.3955L37.4912 47.1937C38.0347 47.7336 38.7712 48.0363 39.5389 48.0354C40.3066 48.0345 41.0424 47.73 41.5846 47.1889C42.1268 46.6477 42.4309 45.9143 42.43 45.1499C42.4291 44.3855 42.1232 43.6527 41.5798 43.1129L41.5894 43.0937Z" fill="black"/>
<path d="M12.0537 4.80004C12.0537 5.05469 12.1553 5.29892 12.3361 5.47899C12.517 5.65906 12.7623 5.76023 13.018 5.76023C13.2737 5.76023 13.519 5.65906 13.6999 5.47899C13.8807 5.29892 13.9823 5.05469 13.9823 4.80004C13.9823 4.54538 13.8807 4.30115 13.6999 4.12108C13.519 3.94101 13.2737 3.83984 13.018 3.83984C12.7623 3.83984 12.517 3.94101 12.3361 4.12108C12.1553 4.30115 12.0537 4.54538 12.0537 4.80004Z" fill="#FB9100"/>
<path d="M4.33887 4.80004C4.33887 5.05469 4.44046 5.29892 4.6213 5.47899C4.80214 5.65906 5.04741 5.76023 5.30315 5.76023C5.5589 5.76023 5.80417 5.65906 5.98501 5.47899C6.16584 5.29892 6.26744 5.05469 6.26744 4.80004C6.26744 4.54538 6.16584 4.30115 5.98501 4.12108C5.80417 3.94101 5.5589 3.83984 5.30315 3.83984C5.04741 3.83984 4.80214 3.94101 4.6213 4.12108C4.44046 4.30115 4.33887 4.54538 4.33887 4.80004Z" fill="#FB9100"/>
<path d="M37.9737 16.2192H40.0372L26.1901 30.0075L22.9983 26.8293C22.8943 26.7245 22.7704 26.6413 22.6338 26.5845C22.4973 26.5277 22.3508 26.4985 22.2028 26.4985C22.0548 26.4985 21.9083 26.5277 21.7717 26.5845C21.6351 26.6413 21.5113 26.7245 21.4072 26.8293L16.8365 31.3806C16.6509 31.5954 16.5536 31.8722 16.5643 32.1554C16.5749 32.4386 16.6927 32.7074 16.8939 32.9078C17.0952 33.1082 17.3651 33.2254 17.6495 33.236C17.9339 33.2466 18.2119 33.1498 18.4276 32.9649L22.1787 29.2106L25.3608 32.3792C25.5773 32.5825 25.8636 32.6956 26.1612 32.6956C26.4587 32.6956 26.745 32.5825 26.9615 32.3792L33.5187 25.9267L37.2119 22.2396L41.6283 17.8419V19.8967C41.6283 20.1947 41.7472 20.4804 41.9587 20.6911C42.1703 20.9018 42.4573 21.0201 42.7565 21.0201C43.0557 21.0201 43.3427 20.9018 43.5543 20.6911C43.7659 20.4804 43.8847 20.1947 43.8847 19.8967V15.0958C43.8835 14.8743 43.817 14.658 43.6936 14.4737C43.5703 14.2894 43.3953 14.1451 43.1904 14.0588C43.3351 13.8379 38.0508 14.0588 37.9737 13.9723C37.6744 13.9723 37.3875 14.0907 37.1759 14.3014C36.9643 14.5121 36.8454 14.7978 36.8454 15.0958C36.8454 15.3937 36.9643 15.6795 37.1759 15.8901C37.3875 16.1008 37.6744 16.2192 37.9737 16.2192Z" fill="#FB9100"/>
<path d="M48.7346 5.76172H32.766C32.2335 5.76172 31.8018 6.19161 31.8018 6.72191C31.8018 7.25221 32.2335 7.6821 32.766 7.6821H48.7346C49.2672 7.6821 49.6989 7.25221 49.6989 6.72191C49.6989 6.19161 49.2672 5.76172 48.7346 5.76172Z" fill="#FB9100"/>
</g>
<defs>
<clipPath id="clip0_1637_2742">
<rect width="54" height="48" fill="white"/>
</clipPath>
</defs>
</svg>
