<svg width="48" height="48" viewBox="0 0 48 48" fill="none" xmlns="http://www.w3.org/2000/svg">
<g clip-path="url(#clip0_1637_1291)">
<path d="M9.46135 45.6902V28.1992H1.80947C1.68833 28.2 1.56851 28.2251 1.45687 28.2731C1.34523 28.3212 1.24395 28.3912 1.15881 28.4793C1.07367 28.5673 1.00634 28.6716 0.960659 28.7862C0.914983 28.9008 0.891854 29.0235 0.892595 29.1473V47.5653C3.78422 47.1228 6.64603 46.4966 9.46135 45.6902Z" fill="#515151"/>
<path d="M3.79041 29.1473C3.78967 29.0235 3.81279 28.9008 3.85847 28.7862C3.90415 28.6716 3.97148 28.5673 4.05662 28.4793C4.14176 28.3912 4.24304 28.3212 4.35468 28.2731C4.46632 28.2251 4.58614 28.2 4.70728 28.1992H1.80947C1.68833 28.2 1.56851 28.2251 1.45687 28.2731C1.34523 28.3212 1.24395 28.3912 1.15881 28.4793C1.07367 28.5673 1.00634 28.6716 0.960659 28.7862C0.914983 28.9008 0.891854 29.0235 0.892595 29.1473V47.5653C1.80947 47.4255 2.77791 47.2579 3.79041 47.0577V29.1473Z" fill="#515151"/>
<path d="M17.9331 42.5997V18.8008H10.2821C10.0376 18.8023 9.80371 18.9029 9.63179 19.0805C9.45987 19.2581 9.364 19.4981 9.36525 19.7479V45.6909C12.2852 44.8558 15.1474 43.8231 17.9331 42.5997Z" fill="#515151"/>
<path d="M12.2631 19.7479C12.2618 19.4981 12.3577 19.2581 12.5296 19.0805C12.7015 18.9029 12.9354 18.8023 13.1799 18.8008H10.2821C10.0376 18.8023 9.80371 18.9029 9.63179 19.0805C9.45987 19.2581 9.364 19.4981 9.36525 19.7479V45.6909C10.3102 45.4196 11.2762 45.1195 12.2631 44.7907V19.7479Z" fill="#FB9100"/>
<path d="M26.4045 38.0247V9.39844H18.7499C18.6287 9.39906 18.5089 9.42406 18.3972 9.47199C18.2855 9.51993 18.1841 9.58987 18.0989 9.67781C18.0137 9.76576 17.9463 9.86999 17.9005 9.98456C17.8547 10.0991 17.8314 10.2218 17.832 10.3455V42.5974C20.7981 41.2957 23.6638 39.7671 26.4045 38.0247Z" fill="#515151"/>
<path d="M20.7336 10.3455C20.7324 10.0958 20.8282 9.85574 21.0001 9.67815C21.1721 9.50056 21.406 9.39996 21.6505 9.39844H18.7499C18.6287 9.39906 18.5089 9.42406 18.3972 9.47199C18.2855 9.51993 18.1841 9.58987 18.0989 9.67781C18.0137 9.76576 17.9463 9.86999 17.9005 9.98456C17.8547 10.0991 17.8314 10.2218 17.832 10.3455V42.5974C18.7908 42.1754 19.7567 41.7215 20.7299 41.2356L20.7336 10.3455Z" fill="#FB9100"/>
<path d="M34.8755 31.4484V0.947091C34.8767 0.697506 34.781 0.45761 34.6093 0.28005C34.4376 0.10249 34.2039 0.00177228 33.9595 0H27.2255C26.981 0.00151964 26.7471 0.102126 26.5752 0.279713C26.4032 0.457301 26.3074 0.697341 26.3086 0.947091V38.0263C29.3464 36.0928 32.2129 33.8918 34.8755 31.4484Z" fill="#FB9100"/>
<path d="M29.2055 0.947091C29.2049 0.823346 29.2281 0.700688 29.2739 0.586121C29.3197 0.471554 29.3871 0.367322 29.4724 0.279376C29.5576 0.19143 29.6589 0.121493 29.7706 0.0735576C29.8823 0.0256221 30.0021 0.00062719 30.1233 0H27.2255C26.981 0.00151964 26.7471 0.102126 26.5752 0.279713C26.4032 0.457301 26.3074 0.697341 26.3086 0.947091V38.0263C27.2761 37.4096 28.2417 36.7552 29.2055 36.0632V0.947091Z" fill="#515151"/>
<path d="M47.6762 21.5391H38.1137C38.0501 21.5388 37.9878 21.5578 37.9347 21.5935C37.8816 21.6293 37.8399 21.6803 37.815 21.7401C37.7901 21.7998 37.783 21.8658 37.7946 21.9297C37.8062 21.9936 37.836 22.0526 37.8803 22.0993L40.4781 24.8448C40.5343 24.9044 40.5666 24.9833 40.5689 25.066C40.5711 25.1487 40.5431 25.2293 40.4903 25.292C27.4196 40.6973 10.6103 45.5601 0.388704 47.0722C0.274653 47.0906 0.171668 47.1524 0.100564 47.2453C0.0294606 47.3383 -0.00445907 47.4553 0.00566091 47.5728C0.0157809 47.6902 0.0691857 47.7994 0.155082 47.8782C0.240978 47.957 0.352959 47.9996 0.468392 47.9973C26.4043 47.0531 42.4871 31.9312 44.515 29.9212C44.5744 29.8622 44.6538 29.8289 44.7367 29.828C44.8195 29.8271 44.8996 29.8587 44.9603 29.9164L47.454 32.2798C47.5001 32.3236 47.5578 32.3528 47.6199 32.3636C47.682 32.3744 47.7459 32.3665 47.8036 32.3407C47.8614 32.315 47.9105 32.2726 47.945 32.2187C47.9795 32.1649 47.9978 32.1019 47.9978 32.0375V21.8694C47.9978 21.7822 47.9639 21.6984 47.9037 21.6365C47.8434 21.5746 47.7617 21.5396 47.6762 21.5391Z" fill="#FB9100"/>
<path d="M4.21839 47.5328C4.21834 47.4212 4.25762 47.3132 4.32904 47.2286C4.40047 47.144 4.49929 47.0885 4.60745 47.0722C14.8262 45.5601 31.6384 40.6992 44.709 25.292C44.7619 25.2293 44.7899 25.1487 44.7876 25.066C44.7854 24.9833 44.753 24.9044 44.6968 24.8448L42.0934 22.0993C42.0492 22.0526 42.0194 21.9938 42.0078 21.93C41.9961 21.8661 42.0032 21.8003 42.028 21.7405C42.0528 21.6807 42.0942 21.6298 42.1472 21.5939C42.2002 21.5581 42.2624 21.539 42.3259 21.5391H38.1071C38.0435 21.5388 37.9812 21.5578 37.9281 21.5935C37.875 21.6293 37.8334 21.6803 37.8085 21.7401C37.7835 21.7998 37.7764 21.8658 37.788 21.9297C37.7996 21.9936 37.8294 22.0526 37.8737 22.0993L40.4715 24.8448C40.5277 24.9044 40.5601 24.9833 40.5623 25.066C40.5646 25.1487 40.5365 25.2293 40.4837 25.292C27.4196 40.6973 10.6103 45.5601 0.388704 47.0722C0.274653 47.0906 0.171668 47.1524 0.100564 47.2453C0.0294606 47.3383 -0.00445907 47.4553 0.00566091 47.5728C0.0157809 47.6902 0.0691857 47.7994 0.155082 47.8782C0.240978 47.957 0.352959 47.9996 0.468392 47.9973C1.76027 47.95 3.02745 47.8686 4.26995 47.7531C4.2352 47.6852 4.21749 47.6095 4.21839 47.5328Z" fill="#F89520"/>
</g>
<defs>
<clipPath id="clip0_1637_1291">
<rect width="48" height="48" fill="white"/>
</clipPath>
</defs>
</svg>
