<svg width="48" height="48" viewBox="0 0 48 48" fill="none" xmlns="http://www.w3.org/2000/svg">
<g clip-path="url(#clip0_1637_4209)">
<path d="M18.8777 18.5234C18.7279 18.4265 18.5533 18.375 18.3749 18.375C18.2515 18.3747 18.1293 18.3988 18.0153 18.4459C17.9012 18.4929 17.7976 18.5621 17.7103 18.6493C17.623 18.7365 17.5538 18.8401 17.5067 18.9541C17.4595 19.0681 17.4354 19.1903 17.4355 19.3137C17.4354 19.4368 17.4595 19.5588 17.5065 19.6727C17.5535 19.7865 17.6225 19.89 17.7096 19.9771C17.7967 20.0642 17.9001 20.1333 18.0139 20.1804C18.1277 20.2275 18.2496 20.2517 18.3728 20.2516C18.6215 20.2514 18.8598 20.1525 19.0356 19.9767C19.2113 19.8008 19.3101 19.5623 19.3101 19.3137C19.3103 19.156 19.2705 19.0008 19.1945 18.8626C19.1186 18.7244 19.0088 18.6077 18.8755 18.5234" fill="#FB9100"/>
<path d="M23.9999 8.0634C23.8765 8.06368 23.7543 8.03959 23.6403 7.99253C23.5262 7.94546 23.4226 7.87634 23.3353 7.78913C23.248 7.70192 23.1788 7.59834 23.1317 7.48433C23.0845 7.37031 23.0604 7.24811 23.0605 7.12473V0.937262C23.0605 0.688685 23.1593 0.45029 23.3351 0.27452C23.5108 0.098749 23.7492 0 23.9978 0C24.2464 0 24.4848 0.098749 24.6606 0.27452C24.8363 0.45029 24.9351 0.688685 24.9351 0.937262V7.12473C24.9354 7.37319 24.8372 7.61162 24.6618 7.78764C24.4864 7.96365 24.2484 8.06284 23.9999 8.0634Z" fill="#FB9100"/>
<path d="M23.9999 48.0009C23.8765 48.0012 23.7543 47.9771 23.6403 47.93C23.5262 47.883 23.4226 47.8138 23.3353 47.7266C23.248 47.6394 23.1788 47.5358 23.1317 47.4218C23.0845 47.3078 23.0604 47.1856 23.0605 47.0622V40.8748C23.0605 40.6262 23.1593 40.3878 23.3351 40.212C23.5108 40.0362 23.7492 39.9375 23.9978 39.9375C24.2464 39.9375 24.4848 40.0362 24.6606 40.212C24.8363 40.3878 24.9351 40.6262 24.9351 40.8748V47.0622C24.9354 47.3107 24.8372 47.5491 24.6618 47.7251C24.4864 47.9012 24.2484 48.0003 23.9999 48.0009Z" fill="black"/>
<path d="M10.1928 13.0051C10.0696 13.0053 9.94755 12.9811 9.83375 12.9339C9.71995 12.8867 9.61662 12.8175 9.52972 12.7302L5.55216 8.75261C5.46504 8.66556 5.39592 8.5622 5.34877 8.44843C5.30161 8.33466 5.27734 8.21272 5.27734 8.08956C5.27734 7.96641 5.30161 7.84446 5.34877 7.73069C5.39592 7.61692 5.46504 7.51356 5.55216 7.42652C5.72802 7.25095 5.96636 7.15234 6.21485 7.15234C6.46335 7.15234 6.70169 7.25095 6.87755 7.42652L10.8558 11.4048C11.0314 11.5806 11.13 11.819 11.13 12.0675C11.13 12.316 11.0314 12.5543 10.8558 12.7302C10.7689 12.8174 10.6655 12.8867 10.5517 12.9338C10.4379 12.981 10.3159 13.0052 10.1928 13.0051Z" fill="black"/>
<path d="M41.7855 41.7866C41.6623 41.7868 41.5403 41.7626 41.4264 41.7154C41.3126 41.6682 41.2093 41.599 41.1224 41.5116L37.1449 37.5341C37.0578 37.4471 36.9887 37.3437 36.9416 37.23C36.8944 37.1163 36.8701 36.9944 36.8701 36.8713C36.8701 36.7482 36.8943 36.6263 36.9414 36.5125C36.9885 36.3988 37.0575 36.2954 37.1445 36.2083C37.2315 36.1213 37.3349 36.0522 37.4486 36.005C37.5623 35.9579 37.6842 35.9336 37.8073 35.9336C37.9304 35.9336 38.0523 35.9578 38.1661 36.0049C38.2798 36.0519 38.3832 36.121 38.4702 36.208L42.4485 40.1863C42.5794 40.3175 42.6684 40.4845 42.7044 40.6663C42.7405 40.8481 42.7218 41.0364 42.6509 41.2076C42.58 41.3788 42.4599 41.5252 42.3059 41.6282C42.1519 41.7312 41.9708 41.7863 41.7855 41.7866Z" fill="#FB9100"/>
<path d="M37.8073 13.0053C37.622 13.0049 37.441 12.9497 37.2871 12.8466C37.1332 12.7435 37.0132 12.5972 36.9424 12.426C36.8715 12.2548 36.853 12.0665 36.889 11.8848C36.9251 11.7031 37.0141 11.5362 37.1449 11.405L41.1225 7.42672C41.2998 7.25789 41.536 7.16505 41.7808 7.16804C42.0256 7.17102 42.2595 7.26959 42.4326 7.44269C42.6057 7.61579 42.7043 7.84971 42.7072 8.0945C42.7102 8.33928 42.6174 8.57553 42.4486 8.7528L38.4703 12.7304C38.3835 12.8178 38.2801 12.8871 38.1663 12.9342C38.0525 12.9814 37.9305 13.0056 37.8073 13.0053Z" fill="black"/>
<path d="M6.21444 41.7864C6.09135 41.7866 5.96944 41.7624 5.85576 41.7152C5.74207 41.668 5.63887 41.5988 5.5521 41.5115C5.465 41.4245 5.3959 41.3212 5.34876 41.2075C5.30161 41.0938 5.27734 40.9719 5.27734 40.8488C5.27734 40.7257 5.30161 40.6038 5.34876 40.4901C5.3959 40.3764 5.465 40.2731 5.5521 40.1861L9.52966 36.2078C9.70564 36.0322 9.94409 35.9336 10.1927 35.9336C10.4413 35.9336 10.6798 36.0322 10.8557 36.2078C11.0314 36.3838 11.13 36.6223 11.13 36.8709C11.13 37.1195 11.0314 37.3579 10.8557 37.5339L6.87748 41.5115C6.79064 41.5989 6.68732 41.6682 6.5735 41.7154C6.45969 41.7625 6.33765 41.7867 6.21444 41.7864Z" fill="#FB9100"/>
<path d="M23.9998 37.1246C21.0305 37.1246 18.0521 36.4553 15.1475 35.1362C12.8427 34.09 10.5772 32.6338 8.42215 30.8092C4.76169 27.7155 2.68397 24.652 2.59678 24.5226C2.49295 24.3679 2.4375 24.1858 2.4375 23.9995C2.4375 23.8132 2.49295 23.631 2.59678 23.4763C2.68397 23.3477 4.76169 20.2856 8.42215 17.1897C10.58 15.3616 12.8427 13.9097 15.1475 12.8627C18.0521 11.5437 21.0305 10.875 23.9998 10.875C26.9691 10.875 29.9475 11.5437 32.8528 12.8627C35.1569 13.9097 37.4231 15.3651 39.5775 17.1897C43.2379 20.2835 45.3163 23.3477 45.4028 23.4763C45.5067 23.631 45.5621 23.8132 45.5621 23.9995C45.5621 24.1858 45.5067 24.3679 45.4028 24.5226C45.3163 24.652 43.2379 27.7134 39.5775 30.8092C37.4196 32.6373 35.1569 34.09 32.8528 35.1362C29.951 36.4553 26.9691 37.1246 23.9998 37.1246ZM4.53177 23.9981C6.04201 25.9854 7.76584 27.801 9.6723 29.4121C12.8321 32.0755 17.8833 35.248 23.9998 35.248C30.1163 35.248 35.1675 32.0727 38.3273 29.4121C40.2336 27.8007 41.9574 25.9852 43.4678 23.9981C41.9574 22.0109 40.2336 20.1954 38.3273 18.584C35.1675 15.9206 30.117 12.7481 23.9998 12.7481C17.8826 12.7481 12.8321 15.9234 9.6723 18.584C7.76604 20.1954 6.04223 22.0109 4.53177 23.9981Z" fill="black"/>
<path d="M24 32.436C21.7629 32.4336 19.6183 31.5439 18.0364 29.9621C16.4546 28.3803 15.5649 26.2356 15.5625 23.9986C15.5625 23.9282 15.5625 23.8579 15.5625 23.7834C15.5625 23.7236 15.566 23.6646 15.5695 23.6048C15.573 23.545 15.5745 23.4993 15.5773 23.4473C15.5773 23.4473 15.5773 23.4424 15.5773 23.4396V23.4002C15.5773 23.3939 15.5773 23.3882 15.5773 23.3833V23.3446C15.5773 23.3095 15.5822 23.2743 15.5864 23.2385V23.2251C15.5864 23.2202 15.5864 23.2153 15.5864 23.2104C15.5913 23.1527 15.5977 23.095 15.604 23.0381V23.0247C15.611 22.9607 15.6187 22.8968 15.6279 22.8328C15.6342 22.7864 15.6405 22.7407 15.649 22.6922C15.6574 22.6436 15.6659 22.5797 15.6771 22.5171L15.6877 22.4566C15.7336 22.2119 15.8747 21.9955 16.0801 21.8548C16.2855 21.7141 16.5384 21.6607 16.7831 21.7064C16.9058 21.7271 17.0231 21.7721 17.1282 21.8388C17.2333 21.9054 17.324 21.9923 17.3951 22.0945C17.4661 22.1967 17.5161 22.312 17.542 22.4337C17.5679 22.5554 17.5693 22.681 17.546 22.8032V22.8089C17.546 22.8222 17.5418 22.8349 17.539 22.8482C17.5319 22.8862 17.5256 22.9242 17.52 22.9636C17.5186 22.9773 17.5165 22.9909 17.5137 23.0043C17.5087 23.0332 17.5052 23.062 17.501 23.0908V23.1049C17.4954 23.145 17.4905 23.1857 17.4855 23.2258C17.4855 23.235 17.4855 23.2441 17.4855 23.2532C17.4806 23.2947 17.4764 23.3369 17.4722 23.3791V23.4058V23.4283C17.4722 23.4487 17.4687 23.4691 17.4673 23.4895L17.4616 23.5654C17.4588 23.6062 17.4567 23.647 17.4553 23.6878C17.455 23.6932 17.455 23.6986 17.4553 23.7039C17.4553 23.7447 17.4518 23.7841 17.4511 23.8249C17.4507 23.8286 17.4507 23.8324 17.4511 23.8361C17.4511 23.891 17.4511 23.9458 17.4511 24.0014C17.4518 24.9751 17.6691 25.9365 18.0872 26.816C18.5053 27.6954 19.1137 28.4709 19.8684 29.0862C20.6231 29.7016 21.5052 30.1413 22.4508 30.3738C23.3965 30.6062 24.3819 30.6254 25.3359 30.43C25.5495 30.3873 25.7607 30.3336 25.9687 30.269C26.1733 30.205 26.3758 30.1284 26.5713 30.0482C26.6655 30.0081 26.7548 29.9674 26.8427 29.9252C27.3878 29.6656 27.894 29.3312 28.3467 28.9317C28.45 28.8424 28.5541 28.7446 28.6602 28.6385C28.7664 28.5323 28.8782 28.412 28.9802 28.2932C29.1157 28.1384 29.2431 27.9767 29.362 27.8088L29.3852 27.7771C29.4428 27.6949 29.4949 27.6168 29.5448 27.5388C29.575 27.4924 29.6017 27.4495 29.6284 27.4052L29.6327 27.3981C29.6819 27.318 29.7325 27.2294 29.7881 27.1274C30.329 26.1277 30.6011 25.0046 30.5777 23.8681C30.5542 22.7316 30.236 21.6206 29.6543 20.644C29.0725 19.6674 28.2472 18.8586 27.2589 18.2968C26.2707 17.735 25.1536 17.4395 24.0168 17.4391C23.9613 17.4391 23.905 17.4391 23.8502 17.4391H23.8396C23.7975 17.4391 23.756 17.4391 23.7145 17.4434H23.6934L23.5921 17.449H23.5619H23.5422C23.5239 17.449 23.5064 17.449 23.4881 17.4532H23.4649H23.4466C23.4206 17.4532 23.3946 17.4532 23.3686 17.4602H23.3517L23.2954 17.4658L23.197 17.4771L23.1225 17.4869L23.0901 17.4919L23.0676 17.4954C23.0388 17.4954 23.0093 17.5024 22.9804 17.508L22.9326 17.5151C22.92 17.5151 22.908 17.52 22.8954 17.5214L22.792 17.5397C22.7519 17.5467 22.7175 17.5537 22.6837 17.5615L22.6605 17.5657C22.6169 17.5741 22.5747 17.584 22.5311 17.5938H22.515C22.4629 17.6058 22.4102 17.6191 22.3568 17.6325C22.3033 17.6458 22.2604 17.6578 22.2161 17.6719L22.1943 17.6775C22.1458 17.6908 22.098 17.7056 22.0537 17.7204L21.9447 17.7555L21.9328 17.7598L21.859 17.7851H21.8519L21.8428 17.7886L21.7591 17.8181L21.7465 17.823L21.6677 17.8519C21.4465 17.9097 21.2118 17.8847 21.0078 17.7816C20.8037 17.6785 20.6444 17.5043 20.5598 17.2919C20.4752 17.0795 20.4712 16.8435 20.5484 16.6283C20.6257 16.4132 20.779 16.2336 20.9793 16.1236L21.0975 16.0793L21.2135 16.0378H21.2198C21.2592 16.023 21.2993 16.0097 21.34 15.9963C21.3808 15.983 21.4413 15.9626 21.4919 15.9471C21.5622 15.926 21.6248 15.9063 21.6909 15.8887C21.757 15.8712 21.8217 15.8515 21.8892 15.8346C21.9567 15.8177 22.0298 15.7995 22.1001 15.784L22.1177 15.7798C22.1754 15.7664 22.233 15.7537 22.2914 15.7425C22.3497 15.7312 22.4032 15.7193 22.4601 15.7087L22.5804 15.6877C22.612 15.682 22.6443 15.6764 22.6767 15.6722L22.8054 15.6532L22.8511 15.6469L22.9657 15.6314C23.0191 15.6244 23.0662 15.6195 23.1126 15.6145L23.1583 15.6103C23.2075 15.6047 23.2575 15.5998 23.306 15.5962L23.3763 15.5913C23.41 15.5913 23.4466 15.5857 23.4796 15.5843C23.5127 15.5829 23.5633 15.5794 23.6048 15.578C23.6653 15.5745 23.7257 15.5723 23.7869 15.5709C23.8481 15.5695 23.9275 15.5709 24.0035 15.5709C25.4656 15.5708 26.9027 15.9505 28.1738 16.673C29.445 17.3955 30.5065 18.4359 31.2545 19.6922C32.0024 20.9486 32.4111 22.3777 32.4403 23.8395C32.4696 25.3014 32.1185 26.7457 31.4214 28.031C31.3511 28.1596 31.2864 28.2728 31.2217 28.3783C31.1852 28.4395 31.1479 28.4985 31.1092 28.559C31.0459 28.6574 30.9784 28.7594 30.9032 28.8656L30.8821 28.8958C30.7272 29.1151 30.561 29.3264 30.3843 29.5286C30.2563 29.6777 30.1171 29.8274 29.9737 29.9709C29.8302 30.1143 29.7016 30.2345 29.5694 30.3491C28.9886 30.8609 28.3395 31.2895 27.6407 31.6225C27.531 31.6752 27.4122 31.7294 27.2892 31.7807C27.0367 31.8876 26.7759 31.9832 26.5157 32.062C26.249 32.1458 25.9782 32.2162 25.7043 32.2729C25.1432 32.3848 24.5721 32.4395 24 32.436Z" fill="black"/>
<path d="M23.9997 27.7495C23.2582 27.7495 22.5333 27.5296 21.9166 27.1176C21.3 26.7057 20.8194 26.1201 20.5356 25.435C20.2517 24.7499 20.1774 23.9961 20.3219 23.2687C20.4665 22.5414 20.8235 21.8732 21.3478 21.3488C21.8721 20.8243 22.5401 20.4671 23.2673 20.3222C23.9946 20.1774 24.7485 20.2514 25.4337 20.535C26.1189 20.8186 26.7047 21.299 27.1169 21.9155C27.5291 22.5319 27.7492 23.2568 27.7495 23.9983C27.7488 24.9927 27.3535 25.9462 26.6505 26.6495C25.9475 27.3528 24.9941 27.7484 23.9997 27.7495ZM23.9997 22.1245C23.6287 22.1241 23.2659 22.2338 22.9572 22.4396C22.6485 22.6455 22.4078 22.9383 22.2656 23.281C22.1234 23.6237 22.0861 24.0009 22.1583 24.3648C22.2305 24.7287 22.4091 25.0631 22.6714 25.3255C22.9337 25.5879 23.268 25.7666 23.6319 25.839C23.9958 25.9113 24.373 25.8741 24.7157 25.732C25.0585 25.5899 25.3514 25.3494 25.5574 25.0408C25.7633 24.7322 25.8731 24.3694 25.8729 23.9983C25.8718 23.5018 25.6741 23.026 25.3231 22.6748C24.972 22.3237 24.4963 22.1258 23.9997 22.1245Z" fill="#FB9100"/>
</g>
<defs>
<clipPath id="clip0_1637_4209">
<rect width="48" height="48" fill="white"/>
</clipPath>
</defs>
</svg>
