<svg width="66" height="66" viewBox="0 0 66 66" fill="none" xmlns="http://www.w3.org/2000/svg">
<rect width="66" height="66" rx="15" fill="#FB9100" fill-opacity="0.07"/>
<g clip-path="url(#clip0_1647_8)">
<path d="M32.9999 16.8984C29.8156 16.8984 26.7029 17.8427 24.0552 19.6118C21.4076 21.3809 19.344 23.8953 18.1254 26.8372C16.9069 29.7791 16.588 33.0163 17.2093 36.1394C17.8305 39.2625 19.3639 42.1312 21.6155 44.3829C23.8671 46.6345 26.7359 48.1679 29.859 48.7891C32.982 49.4103 36.2192 49.0915 39.1611 47.8729C42.103 46.6543 44.6175 44.5907 46.3866 41.9431C48.1557 39.2955 49.0999 36.1827 49.0999 32.9984C49.0999 28.7285 47.4037 24.6334 44.3843 21.614C41.365 18.5947 37.2699 16.8984 32.9999 16.8984ZM32.9999 47.6984C30.0925 47.6984 27.2504 46.8363 24.833 45.221C22.4156 43.6058 20.5315 41.31 19.4189 38.6239C18.3063 35.9378 18.0152 32.9821 18.5824 30.1306C19.1496 27.2791 20.5496 24.6598 22.6054 22.604C24.6613 20.5481 27.2806 19.1481 30.1321 18.5809C32.9836 18.0137 35.9393 18.3048 38.6254 19.4174C41.3114 20.53 43.6073 22.4142 45.2225 24.8316C46.8378 27.249 47.6999 30.0911 47.6999 32.9984C47.6999 36.8971 46.1512 40.6361 43.3944 43.3929C40.6376 46.1497 36.8986 47.6984 32.9999 47.6984Z" fill="black"/>
<path d="M33.0001 14.1016C29.262 14.1016 25.6079 15.21 22.4998 17.2868C19.3917 19.3635 16.9693 22.3153 15.5388 25.7688C14.1083 29.2224 13.734 33.0225 14.4633 36.6888C15.1925 40.355 16.9926 43.7227 19.6358 46.3659C22.279 49.0091 25.6467 50.8091 29.3129 51.5384C32.9791 52.2677 36.7793 51.8934 40.2328 50.4629C43.6863 49.0324 46.6381 46.6099 48.7149 43.5018C50.7916 40.3938 51.9001 36.7396 51.9001 33.0016C51.9001 27.989 49.9089 23.1817 46.3644 19.6372C42.82 16.0928 38.0127 14.1016 33.0001 14.1016ZM33.0001 50.5016C29.5389 50.5016 26.1555 49.4752 23.2776 47.5523C20.3998 45.6294 18.1567 42.8962 16.8322 39.6985C15.5077 36.5008 15.1611 32.9821 15.8364 29.5875C16.5116 26.1928 18.1783 23.0746 20.6257 20.6272C23.0732 18.1798 26.1914 16.5131 29.586 15.8378C32.9807 15.1626 36.4994 15.5091 39.6971 16.8337C42.8948 18.1582 45.6279 20.4012 47.5508 23.2791C49.4737 26.1569 50.5001 29.5404 50.5001 33.0016C50.5001 35.2997 50.0475 37.5753 49.168 39.6985C48.2885 41.8217 46.9995 43.7509 45.3745 45.3759C43.7494 47.001 41.8203 48.29 39.6971 49.1695C37.5739 50.0489 35.2982 50.5016 33.0001 50.5016Z" fill="black"/>
<path d="M32.2998 12H33.6998V24.6H32.2998V12Z" fill="#FB9100"/>
<path d="M12 32.3008H24.6V33.7008H12V32.3008Z" fill="black"/>
<path d="M32.2998 41.3984H33.6998V53.9984H32.2998V41.3984Z" fill="#FB9100"/>
<path d="M41.3999 32.3008H53.9999V33.7008H41.3999V32.3008Z" fill="black"/>
<path d="M41.4 40.4209L37.41 36.4309L37.9 35.9409C38.099 35.7513 38.2575 35.5233 38.3658 35.2706C38.4741 35.0179 38.53 34.7459 38.53 34.4709C38.53 34.196 38.4741 33.924 38.3658 33.6713C38.2575 33.4186 38.099 33.1905 37.9 33.0009L33 28.0309C32.8104 27.8319 32.5823 27.6734 32.3296 27.5651C32.0769 27.4568 31.8049 27.4009 31.53 27.4009C31.255 27.4009 30.983 27.4568 30.7303 27.5651C30.4776 27.6734 30.2496 27.8319 30.06 28.0309L29.57 28.5209L25.58 24.6009C25.4452 24.4998 25.2784 24.4508 25.1103 24.4627C24.9423 24.4746 24.7841 24.5468 24.665 24.666C24.5458 24.7851 24.4737 24.9432 24.4617 25.1113C24.4498 25.2794 24.4989 25.4461 24.6 25.5809L28.59 29.5709L28.1 30.0609C27.9009 30.2505 27.7424 30.4786 27.6341 30.7313C27.5258 30.984 27.47 31.256 27.47 31.5309C27.47 31.8059 27.5258 32.0779 27.6341 32.3306C27.7424 32.5833 27.9009 32.8113 28.1 33.0009L33.07 37.9709C33.2596 38.17 33.4876 38.3285 33.7403 38.4368C33.993 38.5451 34.265 38.6009 34.54 38.6009C34.8149 38.6009 35.0869 38.5451 35.3396 38.4368C35.5923 38.3285 35.8204 38.17 36.01 37.9709L36.5 37.4809L40.49 41.4709C40.6208 41.5992 40.7967 41.671 40.98 41.671C41.1632 41.671 41.3391 41.5992 41.47 41.4709C41.5796 41.3141 41.6325 41.1246 41.6198 40.9336C41.607 40.7427 41.5295 40.5618 41.4 40.4209ZM34.96 36.9909C34.8291 37.1192 34.6532 37.191 34.47 37.191C34.2867 37.191 34.1108 37.1192 33.98 36.9909L29.01 32.0209C28.8817 31.8901 28.8099 31.7142 28.8099 31.5309C28.8099 31.3477 28.8817 31.1718 29.01 31.0409L29.5 30.5509L30.48 31.5309C30.5401 31.6112 30.6168 31.6775 30.7049 31.7255C30.793 31.7735 30.8903 31.8021 30.9903 31.8092C31.0904 31.8163 31.1908 31.8018 31.2847 31.7667C31.3787 31.7317 31.464 31.6768 31.5349 31.6059C31.6059 31.535 31.6607 31.4497 31.6958 31.3557C31.7308 31.2618 31.7453 31.1614 31.7382 31.0613C31.7311 30.9613 31.7026 30.8639 31.6546 30.7759C31.6066 30.6878 31.5402 30.6111 31.46 30.5509L30.48 29.5709L30.97 29.0809C31.1008 28.9527 31.2767 28.8808 31.46 28.8808C31.6432 28.8808 31.8191 28.9527 31.95 29.0809L36.92 34.0509C37.0482 34.1818 37.1201 34.3577 37.1201 34.5409C37.1201 34.7242 37.0482 34.9001 36.92 35.0309L36.43 35.5209L35.45 34.5409C35.3152 34.4398 35.1484 34.3908 34.9803 34.4027C34.8123 34.4146 34.6541 34.4868 34.535 34.606C34.4158 34.7251 34.3437 34.8832 34.3317 35.0513C34.3198 35.2194 34.3689 35.3861 34.47 35.5209L35.45 36.5009L34.96 36.9909Z" fill="#FB9100"/>
</g>
<defs>
<clipPath id="clip0_1647_8">
<rect width="42" height="42" fill="white" transform="translate(12 12)"/>
</clipPath>
</defs>
</svg>
