<svg width="66" height="66" viewBox="0 0 66 66" fill="none" xmlns="http://www.w3.org/2000/svg">
<rect width="66" height="66" rx="15" fill="#FB9100" fill-opacity="0.07"/>
<g clip-path="url(#clip0_1647_9)">
<path fill-rule="evenodd" clip-rule="evenodd" d="M20.1033 35.6738C20.1033 35.4713 20.0233 35.277 19.8811 35.1338C19.7388 34.9906 19.5458 34.9102 19.3446 34.9102H11.7586C11.5574 34.9102 11.3645 34.9906 11.2222 35.1338C11.0799 35.277 11 35.4713 11 35.6738V46.3647C11 46.5672 11.0799 46.7615 11.2222 46.9047C11.3645 47.0479 11.5574 47.1283 11.7586 47.1283H19.3446C19.5458 47.1283 19.7388 47.0479 19.8811 46.9047C20.0233 46.7615 20.1033 46.5672 20.1033 46.3647V35.6738ZM12.5172 36.4374V45.6011H18.586V36.4374H12.5172Z" fill="black"/>
<path fill-rule="evenodd" clip-rule="evenodd" d="M32.2409 28.0371C32.2409 27.8345 32.161 27.6403 32.0188 27.4971C31.8765 27.3539 31.6835 27.2734 31.4823 27.2734H23.8963C23.6951 27.2734 23.5022 27.3539 23.3599 27.4971C23.2176 27.6403 23.1377 27.8345 23.1377 28.0371V46.3643C23.1377 46.5669 23.2176 46.7611 23.3599 46.9043C23.5022 47.0475 23.6951 47.128 23.8963 47.128H31.4823C31.6835 47.128 31.8765 47.0475 32.0188 46.9043C32.161 46.7611 32.2409 46.5669 32.2409 46.3643V28.0371ZM24.6549 28.8007V45.6007H30.7237V28.8007H24.6549Z" fill="black"/>
<path fill-rule="evenodd" clip-rule="evenodd" d="M11.7586 50.1835H43.62C43.8212 50.1835 44.0141 50.1031 44.1564 49.9599C44.2987 49.8166 44.3786 49.6224 44.3786 49.4199C44.3786 49.2174 44.2987 49.0231 44.1564 48.8799C44.0141 48.7367 43.8212 48.6562 43.62 48.6562H11.7586C11.5574 48.6562 11.3645 48.7367 11.2222 48.8799C11.0799 49.0231 11 49.2174 11 49.4199C11 49.6224 11.0799 49.8166 11.2222 49.9599C11.3645 50.1031 11.5574 50.1835 11.7586 50.1835Z" fill="#FB9100"/>
<path fill-rule="evenodd" clip-rule="evenodd" d="M35.2754 21.9264H31.4824C31.3326 21.9262 31.1861 21.8813 31.0616 21.7973C30.9371 21.7134 30.8401 21.5942 30.7828 21.4549C30.7255 21.3155 30.7104 21.1621 30.7396 21.0142C30.7688 20.8662 30.8408 20.7303 30.9466 20.6235L39.2913 12.2235C39.4335 12.0804 39.6264 12 39.8275 12C40.0286 12 40.2215 12.0804 40.3638 12.2235L48.7084 20.6235C48.8143 20.7303 48.8864 20.8664 48.9155 21.0144C48.9446 21.1625 48.9295 21.3159 48.8721 21.4553C48.8147 21.5947 48.7175 21.7139 48.5928 21.7977C48.4682 21.8816 48.3216 21.9264 48.1717 21.9264H44.3787V32.6173C44.3787 32.8199 44.2988 33.0141 44.1565 33.1573C44.0142 33.3005 43.8213 33.381 43.6201 33.381C43.4189 33.381 43.2259 33.3005 43.0837 33.1573C42.9414 33.0141 42.8615 32.8199 42.8615 32.6173V21.1628C42.8615 20.9603 42.9414 20.766 43.0837 20.6228C43.2259 20.4796 43.4189 20.3992 43.6201 20.3992H46.3406L39.8271 13.8424L33.3144 20.3992H36.034C36.2352 20.3992 36.4282 20.4796 36.5704 20.6228C36.7127 20.766 36.7926 20.9603 36.7926 21.1628V34.9083C36.7926 35.1108 36.7127 35.305 36.5704 35.4482C36.4282 35.5914 36.2352 35.6719 36.034 35.6719C35.8328 35.6719 35.6399 35.5914 35.4976 35.4482C35.3554 35.305 35.2754 35.1108 35.2754 34.9083V21.9264Z" fill="#FB9100"/>
<path fill-rule="evenodd" clip-rule="evenodd" d="M45.824 45.845C44.6045 46.7979 43.0701 47.2472 41.5331 47.1014C39.9961 46.9556 38.5721 46.2256 37.551 45.0601C36.5298 43.8946 35.9883 42.3812 36.0367 40.8279C36.085 39.2747 36.7196 37.7983 37.8112 36.6995C38.9028 35.6006 40.3694 34.9618 41.9125 34.9132C43.4555 34.8645 44.959 35.4096 46.1168 36.4375C47.2746 37.4654 47.9997 38.8989 48.1446 40.4461C48.2894 41.9932 47.8431 43.5378 46.8964 44.7654L48.5512 46.4311L49.1523 45.8259C49.2228 45.7549 49.3065 45.6986 49.3986 45.6601C49.4906 45.6217 49.5894 45.6019 49.6891 45.6019C49.7887 45.6019 49.8875 45.6217 49.9796 45.6601C50.0717 45.6986 50.1553 45.7549 50.2258 45.8259L54.7774 50.4077C54.9196 50.5509 54.9994 50.745 54.9994 50.9475C54.9994 51.1499 54.9196 51.3441 54.7774 51.4873L52.5016 53.7782C52.4311 53.8492 52.3475 53.9055 52.2554 53.9439C52.1633 53.9824 52.0646 54.0022 51.9649 54.0022C51.8652 54.0022 51.7665 53.9824 51.6744 53.9439C51.5823 53.9055 51.4986 53.8492 51.4282 53.7782L46.8765 49.1964C46.7344 49.0532 46.6545 48.859 46.6545 48.6566C46.6545 48.4541 46.7344 48.26 46.8765 48.1168L47.4787 47.5106L45.824 45.845ZM48.4857 48.6561L51.9649 52.1583L53.1682 50.947L49.6891 47.4448L48.4857 48.6561ZM42.103 36.4379C43.0032 36.4379 43.8832 36.7066 44.6318 37.2101C45.3803 37.7136 45.9637 38.4291 46.3082 39.2664C46.6527 40.1036 46.7428 41.0248 46.5672 41.9136C46.3916 42.8024 45.9581 43.6188 45.3215 44.2596C44.6849 44.9004 43.8739 45.3367 42.991 45.5135C42.1081 45.6903 41.1929 45.5996 40.3612 45.2528C39.5295 44.906 38.8186 44.3187 38.3185 43.5653C37.8183 42.8118 37.5514 41.9259 37.5514 41.0197C37.5514 39.8046 38.0309 38.6392 38.8845 37.7799C39.7381 36.9206 40.8958 36.4379 42.103 36.4379Z" fill="black"/>
<path fill-rule="evenodd" clip-rule="evenodd" d="M46.6546 31.0898C46.8046 31.0898 46.9513 31.045 47.0761 30.9611C47.2008 30.8772 47.298 30.7579 47.3555 30.6184C47.4129 30.4788 47.4279 30.3253 47.3986 30.1772C47.3694 30.029 47.2971 29.893 47.191 29.7862C47.0849 29.6794 46.9498 29.6066 46.8026 29.5772C46.6554 29.5477 46.5029 29.5628 46.3643 29.6206C46.2257 29.6784 46.1072 29.7763 46.0238 29.9019C45.9405 30.0275 45.896 30.1751 45.896 30.3261C45.896 30.5287 45.9759 30.7229 46.1182 30.8661C46.2605 31.0093 46.4534 31.0898 46.6546 31.0898Z" fill="#FB9100"/>
<path fill-rule="evenodd" clip-rule="evenodd" d="M45.896 24.2168V27.2713C45.896 27.4738 45.9759 27.6681 46.1182 27.8113C46.2605 27.9545 46.4534 28.0349 46.6546 28.0349C46.8558 28.0349 47.0487 27.9545 47.191 27.8113C47.3333 27.6681 47.4132 27.4738 47.4132 27.2713V24.2168C47.4132 24.0142 47.3333 23.82 47.191 23.6768C47.0487 23.5336 46.8558 23.4531 46.6546 23.4531C46.4534 23.4531 46.2605 23.5336 46.1182 23.6768C45.9759 23.82 45.896 24.0142 45.896 24.2168Z" fill="black"/>
</g>
<defs>
<clipPath id="clip0_1647_9">
<rect width="44" height="42" fill="white" transform="translate(11 12)"/>
</clipPath>
</defs>
</svg>
