<svg width="38" height="38" viewBox="0 0 38 38" fill="none" xmlns="http://www.w3.org/2000/svg">
<g clip-path="url(#clip0_1637_3703)">
<path d="M27.5275 0H10.4725C7.69504 0 5.03131 1.10333 3.06734 3.06731C1.10336 5.03128 0 7.69502 0 10.4725V27.5275C0.0078611 30.2998 1.11468 32.9559 3.07781 34.9135C5.04094 36.871 7.70017 37.9703 10.4725 37.9703H27.5275C30.2964 37.9651 32.9506 36.8635 34.9094 34.9065C36.8683 32.9495 37.9724 30.2964 37.9802 27.5275V10.4725C37.9802 7.69845 36.8796 5.03772 34.9199 3.07431C32.9602 1.1109 30.3015 0.00524397 27.5275 0ZM34.9315 27.478C34.9315 29.4548 34.1462 31.3506 32.7484 32.7484C31.3506 34.1462 29.4548 34.9315 27.478 34.9315H10.522C8.54522 34.9315 6.64939 34.1462 5.25159 32.7484C3.85379 31.3506 3.06851 29.4548 3.06851 27.478V10.522C3.06851 8.54519 3.85379 6.64939 5.25159 5.25158C6.64939 3.85378 8.54522 3.06848 10.522 3.06848H27.478C29.4548 3.06848 31.3506 3.85378 32.7484 5.25158C34.1462 6.64939 34.9315 8.54519 34.9315 10.522V27.478Z" fill="url(#paint0_linear_1637_3703)"/>
<path d="M18.9957 8.98828C16.3407 8.9909 13.7953 10.0475 11.9189 11.9258C10.0424 13.8041 8.9884 16.3505 8.9884 19.0055C8.98188 20.3238 9.23592 21.6304 9.73591 22.8503C10.2359 24.0701 10.972 25.1792 11.9019 26.1137C12.8318 27.0482 13.9372 27.7898 15.1546 28.2958C16.372 28.8018 17.6773 29.0623 18.9957 29.0623C21.6507 29.0623 24.1971 28.0082 26.0754 26.1318C27.9537 24.2553 29.0103 21.71 29.0129 19.055C29.0194 17.7353 28.7651 16.4274 28.2646 15.2064C27.7641 13.9853 27.0273 12.8751 26.0965 11.9397C25.1656 11.0043 24.0592 10.262 22.8406 9.75549C21.622 9.24899 20.3153 8.98827 18.9957 8.98828ZM18.9957 25.5285C17.2657 25.5285 15.6065 24.8413 14.3832 23.618C13.1599 22.3947 12.4726 20.7355 12.4726 19.0055C12.4713 18.148 12.6391 17.2987 12.9663 16.5062C13.2936 15.7136 13.7738 14.9934 14.3797 14.3866C14.9856 13.7798 15.7051 13.2984 16.4971 12.97C17.2892 12.6416 18.1382 12.4725 18.9957 12.4725C19.854 12.4712 20.7041 12.6393 21.4973 12.9672C22.2905 13.295 23.0112 13.7762 23.6181 14.3831C24.225 14.99 24.7062 15.7107 25.034 16.5039C25.3619 17.2971 25.53 18.1472 25.5286 19.0055C25.5286 19.8629 25.3596 20.712 25.0312 21.504C24.7027 22.2961 24.2214 23.0156 23.6146 23.6215C23.0078 24.2273 22.2876 24.7076 21.495 25.0348C20.7024 25.3621 19.8532 25.5298 18.9957 25.5285Z" fill="url(#paint1_linear_1637_3703)"/>
<path d="M29.3485 10.8982C30.5895 10.8982 31.5954 9.89219 31.5954 8.65124C31.5954 7.41029 30.5895 6.4043 29.3485 6.4043C28.1076 6.4043 27.1016 7.41029 27.1016 8.65124C27.1016 9.89219 28.1076 10.8982 29.3485 10.8982Z" fill="url(#paint2_linear_1637_3703)"/>
</g>
<defs>
<linearGradient id="paint0_linear_1637_3703" x1="0.831467" y1="4.11774" x2="36.0995" y2="33.0112" gradientUnits="userSpaceOnUse">
<stop stop-color="#F8EC41"/>
<stop offset="0.03" stop-color="#FAD440"/>
<stop offset="0.09" stop-color="#FCB13F"/>
<stop offset="0.15" stop-color="#FE973E"/>
<stop offset="0.2" stop-color="#FF873D"/>
<stop offset="0.24" stop-color="#FF823D"/>
<stop offset="0.35" stop-color="#F8704E"/>
<stop offset="0.55" stop-color="#E74279"/>
<stop offset="0.56" stop-color="#E6407B"/>
<stop offset="0.87" stop-color="#462FD7"/>
<stop offset="1" stop-color="#0028FF"/>
</linearGradient>
<linearGradient id="paint1_linear_1637_3703" x1="0.832113" y1="4.11826" x2="36.1002" y2="33.0117" gradientUnits="userSpaceOnUse">
<stop stop-color="#F8EC41"/>
<stop offset="0.03" stop-color="#FAD440"/>
<stop offset="0.09" stop-color="#FCB13F"/>
<stop offset="0.15" stop-color="#FE973E"/>
<stop offset="0.2" stop-color="#FF873D"/>
<stop offset="0.24" stop-color="#FF823D"/>
<stop offset="0.35" stop-color="#F8704E"/>
<stop offset="0.55" stop-color="#E74279"/>
<stop offset="0.56" stop-color="#E6407B"/>
<stop offset="0.87" stop-color="#462FD7"/>
<stop offset="1" stop-color="#0028FF"/>
</linearGradient>
<linearGradient id="paint2_linear_1637_3703" x1="10.0664" y1="-7.15653" x2="45.3344" y2="21.7468" gradientUnits="userSpaceOnUse">
<stop stop-color="#F8EC41"/>
<stop offset="0.03" stop-color="#FAD440"/>
<stop offset="0.09" stop-color="#FCB13F"/>
<stop offset="0.15" stop-color="#FE973E"/>
<stop offset="0.2" stop-color="#FF873D"/>
<stop offset="0.24" stop-color="#FF823D"/>
<stop offset="0.35" stop-color="#F8704E"/>
<stop offset="0.55" stop-color="#E74279"/>
<stop offset="0.56" stop-color="#E6407B"/>
<stop offset="0.87" stop-color="#462FD7"/>
<stop offset="1" stop-color="#0028FF"/>
</linearGradient>
<clipPath id="clip0_1637_3703">
<rect width="38" height="38" fill="white"/>
</clipPath>
</defs>
</svg>
