<svg width="38" height="38" viewBox="0 0 38 38" fill="none" xmlns="http://www.w3.org/2000/svg">
<g clip-path="url(#clip0_1637_3693)">
<path d="M28.4466 0H9.55344C4.27722 0 0 4.27722 0 9.55344V28.4466C0 33.7228 4.27722 38 9.55344 38H28.4466C33.7228 38 38 33.7228 38 28.4466V9.55344C38 4.27722 33.7228 0 28.4466 0Z" fill="#3E6DC1"/>
<path d="M29.7356 21.5536V29.593H25.0747V22.088C25.0747 20.2058 24.4037 18.9233 22.6997 18.9233C22.1763 18.9275 21.6671 19.0935 21.2419 19.3986C20.8167 19.7037 20.4963 20.1329 20.3247 20.6274C20.2038 20.9927 20.1515 21.3771 20.1703 21.7614V29.593H15.5034C15.5034 29.593 15.5688 16.8867 15.5034 15.5686H20.1703V17.5577L20.1347 17.6052H20.1703V17.5577C20.5917 16.825 21.2057 16.2218 21.9458 15.8135C22.6858 15.4053 23.5236 15.2077 24.3681 15.2421C27.4378 15.2421 29.7119 17.243 29.7119 21.5536H29.7356ZM8.26562 29.593H12.9266V15.5686H8.26562V29.593ZM13.0691 10.8127C13.0691 11.4426 12.8188 12.0466 12.3734 12.492C11.928 12.9374 11.3239 13.1877 10.6941 13.1877C10.3797 13.1916 10.0676 13.1331 9.77607 13.0155C9.48448 12.8979 9.21915 12.7236 8.99545 12.5026C8.77176 12.2817 8.59417 12.0186 8.47296 11.7285C8.35175 11.4384 8.28935 11.1271 8.28937 10.8127C8.28935 10.4983 8.35175 10.187 8.47296 9.89689C8.59417 9.60679 8.77176 9.34365 8.99545 9.12272C9.21915 8.90179 9.48448 8.72747 9.77607 8.60988C10.0676 8.49228 10.3797 8.43376 10.6941 8.43769C11.3239 8.43769 11.928 8.68791 12.3734 9.13331C12.8188 9.5787 13.0691 10.1828 13.0691 10.8127Z" fill="white"/>
</g>
<defs>
<clipPath id="clip0_1637_3693">
<rect width="38" height="38" fill="white"/>
</clipPath>
</defs>
</svg>
