<svg width="38" height="38" viewBox="0 0 38 38" fill="none" xmlns="http://www.w3.org/2000/svg">
<g clip-path="url(#clip0_1637_3734)">
<path d="M19 38C29.4934 38 38 29.4934 38 19C38 8.50659 29.4934 0 19 0C8.50659 0 0 8.50659 0 19C0 29.4934 8.50659 38 19 38Z" fill="#FEFB00"/>
<path d="M10.9968 14.5591C10.9968 14.4915 10.9968 14.4381 10.9968 14.3846C10.9968 14.0468 10.9968 13.709 10.9968 13.3712C11.0173 12.6346 11.1116 11.9019 11.2783 11.1841C11.5079 10.2424 11.9359 9.36044 12.5337 8.59731C13.5804 7.25841 15.0399 6.30256 16.6855 5.87819C17.5714 5.64686 18.4874 5.55194 19.4018 5.59671C20.3746 5.62113 21.3361 5.81153 22.2448 6.15968C23.7584 6.74144 25.0471 7.79055 25.9238 9.15464C26.4066 9.91887 26.7328 10.7713 26.8836 11.6626C27.0102 12.4122 27.0723 13.1712 27.0694 13.9314V14.5253C27.1088 14.5675 27.1426 14.5394 27.1764 14.5253C27.4599 14.4625 27.7503 14.436 28.0405 14.4465C28.4219 14.4599 28.7949 14.5621 29.1298 14.7449C29.4157 14.8975 29.6647 15.1109 29.8592 15.3701C30.0537 15.6293 30.1891 15.928 30.2558 16.2452C30.3446 16.6103 30.346 16.9913 30.2599 17.3572C30.1738 17.723 30.0027 18.0634 29.7604 18.3506C29.5181 18.6477 29.2336 18.9075 28.9159 19.1219C28.6344 19.302 28.3811 19.4737 28.1109 19.6483L27.7843 19.865C27.7506 19.8875 27.714 19.91 27.683 19.9354C27.6074 19.9792 27.5507 20.0494 27.5237 20.1326C27.4966 20.2157 27.5013 20.3058 27.5366 20.3858C27.5607 20.4531 27.5889 20.5189 27.6211 20.5828C27.9756 21.286 28.4522 21.9207 29.0285 22.4575C29.65 23.0456 30.3536 23.5405 31.1171 23.9268C31.3226 24.0337 31.5309 24.1379 31.7307 24.2505C31.9082 24.3484 32.0712 24.4706 32.2149 24.6136C32.506 24.9002 32.6779 25.2864 32.6962 25.6945C32.7115 26.0465 32.6128 26.394 32.4147 26.6853C32.2035 27.0107 31.9204 27.2832 31.5872 27.4819C31.317 27.6459 31.0347 27.7889 30.7427 27.9098C30.4413 28.0348 30.133 28.1429 29.8195 28.2334C29.7125 28.2644 29.6055 28.301 29.5014 28.3404C29.4429 28.3627 29.3895 28.3966 29.3445 28.4402C29.2995 28.4837 29.2638 28.536 29.2396 28.5938C29.2086 28.6641 29.1777 28.7345 29.1495 28.8077C29.0351 29.1315 28.838 29.4198 28.5778 29.6439C28.3176 29.8681 28.0033 30.0203 27.6661 30.0856C27.3992 30.142 27.128 30.1759 26.8555 30.1869C26.5543 30.1869 26.2503 30.2095 25.9491 30.2292C25.4713 30.2568 24.9986 30.3428 24.5417 30.4853C24.3453 30.55 24.1565 30.6359 23.9787 30.7415C23.7366 30.8822 23.4974 31.0229 23.2609 31.1693C22.8489 31.4283 22.4179 31.656 21.9718 31.8505C21.3497 32.1162 20.6928 32.2915 20.0211 32.3712C19.4314 32.4414 18.8358 32.4471 18.2449 32.3881C17.3446 32.301 16.4694 32.042 15.6666 31.6253C15.3344 31.4536 15.0135 31.2622 14.6955 31.0623L14.2845 30.8118C13.8819 30.5703 13.4382 30.4052 12.9756 30.3249C12.5109 30.2414 12.0403 30.1952 11.5682 30.1869C11.2535 30.1838 10.9394 30.1593 10.6281 30.1138C10.3927 30.0774 10.1641 30.0062 9.94969 29.9026C9.51783 29.6937 9.1781 29.3329 8.99546 28.8893C8.95887 28.802 8.92509 28.7148 8.89132 28.6247C8.86536 28.5518 8.82289 28.486 8.76722 28.4322C8.71155 28.3785 8.64418 28.3384 8.57042 28.3151L8.28894 28.2222C7.73979 28.0693 7.20997 27.8539 6.70983 27.5804C6.37931 27.4047 6.08664 27.1656 5.8485 26.8767C5.67517 26.6712 5.54927 26.4299 5.47976 26.1702C5.40854 25.9083 5.40528 25.6326 5.4703 25.3691C5.53531 25.1056 5.66645 24.863 5.85132 24.6643C5.97979 24.5239 6.12765 24.4026 6.29043 24.304C6.46299 24.2014 6.64054 24.1074 6.82243 24.0225C7.47367 23.7051 8.08578 23.3131 8.64643 22.8543C9.30895 22.3206 9.86801 21.67 10.2959 20.9346C10.3719 20.8023 10.4366 20.6532 10.5098 20.5265C10.5499 20.4472 10.5757 20.3614 10.5858 20.2732C10.5943 20.229 10.5921 20.1835 10.5793 20.1404C10.5666 20.0973 10.5437 20.0579 10.5127 20.0255C10.4505 19.9615 10.3805 19.9057 10.3044 19.8594L9.23191 19.1557C9.00311 19.0067 8.78913 18.8361 8.59295 18.6462C8.29477 18.3638 8.06307 18.0186 7.91458 17.6357C7.75446 17.2083 7.72053 16.7439 7.81684 16.2977C7.91316 15.8516 8.13565 15.4425 8.45784 15.1192C8.8061 14.7814 9.25066 14.5601 9.73013 14.4859C10.104 14.4229 10.4866 14.4343 10.8561 14.5197L10.9968 14.5591Z" fill="black"/>
<path d="M25.5454 14.5299C25.5454 15.0506 25.5145 15.5742 25.475 16.0949C25.475 16.1822 25.475 16.2723 25.475 16.3623C25.475 16.5537 25.5848 16.6438 25.7762 16.6157C25.8473 16.6081 25.9173 16.592 25.9845 16.5678L26.5475 16.3595C26.8609 16.2321 27.1825 16.1258 27.5102 16.0414C27.7275 15.981 27.956 15.9723 28.1773 16.0161C28.297 16.0391 28.41 16.0891 28.5077 16.1622C28.6053 16.2353 28.6851 16.3296 28.741 16.4381C28.7968 16.5465 28.8273 16.6662 28.8301 16.7882C28.8329 16.9101 28.8079 17.0311 28.7571 17.142C28.7042 17.2674 28.6299 17.3827 28.5375 17.4826C28.4048 17.6273 28.2556 17.7557 28.0928 17.8654C27.9014 17.9949 27.7072 18.1216 27.513 18.2483L26.5475 18.8844C26.4152 18.9745 26.2857 19.0674 26.159 19.1659C26.0883 19.2202 26.0232 19.2815 25.9648 19.3488C25.9059 19.4118 25.8606 19.4864 25.8321 19.5678C25.8035 19.6492 25.7921 19.7357 25.7987 19.8217C25.8105 19.9934 25.8407 20.1632 25.8888 20.3284C26.0444 20.8579 26.2697 21.3643 26.5587 21.8343C27.0843 22.6955 27.7569 23.4576 28.546 24.0862C29.2166 24.6254 29.9466 25.0863 30.7218 25.4598C30.7922 25.4936 30.8598 25.533 30.9245 25.5696C30.976 25.6 31.0201 25.6413 31.054 25.6906C31.0799 25.7234 31.0954 25.7632 31.0984 25.8048C31.1014 25.8465 31.0918 25.8881 31.0709 25.9243C31.0318 25.9908 30.9802 26.0491 30.9189 26.096C30.8314 26.1661 30.7371 26.2274 30.6374 26.2789C30.1965 26.5125 29.7298 26.6939 29.2469 26.8194C29.0414 26.8729 28.8359 26.932 28.6333 26.9939C28.4921 27.0382 28.3555 27.0957 28.2251 27.1656C28.1208 27.2177 28.0304 27.2939 27.9614 27.3879C27.8924 27.4819 27.8467 27.5909 27.8282 27.706C27.8029 27.8383 27.7888 27.9734 27.7635 28.1086C27.76 28.2446 27.7048 28.3742 27.6091 28.4709C27.5134 28.5677 27.3844 28.6243 27.2484 28.6293C27.131 28.6486 27.0126 28.6608 26.8937 28.6659L26.007 28.7081C25.3376 28.738 24.6751 28.8563 24.0367 29.06C23.765 29.1468 23.5036 29.2629 23.257 29.4062C22.9952 29.5554 22.7362 29.713 22.4773 29.8678C22.0712 30.1248 21.6436 30.3461 21.1993 30.5293C20.7008 30.7211 20.1777 30.8414 19.6456 30.8868C19.1967 30.9261 18.745 30.9205 18.2973 30.8699C17.6289 30.7963 16.98 30.5997 16.3832 30.29C16.1017 30.1465 15.8343 29.986 15.5669 29.8228L14.973 29.4653C14.4997 29.1916 13.9855 28.9959 13.4501 28.8854C12.9627 28.7823 12.4674 28.7211 11.9696 28.7025L11.187 28.6659C11.0389 28.6585 10.8919 28.6369 10.7479 28.6012C10.6538 28.5825 10.5675 28.5356 10.5006 28.4667C10.4337 28.3978 10.3894 28.3102 10.3736 28.2155C10.351 28.1001 10.3313 27.9819 10.3116 27.8665C10.313 27.843 10.313 27.8195 10.3116 27.7961C10.2991 27.6503 10.2468 27.5107 10.1605 27.3926C10.0741 27.2745 9.95698 27.1823 9.82184 27.1262C9.6403 27.0434 9.45195 26.9766 9.25888 26.9263C8.93236 26.8363 8.60304 26.7546 8.28497 26.6449C8.00639 26.5445 7.73546 26.4241 7.4743 26.2845C7.39548 26.2423 7.3223 26.1945 7.2463 26.1438C7.19812 26.1102 7.1529 26.0726 7.11118 26.0312C7.07562 26.0053 7.04734 25.9707 7.02905 25.9307C7.01077 25.8907 7.00308 25.8466 7.00675 25.8028C7.01043 25.7589 7.02535 25.7168 7.05005 25.6804C7.07475 25.644 7.10839 25.6145 7.14777 25.5949C7.2356 25.5323 7.32998 25.4795 7.42925 25.4373C8.10816 25.1088 8.75226 24.7127 9.35178 24.2551C10.206 23.6093 10.9348 22.8127 11.5023 21.9047C11.8082 21.4164 12.0468 20.889 12.2116 20.3368C12.2653 20.1613 12.2965 19.9798 12.3045 19.7964C12.3093 19.7103 12.2963 19.6241 12.2662 19.5432C12.2362 19.4623 12.1898 19.3885 12.13 19.3263C12.0563 19.2493 11.9763 19.1787 11.8907 19.1152C11.643 18.9294 11.3869 18.7605 11.1279 18.5917L10.1427 17.9499C9.97775 17.8446 9.82233 17.7249 9.67829 17.5924C9.57082 17.4951 9.47623 17.3844 9.39681 17.2631C9.32281 17.1439 9.27969 17.0081 9.27134 16.868C9.26298 16.7279 9.28966 16.588 9.34896 16.4609C9.38652 16.3703 9.44244 16.2886 9.51317 16.2208C9.5839 16.1529 9.66792 16.1005 9.75993 16.0668C9.96778 15.9902 10.1926 15.9717 10.4101 16.0133C10.6667 16.0599 10.9184 16.1306 11.1617 16.2244C11.4122 16.3145 11.6599 16.413 11.9104 16.5059C12.0253 16.5546 12.1452 16.5905 12.2679 16.6128C12.2968 16.6171 12.3262 16.6171 12.3552 16.6128C12.4987 16.6128 12.617 16.5622 12.617 16.3708C12.617 16.1794 12.617 16.0499 12.5973 15.8894C12.5349 15.0249 12.5189 14.1576 12.5494 13.2914C12.5678 12.7403 12.6356 12.1921 12.7521 11.6531C12.9182 10.9096 13.2427 10.2107 13.7035 9.60395C14.5389 8.50243 15.7208 7.7142 17.0587 7.36619C17.7982 7.16438 18.5644 7.07797 19.3303 7.11003C20.1379 7.13109 20.9358 7.29106 21.6891 7.58292C22.4079 7.85262 23.0681 8.25777 23.6341 8.7764C24.3547 9.41942 24.8935 10.2407 25.1964 11.1577C25.3319 11.5821 25.4262 12.0185 25.4778 12.461C25.5456 13.1484 25.5682 13.8395 25.5454 14.5299Z" fill="white"/>
</g>
<defs>
<clipPath id="clip0_1637_3734">
<rect width="38" height="38" fill="white"/>
</clipPath>
</defs>
</svg>
