<svg width="38" height="38" viewBox="0 0 38 38" fill="none" xmlns="http://www.w3.org/2000/svg">
<g clip-path="url(#clip0_1637_3745)">
<path d="M19 38C29.4934 38 38 29.4934 38 19C38 8.50659 29.4934 0 19 0C8.50659 0 0 8.50659 0 19C0 29.4934 8.50659 38 19 38Z" fill="#010201"/>
<path d="M13.9268 26.6249L13.9971 26.6868C14.2054 26.8388 14.3574 27.0499 14.5601 27.2103C15.1649 27.7062 15.9126 27.9952 16.6937 28.0351C17.6148 28.084 18.5199 27.7795 19.2241 27.1836C19.9282 26.5877 20.3783 25.7455 20.4825 24.829C20.4825 24.7361 20.4825 24.6432 20.4825 24.5475V7.50101C20.4825 7.11819 20.4825 7.11538 20.8653 7.11538H23.4549C23.5365 7.10053 23.6207 7.11341 23.6942 7.15197H23.711C23.7473 7.19502 23.7699 7.24796 23.7758 7.30397C24.0774 8.79771 24.9383 10.1198 26.1825 10.9998C26.2641 11.0589 26.3288 11.1321 26.4048 11.1912L26.5709 11.332C26.7588 11.4658 26.934 11.6166 27.0945 11.7823C27.7834 12.3589 28.5935 12.7726 29.4645 12.9927C29.5405 13.0124 29.6306 13.0124 29.6869 13.0856C29.6915 13.0868 29.6964 13.0868 29.701 13.0856C29.7399 13.1413 29.7551 13.2101 29.7432 13.277C29.7432 14.2791 29.7432 15.2812 29.7432 16.2832C29.7432 16.5112 29.7122 16.5225 29.4814 16.5225C28.7515 16.5183 28.0244 16.4314 27.314 16.2635C26.0989 15.9818 24.9444 15.4841 23.9053 14.7942C23.849 14.7576 23.7927 14.6816 23.7336 14.7069C23.6745 14.7323 23.697 14.8364 23.697 14.904C23.697 17.7188 23.697 20.5336 23.697 23.3681C23.7148 25.291 23.0291 27.154 21.7688 28.6065C20.4579 30.17 18.5928 31.1656 16.5642 31.3847C14.9864 31.5779 13.3868 31.2956 11.9705 30.574C11.7345 30.4587 11.5102 30.3211 11.3005 30.1631L11.1035 29.9886C10.6275 29.562 10.2302 29.0551 9.92972 28.4911C9.43306 27.6531 9.09973 26.7285 8.94735 25.7663C8.84995 25.2147 8.81408 24.6539 8.84038 24.0943C8.91396 22.3277 9.57239 20.6356 10.7122 19.2838C11.6679 18.1344 12.927 17.2762 14.3462 16.8068C14.9455 16.601 15.569 16.4742 16.2011 16.4296C16.3176 16.4117 16.4352 16.4023 16.553 16.4014C16.61 16.395 16.6674 16.4079 16.7162 16.438C16.7162 16.438 16.7162 16.438 16.7331 16.438C16.7582 16.4946 16.7669 16.557 16.7585 16.6182V19.6694C16.7585 19.706 16.7585 19.7426 16.7585 19.7764C16.7585 19.8806 16.7022 19.9143 16.6036 19.8862C16.3278 19.8116 16.0446 19.7672 15.7592 19.7539C15.3171 19.7306 14.8748 19.7966 14.4588 19.9481C13.0513 20.4632 12.2069 21.4653 12.0352 22.9403C11.8635 24.4152 12.4321 25.5552 13.6425 26.394C13.7297 26.4813 13.8339 26.546 13.9268 26.6249Z" fill="white"/>
<path d="M11.2969 30.1699C11.3504 30.1558 11.3813 30.198 11.4207 30.2234C12.3198 30.7737 13.3183 31.1419 14.3594 31.3071C14.8876 31.3943 15.4235 31.4254 15.9582 31.4C17.7104 31.3371 19.3927 30.6968 20.7434 29.5788C22.0533 28.512 22.9858 27.0526 23.4034 25.4157C23.5413 24.8891 23.6234 24.3494 23.6483 23.8056C23.6652 23.4932 23.6624 23.1807 23.6624 22.8655C23.6624 20.1783 23.6624 17.4901 23.6624 14.801V14.618C23.7327 14.5983 23.7665 14.6518 23.8031 14.6772C24.7524 15.3311 25.8048 15.8211 26.9163 16.1268C27.5297 16.2956 28.1572 16.4087 28.7909 16.4646C29.0584 16.4871 29.3258 16.4843 29.5904 16.504C29.7086 16.504 29.7086 16.504 29.7114 16.3858V13.2529C29.7114 13.1966 29.7114 13.1403 29.7114 13.084C29.9506 13.1121 30.1871 13.1628 30.4292 13.1825C30.5755 13.1825 30.7247 13.205 30.8739 13.2022C30.9471 13.2022 30.9781 13.2247 30.9696 13.3007C30.9696 13.3289 30.9696 13.3598 30.9696 13.3908V17.416C30.9696 17.5314 30.9696 17.5342 30.8458 17.5342C30.4343 17.5328 30.0234 17.5046 29.6157 17.4497C28.7847 17.3426 27.97 17.1347 27.1893 16.8305C26.4414 16.5389 25.7301 16.161 25.0698 15.7046L24.9234 15.6089V15.7947C24.9234 18.6676 24.9234 21.5406 24.9234 24.4136C24.9333 25.9185 24.5113 27.3946 23.7074 28.6668C22.7629 30.2069 21.3196 31.3771 19.6175 31.9826C18.5707 32.3638 17.4545 32.5164 16.3438 32.4302C14.501 32.3099 12.7579 31.5503 11.4151 30.2825C11.3734 30.2474 11.3339 30.2098 11.2969 30.1699Z" fill="#CB1C54"/>
<path d="M23.7007 7.15481H23.5346H20.7564C20.5425 7.15481 20.5425 7.15481 20.5425 7.3631C20.5425 13.019 20.5425 18.673 20.5425 24.3252C20.5543 24.7155 20.503 25.1053 20.3905 25.4792C20.2174 26.1024 19.876 26.6658 19.4038 27.1077C18.9316 27.5496 18.3468 27.853 17.7136 27.9844C16.2583 28.3166 15.0226 27.8747 14.0374 26.7459C14.0217 26.726 14.0085 26.7043 13.998 26.6812C14.2704 26.8006 14.553 26.8948 14.8425 26.9627C15.7576 27.1619 16.7143 26.9952 17.5081 26.4982C17.9613 26.2271 18.3492 25.8596 18.6445 25.4218C18.9398 24.984 19.1351 24.4866 19.2167 23.9649C19.2515 23.7575 19.2666 23.5474 19.2617 23.3372C19.2617 17.67 19.2617 12.0047 19.2617 6.34132C19.2617 6.07955 19.2252 6.11051 19.4869 6.11051H23.498C23.6303 6.11051 23.6332 6.11051 23.6332 6.24843C23.6246 6.55207 23.6473 6.85579 23.7007 7.15481Z" fill="#6ABAC5"/>
<path d="M16.7125 16.4442C15.9172 16.4646 15.1292 16.6012 14.3734 16.8495C13.2885 17.206 12.293 17.7916 11.4544 18.5666C10.3568 19.5704 9.56372 20.8629 9.16596 22.2962C9.01579 22.8138 8.92143 23.3461 8.88448 23.8838C8.86339 24.2062 8.86339 24.5296 8.88448 24.8521C8.92454 25.7436 9.11487 26.622 9.44744 27.4501C9.82193 28.3749 10.3672 29.221 11.0547 29.944C11.0685 29.9597 11.0807 29.9767 11.0913 29.9947C10.9407 29.9195 10.8007 29.8249 10.6747 29.7132C9.39447 28.719 8.44787 27.3581 7.96122 25.8119C7.78905 25.2627 7.67675 24.6964 7.62626 24.123C7.58689 23.7085 7.58124 23.2915 7.60938 22.8761C7.66968 21.9265 7.90141 20.9957 8.29337 20.1288C8.69825 19.2207 9.27129 18.3974 9.98225 17.7024C10.8033 16.8892 11.7931 16.2665 12.8815 15.8784C13.5674 15.6295 14.2845 15.4769 15.0123 15.4252C15.5405 15.3854 16.0713 15.3976 16.5971 15.4618C16.6674 15.4618 16.7097 15.4843 16.7069 15.5688C16.7125 15.8587 16.7125 16.1515 16.7125 16.4442Z" fill="#6ABAC5"/>
<path d="M13.9278 26.6245C13.6138 26.4761 13.3281 26.2741 13.0833 26.0277C12.4564 25.4431 12.0624 24.6511 11.9743 23.7984C11.8786 22.9514 12.0816 22.0976 12.5482 21.3843C13.0148 20.6711 13.7158 20.1431 14.5302 19.8914C15.2006 19.6834 15.9165 19.6717 16.5934 19.8576C16.6304 19.8744 16.6714 19.8802 16.7116 19.8745C16.7242 19.8189 16.7242 19.7612 16.7116 19.7056C16.7116 18.6773 16.7116 17.6499 16.7116 16.6234C16.7116 16.5671 16.7116 16.5108 16.7116 16.4545C17.1065 16.4357 17.5023 16.4536 17.8939 16.508C17.9558 16.508 17.9727 16.5418 17.9727 16.5981C17.9727 16.6544 17.9727 16.6572 17.9727 16.6882C17.9727 18.0505 17.9727 19.4129 17.9727 20.7753C17.9817 20.8274 17.9759 20.8811 17.9558 20.9301C17.7756 20.8963 17.5983 20.8428 17.4182 20.8175C16.9192 20.7374 16.409 20.7632 15.9207 20.8932C15.4323 21.0231 14.9768 21.2544 14.5836 21.5719C13.8661 22.1232 13.3883 22.9295 13.2494 23.8237C13.1662 24.2901 13.1763 24.7683 13.2792 25.2307C13.3822 25.6931 13.5758 26.1305 13.849 26.5175C13.8775 26.5514 13.9038 26.5872 13.9278 26.6245Z" fill="#CB1C54"/>
<path d="M26.406 11.1863C26.0163 10.9532 25.6595 10.6692 25.3448 10.3418C24.5014 9.48375 23.9347 8.39246 23.7179 7.20895C23.7164 7.19868 23.7164 7.18825 23.7179 7.17798C24.0866 7.15546 24.4553 7.17798 24.8269 7.17798C24.8916 7.17798 24.9198 7.20331 24.9142 7.26805C24.9128 7.29431 24.9128 7.32062 24.9142 7.34688C24.9105 8.35859 25.1851 9.35182 25.7079 10.218C25.8903 10.5341 26.1013 10.8328 26.3385 11.1103C26.3722 11.1187 26.4004 11.1412 26.406 11.1863Z" fill="#CB1C54"/>
<path d="M29.6883 13.0811C28.6529 12.8644 27.6928 12.379 26.9044 11.6737C26.7813 11.5741 26.6698 11.4607 26.5723 11.3359C26.6086 11.3375 26.6434 11.3514 26.6708 11.3753C27.3036 11.7359 27.9956 11.9808 28.7143 12.0988C28.9933 12.1464 29.2758 12.1708 29.5588 12.1719C29.6798 12.1719 29.6826 12.1719 29.6826 12.2902C29.6939 12.5491 29.6911 12.8137 29.6883 13.0811Z" fill="#6ABAC5"/>
</g>
<defs>
<clipPath id="clip0_1637_3745">
<rect width="38" height="38" fill="white"/>
</clipPath>
</defs>
</svg>
