<svg width="38" height="38" viewBox="0 0 38 38" fill="none" xmlns="http://www.w3.org/2000/svg">
<g clip-path="url(#clip0_1637_3725)">
<path d="M32.2957 0H5.70434C2.55392 0 0 2.55392 0 5.70434V32.2957C0 35.4461 2.55392 38 5.70434 38H32.2957C35.4461 38 38 35.4461 38 32.2957V5.70434C38 2.55392 35.4461 0 32.2957 0Z" fill="black"/>
<path d="M24.6073 27.7669H26.6473L13.4822 10.1156H11.3004L24.6073 27.7669ZM25.8989 8H29.5796L21.5396 17.3129L31 30H23.5818L17.7825 22.3069L11.1455 30H7.47127L16.0698 20.0332L7 8H14.5927L19.8291 15.0306L25.8989 8Z" fill="white"/>
</g>
<defs>
<clipPath id="clip0_1637_3725">
<rect width="38" height="38" fill="white"/>
</clipPath>
</defs>
</svg>
