<svg width="38" height="38" viewBox="0 0 38 38" fill="none" xmlns="http://www.w3.org/2000/svg">
<g clip-path="url(#clip0_1637_3681)">
<path d="M28.4466 0H9.55344C4.27722 0 0 4.27722 0 9.55344V28.4466C0 33.7228 4.27722 38 9.55344 38H28.4466C33.7228 38 38 33.7228 38 28.4466V9.55344C38 4.27722 33.7228 0 28.4466 0Z" fill="#E52D27"/>
<path fill-rule="evenodd" clip-rule="evenodd" d="M29.2366 14.8861C29.2373 14.4832 29.1587 14.0842 29.0051 13.7118C28.8514 13.3394 28.6259 13.001 28.3413 12.7159C28.0567 12.4307 27.7187 12.2045 27.3466 12.0502C26.9745 11.8958 26.5757 11.8164 26.1728 11.8164H11.8041C10.9899 11.8164 10.2091 12.1398 9.63347 12.7155C9.05779 13.2912 8.73438 14.072 8.73438 14.8861V23.1155C8.73595 23.9286 9.06005 24.7078 9.63556 25.2822C10.2111 25.8566 10.991 26.1792 11.8041 26.1792H26.1966C27.005 26.173 27.7782 25.8474 28.3476 25.2735C28.9171 24.6996 29.2366 23.9239 29.2366 23.1155V14.8861ZM16.9459 22.4683V14.7495L22.8063 18.6089L16.9459 22.4683Z" fill="white"/>
</g>
<defs>
<clipPath id="clip0_1637_3681">
<rect width="38" height="38" fill="white"/>
</clipPath>
</defs>
</svg>
